<svg width="598" height="490" viewBox="0 0 598 490" fill="none" xmlns="http://www.w3.org/2000/svg">
<circle cx="531.601" cy="56.1229" r="14.2537" fill="#E1E0E0"/>
<circle cx="479.947" cy="97.992" r="14.2537" fill="#E1E0E0"/>
<circle cx="531.601" cy="97.992" r="14.2537" fill="#E1E0E0"/>
<circle cx="324.895" cy="432.949" r="14.2537" fill="#E1E0E0"/>
<circle cx="376.607" cy="432.949" r="14.2537" fill="#E1E0E0"/>
<circle cx="428.248" cy="432.949" r="14.2537" fill="#E1E0E0"/>
<circle cx="479.947" cy="432.949" r="14.2537" fill="#E1E0E0"/>
<circle cx="531.601" cy="432.949" r="14.2537" fill="#E1E0E0"/>
<circle cx="273.254" cy="432.949" r="14.2537" fill="#E1E0E0"/>
<circle cx="324.895" cy="474.816" r="14.2537" fill="#E1E0E0"/>
<circle cx="376.607" cy="474.816" r="14.2537" fill="#E1E0E0"/>
<circle cx="428.248" cy="474.816" r="14.2537" fill="#E1E0E0"/>
<circle cx="479.947" cy="474.816" r="14.2537" fill="#E1E0E0"/>
<circle cx="531.601" cy="474.816" r="14.2537" fill="#E1E0E0"/>
<circle cx="273.254" cy="474.816" r="14.2537" fill="#E1E0E0"/>
<circle cx="324.895" cy="391.08" r="14.2537" fill="#E1E0E0"/>
<circle cx="376.607" cy="391.08" r="14.2537" fill="#E1E0E0"/>
<circle cx="428.248" cy="391.08" r="14.2537" fill="#E1E0E0"/>
<circle cx="479.947" cy="391.08" r="14.2537" fill="#E1E0E0"/>
<circle cx="531.601" cy="391.08" r="14.2537" fill="#E1E0E0"/>
<circle cx="273.254" cy="391.08" r="14.2537" fill="#E1E0E0"/>
<circle cx="324.895" cy="307.34" r="14.2537" fill="#E1E0E0"/>
<circle cx="376.607" cy="307.34" r="14.2537" fill="#E1E0E0"/>
<circle cx="428.248" cy="307.34" r="14.2537" fill="#E1E0E0"/>
<circle cx="479.947" cy="307.34" r="14.2537" fill="#E1E0E0"/>
<circle cx="531.601" cy="307.34" r="14.2537" fill="#E1E0E0"/>
<circle cx="273.254" cy="307.34" r="14.2537" fill="#E1E0E0"/>
<circle cx="324.895" cy="349.209" r="14.2537" fill="#E1E0E0"/>
<circle cx="376.607" cy="349.209" r="14.2537" fill="#E1E0E0"/>
<circle cx="428.248" cy="349.209" r="14.2537" fill="#E1E0E0"/>
<circle cx="479.947" cy="349.209" r="14.2537" fill="#E1E0E0"/>
<circle cx="531.601" cy="349.209" r="14.2537" fill="#E1E0E0"/>
<circle cx="273.254" cy="349.209" r="14.2537" fill="#E1E0E0"/>
<circle cx="324.895" cy="265.471" r="14.2537" fill="#E1E0E0"/>
<circle cx="376.607" cy="265.471" r="14.2537" fill="#E1E0E0"/>
<circle cx="428.248" cy="265.471" r="14.2537" fill="#E1E0E0"/>
<circle cx="479.947" cy="265.471" r="14.2537" fill="#E1E0E0"/>
<circle cx="531.601" cy="265.471" r="14.2537" fill="#E1E0E0"/>
<circle cx="273.254" cy="265.471" r="14.2537" fill="#E1E0E0"/>
<circle cx="376.607" cy="181.73" r="14.2537" fill="#E1E0E0"/>
<circle cx="428.248" cy="181.73" r="14.2537" fill="#E1E0E0"/>
<circle cx="479.947" cy="181.73" r="14.2537" fill="#E1E0E0"/>
<circle cx="531.601" cy="181.73" r="14.2537" fill="#E1E0E0"/>
<circle cx="324.895" cy="223.6" r="14.2537" fill="#E1E0E0"/>
<circle cx="376.607" cy="223.6" r="14.2537" fill="#E1E0E0"/>
<circle cx="428.248" cy="223.6" r="14.2537" fill="#E1E0E0"/>
<circle cx="479.947" cy="223.6" r="14.2537" fill="#E1E0E0"/>
<circle cx="531.601" cy="223.6" r="14.2537" fill="#E1E0E0"/>
<circle cx="428.248" cy="139.861" r="14.2537" fill="#E1E0E0"/>
<circle cx="479.947" cy="139.861" r="14.2537" fill="#E1E0E0"/>
<circle cx="531.601" cy="139.861" r="14.2537" fill="#E1E0E0"/>
<circle cx="583.265" cy="56.1229" r="14.2537" fill="#E1E0E0"/>
<circle cx="583.265" cy="97.992" r="14.2537" fill="#E1E0E0"/>
<circle cx="583.265" cy="14.2537" r="14.2537" fill="#E1E0E0"/>
<circle cx="66.2537" cy="432.949" r="14.2537" fill="#E1E0E0"/>
<circle cx="117.894" cy="432.949" r="14.2537" fill="#E1E0E0"/>
<circle cx="169.595" cy="432.949" r="14.2537" fill="#E1E0E0"/>
<circle cx="221.248" cy="432.949" r="14.2537" fill="#E1E0E0"/>
<circle cx="66.2537" cy="474.816" r="14.2537" fill="#E1E0E0"/>
<circle cx="14.2537" cy="474.385" r="14.2537" fill="#E1E0E0"/>
<circle cx="117.894" cy="474.816" r="14.2537" fill="#E1E0E0"/>
<circle cx="169.595" cy="474.816" r="14.2537" fill="#E1E0E0"/>
<circle cx="221.248" cy="474.816" r="14.2537" fill="#E1E0E0"/>
<circle cx="117.894" cy="391.08" r="14.2537" fill="#E1E0E0"/>
<circle cx="169.595" cy="391.08" r="14.2537" fill="#E1E0E0"/>
<circle cx="221.248" cy="391.08" r="14.2537" fill="#E1E0E0"/>
<circle cx="221.248" cy="307.34" r="14.2537" fill="#E1E0E0"/>
<circle cx="169.595" cy="349.209" r="14.2537" fill="#E1E0E0"/>
<circle cx="221.248" cy="349.209" r="14.2537" fill="#E1E0E0"/>
<circle cx="583.265" cy="432.949" r="14.2537" fill="#E1E0E0"/>
<circle cx="583.265" cy="474.816" r="14.2537" fill="#E1E0E0"/>
<circle cx="583.265" cy="391.08" r="14.2537" fill="#E1E0E0"/>
<circle cx="583.265" cy="307.34" r="14.2537" fill="#E1E0E0"/>
<circle cx="583.265" cy="349.209" r="14.2537" fill="#E1E0E0"/>
<circle cx="583.265" cy="265.471" r="14.2537" fill="#E1E0E0"/>
<circle cx="583.265" cy="181.73" r="14.2537" fill="#E1E0E0"/>
<circle cx="583.265" cy="223.6" r="14.2537" fill="#E1E0E0"/>
<circle cx="583.265" cy="139.861" r="14.2537" fill="#E1E0E0"/>
</svg>
