<svg width="848" height="1370" viewBox="0 0 848 1370" fill="none" xmlns="http://www.w3.org/2000/svg">
<circle cx="164.427" cy="251.375" r="34.6507" fill="#FFF6F6"/>
<circle cx="294.22" cy="251.375" r="34.6507" fill="#FFF6F6"/>
<circle cx="423.995" cy="251.375" r="34.6507" fill="#FFF6F6"/>
<circle cx="553.783" cy="251.375" r="34.6507" fill="#FFF6F6"/>
<circle cx="683.563" cy="251.375" r="34.6507" fill="#FFF6F6"/>
<circle cx="34.6507" cy="251.427" r="34.6507" fill="#FFF6F6"/>
<circle cx="164.427" cy="359.737" r="34.6507" fill="#FFF6F6"/>
<circle cx="294.22" cy="359.737" r="34.6507" fill="#FFF6F6"/>
<circle cx="423.995" cy="359.737" r="34.6507" fill="#FFF6F6"/>
<circle cx="553.783" cy="359.737" r="34.6507" fill="#FFF6F6"/>
<circle cx="683.563" cy="359.737" r="34.6507" fill="#FFF6F6"/>
<circle cx="34.6507" cy="359.789" r="34.6507" fill="#FFF6F6"/>
<circle cx="164.427" cy="143.013" r="34.6507" fill="#FFF6F6"/>
<circle cx="294.22" cy="143.013" r="34.6507" fill="#FFF6F6"/>
<circle cx="423.995" cy="143.013" r="34.6507" fill="#FFF6F6"/>
<circle cx="553.783" cy="143.013" r="34.6507" fill="#FFF6F6"/>
<circle cx="683.563" cy="143.013" r="34.6507" fill="#FFF6F6"/>
<circle cx="34.6507" cy="143.065" r="34.6507" fill="#FFF6F6"/>
<circle cx="164.427" cy="1226.63" r="34.6507" fill="#FFF6F6"/>
<circle cx="294.22" cy="1226.63" r="34.6507" fill="#FFF6F6"/>
<circle cx="423.995" cy="1226.63" r="34.6507" fill="#FFF6F6"/>
<circle cx="553.783" cy="1226.63" r="34.6507" fill="#FFF6F6"/>
<circle cx="683.563" cy="1226.63" r="34.6507" fill="#FFF6F6"/>
<circle cx="34.6507" cy="1226.69" r="34.6507" fill="#FFF6F6"/>
<circle cx="164.427" cy="1335" r="34.6507" fill="#FFF6F6"/>
<circle cx="294.22" cy="1335" r="34.6507" fill="#FFF6F6"/>
<circle cx="423.995" cy="1335" r="34.6507" fill="#FFF6F6"/>
<circle cx="553.783" cy="1335" r="34.6507" fill="#FFF6F6"/>
<circle cx="683.563" cy="1335" r="34.6507" fill="#FFF6F6"/>
<circle cx="34.6507" cy="1335.05" r="34.6507" fill="#FFF6F6"/>
<circle cx="164.427" cy="1118.27" r="34.6507" fill="#FFF6F6"/>
<circle cx="294.22" cy="1118.27" r="34.6507" fill="#FFF6F6"/>
<circle cx="423.995" cy="1118.27" r="34.6507" fill="#FFF6F6"/>
<circle cx="553.783" cy="1118.27" r="34.6507" fill="#FFF6F6"/>
<circle cx="683.563" cy="1118.27" r="34.6507" fill="#FFF6F6"/>
<circle cx="34.6507" cy="1118.33" r="34.6507" fill="#FFF6F6"/>
<circle cx="164.427" cy="901.548" r="34.6507" fill="#FFF6F6"/>
<circle cx="294.22" cy="901.548" r="34.6507" fill="#FFF6F6"/>
<circle cx="423.995" cy="901.548" r="34.6507" fill="#FFF6F6"/>
<circle cx="553.783" cy="901.548" r="34.6507" fill="#FFF6F6"/>
<circle cx="683.563" cy="901.548" r="34.6507" fill="#FFF6F6"/>
<circle cx="34.6507" cy="901.6" r="34.6507" fill="#FFF6F6"/>
<circle cx="164.427" cy="1009.91" r="34.6507" fill="#FFF6F6"/>
<circle cx="294.22" cy="1009.91" r="34.6507" fill="#FFF6F6"/>
<circle cx="423.995" cy="1009.91" r="34.6507" fill="#FFF6F6"/>
<circle cx="553.783" cy="1009.91" r="34.6507" fill="#FFF6F6"/>
<circle cx="683.563" cy="1009.91" r="34.6507" fill="#FFF6F6"/>
<circle cx="34.6507" cy="1009.96" r="34.6507" fill="#FFF6F6"/>
<circle cx="164.427" cy="793.186" r="34.6507" fill="#FFF6F6"/>
<circle cx="294.22" cy="793.186" r="34.6507" fill="#FFF6F6"/>
<circle cx="423.995" cy="793.186" r="34.6507" fill="#FFF6F6"/>
<circle cx="553.783" cy="793.186" r="34.6507" fill="#FFF6F6"/>
<circle cx="683.563" cy="793.186" r="34.6507" fill="#FFF6F6"/>
<circle cx="34.6507" cy="793.238" r="34.6507" fill="#FFF6F6"/>
<circle cx="164.427" cy="576.461" r="34.6507" fill="#FFF6F6"/>
<circle cx="294.22" cy="576.461" r="34.6507" fill="#FFF6F6"/>
<circle cx="423.995" cy="576.461" r="34.6507" fill="#FFF6F6"/>
<circle cx="553.783" cy="576.461" r="34.6507" fill="#FFF6F6"/>
<circle cx="683.563" cy="576.461" r="34.6507" fill="#FFF6F6"/>
<circle cx="34.6507" cy="576.513" r="34.6507" fill="#FFF6F6"/>
<circle cx="164.427" cy="684.824" r="34.6507" fill="#FFF6F6"/>
<circle cx="294.22" cy="684.824" r="34.6507" fill="#FFF6F6"/>
<circle cx="423.995" cy="684.824" r="34.6507" fill="#FFF6F6"/>
<circle cx="553.783" cy="684.824" r="34.6507" fill="#FFF6F6"/>
<circle cx="683.563" cy="684.824" r="34.6507" fill="#FFF6F6"/>
<circle cx="34.6507" cy="684.876" r="34.6507" fill="#FFF6F6"/>
<circle cx="164.427" cy="468.099" r="34.6507" fill="#FFF6F6"/>
<circle cx="294.22" cy="468.099" r="34.6507" fill="#FFF6F6"/>
<circle cx="423.995" cy="468.099" r="34.6507" fill="#FFF6F6"/>
<circle cx="553.783" cy="468.099" r="34.6507" fill="#FFF6F6"/>
<circle cx="683.563" cy="468.099" r="34.6507" fill="#FFF6F6"/>
<circle cx="813.349" cy="251.375" r="34.6507" fill="#FFF6F6"/>
<circle cx="813.349" cy="359.737" r="34.6507" fill="#FFF6F6"/>
<circle cx="813.349" cy="143.013" r="34.6507" fill="#FFF6F6"/>
<circle cx="164.427" cy="34.6507" r="34.6507" fill="#FFF6F6"/>
<circle cx="294.22" cy="34.6507" r="34.6507" fill="#FFF6F6"/>
<circle cx="553.783" cy="34.6507" r="34.6507" fill="#FFF6F6"/>
<circle cx="423.995" cy="34.6507" r="34.6507" fill="#FFF6F6"/>
<circle cx="683.563" cy="34.6507" r="34.6507" fill="#FFF6F6"/>
<circle cx="34.6507" cy="34.6933" r="34.6507" fill="#FFF6F6"/>
<circle cx="813.349" cy="34.6507" r="34.6507" fill="#FFF6F6"/>
<circle cx="813.349" cy="1226.63" r="34.6507" fill="#FFF6F6"/>
<circle cx="813.349" cy="1335" r="34.6507" fill="#FFF6F6"/>
<circle cx="813.349" cy="1118.27" r="34.6507" fill="#FFF6F6"/>
<circle cx="813.349" cy="901.548" r="34.6507" fill="#FFF6F6"/>
<circle cx="813.349" cy="1009.91" r="34.6507" fill="#FFF6F6"/>
<circle cx="813.349" cy="793.186" r="34.6507" fill="#FFF6F6"/>
<circle cx="813.349" cy="576.461" r="34.6507" fill="#FFF6F6"/>
<circle cx="813.349" cy="684.824" r="34.6507" fill="#FFF6F6"/>
<circle cx="813.349" cy="468.099" r="34.6507" fill="#FFF6F6"/>
<circle cx="34.6507" cy="468.152" r="34.6507" fill="#FFF6F6"/>
</svg>
