<svg width="216" height="54" viewBox="0 0 216 54" fill="none" xmlns="http://www.w3.org/2000/svg">
<path d="M0 0H216V54H0V0Z" fill="url(#paint0_linear)"/>
<circle cx="60" cy="33" r="11" fill="#ECECEC"/>
<circle cx="91" cy="13" r="11" fill="#ECECEC"/>
<circle cx="140" cy="22" r="11" fill="#ECECEC"/>
<circle cx="199" cy="35" r="11" fill="#ECECEC"/>
<circle cx="176" cy="11" r="11" fill="#ECECEC"/>
<circle cx="11.5" cy="3.5" r="3.5" fill="#ECECEC"/>
<circle cx="37.5" cy="45.5" r="3.5" fill="#ECECEC"/>
<circle cx="43.5" cy="31.5" r="3.5" fill="#ECECEC"/>
<circle cx="85.5" cy="40.5" r="3.5" fill="#ECECEC"/>
<circle cx="119.5" cy="18.5" r="3.5" fill="#ECECEC"/>
<circle cx="111.5" cy="41.5" r="3.5" fill="#ECECEC"/>
<circle cx="160.5" cy="29.5" r="3.5" fill="#ECECEC"/>
<circle cx="180.5" cy="39.5" r="3.5" fill="#ECECEC"/>
<circle cx="150.5" cy="44.5" r="8.5" fill="#ECECEC"/>
<circle cx="92.5" cy="43.5" r="1.5" fill="#ECECEC"/>
<circle cx="70.5" cy="14.5" r="1.5" fill="#ECECEC"/>
<circle cx="9.5" cy="23.5" r="1.5" fill="#ECECEC"/>
<circle cx="100.5" cy="27.5" r="1.5" fill="#ECECEC"/>
<circle cx="181.5" cy="26.5" r="1.5" fill="#ECECEC"/>
<circle cx="209.5" cy="5.5" r="1.5" fill="#ECECEC"/>
<circle cx="206.5" cy="52.5" r="1.5" fill="#ECECEC"/>
<circle cx="151.5" cy="7.5" r="1.5" fill="#ECECEC"/>
<circle cx="136.5" cy="35.5" r="1.5" fill="#ECECEC"/>
<circle cx="137.5" cy="44.5" r="1.5" fill="#ECECEC"/>
<circle cx="121" cy="30" r="6" fill="#ECECEC"/>
<circle cx="23" cy="15" r="6" fill="#ECECEC"/>
<circle cx="48" cy="11" r="6" fill="#ECECEC"/>
<circle cx="211.5" cy="19.5" r="3.5" fill="#ECECEC"/>
<circle cx="197.5" cy="14.5" r="3.5" fill="#ECECEC"/>
<circle cx="18" cy="41" r="11" fill="#ECECEC"/>
<defs>
<linearGradient id="paint0_linear" x1="108" y1="0" x2="108" y2="54" gradientUnits="userSpaceOnUse">
<stop stop-color="#FAFAFA"/>
<stop offset="0.569102" stop-color="#F4F4F4"/>
<stop offset="1" stop-color="white" stop-opacity="0"/>
</linearGradient>
</defs>
</svg>
