<svg width="79" height="124" viewBox="0 0 79 124" fill="none" xmlns="http://www.w3.org/2000/svg">
<circle cx="15.2733" cy="23.1381" r="3.30385" fill="#7B7B7B"/>
<circle cx="27.2594" cy="23.1381" r="3.30385" fill="#7B7B7B"/>
<circle cx="39.2296" cy="23.1381" r="3.30385" fill="#7B7B7B"/>
<circle cx="51.2123" cy="23.1381" r="3.30385" fill="#7B7B7B"/>
<circle cx="63.185" cy="23.1381" r="3.30385" fill="#7B7B7B"/>
<circle cx="3.30385" cy="23.1381" r="3.30385" fill="#7B7B7B"/>
<circle cx="15.2733" cy="32.8428" r="3.30385" fill="#7B7B7B"/>
<circle cx="27.2594" cy="32.8428" r="3.30385" fill="#7B7B7B"/>
<circle cx="39.2296" cy="32.8428" r="3.30385" fill="#7B7B7B"/>
<circle cx="51.2123" cy="32.8428" r="3.30385" fill="#7B7B7B"/>
<circle cx="63.185" cy="32.8428" r="3.30385" fill="#7B7B7B"/>
<circle cx="3.30385" cy="32.8428" r="3.30385" fill="#7B7B7B"/>
<circle cx="15.2733" cy="13.4333" r="3.30385" fill="#7B7B7B"/>
<circle cx="27.2594" cy="13.4333" r="3.30385" fill="#7B7B7B"/>
<circle cx="39.2296" cy="13.4333" r="3.30385" fill="#7B7B7B"/>
<circle cx="51.2123" cy="13.4333" r="3.30385" fill="#7B7B7B"/>
<circle cx="63.185" cy="13.4333" r="3.30385" fill="#7B7B7B"/>
<circle cx="3.30385" cy="13.4333" r="3.30385" fill="#7B7B7B"/>
<circle cx="15.2733" cy="110.482" r="3.30385" fill="#7B7B7B"/>
<circle cx="27.2594" cy="110.482" r="3.30385" fill="#7B7B7B"/>
<circle cx="39.2296" cy="110.482" r="3.30385" fill="#7B7B7B"/>
<circle cx="51.2123" cy="110.482" r="3.30385" fill="#7B7B7B"/>
<circle cx="63.185" cy="110.482" r="3.30385" fill="#7B7B7B"/>
<circle cx="3.30385" cy="110.482" r="3.30385" fill="#7B7B7B"/>
<circle cx="15.2733" cy="120.187" r="3.30385" fill="#7B7B7B"/>
<circle cx="27.2594" cy="120.187" r="3.30385" fill="#7B7B7B"/>
<circle cx="39.2296" cy="120.187" r="3.30385" fill="#7B7B7B"/>
<circle cx="51.2123" cy="120.187" r="3.30385" fill="#7B7B7B"/>
<circle cx="63.185" cy="120.187" r="3.30385" fill="#7B7B7B"/>
<circle cx="3.30385" cy="120.187" r="3.30385" fill="#7B7B7B"/>
<circle cx="15.2733" cy="100.777" r="3.30385" fill="#7B7B7B"/>
<circle cx="27.2594" cy="100.777" r="3.30385" fill="#7B7B7B"/>
<circle cx="39.2296" cy="100.777" r="3.30385" fill="#7B7B7B"/>
<circle cx="51.2123" cy="100.777" r="3.30385" fill="#7B7B7B"/>
<circle cx="63.185" cy="100.777" r="3.30385" fill="#7B7B7B"/>
<circle cx="3.30385" cy="100.777" r="3.30385" fill="#7B7B7B"/>
<circle cx="15.2733" cy="81.3672" r="3.30385" fill="#7B7B7B"/>
<circle cx="27.2594" cy="81.3672" r="3.30385" fill="#7B7B7B"/>
<circle cx="39.2296" cy="81.3672" r="3.30385" fill="#7B7B7B"/>
<circle cx="51.2123" cy="81.3672" r="3.30385" fill="#7B7B7B"/>
<circle cx="63.185" cy="81.3672" r="3.30385" fill="#7B7B7B"/>
<circle cx="3.30385" cy="81.3672" r="3.30385" fill="#7B7B7B"/>
<circle cx="15.2733" cy="91.072" r="3.30385" fill="#7B7B7B"/>
<circle cx="27.2594" cy="91.072" r="3.30385" fill="#7B7B7B"/>
<circle cx="39.2296" cy="91.072" r="3.30385" fill="#7B7B7B"/>
<circle cx="51.2123" cy="91.072" r="3.30385" fill="#7B7B7B"/>
<circle cx="63.185" cy="91.072" r="3.30385" fill="#7B7B7B"/>
<circle cx="3.30385" cy="91.072" r="3.30385" fill="#7B7B7B"/>
<circle cx="15.2733" cy="71.6624" r="3.30385" fill="#7B7B7B"/>
<circle cx="27.2594" cy="71.6624" r="3.30385" fill="#7B7B7B"/>
<circle cx="39.2296" cy="71.6624" r="3.30385" fill="#7B7B7B"/>
<circle cx="51.2123" cy="71.6624" r="3.30385" fill="#7B7B7B"/>
<circle cx="63.185" cy="71.6624" r="3.30385" fill="#7B7B7B"/>
<circle cx="3.30385" cy="71.6624" r="3.30385" fill="#7B7B7B"/>
<circle cx="15.2733" cy="52.2524" r="3.30385" fill="#7B7B7B"/>
<circle cx="27.2594" cy="52.2524" r="3.30385" fill="#7B7B7B"/>
<circle cx="39.2296" cy="52.2524" r="3.30385" fill="#7B7B7B"/>
<circle cx="51.2123" cy="52.2524" r="3.30385" fill="#7B7B7B"/>
<circle cx="63.185" cy="52.2524" r="3.30385" fill="#7B7B7B"/>
<circle cx="3.30385" cy="52.2524" r="3.30385" fill="#7B7B7B"/>
<circle cx="15.2733" cy="61.9574" r="3.30385" fill="#7B7B7B"/>
<circle cx="27.2594" cy="61.9574" r="3.30385" fill="#7B7B7B"/>
<circle cx="39.2296" cy="61.9574" r="3.30385" fill="#7B7B7B"/>
<circle cx="51.2123" cy="61.9574" r="3.30385" fill="#7B7B7B"/>
<circle cx="63.185" cy="61.9574" r="3.30385" fill="#7B7B7B"/>
<circle cx="3.30385" cy="61.9574" r="3.30385" fill="#7B7B7B"/>
<circle cx="15.2733" cy="42.5476" r="3.30385" fill="#7B7B7B"/>
<circle cx="27.2594" cy="42.5476" r="3.30385" fill="#7B7B7B"/>
<circle cx="39.2296" cy="42.5476" r="3.30385" fill="#7B7B7B"/>
<circle cx="51.2123" cy="42.5476" r="3.30385" fill="#7B7B7B"/>
<circle cx="63.185" cy="42.5476" r="3.30385" fill="#7B7B7B"/>
<circle cx="75.161" cy="23.1381" r="3.30385" fill="#7B7B7B"/>
<circle cx="75.161" cy="32.8428" r="3.30385" fill="#7B7B7B"/>
<circle cx="75.161" cy="13.4333" r="3.30385" fill="#7B7B7B"/>
<circle cx="15.2733" cy="3.72847" r="3.30385" fill="#7B7B7B"/>
<circle cx="27.2594" cy="3.72847" r="3.30385" fill="#7B7B7B"/>
<circle cx="51.2123" cy="3.72847" r="3.30385" fill="#7B7B7B"/>
<circle cx="39.2296" cy="3.72847" r="3.30385" fill="#7B7B7B"/>
<circle cx="63.185" cy="3.72847" r="3.30385" fill="#7B7B7B"/>
<circle cx="3.30385" cy="3.73201" r="3.30385" fill="#7B7B7B"/>
<circle cx="75.161" cy="3.72847" r="3.30385" fill="#7B7B7B"/>
<circle cx="75.161" cy="110.482" r="3.30385" fill="#7B7B7B"/>
<circle cx="75.161" cy="120.187" r="3.30385" fill="#7B7B7B"/>
<circle cx="75.161" cy="100.777" r="3.30385" fill="#7B7B7B"/>
<circle cx="75.161" cy="81.3672" r="3.30385" fill="#7B7B7B"/>
<circle cx="75.161" cy="91.072" r="3.30385" fill="#7B7B7B"/>
<circle cx="75.161" cy="71.6624" r="3.30385" fill="#7B7B7B"/>
<circle cx="75.161" cy="52.2524" r="3.30385" fill="#7B7B7B"/>
<circle cx="75.161" cy="61.9574" r="3.30385" fill="#7B7B7B"/>
<circle cx="75.161" cy="42.5476" r="3.30385" fill="#7B7B7B"/>
<circle cx="3.30385" cy="42.5476" r="3.30385" fill="#7B7B7B"/>
</svg>
