<svg width="122" height="117" viewBox="0 0 122 117" fill="none" xmlns="http://www.w3.org/2000/svg">
<path fill-rule="evenodd" clip-rule="evenodd" d="M33.8792 17.3248C33.8792 16.9405 33.8792 16.6204 33.8472 16.2682C33.8472 16.076 33.8472 15.9159 34.1033 15.8519C34.8717 15.6598 35.6082 15.4677 36.3446 15.2756C36.5047 15.2436 36.6327 15.3076 36.6968 15.4677C37.1771 16.5243 37.9455 17.3568 38.9701 17.9011C39.6104 18.2213 40.2828 18.4134 41.0192 18.3814C42.5241 18.3493 43.7408 17.677 44.7334 16.5563C44.8614 16.4282 44.9895 16.3962 45.1176 16.4603C45.822 16.8765 46.5264 17.2927 47.2308 17.741C47.4229 17.8691 47.2948 18.0292 47.2628 18.1572C47.0387 18.7976 46.9106 19.438 47.0067 20.1103C47.1668 21.6152 48.0312 22.6718 49.1839 23.5043C49.7282 23.9205 50.3686 24.1767 51.073 24.2087C51.2971 24.2407 51.5212 24.2087 51.7774 24.2087C51.8414 24.2087 51.9695 24.3047 51.9695 24.3688C52.1936 25.0732 52.3537 25.7776 52.5458 26.482C52.5458 26.546 52.5778 26.578 52.6099 26.6421C52.6419 26.8342 52.6099 26.9622 52.4177 27.0583C51.2971 27.5386 50.3686 28.275 49.8563 29.4277C49.6322 29.9399 49.5041 30.5163 49.5361 31.0926C49.5681 31.733 49.7602 32.3093 50.0484 32.8856C50.3686 33.494 50.8168 34.0063 51.3611 34.4225C51.5212 34.5506 51.5853 34.6786 51.4892 34.8067C51.073 35.5111 50.6567 36.2155 50.2405 36.8879C50.2085 36.9519 50.0804 36.984 49.9844 36.984C49.7602 36.9519 49.5361 36.8239 49.28 36.7919C48.2874 36.6318 47.3589 36.8239 46.4944 37.3362C45.6939 37.7844 45.0215 38.3287 44.5413 39.0972C44.093 39.8656 43.9329 40.6981 43.9969 41.5946C44.029 41.9148 43.9969 42.0108 43.6768 42.1069C42.9724 42.299 42.2359 42.4911 41.4995 42.6832C41.3394 42.7152 41.2114 42.6832 41.1153 42.4911C40.635 41.4345 39.8666 40.602 38.842 40.0577C38.2657 39.7375 37.6253 39.5454 36.9849 39.5454C35.4161 39.5454 34.1353 40.1858 33.1107 41.3705C32.9506 41.5626 32.8226 41.5306 32.6625 41.4345C32.0541 41.0823 31.4138 40.7301 30.8054 40.3459C30.4852 40.1538 30.5173 40.0897 30.6133 39.7055C30.7734 39.1292 30.8695 38.5529 30.8695 37.9765C30.8374 37.016 30.3892 36.1835 29.7808 35.4471C28.8523 34.3585 27.6356 33.9102 26.2268 34.0383C26.0027 34.0703 25.8426 34.0063 25.7786 33.7501C25.5864 33.0137 25.3943 32.2773 25.2022 31.5409C25.1702 31.3808 25.2022 31.2527 25.3943 31.1566C26.483 30.6764 27.2834 29.9079 27.8597 28.8513C28.1479 28.307 28.34 27.6987 28.34 27.0583C28.34 25.8736 27.8597 24.849 27.0593 24.0166C26.8672 23.8245 26.643 23.6323 26.4509 23.4402C26.3229 23.3442 26.2908 23.1841 26.3869 23.056C26.8031 22.3836 27.2194 21.6792 27.6036 21.0069C27.6996 20.8468 27.7957 20.8468 27.9238 20.9108C28.1479 20.9748 28.34 21.0709 28.5641 21.1029C29.8129 21.327 30.9335 20.9108 31.9261 20.2064C32.5664 19.7581 33.1107 19.2138 33.4629 18.5414C33.6871 18.1572 33.7511 17.709 33.8792 17.3248ZM39.7705 23.2481C36.5687 22.8319 33.6871 25.0091 33.2388 28.1789C32.7906 31.3808 34.9678 34.2624 38.1376 34.7107C41.3394 35.1589 44.2531 32.9817 44.7013 29.7799C45.1176 26.61 42.9403 23.7284 39.7705 23.2481Z" fill="#7B7B7B"/>
<path d="M32.3358 57.9187C30.927 53.8524 31.2152 49.8181 32.8161 47.4487C30.2546 45.3355 27.2129 43.9267 23.947 43.3184C23.0185 46.0079 20.0728 48.6654 16.0706 50.0422C12.0683 51.451 8.06599 51.1628 5.69663 49.626C3.48737 52.1234 1.98251 55.1331 1.24609 58.3669C3.99967 59.1994 6.75324 62.2091 8.16204 66.3075C9.6669 70.6299 9.25066 74.8884 7.36158 77.1937C9.89103 79.467 12.9968 81.0039 16.3267 81.7083C16.903 78.7626 20.0088 75.7208 24.3953 74.184C28.7818 72.6471 33.1043 73.1274 35.3776 75.0485C37.5228 72.455 38.9956 69.3172 39.572 65.9553C36.7864 65.3149 33.8407 62.2091 32.3358 57.9187ZM22.2501 67.9084C19.3044 68.933 16.0706 67.3641 15.046 64.4184C14.0214 61.4727 15.5903 58.2709 18.536 57.2463C21.4816 56.2217 24.7155 57.7906 25.7401 60.7363C26.7647 63.65 25.1958 66.8838 22.2501 67.9084ZM10.5954 58.1428C9.85901 58.399 9.05855 58.0147 8.80241 57.2783C8.54626 56.5419 8.93048 55.7414 9.6669 55.4853C10.4033 55.2292 11.2038 55.6134 11.4599 56.3498C11.7161 57.0862 11.3318 57.8867 10.5954 58.1428ZM26.1243 52.7637C25.3879 53.0199 24.5874 52.6357 24.3313 51.8993C24.0751 51.1628 24.4593 50.3624 25.1958 50.1062C25.9322 49.8501 26.7326 50.2343 26.9888 50.9707C27.2449 51.7071 26.8607 52.5076 26.1243 52.7637ZM16.1026 73.9919C15.3662 74.248 14.5657 73.8638 14.3095 73.1274C14.0534 72.3909 14.4376 71.5905 15.174 71.3343C15.9105 71.0782 16.7109 71.4624 16.9671 72.1988C17.2232 72.9353 16.839 73.7357 16.1026 73.9919ZM31.6314 68.6128C30.895 68.8689 30.0946 68.4847 29.8384 67.7483C29.5823 67.0119 29.9665 66.2114 30.7029 65.9553C31.4393 65.6991 32.2398 66.0833 32.4959 66.8198C32.7521 67.5562 32.3679 68.3566 31.6314 68.6128Z" fill="#CE6E6E"/>
<path d="M74.4105 34.5156V70.3441H38.582C38.582 90.1314 54.6232 106.173 74.4105 106.173C94.1978 106.173 110.239 90.1314 110.239 70.3441C110.207 50.5568 94.1657 34.5156 74.4105 34.5156Z" fill="#CE6E6E"/>
<path d="M74.4147 116.896C48.7361 116.896 27.8281 95.9879 27.8281 70.3092C27.8281 44.6306 48.7361 23.7227 74.4147 23.7227C100.093 23.7227 121.001 44.6306 121.001 70.3092C121.001 96.0199 100.093 116.896 74.4147 116.896ZM74.4147 31.1509C52.8024 31.1509 35.2243 48.7289 35.2243 70.3413C35.2243 91.9536 52.8024 109.5 74.4147 109.5C96.027 109.5 113.605 91.9216 113.605 70.3092C113.605 48.6969 95.995 31.1509 74.4147 31.1509Z" fill="#5F5F5F"/>
<path d="M102.751 50.4258H47.9355V87.4709H102.751V50.4258Z" fill="#E8F7F7"/>
<path d="M85.7115 90.418H68.6777V92.6272H85.7115V90.418Z" fill="#E8F7F7"/>
<path d="M67.2015 55.6133H51.6406V81.5481H67.2015V55.6133Z" fill="#BB7171"/>
<path d="M82.766 63.0117H67.2051V81.5183H82.766V63.0117Z" fill="#D76C6C"/>
<path d="M99.0356 68.9355H82.7383V81.5187H99.0356V68.9355Z" fill="#EBB5B5"/>
<path d="M98.4245 84.8206C98.4245 84.1803 97.9122 83.668 97.2718 83.668C96.6314 83.668 96.1191 84.1803 96.1191 84.8206C96.1191 85.461 96.6314 85.9733 97.2718 85.9733C97.9122 86.0053 98.4245 85.461 98.4245 84.8206Z" fill="#D76C6C"/>
<path d="M14.3434 41.5293C14.1193 41.5293 13.9271 41.4012 13.8311 41.1771C13.5429 40.5367 13.0947 40.0564 12.4543 39.7042C12.0701 39.5121 11.7179 39.4161 11.3657 39.4161C10.4372 39.4161 9.66872 39.8003 9.02835 40.5047C8.86826 40.6968 8.70817 40.7288 8.5801 40.7288C8.48405 40.7288 8.35597 40.6968 8.25992 40.6327C7.84368 40.4086 7.42744 40.1525 7.01121 39.8963C6.59497 39.6402 6.62699 39.384 6.69102 39.0959C6.8191 38.6156 6.88313 38.2954 6.88313 37.9752C6.88313 37.495 6.659 37.0147 6.24277 36.5024C5.69846 35.862 4.99406 35.6059 4.16158 35.6699H4.06552C3.74534 35.6699 3.55323 35.5098 3.45718 35.1896C3.39314 34.9335 3.3291 34.6773 3.26507 34.3892L3.07296 33.6848C3.00892 33.3966 3.137 33.1085 3.39314 32.9804C4.03351 32.6922 4.5458 32.2119 4.86598 31.5716C5.05809 31.1874 5.15415 30.8672 5.15415 30.547C5.15415 29.8746 4.898 29.2983 4.38571 28.754C4.32167 28.6899 4.22562 28.5939 4.16158 28.5298L4.00149 28.3697C3.77736 28.2097 3.74534 27.9215 3.90543 27.6653L4.73791 26.2886C4.86598 26.0644 5.12213 25.9684 5.41029 26.0644L5.57038 26.0965C5.63442 26.1285 5.73047 26.1605 5.79451 26.1605C5.92258 26.1925 6.05066 26.1925 6.17873 26.1925C6.72304 26.1925 7.23533 26.0004 7.81166 25.6162C8.25992 25.328 8.54808 25.0078 8.70817 24.6236C8.77221 24.4635 8.83625 24.3034 8.86826 24.1433C8.90028 24.0473 8.90028 23.9832 8.9323 23.8872V23.6951C8.9323 23.535 8.9323 23.4069 8.9323 23.2468C8.9323 22.8946 9.09239 22.6705 9.38056 22.5744C9.7968 22.4784 10.213 22.3503 10.6293 22.2543L11.0455 22.1582C11.2696 22.1582 11.4617 22.2863 11.5578 22.5104C11.846 23.1508 12.2942 23.631 12.9346 23.9832C13.3188 24.1754 13.671 24.2714 14.0232 24.2714H14.1193C14.9838 24.2394 15.7202 23.8872 16.3605 23.1828C16.5206 22.9907 16.8088 22.9266 17.0649 23.0547L18.5058 23.9192C18.6338 23.9832 18.89 24.2074 18.6979 24.6236C18.5378 25.0719 18.4737 25.4241 18.5378 25.8083C18.6338 26.6087 19.0501 27.2491 19.8825 27.8575C20.2027 28.1136 20.5549 28.2417 20.9391 28.2737C20.9712 28.2737 21.0032 28.2737 21.0352 28.2737H21.3554H21.4514C21.6115 28.3057 21.8357 28.4338 21.8997 28.6579C21.9637 28.9141 22.0598 29.2022 22.1238 29.4584C22.1879 29.6505 22.2519 29.8746 22.2839 30.0667C22.3159 30.0987 22.3159 30.1628 22.3159 30.2268C22.38 30.643 22.1238 30.8352 21.9637 30.8992C21.2273 31.2194 20.715 31.6996 20.4269 32.308C20.2988 32.6282 20.2347 32.9484 20.2347 33.2685C20.2668 33.6528 20.3628 34.005 20.5549 34.3251C20.747 34.6773 21.0032 34.9975 21.3554 35.2537C21.6435 35.4778 21.6435 35.798 21.5155 35.9901C21.2593 36.4704 20.9712 36.9186 20.683 37.3989C20.5869 37.559 20.3628 37.623 20.2347 37.623H20.1067C20.0426 37.623 19.9466 37.591 19.8825 37.559C19.8185 37.527 19.7545 37.527 19.6904 37.495C19.0821 37.3989 18.6018 37.495 18.0575 37.8151C17.4812 38.1353 17.129 38.4555 16.8728 38.8717C16.6167 39.288 16.5206 39.7682 16.5526 40.3126C16.5847 40.6007 16.5526 40.9209 16.0724 41.049L14.3434 41.5293ZM11.3657 38.6796C11.846 38.6796 12.3262 38.8077 12.8065 39.0638C13.5429 39.4481 14.0872 40.0244 14.4394 40.7608L15.7202 40.4086C15.6561 39.7042 15.8162 39.0959 16.1364 38.5516C16.4566 38.0072 16.9369 37.591 17.6092 37.2388C18.3137 36.8546 18.986 36.7265 19.7225 36.8226C19.8185 36.8226 19.9146 36.8546 20.0426 36.9186H20.0747C20.2988 36.5344 20.5229 36.1822 20.747 35.798C20.3628 35.4778 20.0747 35.1256 19.8505 34.7094C19.6264 34.2611 19.4983 33.8449 19.4663 33.3326C19.4343 32.8843 19.5303 32.4361 19.7225 32.0198C20.0426 31.2834 20.651 30.6751 21.5155 30.2908C21.4514 30.0987 21.3874 29.8746 21.3554 29.6825C21.2913 29.4584 21.2273 29.2663 21.1953 29.0421H21.0352C20.9712 29.0421 20.9071 29.0421 20.8751 29.0421C20.3628 29.0101 19.8505 28.818 19.4343 28.4978C18.4417 27.7614 17.9294 26.9609 17.8014 25.9364C17.7373 25.4561 17.8014 25.0078 17.9615 24.4955L16.8088 23.8232C16.0404 24.6236 15.1759 25.0398 14.1193 25.0719H13.9912C13.5109 25.0719 13.0306 24.9438 12.5504 24.6876C11.8139 24.3034 11.2696 23.7271 10.9174 22.9907L10.7894 23.0227C10.4051 23.1188 10.0209 23.2148 9.6367 23.3109C9.6367 23.4389 9.6367 23.567 9.6367 23.6951V24.0153L9.60468 24.0793C9.57267 24.1754 9.54065 24.2394 9.54065 24.3354C9.47661 24.5276 9.41257 24.7517 9.31652 24.9438C9.09239 25.4241 8.70817 25.8403 8.16386 26.1925C7.49148 26.6728 6.8191 26.8969 6.11469 26.8969C5.9546 26.8969 5.79451 26.8969 5.6024 26.8649C5.47433 26.8329 5.37827 26.8009 5.2502 26.7688L4.57782 27.8895L4.64185 27.9535C4.73791 28.0496 4.83396 28.1136 4.93002 28.2097C5.57038 28.882 5.89057 29.6825 5.89057 30.515C5.89057 30.9632 5.76249 31.4115 5.50635 31.8918C5.12213 32.6282 4.5458 33.2045 3.77736 33.5567L3.93745 34.133C4.00149 34.3572 4.06553 34.5813 4.12956 34.8374C4.22562 34.8374 4.32167 34.8374 4.41773 34.8374C5.34626 34.8374 6.14671 35.1896 6.78708 35.9261C7.33139 36.5664 7.61955 37.1748 7.61955 37.8472C7.61955 38.2314 7.55552 38.6156 7.42744 39.1279V39.1599C7.81166 39.384 8.19588 39.6082 8.5801 39.8323C9.31652 39.0959 10.245 38.6796 11.3657 38.6796ZM12.6784 36.1822C12.4863 36.1822 12.2622 36.1822 12.0701 36.1502C9.70074 35.798 8.09983 33.6848 8.45203 31.3154C8.77221 29.0101 10.8854 27.3772 13.2868 27.6653C15.6561 28.0175 17.257 30.1628 16.9369 32.5001C16.5847 34.6133 14.8237 36.1822 12.6784 36.1822ZM12.6784 28.3377C10.8854 28.3377 9.41257 29.6185 9.15643 31.3795C8.86826 33.3326 10.181 35.0936 12.1661 35.3817C14.1513 35.6699 15.9123 34.2931 16.1684 32.372C16.4566 30.4189 15.1118 28.6579 13.1587 28.3697C12.9986 28.3697 12.8385 28.3377 12.6784 28.3377Z" fill="#CE6E6E"/>
<path d="M25.5498 12.6516C25.3577 12.6516 25.1976 12.5875 25.0375 12.4595C24.7493 12.1713 24.7173 11.723 25.0055 11.4028C32.1776 3.68645 44.3125 3.27021 51.9969 10.4743C52.285 10.7625 52.317 11.2107 52.0289 11.5309C51.7407 11.8191 51.2925 11.8511 50.9723 11.5629C43.8642 4.93516 32.6898 5.31938 26.0621 12.4274C25.966 12.5555 25.7419 12.6516 25.5498 12.6516Z" fill="#CE6E6E"/>
<path d="M21.6787 8.99957C21.4866 8.99957 21.3265 8.93554 21.1664 8.80746C20.8782 8.5193 20.8462 8.07104 21.1344 7.75086C24.3362 4.32491 28.4345 1.89152 32.9491 0.738862C33.3333 0.642807 33.7496 0.866935 33.8456 1.28317C33.9417 1.66739 33.7176 2.08363 33.3013 2.17968C29.0429 3.2683 25.2007 5.5416 22.191 8.77545C22.0629 8.93554 21.8708 8.99957 21.6787 8.99957Z" fill="#CE6E6E"/>
<path d="M55.1378 7.84447C54.9457 7.84447 54.7856 7.78044 54.6256 7.65237C53.7611 6.81989 52.8005 6.08347 51.8079 5.41109C51.4557 5.18696 51.3917 4.70668 51.6158 4.3865C51.84 4.0343 52.3202 3.97026 52.6404 4.19439C53.697 4.89879 54.6896 5.69925 55.6181 6.56374C55.9063 6.85191 55.9383 7.30016 55.6501 7.62035C55.5541 7.74842 55.362 7.84447 55.1378 7.84447ZM49.0224 3.71412C48.9263 3.71412 48.7982 3.6821 48.7022 3.65008C47.6136 3.13779 46.4929 2.72155 45.3403 2.40137C44.956 2.2733 44.7319 1.88908 44.828 1.47284C44.956 1.08862 45.3403 0.864493 45.7565 0.960548C46.9732 1.31275 48.1899 1.761 49.3425 2.30532C49.7268 2.46541 49.8868 2.91366 49.6947 3.29788C49.5987 3.55403 49.3105 3.71412 49.0224 3.71412ZM33.1093 2.20926C32.7891 2.20926 32.4689 1.98513 32.4049 1.66495C32.3088 1.28073 32.5329 0.864494 32.9492 0.768439C33.4615 0.640366 33.9418 0.544311 34.454 0.448256C34.8703 0.38422 35.2545 0.640365 35.3185 1.02458C35.3826 1.44082 35.1264 1.82504 34.7422 1.88908C34.2619 1.98513 33.8137 2.08119 33.3334 2.20926C33.2374 2.20926 33.1733 2.20926 33.1093 2.20926ZM41.9463 1.66495C41.9143 1.66495 41.8823 1.66495 41.8503 1.66495C40.9217 1.53688 39.9612 1.47284 39.0327 1.47284H39.0006H38.7445C38.5844 1.47284 38.4563 1.47284 38.2962 1.47284C37.88 1.50486 37.5598 1.15266 37.5278 0.768439C37.5278 0.352201 37.848 0.0320183 38.2322 0C38.3923 0 38.5524 0 38.7445 0H39.0006C40.0252 0 41.0498 0.064036 42.0424 0.192109C42.4586 0.256146 42.7468 0.608347 42.6827 1.02458C42.6507 1.37679 42.3305 1.66495 41.9463 1.66495Z" fill="#CE6E6E"/>
<path d="M12.8401 87.2842C7.46101 87.2842 3.01047 83.0258 2.81836 77.6147C2.81836 77.4226 2.97845 77.2305 3.17056 77.2305C3.36267 77.2305 3.55478 77.3906 3.55478 77.5827C3.74689 82.7056 8.03733 86.7399 13.1603 86.5158C13.3524 86.4837 13.5445 86.6758 13.5445 86.868C13.5445 87.0601 13.3844 87.2522 13.1923 87.2522C13.0642 87.2842 12.9681 87.2842 12.8401 87.2842Z" fill="#CE6E6E"/>
<path d="M12.8397 90.0977C10.5344 90.0977 8.2931 89.4893 6.30797 88.3046C6.14788 88.2086 6.08384 87.9845 6.1799 87.7924C6.27595 87.6323 6.50008 87.5682 6.69219 87.6643C8.67732 88.8489 10.9506 89.4253 13.288 89.3292C13.5121 89.3292 13.6722 89.4893 13.6722 89.6814C13.6722 89.8735 13.5121 90.0656 13.32 90.0656C13.1279 90.0977 12.9998 90.0977 12.8397 90.0977Z" fill="#CE6E6E"/>
<path d="M5.37907 87.606C5.31503 87.606 5.21898 87.574 5.15494 87.5419C4.70668 87.1897 4.29045 86.8375 3.87421 86.4533C3.36192 85.941 2.88164 85.4287 2.46541 84.8524C2.33733 84.6923 2.36935 84.4682 2.56146 84.3401C2.72155 84.2121 2.94568 84.2441 3.07375 84.4362C3.45797 84.9805 3.90623 85.4928 4.3865 85.941C4.77072 86.2932 5.15494 86.6454 5.6032 86.9656C5.76329 87.0937 5.79531 87.3178 5.66723 87.4779C5.6032 87.542 5.47512 87.606 5.37907 87.606ZM1.0566 81.7146C0.896511 81.7146 0.768439 81.6186 0.704402 81.4585C0.288165 80.2738 0.0640365 78.9931 0 77.7123C0 77.5202 0.160091 77.3281 0.3522 77.3281C0.54431 77.3281 0.73642 77.4882 0.73642 77.6803C0.768438 78.897 0.992567 80.0817 1.37679 81.2023C1.44082 81.3944 1.34477 81.6186 1.15266 81.6826C1.15266 81.6826 1.12064 81.7146 1.0566 81.7146Z" fill="#CE6E6E"/>
</svg>
