<svg width="95" height="100" viewBox="0 0 95 100" fill="none" xmlns="http://www.w3.org/2000/svg">
<g opacity="0.800003">
<g opacity="0.800003">
<path opacity="0.800003" d="M44.1581 95.8245L43.7704 95.9063C43.9165 95.8508 44.0637 95.7966 44.2092 95.7395L44.1581 95.8245ZM88.1521 30.8634C80.7373 17.2766 66.575 7.90366 50.1684 7.24257L46.3427 7.24671C39.3087 7.54716 32.6898 9.44786 26.8414 12.5965H36.3703H44.358C45.3143 12.5965 46.0969 13.8104 46.0969 15.2941C46.0969 16.7776 45.3143 17.9915 44.358 17.9915H36.3703H23.275C22.3187 17.9915 21.5361 19.2054 21.5361 20.6889C21.5361 22.1726 22.3187 23.3863 23.275 23.3863H36.3703H37.4028C38.3591 23.3863 39.1414 24.6002 39.1414 26.0836C39.1414 27.5674 38.3591 28.781 37.4028 28.781H36.3703H17.4063H11.5377C10.5814 28.781 9.79883 29.9952 9.79883 31.4787C9.79883 32.9621 10.5814 34.1761 11.5377 34.1761H17.4063H36.3703H50.444C50.8369 34.1761 51.1987 34.3829 51.4909 34.7272L51.5577 38.9398C51.2553 39.3331 50.8668 39.5711 50.444 39.5711H36.3703H32.6211C31.6645 39.5711 30.8822 40.7848 30.8822 42.2685C30.8822 43.7519 31.6645 44.9659 32.6211 44.9659H36.3703H45.8796C46.8359 44.9659 47.6185 46.1798 47.6185 47.6632C47.6185 49.147 46.8359 50.3606 45.8796 50.3606H36.3703H24.3616C23.4053 50.3606 22.6227 51.5745 22.6227 53.0583C22.6227 54.5417 23.4053 55.7554 24.3616 55.7554H36.3703H39.0329C39.9892 55.7554 40.7718 56.9696 40.7718 58.453C40.7718 59.9368 39.9892 61.1507 39.0329 61.1507H36.3703H17.4063C16.45 61.1507 15.6675 62.3643 15.6675 63.8481C15.6675 65.3315 16.45 66.5455 17.4063 66.5455H36.3703H44.358C45.3143 66.5455 46.0969 67.7591 46.0969 69.2428C46.0969 70.7263 45.3143 71.9405 44.358 71.9405H36.3703H23.275C22.3187 71.9405 21.5361 73.1539 21.5361 74.6376C21.5361 76.1213 22.3187 77.3353 23.275 77.3353H36.3703H39.0329C39.9892 77.3353 40.7718 78.5489 40.7718 80.0324C40.7718 81.5164 39.9892 82.73 39.0329 82.73H36.3703H17.4063H14.445C16.1907 84.6879 18.1022 86.4941 20.1598 88.1251H36.3703H44.358C45.3143 88.1251 46.0969 89.3387 46.0969 90.8224C46.0969 92.3062 45.3143 93.5198 44.358 93.5198H36.3703H28.8059C34.7145 96.3384 41.3279 97.918 48.311 97.918C66.5661 97.918 82.3003 87.1318 89.4944 71.5862L88.1521 30.8634Z" fill="#CE6E6E"/>
</g>
<g opacity="0.800003">
<path opacity="0.800003" d="M48.309 7.20171C44.3634 7.20171 40.5358 7.7065 36.8862 8.65313C36.7645 9.01874 36.6943 9.43185 36.6943 9.86981C36.6943 11.3372 37.4684 12.5379 38.4141 12.5379H57.1721H65.0731C66.0192 12.5379 66.7933 13.7386 66.7933 15.206C66.7933 16.6737 66.0192 17.8741 65.0731 17.8741H57.1721H44.219C43.2732 17.8741 42.4992 19.0748 42.4992 20.5425C42.4992 22.01 43.2732 23.2106 44.219 23.2106H57.1721H58.1933C59.1394 23.2106 59.9134 24.4113 59.9134 25.8785C59.9134 27.3462 59.1394 28.5469 58.1933 28.5469H57.1721H38.4141H32.6096C31.6635 28.5469 30.8895 29.7475 30.8895 31.215C30.8895 32.6824 31.6635 33.8831 32.6096 33.8831H38.4141H57.1721H71.0928C72.0389 33.8831 72.8129 35.0837 72.8129 36.5512C72.8129 38.0186 72.0389 39.2193 71.0928 39.2193H57.1721H53.4638C52.5177 39.2193 51.7436 40.42 51.7436 41.8874C51.7436 43.3548 52.5177 44.5555 53.4638 44.5555H57.1721H66.5781C67.5239 44.5555 68.298 45.7562 68.298 47.2236C68.298 48.6911 67.5239 49.8917 66.5781 49.8917H57.1721H45.294C44.3479 49.8917 43.5742 51.0924 43.5742 52.5598C43.5742 54.0275 44.3479 55.2279 45.294 55.2279H57.1721H59.8057C60.7518 55.2279 61.5258 56.4286 61.5258 57.8963C61.5258 59.3638 60.7518 60.5644 59.8057 60.5644H57.1721H38.4141C37.4684 60.5644 36.6943 61.7648 36.6943 63.2326C36.6943 64.7 37.4684 65.9007 38.4141 65.9007H57.1721H65.0731C66.0192 65.9007 66.7933 67.1013 66.7933 68.5688C66.7933 70.0362 66.0192 71.2369 65.0731 71.2369H57.1721H44.219C43.2732 71.2369 42.4992 72.4376 42.4992 73.905C42.4992 75.3724 43.2732 76.5731 44.219 76.5731H57.1721H59.8057C60.7518 76.5731 61.5258 77.7738 61.5258 79.2412C61.5258 80.7086 60.7518 81.9093 59.8057 81.9093H57.1721H38.4141H31.3197C30.3736 81.9093 29.5996 83.11 29.5996 84.5774C29.5996 86.0449 30.3736 87.2458 31.3197 87.2458H38.4141H57.1721H65.0731C66.0192 87.2458 66.7933 88.4462 66.7933 89.9139C66.7933 91.3811 66.0192 92.5817 65.0731 92.5817H57.1721H40.1343C39.1882 92.5817 38.4141 93.7827 38.4141 95.2499C38.4141 95.8786 38.5572 96.458 38.7941 96.9153C41.8626 97.5703 45.0449 97.918 48.309 97.918C73.3594 97.918 93.6668 77.6106 93.6668 52.5601C93.6668 27.5094 73.3594 7.20171 48.309 7.20171Z" fill="#CE6E6E"/>
</g>
</g>
<path d="M67.8131 10.0645H66.7919C66.4106 10.0645 66.1016 9.75545 66.1016 9.37409C66.1016 8.99274 66.4106 8.68373 66.7919 8.68373H67.8131C68.1945 8.68373 68.5035 8.99274 68.5035 9.37409C68.5035 9.75545 68.1945 10.0645 67.8131 10.0645Z" fill="#666666"/>
<path d="M64.4124 10.0645H54.374C53.9929 10.0645 53.6836 9.75545 53.6836 9.37409C53.6836 8.99274 53.9929 8.68373 54.374 8.68373H64.4124C64.7937 8.68373 65.1027 8.99274 65.1027 9.37409C65.1027 9.75545 64.7937 10.0645 64.4124 10.0645Z" fill="#666666"/>
<path d="M11.5302 63.3945H10.5087C10.1274 63.3945 9.81836 63.0855 9.81836 62.7042C9.81836 62.3228 10.1274 62.0138 10.5087 62.0138H11.5302C11.9115 62.0138 12.2205 62.3228 12.2205 62.7042C12.2205 63.0855 11.9115 63.3945 11.5302 63.3945Z" fill="#666666"/>
<path d="M23.9514 63.3945H13.913C13.5319 63.3945 13.2227 63.0855 13.2227 62.7042C13.2227 62.3228 13.5319 62.0138 13.913 62.0138H23.9514C24.3328 62.0138 24.6418 62.3228 24.6418 62.7042C24.6418 63.0855 24.3328 63.3945 23.9514 63.3945Z" fill="#666666"/>
<path d="M11.5302 29.8477H10.5087C10.1274 29.8477 9.81836 29.5387 9.81836 29.1573C9.81836 28.7759 10.1274 28.4669 10.5087 28.4669H11.5302C11.9115 28.4669 12.2205 28.7759 12.2205 29.1573C12.2205 29.5387 11.9115 29.8477 11.5302 29.8477Z" fill="#666666"/>
<path d="M23.9514 29.8477H13.913C13.5319 29.8477 13.2227 29.5387 13.2227 29.1573C13.2227 28.7759 13.5319 28.4669 13.913 28.4669H23.9514C24.3328 28.4669 24.6418 28.7759 24.6418 29.1573C24.6418 29.5387 24.3328 29.8477 23.9514 29.8477Z" fill="#666666"/>
<path d="M67.8131 99.7266H66.7919C66.4106 99.7266 66.1016 99.4176 66.1016 99.0362C66.1016 98.6548 66.4106 98.3458 66.7919 98.3458H67.8131C68.1945 98.3458 68.5035 98.6548 68.5035 99.0362C68.5035 99.4176 68.1945 99.7266 67.8131 99.7266Z" fill="#666666"/>
<path d="M64.4124 99.7266H54.374C53.9929 99.7266 53.6836 99.4176 53.6836 99.0362C53.6836 98.6548 53.9929 98.3458 54.374 98.3458H64.4124C64.7937 98.3458 65.1027 98.6548 65.1027 99.0362C65.1027 99.4176 64.7937 99.7266 64.4124 99.7266Z" fill="#666666"/>
<path d="M76.0282 29.2616C74.9863 29.2616 74.1385 30.1093 74.1385 31.1512C74.1385 32.1934 74.9863 33.0412 76.0282 33.0412C77.0701 33.0412 77.9181 32.1934 77.9181 31.1512C77.9181 30.1093 77.0701 29.2616 76.0282 29.2616ZM76.0282 34.4219C74.225 34.4219 72.7578 32.9547 72.7578 31.1512C72.7578 29.348 74.225 27.8808 76.0282 27.8808C77.8314 27.8808 79.2989 29.348 79.2989 31.1512C79.2989 32.9547 77.8314 34.4219 76.0282 34.4219Z" fill="#666666"/>
<path d="M76.0282 62.9569C74.9863 62.9569 74.1385 63.8046 74.1385 64.8468C74.1385 65.8887 74.9863 66.7367 76.0282 66.7367C77.0701 66.7367 77.9181 65.8887 77.9181 64.8468C77.9181 63.8046 77.0701 62.9569 76.0282 62.9569ZM76.0282 68.1172C74.225 68.1172 72.7578 66.65 72.7578 64.8468C72.7578 63.0433 74.225 61.5761 76.0282 61.5761C77.8314 61.5761 79.2989 63.0433 79.2989 64.8468C79.2989 66.65 77.8314 68.1172 76.0282 68.1172Z" fill="#666666"/>
<path d="M24.8544 11.7889C23.8125 11.7889 22.9647 12.6367 22.9647 13.6786C22.9647 14.7207 23.8125 15.5685 24.8544 15.5685C25.8963 15.5685 26.7443 14.7207 26.7443 13.6786C26.7443 12.6367 25.8963 11.7889 24.8544 11.7889ZM24.8544 16.9492C23.0511 16.9492 21.584 15.4821 21.584 13.6786C21.584 11.8753 23.0511 10.4082 24.8544 10.4082C26.6579 10.4082 28.125 11.8753 28.125 13.6786C28.125 15.4821 26.6579 16.9492 24.8544 16.9492Z" fill="#666666"/>
<path d="M31.1418 91.7674C30.0999 91.7674 29.2518 92.6152 29.2518 93.6574C29.2518 94.6992 30.0999 95.5473 31.1418 95.5473C32.1836 95.5473 33.0314 94.6992 33.0314 93.6574C33.0314 92.6152 32.1836 91.7674 31.1418 91.7674ZM31.1418 96.9277C29.3383 96.9277 27.8711 95.4606 27.8711 93.6574C27.8711 91.8539 29.3383 90.3867 31.1418 90.3867C32.945 90.3867 34.4121 91.8539 34.4121 93.6574C34.4121 95.4606 32.945 96.9277 31.1418 96.9277Z" fill="#666666"/>
<path d="M82.096 19.582C81.9192 19.582 81.7428 19.5147 81.6078 19.3799L78.5967 16.3685C78.3272 16.099 78.3272 15.6619 78.5967 15.3924C78.8665 15.1228 79.3033 15.1228 79.5728 15.3924L82.5842 18.4034C82.8537 18.673 82.8537 19.1104 82.5842 19.3799C82.4492 19.5147 82.2727 19.582 82.096 19.582Z" fill="#666666"/>
<path d="M79.0849 19.582C78.9082 19.582 78.7317 19.5147 78.5967 19.3799C78.3272 19.1104 78.3272 18.673 78.5967 18.4034L81.608 15.3924C81.8775 15.1228 82.3144 15.1228 82.5842 15.3924C82.8537 15.6619 82.8537 16.099 82.5842 16.3685L79.5731 19.3799C79.4381 19.5147 79.2616 19.582 79.0849 19.582Z" fill="#666666"/>
<path d="M42.0998 5.39062C41.9231 5.39062 41.7463 5.32325 41.6116 5.18849L38.6008 2.17713C38.331 1.90761 38.331 1.47048 38.6008 1.20096C38.87 0.931166 39.3074 0.931442 39.577 1.20096L42.588 4.21204C42.8576 4.48156 42.8576 4.91897 42.588 5.18849C42.4533 5.32325 42.2765 5.39062 42.0998 5.39062Z" fill="#666666"/>
<path d="M39.0888 5.39062C38.9121 5.39062 38.7353 5.32325 38.6006 5.18849C38.3311 4.91897 38.3311 4.48156 38.6006 4.21204L41.6117 1.20096C41.8812 0.931442 42.3186 0.931442 42.5878 1.20096C42.8576 1.47048 42.8576 1.90761 42.5878 2.17713L39.577 5.18849C39.4423 5.32325 39.2655 5.39062 39.0888 5.39062Z" fill="#666666"/>
<path d="M87.2581 88.3789C87.0814 88.3789 86.9049 88.3115 86.7699 88.1768L83.7588 85.1654C83.4893 84.8959 83.4893 84.459 83.7588 84.1892C84.0286 83.9197 84.4654 83.9197 84.7349 84.1892L87.7463 87.2003C88.0158 87.4701 88.0158 87.907 87.7463 88.1768C87.6113 88.3115 87.4348 88.3789 87.2581 88.3789Z" fill="#666666"/>
<path d="M84.247 88.3789C84.0703 88.3789 83.8938 88.3115 83.7588 88.1768C83.4893 87.907 83.4893 87.4701 83.7588 87.2003L86.7701 84.1892C87.0397 83.9197 87.4765 83.9197 87.7463 84.1892C88.0158 84.459 88.0158 84.8959 87.7463 85.1654L84.7352 88.1768C84.6002 88.3115 84.4237 88.3789 84.247 88.3789Z" fill="#666666"/>
<path d="M10.4943 81.7168C10.3176 81.7168 10.1409 81.6494 10.0061 81.5147L6.99531 78.5033C6.72552 78.2338 6.72552 77.7966 6.99531 77.5271C7.26455 77.2573 7.70197 77.2573 7.97148 77.5271L10.9826 80.5382C11.2521 80.808 11.2521 81.2451 10.9826 81.5147C10.8478 81.6494 10.6711 81.7168 10.4943 81.7168Z" fill="#666666"/>
<path d="M7.48333 81.7168C7.3066 81.7168 7.12987 81.6494 6.99511 81.5147C6.72559 81.2451 6.72559 80.808 6.99511 80.5382L10.0062 77.5271C10.2757 77.2576 10.7131 77.2576 10.9824 77.5271C11.2522 77.7966 11.2522 78.2338 10.9824 78.5033L7.97155 81.5147C7.8368 81.6494 7.66006 81.7168 7.48333 81.7168Z" fill="#666666"/>
<path d="M90.613 46.7539H89.663C89.2817 46.7539 88.9727 46.4449 88.9727 46.0635C88.9727 45.6822 89.2817 45.3732 89.663 45.3732H90.613C90.9943 45.3732 91.3033 45.6822 91.3033 46.0635C91.3033 46.4449 90.9943 46.7539 90.613 46.7539Z" fill="#666666"/>
<path d="M94.3099 46.7539H93.3603C92.9789 46.7539 92.6699 46.4449 92.6699 46.0635C92.6699 45.6822 92.9789 45.3732 93.3603 45.3732H94.3099C94.6913 45.3732 95.0003 45.6822 95.0003 46.0635C95.0003 46.4449 94.6913 46.7539 94.3099 46.7539Z" fill="#666666"/>
<path d="M91.9892 45.3809C91.6078 45.3809 91.2988 45.0719 91.2988 44.6905V43.7408C91.2988 43.3595 91.6078 43.0505 91.9892 43.0505C92.3705 43.0505 92.6796 43.3595 92.6796 43.7408V44.6905C92.6796 45.0719 92.3705 45.3809 91.9892 45.3809Z" fill="#666666"/>
<path d="M91.9892 49.0801C91.6078 49.0801 91.2988 48.7711 91.2988 48.3897V47.4398C91.2988 47.0584 91.6078 46.7494 91.9892 46.7494C92.3705 46.7494 92.6796 47.0584 92.6796 47.4398V48.3897C92.6796 48.7711 92.3705 49.0801 91.9892 49.0801Z" fill="#666666"/>
<path d="M1.6403 46.7539H0.690361C0.309006 46.7539 0 46.4449 0 46.0635C0 45.6822 0.309006 45.3732 0.690361 45.3732H1.6403C2.02165 45.3732 2.33066 45.6822 2.33066 46.0635C2.33066 46.4449 2.02165 46.7539 1.6403 46.7539Z" fill="#666666"/>
<path d="M5.33561 46.7539H4.38567C4.00432 46.7539 3.69531 46.4449 3.69531 46.0635C3.69531 45.6822 4.00432 45.3732 4.38567 45.3732H5.33561C5.71697 45.3732 6.02597 45.6822 6.02597 46.0635C6.02597 46.4449 5.71697 46.7539 5.33561 46.7539Z" fill="#666666"/>
<path d="M3.00872 45.3809C2.62737 45.3809 2.31836 45.0719 2.31836 44.6905V43.7408C2.31836 43.3595 2.62737 43.0505 3.00872 43.0505C3.39008 43.0505 3.69908 43.3595 3.69908 43.7408V44.6905C3.69908 45.0719 3.39008 45.3809 3.00872 45.3809Z" fill="#666666"/>
<path d="M3.00872 49.0801C2.62737 49.0801 2.31836 48.7711 2.31836 48.3897V47.4398C2.31836 47.0584 2.62737 46.7494 3.00872 46.7494C3.39008 46.7494 3.69908 47.0584 3.69908 47.4398V48.3897C3.69908 48.7711 3.39008 49.0801 3.00872 49.0801Z" fill="#666666"/>
<path d="M87.5391 57.0114C87.5377 47.776 80.0506 40.2894 70.815 40.2894H28.2186C19.0202 40.2894 11.4941 47.8155 11.4941 57.0139V57.0141C11.4941 66.2122 19.0202 73.7383 28.2186 73.7383L28.2484 73.733C28.318 73.7341 28.3867 73.7383 28.4563 73.7383C32.9161 73.7383 44.3788 67.1376 50.0122 67.1724C55.4655 67.2061 65.4978 73.7383 70.815 73.7383C80.0506 73.7383 87.5377 66.252 87.5391 57.0166V57.0141V57.0139V57.0114Z" fill="white"/>
<path d="M48.4829 64.3828H48.5328C51.4528 64.4008 55.4795 66.1112 59.3737 67.7653C63.058 69.33 66.8677 70.9482 69.3301 70.9482C78.038 70.9482 85.1236 63.8637 85.125 55.1558L86.0542 55.1505H85.125C85.1236 46.4426 78.038 39.3581 69.3301 39.3581H26.7334C18.0241 39.3581 10.9383 46.4437 10.9383 55.153C10.9383 63.8372 17.9819 70.907 26.6564 70.9479L26.7732 70.9432L26.9715 70.9482C28.8841 70.9482 32.6015 69.4625 36.1969 68.0252C40.6776 66.2344 45.3105 64.3828 48.4829 64.3828ZM69.3301 72.8066C66.4891 72.8066 62.6803 71.1887 58.6469 69.4755C54.9217 67.8932 51.0692 66.2565 48.5212 66.241C45.7098 66.2164 41.0231 68.0978 36.8864 69.7508C32.9553 71.3224 29.2417 72.8066 26.9715 72.8066C26.9226 72.8066 26.8743 72.8053 26.8259 72.8033L26.8099 72.8031L26.7334 72.8066C16.9993 72.8066 9.08008 64.8871 9.08008 55.153C9.08008 45.4189 16.9993 37.4996 26.7334 37.4996H69.3301C79.0625 37.4996 86.9821 45.4178 86.9832 55.1505V55.153C86.9821 64.8887 79.0625 72.8066 69.3301 72.8066Z" fill="#231F20"/>
<path d="M35.8411 51.5944H30.3389V46.0922H22.8515V51.5944H17.3496V59.0818H22.8515V64.584H30.3389V59.0818H35.8411V51.5944Z" fill="white"/>
<path d="M37.3274 53.0847H31.8255V47.5827H24.3378V53.0847H18.8359V60.572H24.3378V66.0742H31.8255V60.572H37.3274V53.0847Z" fill="#CE6E6E"/>
<path d="M23.4111 63.2844H29.0401V58.7112C29.0401 58.1981 29.4562 57.7819 29.9693 57.7819H34.5422V52.1533H29.9693C29.4562 52.1533 29.0401 51.7374 29.0401 51.2241V46.6511H23.4111V51.2241C23.4111 51.7374 22.9953 52.1533 22.4819 52.1533H17.909V57.7819H22.4819C22.9953 57.7819 23.4111 58.1981 23.4111 58.7112V63.2844ZM29.9693 65.1426H22.4819C21.9688 65.1426 21.553 64.7267 21.553 64.2134V59.6404H16.9797C16.4667 59.6404 16.0508 59.2245 16.0508 58.7112V51.2241C16.0508 50.711 16.4667 50.2948 16.9797 50.2948H21.553V45.7219C21.553 45.2085 21.9688 44.7929 22.4819 44.7929H29.9693C30.4824 44.7929 30.8985 45.2085 30.8985 45.7219V50.2948H35.4712C35.9845 50.2948 36.4004 50.711 36.4004 51.2241V58.7112C36.4004 59.2245 35.9845 59.6404 35.4712 59.6404H30.8985V64.2134C30.8985 64.7267 30.4824 65.1426 29.9693 65.1426" fill="#231F20"/>
<path d="M73.3941 48.3734C73.3941 50.2437 71.8781 51.7598 70.0075 51.7598C68.1374 51.7598 66.6211 50.2437 66.6211 48.3734C66.6211 46.5031 68.1374 44.9868 70.0075 44.9868C71.8781 44.9868 73.3941 46.5031 73.3941 48.3734Z" fill="white"/>
<path d="M73.3941 62.4613C73.3941 64.3313 71.8781 65.8477 70.0075 65.8477C68.1374 65.8477 66.6211 64.3313 66.6211 62.4613C66.6211 60.591 68.1374 59.0747 70.0075 59.0747C71.8781 59.0747 73.3941 60.591 73.3941 62.4613Z" fill="white"/>
<path d="M77.0448 58.8027C75.1745 58.8027 73.6582 57.2864 73.6582 55.4161C73.6582 53.5458 75.1745 52.0297 77.0448 52.0297C78.9149 52.0297 80.4315 53.5458 80.4315 55.4161C80.4315 57.2864 78.9149 58.8027 77.0448 58.8027Z" fill="white"/>
<path d="M62.9687 58.8027C61.0983 58.8027 59.582 57.2864 59.582 55.4161C59.582 53.5458 61.0983 52.0297 62.9687 52.0297C64.8387 52.0297 66.355 53.5458 66.355 55.4161C66.355 57.2864 64.8387 58.8027 62.9687 58.8027Z" fill="white"/>
<path d="M74.8824 49.1153C74.8824 50.9856 73.3661 52.502 71.4957 52.502C69.6254 52.502 68.1094 50.9856 68.1094 49.1153C68.1094 47.245 69.6254 45.7287 71.4957 45.7287C73.3661 45.7287 74.8824 47.245 74.8824 49.1153Z" fill="#585DA2"/>
<path d="M74.8824 63.2032C74.8824 65.0733 73.3661 66.5898 71.4957 66.5898C69.6254 66.5898 68.1094 65.0733 68.1094 63.2032C68.1094 61.3329 69.6254 59.8166 71.4957 59.8166C73.3661 59.8166 74.8824 61.3329 74.8824 63.2032Z" fill="#9C1C33"/>
<path d="M78.5351 59.5469C76.6647 59.5469 75.1484 58.0308 75.1484 56.1602C75.1484 54.2902 76.6647 52.7739 78.5351 52.7739C80.4051 52.7739 81.9214 54.2902 81.9214 56.1602C81.9214 58.0308 80.4051 59.5469 78.5351 59.5469Z" fill="#F0BE55"/>
<path d="M64.455 59.5469C62.5849 59.5469 61.0684 58.0308 61.0684 56.1602C61.0684 54.2902 62.5849 52.7739 64.455 52.7739C66.3253 52.7739 67.8416 54.2902 67.8416 56.1602C67.8416 58.0308 66.3253 59.5469 64.455 59.5469Z" fill="#CE6E6E"/>
<path d="M70.0092 45.5434C68.6539 45.5434 67.5518 46.6458 67.5518 48.0008C67.5518 49.3559 68.6539 50.458 70.0092 50.458C71.364 50.458 72.4661 49.3559 72.4661 48.0008C72.4661 46.6458 71.364 45.5434 70.0092 45.5434ZM70.0092 52.3164C67.6294 52.3164 65.6934 50.3804 65.6934 48.0008C65.6934 45.621 67.6294 43.6852 70.0092 43.6852C72.3885 43.6852 74.3245 45.621 74.3245 48.0008C74.3245 50.3804 72.3885 52.3164 70.0092 52.3164Z" fill="#231F20"/>
<path d="M70.0092 59.6316C68.6539 59.6316 67.5518 60.7339 67.5518 62.0887C67.5518 63.444 68.6539 64.5464 70.0092 64.5464C71.364 64.5464 72.4661 63.444 72.4661 62.0887C72.4661 60.7339 71.364 59.6316 70.0092 59.6316ZM70.0092 66.4043C67.6294 66.4043 65.6934 64.4688 65.6934 62.0887C65.6934 59.7092 67.6294 57.7734 70.0092 57.7734C72.3885 57.7734 74.3245 59.7092 74.3245 62.0887C74.3245 64.4688 72.3885 66.4043 70.0092 66.4043Z" fill="#231F20"/>
<path d="M77.0444 52.5883C75.6891 52.5883 74.587 53.6907 74.587 55.0457C74.587 56.4005 75.6891 57.5029 77.0444 57.5029C78.3991 57.5029 79.5012 56.4005 79.5012 55.0457C79.5012 53.6907 78.3991 52.5883 77.0444 52.5883ZM77.0444 59.3613C74.6646 59.3613 72.7285 57.4253 72.7285 55.0457C72.7285 52.6659 74.6646 50.7302 77.0444 50.7302C79.4236 50.7302 81.3597 52.6659 81.3597 55.0457C81.3597 57.4253 79.4236 59.3613 77.0444 59.3613Z" fill="#231F20"/>
<path d="M62.9702 52.5883C61.6151 52.5883 60.5128 53.6907 60.5128 55.0457C60.5128 56.4005 61.6151 57.5029 62.9702 57.5029C64.3249 57.5029 65.427 56.4005 65.427 55.0457C65.427 53.6907 64.3249 52.5883 62.9702 52.5883ZM62.9702 59.3613C60.5903 59.3613 58.6543 57.4253 58.6543 55.0457C58.6543 52.6659 60.5903 50.7302 62.9702 50.7302C65.3494 50.7302 67.2855 52.6659 67.2855 55.0457C67.2855 57.4253 65.3494 59.3613 62.9702 59.3613Z" fill="#231F20"/>
<path d="M51.9519 46.0957H44.1108C43.4053 46.0957 42.8281 45.5186 42.8281 44.813V43.926C42.8281 43.2205 43.4053 42.6433 44.1108 42.6433H51.9519C52.6575 42.6433 53.2346 43.2205 53.2346 43.926V44.813C53.2346 45.5186 52.6575 46.0957 51.9519 46.0957Z" fill="white"/>
<path d="M53.0649 47.209H45.2238C44.5185 47.209 43.9414 46.6318 43.9414 45.9263V45.0393C43.9414 44.3338 44.5185 43.7566 45.2238 43.7566H53.0649C53.7705 43.7566 54.3476 44.3338 54.3476 45.0393V45.9263C54.3476 46.6318 53.7705 47.209 53.0649 47.209Z" fill="#807F7F"/>
<path d="M44.5536 43.2C44.1142 43.2 43.7566 43.5576 43.7566 43.9972C43.7566 44.4368 44.1142 44.7942 44.5536 44.7942H51.5077C51.9471 44.7942 52.3044 44.4368 52.3044 43.9972C52.3044 43.5576 51.9471 43.2 51.5077 43.2H44.5536ZM51.5077 46.6523H44.5536C43.0894 46.6523 41.8984 45.4613 41.8984 43.9972C41.8984 42.5328 43.0894 41.3418 44.5536 41.3418H51.5077C52.9716 41.3418 54.1628 42.5328 54.1628 43.9972C54.1628 45.4613 52.9716 46.6523 51.5077 46.6523Z" fill="#231F20"/>
<path d="M61.41 12.3547C60.8969 12.3547 60.481 12.7706 60.481 13.2839V31.4043C60.481 32.7364 59.3972 33.82 58.0653 33.82C56.7332 33.82 55.6496 32.7364 55.6496 31.4043V29.7607V23.6904V21.2126C55.6496 18.8557 53.7321 16.9384 51.3755 16.9384C49.0188 16.9384 47.1016 18.8557 47.1016 21.2126V37.8464C47.1016 38.3595 47.5174 38.7754 48.0305 38.7754C48.5439 38.7754 48.9597 38.3595 48.9597 37.8464V21.2126C48.9597 19.8805 50.0436 18.7969 51.3755 18.7969C52.7073 18.7969 53.7912 19.8805 53.7912 21.2126V23.6904V29.7607V31.4043C53.7912 33.7612 55.7087 35.6782 58.0653 35.6782C60.422 35.6782 62.3392 33.7612 62.3392 31.4043V13.2839C62.3392 12.7706 61.9231 12.3547 61.41 12.3547Z" fill="#231F20"/>
</svg>
