<svg width="132" height="112" viewBox="0 0 132 112" fill="none" xmlns="http://www.w3.org/2000/svg">
<path d="M74.7812 92.6578L99.9295 35.4492L125.204 92.6578H74.7812Z" fill="#1A7C7B"/>
<path d="M97.1388 67.9911C101.669 67.9911 105.342 64.2474 105.342 59.6293C105.342 55.0113 101.669 51.2676 97.1388 51.2676C92.6083 51.2676 88.9355 55.0113 88.9355 59.6293C88.9355 64.2474 92.6083 67.9911 97.1388 67.9911Z" fill="#006D67"/>
<path d="M90.3544 65.1326C93.0692 64.0327 94.3951 60.8978 93.316 58.1306C92.2369 55.3635 89.1614 54.0119 86.4467 55.1119C83.732 56.2118 82.406 59.3467 83.4851 62.1139C84.5642 64.881 87.6397 66.2326 90.3544 65.1326Z" fill="#006D67"/>
<path d="M105.089 65.0237C106.593 65.0237 107.813 63.7806 107.813 62.2472C107.813 60.7138 106.593 59.4707 105.089 59.4707C103.585 59.4707 102.365 60.7138 102.365 62.2472C102.365 63.7806 103.585 65.0237 105.089 65.0237Z" fill="#006D67"/>
<path d="M115.131 56.5597C115.131 55.3329 114.149 54.332 112.945 54.332C111.742 54.332 110.76 55.3329 110.76 56.5597C110.76 57.7865 111.742 58.7873 112.945 58.7873C114.149 58.7873 115.131 57.7865 115.131 56.5597Z" fill="#006D67"/>
<path d="M115.732 58.0148C115.732 57.6597 115.447 57.3691 115.098 57.3691C114.75 57.3691 114.465 57.6597 114.465 58.0148C114.465 58.37 114.75 58.6605 115.098 58.6605C115.447 58.6605 115.732 58.37 115.732 58.0148Z" fill="#006D67"/>
<path d="M26.3223 92.6523L61.8592 21.7227L98.4413 92.6523H26.3223Z" fill="#1E4C4C"/>
<path d="M110.087 51.6234C110.087 46.7484 106.191 42.7773 101.409 42.7773C96.6262 42.7773 92.7305 46.7484 92.7305 51.6234C92.7305 56.4984 96.6262 60.4694 101.409 60.4694C106.191 60.4694 110.087 56.5307 110.087 51.6234Z" fill="#F8FBF7"/>
<path d="M92.1627 57.8526C95.2589 57.8526 97.7688 55.2942 97.7688 52.1382C97.7688 48.9823 95.2589 46.4238 92.1627 46.4238C89.0666 46.4238 86.5566 48.9823 86.5566 52.1382C86.5566 55.2942 89.0666 57.8526 92.1627 57.8526Z" fill="#F8FBF7"/>
<path d="M112.686 54.3989C112.686 52.7846 111.388 51.4609 109.804 51.4609C108.22 51.4609 106.922 52.7846 106.922 54.3989C106.922 56.0131 108.22 57.3368 109.804 57.3368C111.388 57.3368 112.686 56.0131 112.686 54.3989Z" fill="#F8FBF7"/>
<path d="M120.413 48.3958C120.413 47.1045 119.368 46.0391 118.101 46.0391C116.834 46.0391 115.789 47.1045 115.789 48.3958C115.789 49.6872 116.834 50.7526 118.101 50.7526C119.368 50.7526 120.413 49.6872 120.413 48.3958Z" fill="#F8FBF7"/>
<path d="M121.051 49.9143C121.051 49.5269 120.734 49.2363 120.386 49.2363C120.037 49.2363 119.721 49.5592 119.721 49.9143C119.721 50.3017 120.037 50.5923 120.386 50.5923C120.734 50.5923 121.051 50.3017 121.051 49.9143Z" fill="#F8FBF7"/>
<path d="M18.7188 39.8998C18.7188 45.9371 23.533 50.8443 29.4558 50.8443C35.3787 50.8443 40.1929 45.9371 40.1929 39.8998C40.1929 33.8626 35.7588 30.4727 29.8359 30.4727C23.9131 30.4727 18.7188 33.8626 18.7188 39.8998Z" fill="#F8FBF7"/>
<path d="M35.0938 44.2597C35.0938 46.907 37.2158 49.0701 39.813 49.0701C42.4102 49.0701 44.5323 46.907 44.5323 44.2597C44.5323 41.6123 42.4102 39.4492 39.813 39.4492C37.2158 39.4492 35.0938 41.6123 35.0938 44.2597Z" fill="#F8FBF7"/>
<path d="M9.0918 42.3532C9.0918 46.4534 12.3541 49.7787 16.3766 49.7787C20.399 49.7787 23.6613 46.4534 23.6613 42.3532C23.6613 38.2531 20.399 34.9277 16.3766 34.9277C12.3541 34.9277 9.0918 38.2853 9.0918 42.3532Z" fill="#F8FBF7"/>
<path d="M4.91016 92.6578L30.0267 35.4492L55.3333 92.6578H4.91016Z" fill="#1A7C7B"/>
<path fill-rule="evenodd" clip-rule="evenodd" d="M61.8555 21.7227L62.1405 92.6523H98.4376L61.8555 21.7227Z" fill="#2E5959"/>
<path fill-rule="evenodd" clip-rule="evenodd" d="M30.3438 35.5801L32.4025 92.595L55.3336 92.6595L30.3438 35.5801Z" fill="#258382"/>
<path fill-rule="evenodd" clip-rule="evenodd" d="M61.859 21.7227L55.7461 33.9586L62.4607 37.2193L68.4152 33.9586L61.859 21.7227Z" fill="#F8FBF7"/>
<path fill-rule="evenodd" clip-rule="evenodd" d="M11.0213 87.3293L5.47852 84.4559L11.148 67.7324L16.6907 85.0371L11.0213 87.3293Z" fill="#559879"/>
<path fill-rule="evenodd" clip-rule="evenodd" d="M14.4461 86.2648L10.582 84.2631L14.5095 72.6406L18.4052 84.6506L14.4461 86.2648Z" fill="#FCC020"/>
<path fill-rule="evenodd" clip-rule="evenodd" d="M5.54275 93.1418L0 90.2684L5.66944 73.5449L11.2439 90.8496L5.54275 93.1418Z" fill="#9EC10D"/>
<path fill-rule="evenodd" clip-rule="evenodd" d="M17.7065 92.2697L13.209 89.9775L17.8015 76.4824L22.2674 90.4294L17.7065 92.2697Z" fill="#9EC10D"/>
<path fill-rule="evenodd" clip-rule="evenodd" d="M119.976 87.3293L125.551 84.4559L119.881 67.7324L114.307 85.0371L119.976 87.3293Z" fill="#559879"/>
<path fill-rule="evenodd" clip-rule="evenodd" d="M107.814 92.6554L111.678 90.6861L107.751 79.0312L103.887 91.0735L107.814 92.6554Z" fill="#C4C10D"/>
<path fill-rule="evenodd" clip-rule="evenodd" d="M125.459 93.1418L131.001 90.2684L125.332 73.5449L119.789 90.8496L125.459 93.1418Z" fill="#9EC10D"/>
<path d="M61.9824 10.6837L75.5384 5.25988L61.9824 0.320312V10.6837Z" fill="#F86B40"/>
<path d="M61.3203 22.8253L61.8904 21.7277L62.3655 22.8253V0H61.3203V22.8253Z" fill="#F86B40"/>
<path fill-rule="evenodd" clip-rule="evenodd" d="M113.291 93.1408L117.789 90.8485L113.228 77.3535L108.73 91.3005L113.291 93.1408Z" fill="#9EC10D"/>
<path fill-rule="evenodd" clip-rule="evenodd" d="M119.246 93.1408L123.744 90.8485L119.151 77.3535L114.686 91.3005L119.246 93.1408Z" fill="#4E8B0D"/>
<path opacity="0.5" fill-rule="evenodd" clip-rule="evenodd" d="M34.5581 92.3691L10.8668 92.4983C10.8668 92.4983 8.64968 92.918 7.82619 93.7897C6.40091 95.2748 5.98916 98.4387 8.30128 99.7624C12.007 101.861 14.3825 101.603 22.6174 101.603C30.8524 101.603 36.2051 104.121 32.9111 105.8C29.6171 107.478 28.6036 111.256 32.0876 111.256C33.7346 111.256 60.4981 111.675 65.8509 111.256C71.2036 110.836 78.1399 106.93 71.0769 104.282C67.9729 103.12 65.0274 103.701 65.0274 103.701C65.0274 103.701 64.4256 101.183 69.1448 101.183C70.3801 101.183 111.555 102.022 113.202 99.0844C114.849 96.1465 110.605 92.7888 110.605 92.7888L34.5581 92.3691Z" fill="#1A7C7B"/>
</svg>
