<svg width="55" height="55" viewBox="0 0 55 55" fill="none" xmlns="http://www.w3.org/2000/svg">
<path d="M44.0081 39.55C44.0036 42.4348 41.9456 44.7481 39.4105 44.7441L15.5894 44.7065C13.0543 44.7025 11.0037 42.3608 11.0082 39.4979L11.035 22.539C11.0389 20.1132 22.6537 13.6408 26.3284 11.6579C27.0064 11.2875 27.8151 11.2669 28.4702 11.6176C32.0949 13.5683 44.0388 20.1435 44.0349 22.5912L44.0081 39.55Z" fill="#7D7D7D"/>
<path d="M39.004 11.0442L34.4583 11.037L21.4551 11.0164L16.9094 11.0093C15.8604 11.0076 14.9633 11.7055 14.9618 12.6015L14.9539 17.628L14.9142 42.7385C14.9128 43.6345 15.7858 44.3571 16.8348 44.3588L16.8567 44.3588L38.9294 44.3937C39.9129 44.3952 40.7444 43.7628 40.8331 42.9324C40.8332 42.8887 40.8333 42.8232 40.8333 42.7795L40.873 17.669L40.8809 12.6425C40.9042 11.7465 40.053 11.0458 39.004 11.0442Z" fill="white"/>
<path opacity="0.2" d="M34.4595 11.3867L35.1924 17.7912C35.1924 17.7912 35.0818 18.6215 35.9559 18.6884C36.83 18.7335 40.8965 17.6909 40.8965 17.6909L34.4595 11.3867Z" fill="#060606"/>
<path d="M34.4599 11.037L34.4509 16.7847C34.4509 16.7847 34.3403 17.615 35.2143 17.6819C36.0884 17.727 40.8964 17.6909 40.8964 17.6909L34.4599 11.037Z" fill="#E5E5E5"/>
<path d="M30.9798 13.3043L17.4302 13.2829L17.4295 13.7133L30.9791 13.7347L30.9798 13.3043Z" fill="#494949"/>
<path d="M32.5042 17.8306L17.4248 17.8068L17.4241 18.2372L32.5035 18.261L32.5042 17.8306Z" fill="#494949"/>
<path d="M38.2227 22.3634L17.4175 22.3305L17.4168 22.761L38.222 22.7938L38.2227 22.3634Z" fill="#494949"/>
<path d="M38.2159 26.8872L17.4106 26.8544L17.41 27.2848L38.2152 27.3177L38.2159 26.8872Z" fill="#494949"/>
<path d="M32.4818 31.4021L17.4023 31.3783L17.4017 31.8087L32.4811 31.8325L32.4818 31.4021Z" fill="#494949"/>
<path d="M44.0341 22.8971L44.0075 39.7248C43.9179 41.1015 43.4793 42.1061 42.9318 42.8264C41.6397 44.529 39.6725 44.7008 39.6725 44.7008L27.5187 32.6398L44.0341 22.8971Z" fill="#494949"/>
<path d="M27.5201 32.6181L15.3283 44.6405C15.3283 44.6405 13.3617 44.4844 12.075 42.7559C11.5298 42.0339 11.1161 41.0279 11.0091 39.6509L11.0356 22.8232L27.5201 32.6181Z" fill="#494949"/>
<path d="M42.9324 42.8265C41.6403 44.5291 39.6732 44.7008 39.6732 44.7008L15.3276 44.6623C15.3276 44.6623 13.3609 44.5062 12.0743 42.7777L27.5194 32.6399L42.9324 42.8265Z" fill="#7D7D7D"/>
</svg>
