<svg width="55" height="55" viewBox="0 0 55 55" fill="none" xmlns="http://www.w3.org/2000/svg">
<path d="M40.1054 28.7266L44.0205 31.2263L31.1752 44.0311L28.6879 40.1081L40.1054 28.7266Z" fill="#7D7D7D"/>
<path d="M38.6639 38.6985C39.846 37.5201 41.7205 37.4838 42.8506 38.6174C44.1467 39.9171 43.9997 43.3372 43.643 43.6933C43.2863 44.0489 39.8657 44.1845 38.5697 42.8849C37.4381 41.7497 37.4813 39.8758 38.6619 38.699L38.6639 38.6985Z" fill="#D97979"/>
<path d="M11.6313 11.585C11.6313 11.585 23.0992 8.15 32.9703 18.0519C37.9605 23.0578 43.3125 24.1015 43.3125 24.1015L44.0237 24.8149L24.7587 44.0195L24.0471 43.3056C24.0471 43.3056 23.0209 37.9503 18.0302 32.9444C8.16257 23.0505 11.6363 11.591 11.6363 11.591L11.6313 11.585Z" fill="#494949"/>
<path d="M24.0761 29.1094C21.2941 29.105 19.0424 26.8461 19.0468 24.0641C19.0512 21.282 21.31 19.0303 24.0921 19.0347C26.8741 19.0391 29.1258 21.2979 29.1214 24.08C29.117 26.862 26.8582 29.1137 24.0761 29.1094Z" fill="#747474"/>
<path d="M24.078 27.5983C22.1305 27.5952 20.5543 26.014 20.5574 24.0666C20.5605 22.1192 22.1417 20.543 24.0891 20.546C26.0365 20.5491 27.6127 22.1303 27.6097 24.0777C27.6066 26.0252 26.0254 27.6014 24.078 27.5983Z" fill="#EDF5F8"/>
</svg>
