<svg width="1948" height="1491" viewBox="0 0 1948 1491" fill="none" xmlns="http://www.w3.org/2000/svg">
<path d="M393.3 835.2C394.5 838.8 395.1 843 395.1 847.8C395.7 852.6 396 857.1 396 861.3C396 872.1 394.8 882.3 392.4 891.9C390 901.5 386.1 909.9 380.7 917.1C375.3 924.3 368.1 930.3 359.1 935.1C350.7 939.3 339.9 941.4 326.7 941.4C314.1 941.4 301.5 938.7 288.9 933.3C276.9 927.9 261.9 920.1 243.9 909.9L50.4 798.3C34.8 777.9 27 750.9 27 717.3C27 692.1 30.6 672.6 37.8 658.8C45 645 55.5 634.2 69.3 626.4L316.8 482.4C346.2 490.2 366 501 376.2 514.8C387 528 392.4 542.4 392.4 558C392.4 579 387 595.5 376.2 607.5C366 618.9 350.7 629.7 330.3 639.9L171.9 720L393.3 835.2ZM994.76 588.6C993.56 585 992.66 580.8 992.06 576C992.06 571.2 992.06 566.7 992.06 562.5C992.06 551.7 993.26 541.5 995.66 531.9C998.06 522.3 1001.96 513.9 1007.36 506.7C1012.76 499.5 1019.66 493.8 1028.06 489.6C1037.06 484.8 1048.16 482.4 1061.36 482.4C1073.96 482.4 1086.26 485.1 1098.26 490.5C1110.86 495.9 1126.16 503.7 1144.16 513.9L1337.66 625.5C1353.26 645.9 1361.06 672.9 1361.06 706.5C1361.06 731.7 1357.46 751.2 1350.26 765C1343.06 778.8 1332.56 789.6 1318.76 797.4L1071.26 941.4C1041.86 933.6 1021.76 923.1 1010.96 909.9C1000.76 896.1 995.66 881.4 995.66 865.8C995.66 844.8 1000.76 828.6 1010.96 817.2C1021.76 805.2 1037.36 794.1 1057.76 783.9L1216.16 703.8L994.76 588.6Z" fill="white"/>
<path d="M781.186 641.162C781.083 657.821 795.482 671.414 813.347 671.525C831.212 671.635 845.777 658.22 845.88 641.562C845.983 624.903 831.584 611.31 813.719 611.2C795.854 611.089 781.289 624.504 781.186 641.162Z" fill="white"/>
<path d="M864.847 777.105C864.675 805.032 888.815 827.822 918.764 828.006C948.714 828.191 973.133 805.701 973.305 777.774C973.478 749.846 949.338 727.057 919.388 726.872C889.438 726.687 865.02 749.177 864.847 777.105Z" fill="white"/>
<path d="M623.312 712.567C623.14 740.494 647.279 763.284 677.229 763.469C707.179 763.653 731.598 741.164 731.77 713.236C731.943 685.309 707.803 662.519 677.853 662.334C647.903 662.15 623.484 684.639 623.312 712.567Z" fill="white"/>
<path d="M402.255 712.323C402.114 735.145 421.841 753.768 446.315 753.919C470.79 754.07 490.745 735.691 490.886 712.869C491.027 690.047 471.3 671.424 446.825 671.273C422.351 671.122 402.396 689.501 402.255 712.323Z" fill="#DCA6A6"/>
<path d="M713 795C762.706 795 803 776.644 803 754C803 731.356 762.706 713 713 713C663.295 713 623 731.356 623 754C623 776.644 663.295 795 713 795Z" stroke="white" stroke-width="10" stroke-miterlimit="10"/>
</svg>
