<svg width="1640" height="846" viewBox="0 0 1640 846" fill="none" xmlns="http://www.w3.org/2000/svg">
<path d="M333.85 575.8C329.817 576.9 323.4 578 314.6 579.1C306.167 580.2 297.733 580.75 289.3 580.75C280.867 580.75 273.35 580.017 266.75 578.55C260.517 577.45 255.2 575.25 250.8 571.95C246.4 568.65 243.1 564.067 240.9 558.2C238.7 552.333 237.6 544.633 237.6 535.1V449.3H132V575.8C127.967 576.9 121.55 578 112.75 579.1C104.317 580.2 95.8833 580.75 87.45 580.75C79.0167 580.75 71.5 580.017 64.9 578.55C58.6667 577.45 53.35 575.25 48.95 571.95C44.55 568.65 41.25 564.067 39.05 558.2C36.85 552.333 35.75 544.633 35.75 535.1V244.7C39.7833 243.967 46.2 243.05 55 241.95C63.8 240.483 72.2333 239.75 80.3 239.75C88.7333 239.75 96.0667 240.483 102.3 241.95C108.9 243.05 114.4 245.25 118.8 248.55C123.2 251.85 126.5 256.433 128.7 262.3C130.9 268.167 132 275.867 132 285.4V373.4H237.6V244.7C241.633 243.967 248.05 243.05 256.85 241.95C265.65 240.483 274.083 239.75 282.15 239.75C290.583 239.75 297.917 240.483 304.15 241.95C310.75 243.05 316.25 245.25 320.65 248.55C325.05 251.85 328.35 256.433 330.55 262.3C332.75 268.167 333.85 275.867 333.85 285.4V575.8ZM405.281 295.85C405.281 280.083 409.865 267.617 419.031 258.45C428.198 249.283 440.665 244.7 456.431 244.7H637.931C640.498 248.733 642.698 254.05 644.531 260.65C646.731 267.25 647.831 274.217 647.831 281.55C647.831 295.483 644.715 305.383 638.481 311.25C632.615 317.117 624.731 320.05 614.831 320.05H498.781V371.2H622.531C625.098 375.233 627.298 380.55 629.131 387.15C631.331 393.383 632.431 400.167 632.431 407.5C632.431 421.433 629.498 431.333 623.631 437.2C617.765 443.067 609.881 446 599.981 446H498.781V503.75H640.131C642.698 507.783 644.898 513.1 646.731 519.7C648.931 526.3 650.031 533.267 650.031 540.6C650.031 554.533 646.915 564.617 640.681 570.85C634.815 576.717 626.931 579.65 617.031 579.65H456.431C440.665 579.65 428.198 575.067 419.031 565.9C409.865 556.733 405.281 544.267 405.281 528.5V295.85ZM757.75 579.65C741.983 579.65 729.516 575.067 720.35 565.9C711.183 556.733 706.6 544.267 706.6 528.5V244.15C710.633 243.417 717.05 242.5 725.85 241.4C734.65 239.933 743.083 239.2 751.15 239.2C759.583 239.2 766.916 239.933 773.15 241.4C779.75 242.5 785.25 244.7 789.65 248C794.05 251.3 797.35 255.883 799.55 261.75C801.75 267.617 802.85 275.317 802.85 284.85V502.1H928.8C931.366 506.133 933.75 511.633 935.95 518.6C938.15 525.2 939.25 532.167 939.25 539.5C939.25 554.167 936.133 564.617 929.9 570.85C923.666 576.717 915.416 579.65 905.15 579.65H757.75ZM1039.73 579.65C1023.97 579.65 1011.5 575.067 1002.33 565.9C993.165 556.733 988.582 544.267 988.582 528.5V244.15C992.615 243.417 999.032 242.5 1007.83 241.4C1016.63 239.933 1025.07 239.2 1033.13 239.2C1041.57 239.2 1048.9 239.933 1055.13 241.4C1061.73 242.5 1067.23 244.7 1071.63 248C1076.03 251.3 1079.33 255.883 1081.53 261.75C1083.73 267.617 1084.83 275.317 1084.83 284.85V502.1H1210.78C1213.35 506.133 1215.73 511.633 1217.93 518.6C1220.13 525.2 1221.23 532.167 1221.23 539.5C1221.23 554.167 1218.12 564.617 1211.88 570.85C1205.65 576.717 1197.4 579.65 1187.13 579.65H1039.73ZM1237.41 410.8C1237.41 382.2 1241.81 356.9 1250.61 334.9C1259.78 312.9 1272.06 294.567 1287.46 279.9C1303.23 264.867 1321.56 253.5 1342.46 245.8C1363.73 238.1 1386.65 234.25 1411.21 234.25C1435.78 234.25 1458.51 238.1 1479.41 245.8C1500.68 253.5 1519.2 264.867 1534.96 279.9C1550.73 294.567 1563.01 312.9 1571.81 334.9C1580.98 356.9 1585.56 382.2 1585.56 410.8C1585.56 439.4 1581.16 464.883 1572.36 487.25C1563.56 509.25 1551.28 527.767 1535.51 542.8C1520.11 557.467 1501.78 568.65 1480.51 576.35C1459.25 584.05 1436.15 587.9 1411.21 587.9C1386.28 587.9 1363.18 584.05 1341.91 576.35C1320.65 568.283 1302.31 556.733 1286.91 541.7C1271.51 526.667 1259.41 508.15 1250.61 486.15C1241.81 464.15 1237.41 439.033 1237.41 410.8ZM1336.41 410.8C1336.41 444.167 1343.2 469.1 1356.76 485.6C1370.33 502.1 1388.48 510.35 1411.21 510.35C1434.31 510.35 1452.65 502.1 1466.21 485.6C1479.78 469.1 1486.56 444.167 1486.56 410.8C1486.56 377.8 1479.78 353.05 1466.21 336.55C1453.01 320.05 1434.86 311.8 1411.76 311.8C1389.03 311.8 1370.7 320.05 1356.76 336.55C1343.2 352.683 1336.41 377.433 1336.41 410.8Z" fill="#E1E0E0"/>
<path d="M1253.24 334.316C1253.24 334.316 1257.4 355.957 1255.74 360.118C1254.07 364.28 1279.04 358.454 1279.04 358.454C1279.04 358.454 1274.05 336.813 1274.88 331.819C1275.71 326.825 1253.24 334.316 1253.24 334.316Z" fill="#FFB8B8"/>
<path opacity="0.1" d="M1246.21 772C1260.57 772 1272.21 767.971 1272.21 763C1272.21 758.029 1260.57 754 1246.21 754C1231.85 754 1220.21 758.029 1220.21 763C1220.21 767.971 1231.85 772 1246.21 772Z" fill="black"/>
<path opacity="0.1" d="M1352.21 772C1366.57 772 1378.21 767.971 1378.21 763C1378.21 758.029 1366.57 754 1352.21 754C1337.85 754 1326.21 758.029 1326.21 763C1326.21 767.971 1337.85 772 1352.21 772Z" fill="black"/>
<path d="M1349.45 430V457.648H1245.96V431.69H1242.96V763H1245.96V703.688H1349.45V763H1352.45V430H1349.45ZM1349.45 460.648V506.256H1245.96V460.648L1349.45 460.648ZM1245.96 603.472V557.864H1349.45V603.472H1245.96ZM1349.45 606.472V652.079H1245.96V606.472H1349.45ZM1245.96 554.864V509.256H1349.45V554.864H1245.96ZM1245.96 700.688V655.079H1349.45V700.688H1245.96Z" fill="#2F2E41"/>
<path d="M1213.33 436.583V440.727C1213.33 440.727 1210.37 441.911 1210.37 446.648C1210.37 451.384 1208 469.145 1208 469.145C1208 469.145 1212.14 472.697 1215.7 471.513C1217.66 470.916 1219.48 469.907 1221.02 468.553L1221.62 450.2L1219.25 445.464V437.175L1213.33 436.583Z" fill="#DCA6A6"/>
<path d="M1326.59 272C1326.59 272 1316.29 273.184 1316.29 277.92C1316.29 282.656 1308.05 300.417 1308.05 300.417C1308.05 300.417 1322.47 303.969 1334.82 302.785C1347.18 301.601 1353.36 299.825 1353.36 299.825L1355.41 281.472L1347.18 276.736L1326.59 272Z" fill="#D86D6D"/>
<path d="M1327.59 313.442V302.193C1327.59 302.193 1315.16 277.328 1325.22 277.328C1335.29 277.328 1336.47 299.825 1336.47 299.825V315.81L1327.59 313.442Z" fill="#FFB8B8"/>
<path d="M1221.02 431.255C1221.02 431.255 1214.51 427.703 1213.33 431.255C1212.14 434.807 1208.59 442.504 1213.33 443.096C1218.06 443.688 1222.8 439.543 1222.8 439.543L1221.02 431.255Z" fill="#FFB8B8"/>
<path d="M1253.08 455.236C1253.08 455.236 1249.51 459.944 1254.68 505.876C1259.86 551.808 1256.88 585.252 1266.69 584.794C1266.69 584.794 1264.13 594.754 1272.47 595.121C1280.82 595.489 1284.63 596.068 1285.28 593.766C1285.93 591.465 1286.95 580.821 1284.68 580.926C1284.68 580.926 1284.82 583.948 1285.77 571.792C1286.71 559.637 1284.03 502.235 1287.46 494.506L1300.85 521.887C1300.85 521.887 1301.45 534.727 1303.99 540.664C1306.54 546.6 1311.94 581.168 1311.94 581.168L1311.43 586.49C1311.43 586.49 1329.7 588.665 1330.31 585.608C1330.93 582.552 1330.72 578.02 1329.89 576.545C1329.07 575.07 1329.07 575.07 1330.44 571.978C1331.04 570.816 1331.39 569.537 1331.46 568.228C1331.53 566.918 1331.32 565.61 1330.84 564.39C1329.98 562.159 1327.69 513.065 1327.69 513.065C1327.69 513.065 1323.39 453.467 1314.18 450.869C1304.98 448.271 1253.08 455.236 1253.08 455.236Z" fill="#2F2E41"/>
<path d="M1269.17 589.22L1263.62 600.076C1263.62 600.076 1254.02 597.118 1256.32 605.716C1265.53 606.003 1274.75 605.445 1283.87 604.051C1283.87 604.051 1287.71 605.385 1288.36 603.084C1289.01 600.783 1286 592.976 1283.73 593.082C1281.47 593.187 1269.17 589.22 1269.17 589.22Z" fill="#2F2E41"/>
<path d="M1312.84 584.153C1312.84 584.153 1307.43 598.031 1309.73 598.68C1312.03 599.33 1332.57 601.399 1334.11 602.084C1335.66 602.769 1343.25 603.171 1343.79 598.604C1344.33 594.037 1339.73 592.738 1339.73 592.738C1339.73 592.738 1331.35 591.615 1328.73 584.168C1326.12 576.721 1312.84 584.153 1312.84 584.153Z" fill="#2F2E41"/>
<path d="M1261.08 307.292C1259.77 307.053 1258.42 307.113 1257.13 307.466C1256.1 307.923 1255.15 308.546 1254.32 309.311C1252.81 310.511 1251.2 311.576 1249.51 312.495C1248.1 313.103 1246.82 313.996 1245.77 315.117C1245.32 315.73 1244.97 316.402 1244.71 317.115C1243.09 321.258 1242.66 325.77 1243.45 330.147C1243.54 330.769 1243.73 331.372 1244.01 331.936C1244.87 333.53 1246.78 334.158 1248.39 334.994C1251.45 336.58 1253.77 339.251 1256.27 341.612C1257.2 342.541 1258.25 343.347 1259.39 344.011C1262.96 345.96 1267.33 345.324 1271.35 344.635C1271.63 344.634 1271.91 344.578 1272.17 344.468C1272.44 344.358 1272.67 344.197 1272.87 343.995C1273.07 343.793 1273.23 343.553 1273.34 343.289C1273.45 343.025 1273.5 342.743 1273.5 342.459L1276.67 328.209C1277.24 326.098 1277.51 323.916 1277.48 321.728C1277.26 318.269 1275.38 313.477 1272.85 311.02C1269.89 308.157 1264.95 307.701 1261.08 307.292Z" fill="#2F2E41"/>
<path d="M1249.44 361.396C1249.44 361.396 1250.63 353.108 1257.73 352.516C1261.75 352.136 1265.72 351.343 1269.57 350.147C1270.16 350.147 1277.86 350.739 1281.41 354.292C1281.41 354.292 1283.78 357.844 1284.96 355.476C1286.15 353.108 1286.15 351.924 1288.52 353.108C1290.88 354.292 1290.88 349.555 1295.03 350.147C1299.17 350.739 1309.83 377.381 1309.83 377.381L1306.28 381.525C1306.28 381.525 1301.54 413.494 1309.83 427.111C1318.12 440.727 1321.67 455.528 1313.38 458.488C1305.09 461.448 1247.07 488.09 1249.44 471.513C1251.81 454.936 1250.03 428.887 1247.67 428.295C1245.3 427.703 1232.27 380.933 1232.27 380.933C1232.8 377.963 1234.04 375.168 1235.9 372.794C1237.76 370.419 1240.17 368.538 1242.93 367.316C1252.4 363.172 1249.44 361.396 1249.44 361.396Z" fill="#7B7B7B"/>
<path d="M1292.07 352.516L1295.03 350.147C1295.03 350.147 1300.36 350.147 1300.95 348.963C1301.54 347.779 1304.5 347.779 1306.87 346.595C1309.24 345.411 1306.28 343.635 1309.24 342.451C1312.2 341.267 1312.2 342.451 1312.2 339.491C1312.2 336.531 1319.89 333.571 1320.48 330.019C1321.08 326.466 1327 309.89 1327 309.89L1338.25 313.442L1335.29 334.755C1335.29 334.755 1335.29 345.411 1329.96 352.516C1324.63 359.62 1312.79 377.381 1306.87 377.973C1300.95 378.565 1292.07 352.516 1292.07 352.516Z" fill="#7B7B7B"/>
<path d="M1235.83 377.973L1232.27 380.933C1232.27 380.933 1231.09 393.957 1231.09 394.549C1231.09 395.141 1232.27 402.246 1231.09 402.838C1229.91 403.43 1227.54 415.27 1228.13 415.862V417.638L1219.84 430.663V443.096L1239.38 430.663C1239.38 430.663 1250.63 429.479 1248.85 419.415C1247.07 409.35 1235.83 377.973 1235.83 377.973Z" fill="#7B7B7B"/>
</svg>
