<svg width="1459" height="1118" viewBox="0 0 1459 1118" fill="none" xmlns="http://www.w3.org/2000/svg">
<g filter="url(#filter0_d)">
<path d="M718.431 294.011C449.256 83.9036 371.415 206.466 366.141 294.011C360.868 381.556 433.998 469.277 404.113 530.277C374.228 591.277 259.4 695.979 290.199 806.096C328.698 943.742 470.563 1017.05 549.669 948.489C628.776 879.929 629.439 880.722 706.301 867.272C859.783 840.416 1019.57 985.085 1126.09 962.728C1270.39 932.444 1203.09 804.514 1334.94 635.753C1440.41 500.744 1365.52 294.011 1176.72 343.585C994.764 391.361 884.555 398.432 718.431 294.011Z" fill="#ECECEC" fill-opacity="0.81"/>
</g>
<g opacity="0.15">
<path d="M287.882 734.911L287.857 737.941L508.616 739.798L508.641 736.768L287.882 734.911Z" fill="black"/>
<path d="M524.215 739.335C524.285 731.067 517.639 724.308 509.371 724.239C501.104 724.169 494.345 730.815 494.276 739.083C494.206 747.35 500.852 754.109 509.12 754.179C517.387 754.248 524.146 747.602 524.215 739.335Z" fill="#D76C6C"/>
<path d="M342.115 622.035L340.011 625.828L609.247 627.915L609.279 624.08L342.115 622.035Z" fill="black"/>
<path d="M618.05 624.647C618.12 616.38 611.474 609.621 603.206 609.551C594.939 609.482 588.18 616.128 588.11 624.395C588.041 632.663 594.687 639.422 602.954 639.491C611.222 639.561 617.981 632.915 618.05 624.647Z" fill="black"/>
<path d="M769.319 541.022L769.297 543.674L1044.1 545.985L1044.12 543.333L769.319 541.022Z" fill="black"/>
<path d="M1058.79 545.979C1058.86 537.711 1052.21 530.953 1043.95 530.883C1035.68 530.814 1028.92 537.46 1028.85 545.727C1028.78 553.995 1035.43 560.754 1043.69 560.823C1051.96 560.893 1058.72 554.247 1058.79 545.979Z" fill="#D76C6C"/>
<path d="M784.663 543.133C784.733 534.866 778.087 528.107 769.819 528.038C761.551 527.968 754.793 534.614 754.723 542.882C754.654 551.149 761.3 557.908 769.567 557.977C777.835 558.047 784.594 551.401 784.663 543.133Z" fill="black"/>
<path d="M634.163 816.11C634.233 807.842 627.587 801.084 619.319 801.014C611.051 800.945 604.293 807.591 604.223 815.858C604.154 824.126 610.8 830.884 619.067 830.954C627.335 831.024 634.094 824.378 634.163 816.11Z" fill="black"/>
<path d="M756.224 540.707L756.18 543.989L492.728 541.654L492.728 626.926L489.382 626.926L489.382 538.463L756.224 540.707Z" fill="black"/>
<path d="M876.641 705.327C876.71 697.059 870.064 690.301 861.797 690.231C853.529 690.161 846.77 696.807 846.701 705.075C846.631 713.343 853.277 720.101 861.545 720.171C869.813 720.24 876.571 713.594 876.641 705.327Z" fill="#D76C6C"/>
<path d="M849.222 702.458L847.215 705.63L585.629 703.43L584.686 817.666L581.39 817.622L582.377 700.214L849.222 702.458Z" fill="black"/>
<path d="M611.613 815.104L611.613 817.992L481.554 816.898L481.554 738.945L485.145 738.945L485.145 814.114L611.613 815.104Z" fill="black"/>
<path d="M923.25 600.006C923.32 591.739 916.674 584.98 908.406 584.911C900.139 584.841 893.38 591.487 893.311 599.755C893.241 608.022 899.887 614.781 908.155 614.851C916.422 614.92 923.181 608.274 923.25 600.006Z" fill="black"/>
<path d="M983.911 436.979C983.981 428.711 977.335 421.953 969.067 421.883C960.8 421.814 954.041 428.46 953.971 436.727C953.902 444.995 960.548 451.754 968.816 451.823C977.083 451.893 983.842 445.247 983.911 436.979Z" fill="black"/>
<path d="M906.228 598.971L904.599 601.845C855.861 601.435 828.536 601.205 779.799 600.795L778.971 703.273L775.283 703.23L776.169 597.877L906.228 598.971Z" fill="black"/>
<path d="M963.469 438.014L961.84 440.888C913.102 440.478 885.777 440.248 837.04 439.838L836.212 542.316L832.524 542.273L833.41 436.92L963.469 438.014Z" fill="black"/>
</g>
<g filter="url(#filter1_d)">
<path d="M1185.65 564.028C1184.88 559.037 1184.18 554.036 1183.4 549.044C1182.55 543.546 1181.58 538.068 1180.78 532.562C1180.09 527.826 1179.59 523.063 1178.91 518.327C1178.56 515.95 1178.52 513.497 1177.78 511.21C1177.44 510.146 1176.29 508.213 1176.29 508.213C1176.29 508.213 1179.48 509.459 1181.16 509.711C1182.64 509.934 1184.15 509.667 1185.65 509.711C1187.78 509.774 1189.89 510.174 1192.02 510.086C1194.67 509.976 1197.31 509.571 1199.89 508.962C1201.81 508.508 1203.6 507.616 1205.5 507.089C1206.61 506.782 1208.88 506.34 1208.88 506.34L1208.13 510.086C1208.13 510.086 1208.09 516.579 1208.13 519.826C1208.19 525.446 1208.15 531.073 1208.5 536.682C1208.81 541.568 1209.42 546.432 1210 551.292C1210.44 554.921 1210.96 558.54 1211.5 562.155C1211.96 565.282 1212.5 568.398 1213 571.52C1213.63 575.515 1214.24 579.513 1214.87 583.507C1215.24 585.88 1215.99 590.625 1215.99 590.625L1187.9 590.999C1187.9 590.999 1188.02 585.253 1187.9 582.383C1187.77 579.379 1187.51 576.378 1187.15 573.393C1186.77 570.254 1186.14 567.152 1185.65 564.027L1185.65 564.028Z" fill="#D76C6C" fill-opacity="0.86"/>
<path d="M1166.92 416.055L1175.54 416.429C1178.41 416.554 1181.28 416.971 1184.15 416.804C1188.06 416.576 1191.98 415.978 1195.76 414.931C1196.41 414.751 1197.64 414.182 1197.64 414.182C1197.64 414.182 1197.57 417.929 1197.64 419.801C1197.82 424.806 1198.21 429.807 1198.76 434.785C1199.8 444.193 1201.72 453.486 1202.88 462.88C1203.8 470.353 1204.34 477.869 1205.13 485.357C1205.6 489.855 1205.66 494.425 1206.63 498.842C1207.05 500.771 1208.5 504.461 1208.5 504.461C1208.5 504.461 1203.28 505.822 1200.63 506.335C1198.15 506.815 1195.65 507.192 1193.14 507.458C1191.15 507.669 1189.15 507.87 1187.15 507.833C1184.64 507.786 1182.12 507.571 1179.65 507.084C1178.38 506.83 1175.91 505.96 1175.91 505.96C1175.91 505.96 1177.47 502.29 1177.78 500.341C1178.3 497.136 1177.98 493.842 1177.78 490.601C1177.41 484.324 1176.15 478.129 1175.53 471.871C1174.9 465.39 1174.75 458.865 1174.04 452.392C1173.46 447.125 1172.71 441.875 1171.79 436.658C1170.95 431.883 1169.53 427.215 1168.79 422.423C1168.6 421.183 1168.8 419.873 1168.42 418.677C1168.11 417.718 1166.92 416.055 1166.92 416.055L1166.92 416.055Z" fill="#D76C6C" fill-opacity="0.86"/>
<path d="M1166.55 412.687C1166.55 412.687 1171.77 413.798 1174.41 413.811C1176.3 413.82 1178.15 413.149 1180.03 413.061C1183.15 412.917 1186.28 413.515 1189.4 413.436C1190.78 413.401 1192.15 413.237 1193.52 413.061C1194.27 412.965 1195.12 413.081 1195.77 412.687C1196.3 412.363 1196.89 411.188 1196.89 411.188C1196.89 411.188 1195.19 408.534 1194.64 407.068C1192.37 400.961 1191.57 394.393 1190.52 387.963C1189.79 383.499 1189.43 378.982 1189.02 374.477C1188.53 368.992 1188.34 363.484 1187.9 357.995C1187.47 352.62 1186.3 347.279 1186.4 341.887C1186.46 338.991 1187.27 336.156 1187.53 333.271C1187.76 330.656 1187.9 325.404 1187.9 325.404C1187.9 325.404 1184.19 326.582 1182.28 326.903C1178.82 327.482 1175.3 327.527 1171.79 327.652C1169.67 327.728 1165.42 327.652 1165.42 327.652L1160.18 331.398L1156.81 332.896C1156.81 332.896 1158.92 343.865 1159.81 349.379C1160.67 354.731 1161.26 360.124 1162.05 365.486C1163.11 372.614 1164.57 379.683 1165.42 386.838C1165.97 391.441 1166.02 396.094 1166.55 400.699C1166.84 403.207 1167.79 405.668 1167.67 408.191C1167.6 409.734 1166.55 412.686 1166.55 412.686L1166.55 412.687Z" fill="#D76C6C" fill-opacity="0.86"/>
<path d="M1186.77 323.161C1186.77 323.161 1183.35 324.674 1181.53 325.034C1178.95 325.544 1176.28 325.216 1173.66 325.409C1171.16 325.594 1168.68 326.211 1166.17 326.158C1164.4 326.121 1162.67 325.643 1160.92 325.409C1159.93 325.275 1158.79 325.55 1157.93 325.034C1157 324.485 1156.33 323.45 1156.05 322.412C1155.41 319.987 1156.53 317.415 1156.8 314.92C1157.15 311.795 1157.93 305.555 1157.93 305.555C1157.93 305.555 1164.17 305.811 1167.29 305.929C1170.79 306.062 1174.28 306.154 1177.78 306.304C1180.28 306.411 1185.27 306.679 1185.27 306.679C1185.27 306.679 1185.21 309.177 1185.27 310.425C1185.4 313.18 1185.67 315.93 1186.02 318.666C1186.21 320.173 1186.77 323.161 1186.77 323.161L1186.77 323.161Z" fill="#D76C6C" fill-opacity="0.86"/>
<path d="M1190.54 597.142C1190.54 597.142 1191.72 586.417 1192.03 581.034C1192.32 576.171 1192.35 571.296 1192.41 566.425C1192.5 559.557 1192.33 552.689 1192.41 545.822C1192.47 540.451 1192.72 535.084 1192.78 529.714C1192.85 523.846 1193.27 517.956 1192.78 512.107C1192.66 510.593 1192.38 509.09 1192.03 507.612C1191.64 505.959 1190.54 502.742 1190.54 502.742C1190.54 502.742 1194.46 504.461 1196.53 504.99C1199.95 505.865 1203.5 506.238 1207.02 506.488C1209.63 506.674 1212.27 506.705 1214.88 506.488C1217.91 506.238 1223.88 504.99 1223.88 504.99C1223.88 504.99 1222.1 509.664 1221.63 512.107C1220.35 518.747 1220.3 525.577 1220.13 532.336C1220 537.58 1220.57 542.824 1220.5 548.069C1220.41 555.569 1219.66 563.049 1219.38 570.545C1219.2 575.413 1218.9 580.284 1219.01 585.155C1219.12 590.536 1220.13 601.262 1220.13 601.262L1190.54 597.142Z" fill="#D76C6C" fill-opacity="0.86"/>
<path d="M1191.66 499.744C1191.66 499.744 1202.08 502.239 1207.39 502.74C1211.62 503.139 1215.94 503.421 1220.13 502.74C1221.3 502.551 1223.5 501.617 1223.5 501.617C1223.5 501.617 1222.65 499.145 1222.37 497.871C1221.6 494.299 1221.19 490.649 1220.88 487.007C1220.28 480.161 1220.18 473.276 1220.13 466.404C1220.08 460.16 1220.25 453.914 1220.5 447.674C1220.75 441.549 1221.16 435.431 1221.63 429.318C1221.94 425.193 1222.16 421.051 1222.75 416.956C1223.21 413.806 1224.62 407.591 1224.62 407.591C1224.62 407.591 1220.14 408.47 1217.88 408.715C1215.39 408.983 1212.88 409.274 1210.39 409.089C1207.85 408.902 1205.38 408.162 1202.9 407.591C1200 406.925 1197.21 405.843 1194.28 405.343C1192.8 405.09 1189.78 404.969 1189.78 404.969C1189.78 404.969 1190.41 414.204 1190.53 418.829C1190.7 424.945 1190.46 431.067 1190.53 437.185C1190.6 442.43 1190.75 447.674 1190.91 452.918C1191.01 456.29 1190.98 459.672 1191.28 463.032C1191.68 467.429 1192.75 471.748 1193.16 476.144C1193.42 479.006 1193.65 481.887 1193.53 484.76C1193.33 489.789 1191.66 499.744 1191.66 499.744H1191.66Z" fill="#D76C6C" fill-opacity="0.86"/>
<path d="M1193.53 348.035C1193.53 348.035 1194.02 360.272 1193.91 366.391C1193.83 370.768 1193.47 375.135 1193.16 379.502C1192.85 383.877 1192.57 388.26 1192.03 392.614C1191.65 395.751 1190.54 401.979 1190.54 401.979C1190.54 401.979 1196.01 403.543 1198.78 404.226C1202.13 405.055 1205.47 406.034 1208.89 406.474C1212.24 406.904 1215.65 407.199 1219.01 406.849C1220.54 406.688 1223.5 405.725 1223.5 405.725C1223.5 405.725 1222.75 396.492 1222.75 391.864C1222.75 387.113 1223.13 382.366 1223.5 377.629C1223.88 372.749 1224.61 367.9 1225 363.02C1225.35 358.656 1225.75 349.909 1225.75 349.909L1226.12 348.785C1226.12 348.785 1219.39 349.649 1216.01 349.534C1213.36 349.444 1210.78 348.598 1208.14 348.41C1204.78 348.171 1201.4 348.55 1198.03 348.41C1196.53 348.348 1193.53 348.036 1193.53 348.036L1193.53 348.035Z" fill="#D76C6C" fill-opacity="0.86"/>
<path d="M1210.39 575.791L1211.89 602.013L1245.6 609.505C1245.6 609.505 1242.3 594.08 1242.61 586.28C1242.8 581.435 1245.6 572.045 1245.6 572.045C1245.6 572.045 1238.3 575.636 1234.37 576.54C1230.95 577.325 1227.38 577.358 1223.88 577.289C1219.36 577.2 1210.39 575.791 1210.39 575.791L1210.39 575.791Z" fill="#D76C6C" fill-opacity="0.86"/>
<path d="M1210.39 571.669C1210.39 571.669 1216.77 574.223 1220.13 574.666C1223.48 575.106 1226.91 574.809 1230.25 574.291C1232.55 573.934 1234.76 573.116 1236.99 572.418C1239.51 571.627 1244.48 569.796 1244.48 569.796C1244.48 569.796 1242.92 563.599 1242.61 560.431C1242.15 555.833 1242.36 551.184 1242.61 546.571C1242.98 539.672 1244.08 532.832 1244.86 525.968C1245.82 517.472 1246.61 508.954 1247.85 500.495C1248.79 494.097 1249.82 487.702 1251.22 481.39C1251.95 478.108 1253.85 471.65 1253.85 471.65C1253.85 471.65 1248.73 474.034 1245.98 474.272C1243.46 474.49 1240.99 473.507 1238.49 473.149C1235.74 472.756 1232.97 472.563 1230.25 472.025C1227.33 471.449 1224.44 470.725 1221.63 469.777C1220.09 469.259 1217.14 467.904 1217.14 467.904C1217.14 467.904 1217.19 484.397 1216.76 492.628C1216.47 498.262 1215.79 503.869 1215.26 509.485C1214.67 515.732 1213.86 521.958 1213.39 528.215C1213.02 533.202 1212.77 538.2 1212.64 543.199C1212.52 548.192 1212.75 553.189 1212.64 558.183C1212.58 561.057 1212.85 563.985 1212.27 566.799C1211.91 568.502 1210.39 571.669 1210.39 571.669L1210.39 571.669Z" fill="#D76C6C" fill-opacity="0.86"/>
<path d="M1218.63 463.784C1218.63 463.784 1226.39 467.959 1230.62 469.028C1233.53 469.766 1236.63 469.368 1239.61 469.777C1242.88 470.228 1246.06 472.005 1249.35 471.65C1251.24 471.447 1254.59 469.403 1254.59 469.403L1253.47 463.784C1253.47 463.784 1253.33 458.781 1253.1 456.291C1252.93 454.534 1252.35 451.047 1252.35 451.047L1254.97 444.679C1254.97 444.679 1249.47 444.501 1246.73 444.679C1243.84 444.866 1240.99 445.49 1238.11 445.803C1235.25 446.114 1232.38 446.487 1229.5 446.552C1226.5 446.619 1220.51 446.177 1220.51 446.177C1220.51 446.177 1221.32 450.409 1221.25 452.545C1221.19 454.7 1220.64 456.818 1220.13 458.914C1219.73 460.565 1218.63 463.784 1218.63 463.784L1218.63 463.784Z" fill="#D76C6C" fill-opacity="0.86"/>
<path d="M1080.54 21.0014C1080.54 21.0014 1082.09 25.3538 1082.13 27.6236C1082.2 32.0385 1080.2 36.247 1079.48 40.6028C1079.03 43.3252 1078.72 46.0713 1078.42 48.8139C1078 52.6037 1077.54 56.3954 1077.36 60.2039C1077.18 64.0847 1077.17 67.978 1077.36 71.8585C1077.49 74.6052 1077.6 77.3757 1078.15 80.0696C1079.27 85.514 1081.05 90.8335 1083.19 95.9629C1084.72 99.6446 1086.54 103.238 1088.75 106.559C1090.59 109.325 1092.95 111.715 1095.11 114.24C1097.1 116.569 1099.22 118.787 1101.2 121.127C1104.64 125.202 1108.16 129.238 1111.26 133.577C1113.57 136.803 1115.51 140.282 1117.62 143.642C1118.51 145.053 1119.61 146.349 1120.27 147.88C1122.78 153.745 1124.3 160.084 1125.04 166.422C1125.57 170.983 1124.77 180.196 1124.77 180.196L1132.45 178.077C1132.45 178.077 1136.13 107.098 1123.45 75.0357C1122.29 72.1119 1119.58 70.077 1117.62 67.6189C1116.13 65.7538 1114.62 63.912 1113.12 62.0564C1110.91 59.3213 1108.85 56.4604 1106.5 53.8453C1105.41 52.6379 1103.98 51.7314 1103.05 50.4018C1101.38 48.0076 1100.67 45.0618 1099.34 42.4556C1098.43 40.6585 1097.76 38.6698 1096.43 37.1578C1094.84 35.356 1092.59 34.276 1090.6 32.9197C1089.39 32.0898 1087.94 31.5661 1086.89 30.5357C1084.17 27.857 1080.54 21 1080.54 21L1080.54 21.0014Z" fill="#D76C6C" fill-opacity="0.86"/>
<path d="M1122.39 26.0316C1122.39 26.0316 1122.26 46.401 1121.06 56.493C1120.57 60.6026 1119.46 64.6135 1118.68 68.6779C1118.05 71.9429 1117.3 75.1879 1116.83 78.4784C1116.7 79.3567 1116.54 80.2401 1116.56 81.1273C1116.6 83.0875 1117.01 85.0249 1117.36 86.9546C1118.07 90.9612 1119.26 94.8727 1120 98.8741C1120.66 102.385 1121.47 105.9 1121.59 109.47C1121.74 113.808 1120.71 118.112 1120.53 122.449C1120.39 125.89 1120.25 129.348 1120.53 132.78C1120.8 135.991 1121.68 139.124 1122.12 142.316C1122.67 146.275 1123.14 150.249 1123.45 154.235C1123.76 158.288 1123.89 162.355 1123.98 166.42C1124.26 179.396 1123.98 205.358 1123.98 205.358H1131.13C1131.13 205.358 1130.18 168.37 1131.92 149.997C1133.03 138.393 1137 127.174 1138.02 115.562C1138.22 113.275 1138.23 110.96 1138.02 108.675C1137.79 106.348 1137.84 103.824 1136.69 101.788C1136.11 100.753 1134.31 100.561 1134.04 99.4039C1133.61 97.5515 1135.67 95.9423 1136.16 94.1062C1136.79 91.7796 1137.21 89.3644 1137.22 86.9544C1137.23 84.3697 1136.63 81.8153 1136.16 79.2728C1134.45 69.918 1132.44 60.5982 1129.8 51.46C1128.77 47.8646 1127.39 44.3748 1126.1 40.8644C1125.51 39.2648 1124.71 37.737 1124.24 36.0965C1123.31 32.8145 1122.39 26.0312 1122.39 26.0312L1122.39 26.0316Z" fill="#D76C6C" fill-opacity="0.86"/>
<path d="M1129.54 199.538C1129.54 199.538 1132.83 172.487 1134.84 159.01C1135.7 153.167 1136.52 147.306 1137.75 141.528C1138.63 137.423 1139.82 133.393 1140.93 129.343C1141.94 125.623 1142.64 121.783 1144.11 118.218C1145.22 115.515 1146.77 113.003 1148.34 110.537C1150.52 107.126 1152.78 103.733 1155.5 100.736C1157.72 98.28 1160.2 96.0136 1162.91 94.114C1165.21 92.5066 1167.82 91.3986 1170.33 90.1407C1173.12 88.7413 1175.84 87.1427 1178.81 86.1674C1180.52 85.6047 1182.31 85.2854 1184.1 85.1079C1186.83 84.8382 1189.58 85.1079 1192.31 85.1079C1195.67 85.1079 1199.02 85.1509 1202.38 85.1079C1205.82 85.0641 1209.28 85.1768 1212.71 84.843C1216.9 84.4349 1221.01 83.4605 1225.16 82.724C1227.55 82.2998 1229.94 81.9235 1232.31 81.3995C1235.07 80.7886 1237.74 79.7692 1240.52 79.2805C1244.19 78.6365 1247.93 78.4454 1251.65 78.221C1258.52 77.8058 1272.31 77.6912 1272.31 77.6912C1272.31 77.6912 1263.89 75.6732 1259.59 75.3072C1253.87 74.82 1248.11 75.4627 1242.38 75.5721C1238.49 75.6463 1234.6 75.7135 1230.72 75.8369C1226.39 75.9745 1222.07 76.469 1217.74 76.3668C1214.73 76.2956 1211.75 75.4717 1208.74 75.5721C1201.86 75.8011 1195.15 77.7602 1188.34 78.7507C1185.08 79.2253 1181.75 79.3299 1178.54 80.0751C1174.73 80.9588 1170.92 82.045 1167.42 83.7836C1163.78 85.5917 1160.46 88.0477 1157.35 90.6705C1154.54 93.0472 1151.85 95.6506 1149.67 98.6167C1145.31 104.534 1141.9 111.167 1139.07 117.953C1137.52 121.693 1136.8 125.728 1135.63 129.608C1133.72 135.974 1131.64 142.29 1129.8 148.679C1128.39 153.6 1127.02 158.535 1125.83 163.513C1124.34 169.744 1122.38 175.933 1121.86 182.319C1121.55 186.108 1120.68 190.315 1122.39 193.709C1123.77 196.455 1129.54 199.537 1129.54 199.537L1129.54 199.538Z" fill="#D76C6C" fill-opacity="0.86"/>
<path d="M1127.42 223.642C1126.53 218.775 1126.98 213.756 1126.89 208.809C1126.8 203.953 1126.61 199.088 1126.89 194.24C1127.15 189.538 1127.86 184.87 1128.48 180.201C1128.94 176.66 1129.13 173.052 1130.07 169.605C1130.69 167.311 1130.89 164.503 1132.72 162.983C1133.41 162.407 1134.51 162.746 1135.36 162.453C1138.17 161.492 1140.7 159.87 1143.31 158.48C1146.8 156.624 1150.43 154.96 1153.64 152.653C1155.57 151.266 1156.99 149.248 1158.94 147.885C1160.17 147.023 1161.53 146.358 1162.91 145.766C1164.96 144.884 1167.06 144.004 1169.27 143.647C1171.71 143.251 1174.25 143.225 1176.68 143.647C1177.98 143.871 1179.11 144.683 1180.39 144.971C1181.26 145.166 1183.04 145.236 1183.04 145.236C1183.04 145.236 1175.25 147.418 1171.65 149.209C1169.09 150.486 1167.09 152.757 1164.5 153.977C1162 155.154 1158.67 154.581 1156.55 156.361C1153.83 158.649 1154.05 163.16 1151.79 165.897C1150.3 167.692 1147.96 168.582 1146.22 170.135C1144.13 172.008 1141.99 173.915 1140.4 176.227C1139.12 178.079 1138.38 180.253 1137.48 182.32C1136.32 185.014 1135.07 187.696 1134.31 190.531C1133.56 193.293 1133.04 196.148 1132.98 199.007C1132.9 202.916 1134.01 206.763 1134.31 210.662C1134.48 213.041 1134.53 215.429 1134.57 217.814C1134.62 220.639 1134.38 223.471 1134.57 226.29C1134.7 228.246 1135.35 230.157 1135.36 232.118C1135.4 235.852 1137.75 242.857 1134.04 243.243C1127.18 243.957 1128.66 230.426 1127.42 223.641L1127.42 223.642Z" fill="#D76C6C" fill-opacity="0.86"/>
<path d="M1123.18 215.696C1122.87 209.932 1122.16 204.191 1121.33 198.479C1120.55 193.149 1119.53 187.855 1118.41 182.585C1117.48 178.144 1116.56 173.684 1115.24 169.341C1114.05 165.466 1112.41 161.748 1111 157.951C1109.85 154.861 1108.99 151.648 1107.55 148.68C1106.07 145.613 1104.17 142.756 1102.26 139.939C1100.7 137.647 1099.14 135.321 1097.22 133.317C1094.37 130.326 1091.01 127.835 1087.69 125.371C1084.72 123.168 1081.65 121.068 1078.42 119.278C1075.45 117.634 1072.3 116.304 1069.15 115.04C1064.64 113.233 1059.92 111.987 1055.37 110.272C1049.48 108.05 1043.87 105.103 1037.89 103.12C1035.21 102.23 1032.41 101.735 1029.68 101.001C1027.47 100.406 1025.32 99.5531 1023.06 99.1471C1020.97 98.7704 1018.81 98.8928 1016.7 98.6173C1009.23 97.6412 1001.91 95.7229 994.454 94.644C992.081 94.3005 989.662 94.2826 987.303 93.8494C984.523 93.3389 981.855 92.3262 979.092 91.7304C977.077 91.2959 973 90.6708 973 90.6708C973 90.6708 982.717 90.1624 987.568 90.4059C991.298 90.5931 994.962 91.5782 998.693 91.7303C1001.08 91.8274 1003.46 91.3986 1005.84 91.4654C1012.49 91.6517 1019.07 92.866 1025.71 93.3196C1031.79 93.7355 1037.94 93.299 1043.99 94.1143C1047.13 94.538 1050.26 95.2159 1053.26 96.2333C1056.48 97.3239 1059.46 99.0051 1062.53 100.471C1066.45 102.346 1070.47 104.049 1074.18 106.299C1077.54 108.33 1080.71 110.667 1083.72 113.186C1086.73 115.713 1089.37 118.662 1092.19 121.397C1094.84 123.959 1097.71 126.31 1100.14 129.079C1102.68 131.971 1104.83 135.188 1107.03 138.349C1109.25 141.547 1111.5 144.744 1113.38 148.15C1115.51 151.985 1117.2 156.049 1118.95 160.069C1120.92 164.61 1122.73 169.223 1124.51 173.843C1126.17 178.144 1127.89 182.428 1129.28 186.822C1130.1 189.436 1130.89 192.075 1131.39 194.769C1131.99 197.912 1132.4 201.107 1132.45 204.304C1132.52 207.845 1131.96 211.371 1131.66 214.9C1131.26 219.584 1130.72 224.254 1130.34 228.939C1130.13 231.497 1129.81 236.621 1129.81 236.621C1129.81 236.621 1124.3 223.824 1123.18 217.019C1123.11 216.583 1123.21 216.135 1123.18 215.694L1123.18 215.696Z" fill="#D76C6C" fill-opacity="0.86"/>
<path d="M1134.83 288.801C1134.83 288.801 1131.53 278.993 1130.33 273.967C1129.5 270.479 1129.24 266.876 1128.48 263.371C1127.95 260.964 1127.15 258.626 1126.62 256.219C1125.76 252.277 1125.37 248.241 1124.5 244.3C1123.76 240.912 1122.73 237.59 1121.85 234.235C1120.88 230.527 1119.98 226.8 1118.94 223.11C1118.19 220.447 1117.39 217.8 1116.56 215.163C1115.8 212.768 1115.21 210.301 1114.17 208.011C1113.16 205.776 1111.7 203.775 1110.46 201.654C1109.49 199.978 1108.29 198.414 1107.55 196.622C1106.75 194.68 1106.29 192.602 1105.96 190.529C1105.74 189.131 1105.7 186.291 1105.7 186.291C1105.7 186.291 1108.06 191.075 1109.67 193.178C1111.04 194.961 1112.88 196.326 1114.44 197.946C1116.69 200.287 1119.19 202.442 1121.06 205.098C1122.38 206.97 1123.13 209.185 1124.24 211.19C1126.02 214.412 1128.13 217.448 1129.8 220.726C1131.29 223.649 1132.62 226.659 1133.77 229.732C1135.13 233.368 1136.23 237.104 1137.22 240.857C1138.16 244.441 1138.92 248.075 1139.6 251.717C1140.13 254.528 1140.42 257.378 1140.92 260.194C1141.48 263.297 1142.39 266.337 1142.78 269.465C1143.01 271.307 1142.97 273.173 1143.04 275.028C1143.16 277.852 1143.43 280.68 1143.31 283.504C1143.21 285.726 1142.51 290.127 1142.51 290.127L1134.83 288.801Z" fill="#D76C6C" fill-opacity="0.86"/>
<path d="M1133.77 294.892C1132.71 292.035 1132.45 288.922 1132.18 285.886C1131.99 283.687 1131.99 281.462 1132.18 279.263C1132.41 276.762 1132.91 274.285 1133.51 271.847C1133.93 270.139 1134.39 268.426 1135.1 266.814C1135.38 266.162 1135.88 265.614 1136.16 264.96C1136.88 263.266 1137.75 259.662 1137.75 259.662C1137.75 259.662 1139.22 263.169 1139.87 264.96C1140.55 266.879 1140.99 268.886 1141.72 270.788C1142.56 272.961 1143.78 274.976 1144.63 277.145C1145.15 278.443 1145.69 279.747 1145.96 281.118C1146.53 284.071 1145.95 287.166 1146.49 290.124C1146.75 291.58 1147.39 292.943 1147.81 294.362C1148.46 296.56 1149.35 298.713 1149.67 300.984C1150.34 305.883 1149.67 315.818 1149.67 315.818L1145.96 315.288C1145.96 315.288 1136.54 302.313 1133.77 294.892H1133.77Z" fill="#D76C6C" fill-opacity="0.86"/>
<path d="M1126.62 282.975C1126.62 282.975 1129.36 290.683 1131.13 294.365C1132.75 297.753 1134.92 300.851 1136.69 304.166C1137.99 306.604 1139.05 309.168 1140.4 311.582C1141.46 313.486 1142.84 315.205 1143.84 317.145C1144.37 318.166 1145.16 320.324 1145.16 320.324L1155.76 325.356L1160 325.091L1159.47 318.47C1159.47 318.47 1157.73 316.078 1157.08 314.761C1156.05 312.657 1154.7 308.139 1154.7 308.139C1154.7 308.139 1152.67 305.297 1152.32 303.636C1151.74 300.954 1152.61 298.157 1152.85 295.425C1152.99 293.832 1153.38 290.657 1153.38 290.657C1153.38 290.657 1151.04 292.97 1150.2 294.365C1148.83 296.641 1148.05 299.24 1147.28 301.782C1146.68 303.771 1146.07 305.799 1145.96 307.874C1145.87 309.558 1146.49 312.907 1146.49 312.907C1146.49 312.907 1145.31 309.261 1144.37 307.609C1143.15 305.478 1141.31 303.769 1139.87 301.782C1138.3 299.622 1136.89 297.348 1135.36 295.16C1132.5 291.062 1126.62 282.975 1126.62 282.975L1126.62 282.975Z" fill="#D76C6C" fill-opacity="0.86"/>
<path d="M1165.03 320.583C1163.43 319.147 1159.74 316.875 1159.74 316.875C1159.74 316.875 1157.36 321.183 1155.23 321.908C1153.87 322.37 1152.35 321.597 1150.99 321.113C1148.06 320.062 1145.4 318.32 1142.78 316.61C1140.73 315.266 1138.83 313.697 1136.96 312.107C1135.58 310.934 1132.98 308.398 1132.98 308.398C1132.98 308.398 1134.85 316.182 1137.22 319.259C1138.69 321.161 1141.18 321.991 1143.05 323.497C1144.71 324.83 1146.4 326.154 1147.82 327.735C1148.83 328.865 1149.29 330.477 1150.47 331.444C1152.26 332.928 1154.63 333.557 1156.82 334.358C1158.37 334.924 1159.94 335.734 1161.59 335.682C1163.74 335.615 1166.08 335.001 1167.68 333.563C1168.92 332.453 1169.6 330.707 1169.8 329.06C1169.96 327.719 1169.61 326.296 1169.01 325.087C1168.12 323.293 1166.53 321.918 1165.03 320.583H1165.03Z" fill="#D76C6C" fill-opacity="0.86"/>
<path d="M1150 384.844C1148 382.523 1146.73 379.681 1145.48 376.913C1144.57 374.909 1143.85 372.814 1143.34 370.675C1142.75 368.242 1142.46 365.734 1142.28 363.228C1142.16 361.472 1142.08 359.698 1142.27 357.935C1142.35 357.22 1142.67 356.533 1142.75 355.819C1142.94 353.97 1142.65 350.275 1142.65 350.275C1142.65 350.275 1145.28 353.066 1146.51 354.529C1147.82 356.097 1148.91 357.837 1150.27 359.373C1151.83 361.128 1153.71 362.603 1155.28 364.348C1156.22 365.393 1157.2 366.43 1157.91 367.63C1159.44 370.213 1159.85 373.33 1161.35 375.929C1162.1 377.208 1163.18 378.27 1164.07 379.46C1165.44 381.304 1167.04 383.022 1168.09 385.053C1170.35 389.433 1172.88 399.026 1172.88 399.026L1168.95 399.818C1168.95 399.818 1155.2 390.873 1150 384.844H1150Z" fill="#D76C6C" fill-opacity="0.86"/>
<path d="M1138.89 376.102C1138.89 376.102 1144.16 382.409 1147.14 385.265C1149.88 387.893 1153.08 390.055 1155.95 392.562C1158.05 394.406 1159.96 396.453 1162.11 398.258C1163.8 399.682 1165.76 400.819 1167.4 402.3C1168.26 403.079 1169.77 404.833 1169.77 404.833L1182.14 405.887L1186.35 404.163L1183.68 398.109C1183.68 398.109 1181.14 396.46 1180.06 395.446C1178.33 393.825 1175.5 390.037 1175.5 390.037C1175.5 390.037 1172.53 388.066 1171.63 386.625C1170.18 384.299 1170.15 381.363 1169.51 378.706C1169.14 377.156 1168.51 374.029 1168.51 374.029C1168.51 374.029 1166.88 377.023 1166.48 378.629C1165.83 381.25 1165.88 383.966 1165.92 386.63C1165.96 388.712 1165.99 390.835 1166.55 392.829C1167 394.448 1168.71 397.385 1168.71 397.385C1168.71 397.385 1166.34 394.359 1164.85 393.133C1162.93 391.548 1160.51 390.581 1158.4 389.21C1156.11 387.72 1153.95 386.068 1151.69 384.539C1147.47 381.674 1138.89 376.102 1138.89 376.102H1138.89Z" fill="#D76C6C" fill-opacity="0.86"/>
<path d="M1190.01 398.17C1187.91 397.376 1183.43 396.52 1183.43 396.52C1183.43 396.52 1182.42 401.403 1180.49 402.827C1179.26 403.737 1177.47 403.539 1175.94 403.554C1172.62 403.583 1169.35 402.871 1166.15 402.169C1163.63 401.616 1161.2 400.801 1158.79 399.954C1157.01 399.33 1153.56 397.843 1153.56 397.843C1153.56 397.843 1157.96 404.527 1161.37 406.599C1163.47 407.88 1166.26 407.796 1168.65 408.564C1170.76 409.244 1172.9 409.902 1174.85 410.897C1176.25 411.608 1177.24 412.965 1178.74 413.469C1181.04 414.241 1183.65 414.01 1186.13 414.001C1187.88 414.001 1189.74 414.214 1191.39 413.59C1193.55 412.778 1195.73 411.385 1196.89 409.474C1197.78 408 1197.91 406.116 1197.58 404.495C1197.31 403.175 1196.49 401.96 1195.49 401.029C1194.01 399.649 1191.95 398.906 1190.01 398.17H1190.01Z" fill="#D76C6C" fill-opacity="0.86"/>
<path d="M1230.45 390.518C1228.26 373.53 1229.7 356.243 1230.45 339.13C1230.72 333.108 1232.03 327.145 1232.04 321.118C1232.06 312.788 1230.65 304.516 1229.92 296.219C1229.41 290.39 1229.04 284.546 1228.33 278.737C1227.63 272.886 1226.8 267.041 1225.69 261.255C1224.52 255.198 1223.9 248.901 1221.45 243.242C1219.17 237.986 1215.15 233.67 1211.91 228.938C1209.48 225.379 1207.16 221.736 1204.5 218.343C1202.18 215.388 1199.77 212.481 1197.08 209.866C1194.29 207.158 1191.2 204.767 1188.07 202.45C1186.03 200.932 1183.99 199.355 1181.72 198.211C1179.37 197.033 1176.76 196.492 1174.3 195.562C1172.52 194.889 1170.56 194.537 1169 193.443C1167.26 192.221 1166.14 190.301 1164.77 188.675C1163.31 186.947 1162.31 184.772 1160.53 183.378C1158.54 181.819 1153.64 180.199 1153.64 180.199C1153.64 180.199 1161.03 182.752 1164.77 183.908C1168.45 185.047 1172.4 185.437 1175.89 187.086C1178.41 188.28 1180.2 190.779 1182.78 191.854C1185.43 192.962 1188.45 192.812 1191.25 193.443C1194.64 194.205 1198.01 195.04 1201.32 196.092C1204.19 197.007 1207.28 197.596 1209.79 199.271C1213.02 201.42 1215.64 204.495 1217.74 207.747C1220.23 211.603 1221.17 216.268 1223.04 220.462C1224.71 224.213 1226.83 227.765 1228.34 231.587C1229.62 234.861 1230.67 238.237 1231.51 241.652C1232.46 245.485 1232.95 249.417 1233.63 253.307C1234.37 257.54 1234.86 261.818 1235.75 266.022C1236.92 271.552 1238.99 276.88 1239.99 282.444C1241.5 290.832 1241.86 299.387 1242.64 307.873C1243.04 312.283 1243.29 316.708 1243.7 321.118C1244.16 326.069 1245.39 330.98 1245.29 335.951C1245.14 343.092 1242.95 350.049 1242.11 357.141C1241.63 361.19 1241.18 365.252 1241.05 369.326C1240.78 377.623 1245.21 386.761 1241.58 394.225C1240.03 397.401 1233.1 400.582 1233.1 400.582C1233.1 400.582 1230.9 393.957 1230.45 390.517L1230.45 390.518Z" fill="#D76C6C" fill-opacity="0.86"/>
<path d="M1239.99 391.577C1239.99 391.577 1230.31 373.745 1230.46 364.029C1230.54 358.553 1234.38 353.803 1236.28 348.666C1237.91 344.265 1239.35 339.793 1241.05 335.422C1242.37 332.03 1243.59 328.577 1245.29 325.357C1246.66 322.756 1248.01 320.05 1250.06 317.94C1252.44 315.478 1255.65 313.967 1258.53 312.113C1262 309.885 1265.47 307.648 1269.13 305.755C1273.41 303.539 1278.02 302.01 1282.37 299.928C1287.22 297.609 1291.69 294.514 1296.67 292.511C1299.58 291.344 1302.64 290.585 1305.68 289.862C1307.6 289.406 1309.61 289.348 1311.51 288.803C1313.34 288.277 1316.81 286.684 1316.81 286.684C1316.81 286.684 1311.12 293.37 1307.8 296.219C1305.68 298.039 1303.33 299.592 1300.91 300.988C1294.82 304.501 1288.15 306.882 1281.84 309.994C1275.96 312.894 1269.6 315.059 1264.36 319C1260.87 321.628 1257.77 324.889 1255.36 328.536C1251.95 333.679 1249.91 339.644 1247.94 345.488C1245.79 351.859 1244.37 358.473 1243.17 365.09C1241.59 373.841 1239.99 391.578 1239.99 391.578L1239.99 391.577Z" fill="#D76C6C" fill-opacity="0.86"/>
<path d="M1237.87 426.536C1243.58 410.103 1241.46 391.93 1243.17 374.619C1243.53 370.911 1244.15 367.217 1244.23 363.493C1244.29 360.31 1244.57 357.019 1243.7 353.958C1243.09 351.83 1241.69 350.008 1240.52 348.13C1237.77 343.724 1235.32 338.946 1231.51 335.416C1228.49 332.616 1224.59 330.925 1220.92 329.058C1216.47 326.799 1211.33 325.94 1207.14 323.231C1204.31 321.398 1202.23 318.603 1199.73 316.344C1195.55 312.574 1191.45 308.681 1187.01 305.219C1182.61 301.785 1178.22 298.206 1173.24 295.684C1168.41 293.236 1162.73 292.79 1157.88 290.386C1156.17 289.537 1153.11 287.207 1153.11 287.207C1153.11 287.207 1160.17 298.075 1164.76 302.57C1169.28 306.991 1175.32 309.593 1180.13 313.695C1182.79 315.964 1184.92 318.802 1187.54 321.112C1191.23 324.355 1195.43 326.973 1199.2 330.118C1201.02 331.64 1202.75 333.277 1204.5 334.886C1207.53 337.678 1210.65 340.386 1213.5 343.363C1217.05 347.069 1220.56 350.859 1223.57 355.018C1225.98 358.354 1228.63 361.703 1229.92 365.613C1231.6 370.667 1231.71 376.186 1231.51 381.506C1231.36 385.626 1229.91 389.6 1229.39 393.691C1228.82 398.26 1228.51 402.864 1228.33 407.465C1228.14 412.582 1226.95 417.899 1228.33 422.828C1229.34 426.413 1234.16 432.364 1234.16 432.364C1234.16 432.364 1237.11 428.711 1237.87 426.536H1237.87Z" fill="#D76C6C" fill-opacity="0.86"/>
<path d="M1237.87 441.368C1237.39 435.465 1240.52 429.785 1241.05 423.886C1241.29 421.248 1240.98 418.588 1241.05 415.94C1241.14 412.758 1241.49 409.586 1241.58 406.404C1241.63 404.463 1241.15 402.471 1241.58 400.577C1242.48 396.571 1244.76 392.974 1246.88 389.452C1249.48 385.121 1253.12 381.498 1255.88 377.267C1258.99 372.497 1260.54 366.659 1264.36 362.433C1266.4 360.179 1271.78 357.136 1271.78 357.136C1271.78 357.136 1262.79 356.639 1259.06 358.725C1257.09 359.829 1256.31 362.315 1254.82 364.023C1252.12 367.136 1249 369.874 1246.35 373.029C1244.64 375.056 1242.94 377.111 1241.58 379.386C1238.99 383.728 1237.45 388.621 1235.22 393.16C1233.2 397.271 1230.62 401.113 1228.87 405.345C1227.52 408.595 1226.62 412.017 1225.69 415.41C1224.87 418.383 1223.92 421.352 1223.57 424.416C1223.26 427.047 1223.32 429.725 1223.57 432.362C1223.83 435.224 1223.98 438.214 1225.16 440.839C1226.34 443.483 1230.45 447.726 1230.45 447.726L1240.52 448.785C1240.52 448.785 1238.08 443.985 1237.87 441.368H1237.87Z" fill="#D76C6C" fill-opacity="0.86"/>
<path d="M1244.23 451.433C1241.27 454.559 1236.25 456.548 1232.04 455.671C1228.98 455.034 1226.62 452.075 1225.15 449.314C1223.48 446.159 1222.9 442.227 1223.57 438.719C1224.29 434.91 1226.57 431.309 1229.39 428.654C1231.12 427.03 1233.58 426.431 1235.75 425.475C1238 424.482 1240.57 424.166 1242.64 422.826C1245.78 420.784 1248.08 417.671 1250.58 414.88C1252.84 412.352 1256.94 406.934 1256.94 406.934C1256.94 406.934 1250.23 422.594 1247.93 430.773C1247.16 433.541 1246.79 436.409 1246.34 439.25C1245.91 442.063 1245.85 444.936 1245.28 447.726C1245.03 448.986 1245.11 450.5 1244.23 451.435L1244.23 451.433Z" fill="#D76C6C" fill-opacity="0.86"/>
<path d="M1194.96 113.973C1194.96 113.973 1196.02 131.38 1197.61 139.931C1198.71 145.87 1200.53 151.662 1202.37 157.413C1203.93 162.255 1205.96 166.93 1207.67 171.717C1209.31 176.291 1211.07 180.83 1212.44 185.491C1214.34 191.942 1215.77 198.524 1217.21 205.093C1219.17 214.056 1220.44 223.169 1222.5 232.111C1224.97 242.795 1228.8 253.149 1230.98 263.897C1232.75 272.636 1234.69 290.385 1234.69 290.385C1234.69 290.385 1234.25 252.595 1234.16 233.7C1234.14 229.462 1234.79 225.176 1234.16 220.985C1233.36 215.684 1230.96 210.749 1229.39 205.622C1227.07 198.037 1226.02 189.954 1222.5 182.842C1220.1 177.965 1215.35 174.49 1212.97 169.598C1209.35 162.16 1208.95 153.517 1206.08 145.759C1204.6 141.756 1202.27 138.106 1200.79 134.104C1198.36 127.552 1194.96 113.973 1194.96 113.973H1194.96Z" fill="#D76C6C" fill-opacity="0.86"/>
<path d="M1234.69 299.925C1234.69 299.925 1223.11 264.065 1225.15 245.888C1225.56 242.271 1228.32 239.303 1229.39 235.823C1230.71 231.519 1231.13 226.987 1232.04 222.579C1232.55 220.103 1232.93 217.592 1233.63 215.162C1234.77 211.189 1236.16 207.272 1237.87 203.508C1239.53 199.837 1241.76 196.447 1243.69 192.912C1244.76 190.971 1245.46 188.788 1246.87 187.085C1248.47 185.152 1250.77 183.915 1252.7 182.317C1255.89 179.682 1258.74 176.588 1262.24 174.37C1264.7 172.804 1267.58 171.998 1270.18 170.662C1273.07 169.181 1275.54 166.781 1278.66 165.894C1282.74 164.734 1287.13 165.453 1291.37 165.364C1294.02 165.309 1296.67 165.2 1299.32 165.364C1300.74 165.453 1302.15 166.1 1303.56 165.894C1308.33 165.197 1312.08 161.059 1316.8 160.067C1320.08 159.376 1323.51 160.067 1326.86 160.067H1338.52C1340.81 160.067 1343.12 160.256 1345.41 160.067C1347.55 159.889 1349.63 158.724 1351.76 159.007C1356.38 159.622 1360.52 162.361 1364.48 164.835C1367.77 166.898 1370.18 170.193 1373.48 172.251C1375.29 173.381 1379.31 174.9 1379.31 174.9C1379.31 174.9 1364.86 173.135 1357.59 172.781C1353.36 172.575 1349.1 173.068 1344.88 172.781C1340.96 172.516 1337.14 171.335 1333.22 171.192C1330.39 171.088 1327.57 171.895 1324.75 171.721C1321.88 171.545 1319.14 170.195 1316.27 170.132C1312.52 170.051 1308.81 170.973 1305.14 171.721C1299.77 172.817 1294.41 174.112 1289.25 175.96C1285.23 177.397 1281.44 179.397 1277.6 181.257C1271.7 184.115 1265.32 186.279 1260.12 190.264C1255.75 193.606 1251.96 197.817 1248.99 202.448C1244.34 209.712 1241.44 218.037 1238.93 226.288C1237.04 232.483 1235.42 238.887 1235.22 245.36C1234.96 253.548 1237.64 261.572 1238.4 269.729C1238.98 276.069 1240.56 282.53 1239.46 288.8C1238.75 292.773 1234.69 299.925 1234.69 299.925L1234.69 299.925Z" fill="#D76C6C" fill-opacity="0.86"/>
<path d="M1238.93 362.438C1238.93 362.438 1242.9 318.672 1236.28 298.336C1233.72 290.465 1228.9 282.935 1222.51 277.675C1217.19 273.297 1209.95 271.979 1203.44 269.728C1197.2 267.572 1190.64 266.474 1184.37 264.431C1181.5 263.496 1175.89 261.252 1175.89 261.252C1175.89 261.252 1186.21 269.104 1191.78 272.377C1197.03 275.455 1203.12 276.992 1208.21 280.323C1212.29 282.999 1216.56 285.835 1219.33 289.859C1222.31 294.184 1223.08 299.676 1224.63 304.692C1226.89 312.018 1228.88 319.438 1230.46 326.943C1231.85 333.593 1231.99 340.482 1233.63 347.074C1234.94 352.33 1238.93 362.437 1238.93 362.437L1238.93 362.438Z" fill="#D76C6C" fill-opacity="0.86"/>
<path d="M1281.13 486.059C1281.13 486.059 1278.29 493.773 1276.45 497.465C1274.76 500.862 1272.47 503.977 1270.61 507.302C1269.25 509.749 1268.15 512.318 1266.73 514.74C1265.62 516.651 1264.16 518.382 1263.11 520.328C1262.57 521.351 1261.74 523.511 1261.74 523.511L1250.44 528.672L1245.89 528.468L1246.37 521.867C1246.37 521.867 1248.2 519.461 1248.88 518.141C1249.97 516.03 1251.35 511.512 1251.35 511.512C1251.35 511.512 1253.49 508.654 1253.85 506.995C1254.43 504.316 1253.47 501.543 1253.17 498.825C1253 497.241 1252.54 494.085 1252.54 494.085C1252.54 494.085 1255.08 496.355 1256 497.733C1257.5 499.98 1258.36 502.556 1259.22 505.077C1259.89 507.05 1260.57 509.06 1260.72 511.125C1260.84 512.801 1260.22 516.144 1260.22 516.144C1260.22 516.144 1261.43 512.496 1262.42 510.839C1263.7 508.7 1265.65 506.972 1267.17 504.973C1268.83 502.799 1270.31 500.515 1271.92 498.315C1274.93 494.194 1281.13 486.059 1281.13 486.059L1281.13 486.059Z" fill="#D76C6C" fill-opacity="0.86"/>
<path d="M1240.44 524.054C1242.14 522.601 1246.07 520.287 1246.07 520.287C1246.07 520.287 1248.67 524.543 1250.96 525.235C1252.43 525.676 1254.05 524.885 1255.5 524.384C1258.63 523.296 1261.46 521.524 1264.24 519.784C1266.43 518.416 1268.45 516.827 1270.43 515.218C1271.9 514.03 1274.64 511.469 1274.64 511.469C1274.64 511.469 1272.75 519.245 1270.24 522.343C1268.69 524.258 1266.03 525.12 1264.05 526.646C1262.29 527.997 1260.49 529.339 1258.99 530.933C1257.92 532.072 1257.44 533.684 1256.2 534.663C1254.29 536.167 1251.76 536.827 1249.42 537.654C1247.77 538.24 1246.09 539.069 1244.33 539.041C1242.02 539.003 1239.5 538.426 1237.77 537.017C1236.43 535.929 1235.67 534.199 1235.43 532.562C1235.24 531.229 1235.61 529.808 1236.23 528.595C1237.16 526.796 1238.85 525.403 1240.44 524.054H1240.44Z" fill="#D76C6C" fill-opacity="0.86"/>
<path d="M1185.5 608.5C1185.5 608.5 1184.54 579.155 1189.5 584.5C1215 612.001 1239 568.5 1244.5 602C1245.29 606.817 1246 615 1246 615L1185.5 608.5Z" fill="#D76E6E"/>
</g>
<ellipse cx="801.5" cy="1086.5" rx="32.5" ry="31.5" fill="#ECECEC"/>
<ellipse cx="1397.5" cy="884.5" rx="32.5" ry="31.5" fill="#ECECEC"/>
<ellipse cx="271.5" cy="231.5" rx="32.5" ry="31.5" fill="#ECECEC"/>
<ellipse cx="32.5" cy="325.5" rx="32.5" ry="31.5" fill="#ECECEC"/>
<circle cx="130.5" cy="496.5" r="18.5" fill="#ECECEC"/>
<circle cx="187.5" cy="759.5" r="18.5" fill="#ECECEC"/>
<circle cx="130.5" cy="113.5" r="18.5" fill="#ECECEC"/>
<circle cx="850.5" cy="201.5" r="16.5" fill="#ECECEC"/>
<circle cx="222.5" cy="376.5" r="16.5" fill="#ECECEC"/>
<circle cx="297.5" cy="514.5" r="23.5" fill="#ECECEC"/>
<circle cx="1332.5" cy="96.5" r="16.5" fill="#ECECEC"/>
<g filter="url(#filter2_d)">
<ellipse cx="629.562" cy="340.532" rx="161.561" ry="101.532" fill="#7E7E7E" fill-opacity="0.01"/>
</g>
<g filter="url(#filter3_d)">
<ellipse cx="629.323" cy="346.904" rx="134.429" ry="84.4805" fill="#7E7E7E" fill-opacity="0.01"/>
</g>
<path d="M1062 791C1062 791 1155.48 758.747 1136 817.5C1116.53 876.253 1214.51 880.587 1257.91 854.696C1301.32 828.805 1323.15 773.41 1267.5 752" stroke="#606060" stroke-width="3" stroke-miterlimit="10"/>
<path d="M1062 791C1062 791 1155.48 758.747 1136 817.5C1116.52 876.253 1214.5 880.587 1257.91 854.696C1301.31 828.805 1323.15 773.41 1267.5 752" stroke="#606060" stroke-opacity="0.43" stroke-width="7" stroke-miterlimit="10"/>
<path d="M968.5 377C969 364 850.5 352.427 853 321.927C855.5 291.427 905 256.055 899 234.555C893 213.055 802 234.555 802 234.555" stroke="#606060" stroke-width="3"/>
<path d="M968.5 377C969 364 850.5 352.427 853 321.927C855.5 291.427 905 256.055 899 234.555C893 213.055 802 234.555 802 234.555" stroke="#606060" stroke-opacity="0.47" stroke-width="7"/>
<path d="M348.5 981.999C342 1088.5 449 1054 458 972.999" stroke="#606060" stroke-width="3"/>
<path d="M348.285 982.001C341.785 1088.5 448.785 1054 457.785 973.001" stroke="#606060" stroke-opacity="0.37" stroke-width="7"/>
<path d="M934.239 678.719C934.239 678.719 943.843 678.423 946.737 676.362C949.632 674.301 961.51 671.84 962.228 675.145C962.946 678.451 976.661 691.585 965.818 691.673C954.976 691.76 940.625 689.984 937.736 688.224C934.847 686.464 934.239 678.719 934.239 678.719Z" fill="#363636"/>
<path opacity="0.2" d="M966.012 690.515C955.169 690.602 940.818 688.826 937.93 687.066C935.73 685.726 934.853 680.918 934.56 678.699C934.357 678.708 934.239 678.712 934.239 678.712C934.239 678.712 934.847 686.457 937.736 688.217C940.625 689.977 954.976 691.753 965.818 691.665C968.948 691.64 970.029 690.527 969.97 688.877C969.535 689.874 968.342 690.496 966.012 690.515Z" fill="#B5B5B5"/>
<path d="M1004.5 839.194C1068.84 839.194 1121 832.098 1121 823.345C1121 814.592 1068.84 807.496 1004.5 807.496C940.159 807.496 888 814.592 888 823.345C888 832.098 940.159 839.194 1004.5 839.194Z" fill="#494949"/>
<path opacity="0.1" d="M1004.5 836.658C1058.52 836.658 1102.31 830.7 1102.31 823.351C1102.31 816.002 1058.52 810.045 1004.5 810.045C950.48 810.045 906.689 816.002 906.689 823.351C906.689 830.7 950.48 836.658 1004.5 836.658Z" fill="#B5B5B5"/>
<path d="M1078.01 657.953H948.43V808.718H1078.01V657.953Z" fill="#898989"/>
<path d="M1091.1 643H935.347V696.578H1091.1V643Z" fill="#494949"/>
<path d="M1091.1 706.553H935.347V760.13H1091.1V706.553Z" fill="#494949"/>
<path d="M1091.1 770.09H935.347V823.667H1091.1V770.09Z" fill="#494949"/>
<path opacity="0.4" d="M1059.95 652.354H1049.98V662.321H1059.95V652.354Z" fill="#D76E6E"/>
<path opacity="0.8" d="M1074.28 652.354H1064.31V662.321H1074.28V652.354Z" fill="#D76E6E"/>
<path d="M1088.61 652.354H1078.64V662.321H1088.61V652.354Z" fill="#D76E6E"/>
<path opacity="0.4" d="M1059.95 715.27H1049.98V725.237H1059.95V715.27Z" fill="#D76E6E"/>
<path opacity="0.8" d="M1074.28 715.27H1064.31V725.237H1074.28V715.27Z" fill="#D76E6E"/>
<path d="M1088.61 715.27H1078.64V725.237H1088.61V715.27Z" fill="#D76E6E"/>
<path opacity="0.4" d="M1059.95 778.184H1049.98V788.152H1059.95V778.184Z" fill="#D76E6E"/>
<path opacity="0.8" d="M1074.28 778.184H1064.31V788.152H1074.28V778.184Z" fill="#D76E6E"/>
<path d="M1088.61 778.184H1078.64V788.152H1088.61V778.184Z" fill="#D76E6E"/>
<path d="M785.442 101.331C798.636 120.582 795.716 145.52 795.716 145.52C795.716 145.52 771.404 139.246 758.21 119.995C745.016 100.745 747.935 75.8066 747.935 75.8066C747.935 75.8066 772.247 82.0803 785.442 101.331Z" fill="#2F2E41"/>
<path d="M775.949 104.994C777.493 128.281 795.215 146.067 795.215 146.067C795.215 146.067 810.434 126.097 808.89 102.81C807.346 79.5224 789.624 61.7363 789.624 61.7363C789.624 61.7363 774.405 81.7064 775.949 104.994Z" fill="#D66F6F"/>
<path d="M624.464 37.4801L803.602 127.544C805.091 128.292 806.326 129.464 807.153 130.912C807.979 132.36 808.36 134.019 808.248 135.682L797.84 289.848C797.794 290.54 797.577 291.209 797.208 291.796C796.84 292.383 796.332 292.87 795.73 293.213C795.128 293.556 794.45 293.744 793.757 293.761C793.064 293.778 792.378 293.624 791.759 293.311L608.537 199.804L617.944 41.2382C617.988 40.4934 618.216 39.7712 618.609 39.1365C619.001 38.5018 619.545 37.9744 620.191 37.6019C620.838 37.2293 621.566 37.0231 622.312 37.0018C623.058 36.9806 623.798 37.1449 624.464 37.4801V37.4801Z" fill="#333333"/>
<path d="M626.523 40.6206L801.261 128.472C802.714 129.202 803.919 130.345 804.725 131.757C805.531 133.17 805.903 134.788 805.793 136.411L795.641 286.79C795.595 287.464 795.384 288.117 795.024 288.69C794.665 289.262 794.17 289.737 793.582 290.072C792.995 290.406 792.334 290.59 791.658 290.607C790.982 290.624 790.313 290.473 789.709 290.168L610.988 198.957L620.163 44.2865C620.206 43.5599 620.429 42.8555 620.812 42.2363C621.194 41.6172 621.725 41.1029 622.355 40.7394C622.986 40.376 623.697 40.1749 624.424 40.1541C625.152 40.1334 625.873 40.2937 626.523 40.6206V40.6206Z" fill="#333333"/>
<path d="M634.181 52.2975L792.575 131.932C793.892 132.594 794.984 133.63 795.715 134.91C796.446 136.19 796.783 137.658 796.684 139.129L787.481 275.443C787.44 276.054 787.248 276.646 786.922 277.165C786.596 277.684 786.147 278.114 785.615 278.418C785.082 278.721 784.483 278.887 783.871 278.903C783.258 278.918 782.651 278.781 782.104 278.505L620.098 195.825L628.415 55.6205C628.454 54.9619 628.656 54.3233 629.003 53.7621C629.35 53.2009 629.831 52.7347 630.403 52.4052C630.974 52.0758 631.619 51.8935 632.278 51.8747C632.938 51.8559 633.592 52.0012 634.181 52.2975V52.2975Z" fill="#E3B3B3"/>
<path d="M470.743 275.66L650.11 365.991C651.779 366.831 653.622 367.267 655.49 367.264C657.359 367.262 659.2 366.821 660.867 365.977L793.558 298.619C795.114 297.063 794.896 294.758 794.399 293.026C794.157 292.188 793.828 291.378 793.418 290.609L775.336 281.098L623.309 205.246L614.226 200.424C611.822 199.151 609.144 198.48 606.423 198.469C603.702 198.458 601.02 199.107 598.605 200.361L470.687 266.808C469.873 267.229 469.192 267.867 468.718 268.651C468.244 269.435 467.996 270.335 468.002 271.251C468.008 272.167 468.267 273.064 468.751 273.842C469.235 274.62 469.924 275.249 470.743 275.66V275.66Z" fill="#C4C4C4"/>
<path opacity="0.1" d="M470.744 275.663L650.11 365.994C651.78 366.834 653.623 367.27 655.491 367.267C657.359 367.265 659.201 366.824 660.868 365.98L793.559 298.623C795.115 297.067 794.897 294.761 794.4 293.03L662.106 361.793C660.492 362.632 658.702 363.078 656.883 363.093C655.063 363.109 653.266 362.694 651.638 361.883L468.067 270.428C467.894 271.472 468.061 272.544 468.543 273.486C469.025 274.429 469.796 275.192 470.744 275.663V275.663Z" fill="black"/>
<path opacity="0.1" d="M647.588 309.231L589.5 279.877C588.33 279.286 587.036 278.986 585.726 279.001C584.415 279.015 583.128 279.346 581.972 279.963L548.275 297.966C547.886 298.174 547.561 298.485 547.336 298.864C547.112 299.244 546.995 299.679 547.001 300.12C547.006 300.562 547.132 300.993 547.366 301.368C547.599 301.742 547.931 302.045 548.326 302.244L607.552 332.11C608.536 332.606 609.626 332.852 610.727 332.827C611.828 332.802 612.906 332.506 613.866 331.965L647.697 312.905C648.027 312.719 648.3 312.447 648.486 312.117C648.672 311.788 648.764 311.413 648.753 311.035C648.742 310.657 648.627 310.289 648.422 309.971C648.216 309.653 647.928 309.397 647.588 309.231V309.231Z" fill="black"/>
<path opacity="0.1" d="M777.799 297.82L715.291 331.027C714.572 331.409 713.772 331.613 712.957 331.621C712.143 331.629 711.338 331.442 710.612 331.074L534 241.761C533.502 241.509 533.084 241.124 532.793 240.649C532.502 240.173 532.349 239.626 532.352 239.068C532.354 238.51 532.512 237.964 532.807 237.491C533.102 237.018 533.523 236.636 534.023 236.389L595.063 206.177C595.983 205.722 596.997 205.487 598.023 205.49C599.049 205.494 600.061 205.736 600.978 206.198L777.772 295.275C778.007 295.393 778.204 295.574 778.343 295.797C778.482 296.02 778.557 296.276 778.56 296.539C778.563 296.802 778.493 297.06 778.359 297.286C778.225 297.512 778.031 297.697 777.799 297.82Z" fill="black"/>
<path d="M679.13 130.087L677.762 132.822L735.231 161.557L736.599 158.822L679.13 130.087Z" fill="white"/>
<path d="M679.015 138.789L677.751 141.26L735.236 170.665L736.5 168.194L679.015 138.789Z" fill="white"/>
<path d="M689.328 155.296L688.276 157.355L721.211 174.184L722.263 172.125L689.328 155.296Z" fill="white"/>
<g filter="url(#filter4_d)">
<path d="M427.293 770H346.161C342.246 770 338.447 771.332 335.389 773.777C332.332 776.223 330.197 779.635 329.336 783.454L288.341 965.288C287.894 967.272 287.886 969.329 288.318 971.316C288.75 973.302 289.611 975.17 290.842 976.789C292.072 978.408 293.641 979.738 295.44 980.686C297.239 981.634 299.223 982.177 301.253 982.277L384.658 986.386C389.124 986.606 393.518 985.194 397.019 982.412C400.52 979.631 402.89 975.671 403.686 971.271L426.94 842.712L428.671 843.206L433.12 818.84L431.339 818.394L437.83 782.509C438.108 780.972 438.044 779.393 437.642 777.883C437.239 776.374 436.509 774.972 435.502 773.778C434.496 772.583 433.239 771.625 431.82 770.972C430.401 770.319 428.855 769.987 427.293 770V770Z" fill="#545454"/>
<path d="M356.842 773.92H347.372C344.652 773.92 342.014 774.85 339.896 776.556C337.777 778.262 336.306 780.641 335.726 783.298L296.377 963.649C296.151 964.687 296.151 965.762 296.378 966.8C296.605 967.839 297.053 968.816 297.692 969.665C298.332 970.514 299.146 971.215 300.081 971.72C301.016 972.226 302.049 972.523 303.11 972.593L386.245 978.041C388.59 978.195 390.91 977.48 392.762 976.032C394.613 974.585 395.867 972.506 396.284 970.193L429.861 783.783C430.078 782.576 430.028 781.337 429.714 780.152C429.4 778.967 428.83 777.865 428.043 776.924C427.257 775.984 426.274 775.227 425.163 774.708C424.053 774.189 422.842 773.92 421.616 773.92H412.631C411.762 773.92 410.917 774.207 410.226 774.736C409.536 775.264 409.04 776.006 408.814 776.846C408.614 777.587 408.176 778.242 407.566 778.709C406.957 779.176 406.211 779.429 405.443 779.429H362.791C361.288 779.429 359.84 778.862 358.737 777.84C357.634 776.819 356.957 775.419 356.842 773.92L356.842 773.92Z" fill="#E3B3B3"/>
<path d="M353.623 800.293H401.219V801.735H353.623V800.293Z" fill="white"/>
<path d="M352.904 806.061H400.5V807.503H352.904V806.061Z" fill="white"/>
<path d="M357.229 811.822H391.844V813.265H357.229V811.822Z" fill="white"/>
<path opacity="0.1" d="M363 950.5C363 954.08 361.578 957.514 359.046 960.046C356.514 962.577 353.081 964 349.5 964C345.92 964 342.486 962.577 339.954 960.046C337.423 957.514 336 954.08 336 950.5C336 950.331 336.003 950.163 336.01 949.995C336.142 946.461 337.656 943.12 340.226 940.69C342.796 938.26 346.217 936.936 349.753 937.002C353.289 937.068 356.658 938.52 359.135 941.044C361.612 943.568 363 946.963 363 950.5H363Z" fill="#494949"/>
<path opacity="0.1" d="M361.721 955.762C361.721 955.931 361.718 956.098 361.711 956.266C360.401 959.04 358.186 961.285 355.43 962.632C352.674 963.979 349.542 964.348 346.549 963.677C343.556 963.006 340.88 961.336 338.963 958.941C337.045 956.547 336 953.571 336 950.504C336 950.335 336.003 950.167 336.01 949.999C337.319 947.225 339.535 944.98 342.29 943.633C345.046 942.286 348.179 941.918 351.172 942.589C354.165 943.259 356.841 944.929 358.758 947.324C360.675 949.718 361.72 952.694 361.721 955.762H361.721Z" fill="#494949"/>
</g>
<defs>
<filter id="filter0_d" x="260" y="143" width="1198.01" height="896.557" filterUnits="userSpaceOnUse" color-interpolation-filters="sRGB">
<feFlood flood-opacity="0" result="BackgroundImageFix"/>
<feColorMatrix in="SourceAlpha" type="matrix" values="0 0 0 0 0 0 0 0 0 0 0 0 0 0 0 0 0 0 127 0"/>
<feOffset dx="25" dy="15"/>
<feGaussianBlur stdDeviation="25"/>
<feColorMatrix type="matrix" values="0 0 0 0 0 0 0 0 0 0 0 0 0 0 0 0 0 0 0.27 0"/>
<feBlend mode="normal" in2="BackgroundImageFix" result="effect1_dropShadow"/>
<feBlend mode="normal" in="SourceGraphic" in2="effect1_dropShadow" result="shape"/>
</filter>
<filter id="filter1_d" x="973" y="0" width="441.31" height="620" filterUnits="userSpaceOnUse" color-interpolation-filters="sRGB">
<feFlood flood-opacity="0" result="BackgroundImageFix"/>
<feColorMatrix in="SourceAlpha" type="matrix" values="0 0 0 0 0 0 0 0 0 0 0 0 0 0 0 0 0 0 127 0"/>
<feOffset dx="22" dy="-8"/>
<feGaussianBlur stdDeviation="6.5"/>
<feColorMatrix type="matrix" values="0 0 0 0 0 0 0 0 0 0 0 0 0 0 0 0 0 0 0.14 0"/>
<feBlend mode="normal" in2="BackgroundImageFix" result="effect1_dropShadow"/>
<feBlend mode="normal" in="SourceGraphic" in2="effect1_dropShadow" result="shape"/>
</filter>
<filter id="filter2_d" x="380" y="155" width="499.122" height="379.063" filterUnits="userSpaceOnUse" color-interpolation-filters="sRGB">
<feFlood flood-opacity="0" result="BackgroundImageFix"/>
<feColorMatrix in="SourceAlpha" type="matrix" values="0 0 0 0 0 0 0 0 0 0 0 0 0 0 0 0 0 0 127 0"/>
<feOffset dy="4"/>
<feGaussianBlur stdDeviation="44"/>
<feColorMatrix type="matrix" values="0 0 0 0 1 0 0 0 0 1 0 0 0 0 1 0 0 0 0.8 0"/>
<feBlend mode="normal" in2="BackgroundImageFix" result="effect1_dropShadow"/>
<feBlend mode="normal" in="SourceGraphic" in2="effect1_dropShadow" result="shape"/>
</filter>
<filter id="filter3_d" x="406.894" y="178.424" width="444.858" height="344.961" filterUnits="userSpaceOnUse" color-interpolation-filters="sRGB">
<feFlood flood-opacity="0" result="BackgroundImageFix"/>
<feColorMatrix in="SourceAlpha" type="matrix" values="0 0 0 0 0 0 0 0 0 0 0 0 0 0 0 0 0 0 127 0"/>
<feOffset dy="4"/>
<feGaussianBlur stdDeviation="44"/>
<feColorMatrix type="matrix" values="0 0 0 0 0.8 0 0 0 0 0.8 0 0 0 0 0.8 0 0 0 1 0"/>
<feBlend mode="normal" in2="BackgroundImageFix" result="effect1_dropShadow"/>
<feBlend mode="normal" in="SourceGraphic" in2="effect1_dropShadow" result="shape"/>
</filter>
<filter id="filter4_d" x="288" y="750" width="176" height="242.408" filterUnits="userSpaceOnUse" color-interpolation-filters="sRGB">
<feFlood flood-opacity="0" result="BackgroundImageFix"/>
<feColorMatrix in="SourceAlpha" type="matrix" values="0 0 0 0 0 0 0 0 0 0 0 0 0 0 0 0 0 0 127 0"/>
<feOffset dx="13" dy="-7"/>
<feGaussianBlur stdDeviation="6.5"/>
<feColorMatrix type="matrix" values="0 0 0 0 0 0 0 0 0 0 0 0 0 0 0 0 0 0 0.14 0"/>
<feBlend mode="normal" in2="BackgroundImageFix" result="effect1_dropShadow"/>
<feBlend mode="normal" in="SourceGraphic" in2="effect1_dropShadow" result="shape"/>
</filter>
</defs>
</svg>
