<svg width="1459" height="1103" viewBox="0 0 1459 1103" fill="none" xmlns="http://www.w3.org/2000/svg">
<g filter="url(#filter0_d)">
<path d="M718.431 279.011C449.256 68.9036 371.415 191.466 366.141 279.011C360.868 366.556 433.998 454.277 404.113 515.277C374.228 576.277 259.4 680.979 290.199 791.096C328.698 928.742 470.563 1002.05 549.669 933.489C628.776 864.929 629.439 865.722 706.301 852.272C859.783 825.416 1019.57 970.085 1126.09 947.728C1270.39 917.444 1203.09 789.514 1334.94 620.753C1440.41 485.744 1365.52 279.011 1176.72 328.585C994.764 376.361 884.555 383.432 718.431 279.011Z" fill="#ECECEC" fill-opacity="0.81"/>
</g>
<g opacity="0.15">
<path d="M285.121 747.202L285.094 750.398L540.263 752.545L540.29 749.348L285.121 747.202Z" fill="black"/>
<path d="M556.721 752.06C556.794 743.337 549.783 736.206 541.06 736.133C532.337 736.06 525.207 743.071 525.133 751.794C525.06 760.517 532.072 767.647 540.794 767.721C549.517 767.794 556.648 760.782 556.721 752.06Z" fill="#D76C6C"/>
<path d="M328.5 628L326 632L646.434 634.508L646.468 630.462L328.5 628Z" fill="black"/>
<path d="M655.721 631.06C655.794 622.337 648.782 615.206 640.06 615.133C631.337 615.06 624.206 622.071 624.133 630.794C624.059 639.517 631.071 646.647 639.794 646.721C648.517 646.794 655.647 639.782 655.721 631.06Z" fill="black"/>
<path d="M815.317 542.831L815.293 545.629L1105.22 548.068L1105.25 545.27L815.317 542.831Z" fill="black"/>
<path d="M1120.72 548.06C1120.79 539.337 1113.78 532.206 1105.06 532.133C1096.34 532.06 1089.21 539.071 1089.13 547.794C1089.06 556.517 1096.07 563.647 1104.79 563.721C1113.52 563.794 1120.65 556.782 1120.72 548.06Z" fill="#D76C6C"/>
<path d="M831.505 545.06C831.578 536.337 824.566 529.206 815.844 529.133C807.121 529.06 799.99 536.071 799.917 544.794C799.844 553.517 806.855 560.647 815.578 560.721C824.301 560.794 831.431 553.782 831.505 545.06Z" fill="black"/>
<path d="M672.721 833.06C672.794 824.337 665.782 817.206 657.06 817.133C648.337 817.06 641.206 824.071 641.133 832.794C641.059 841.517 648.071 848.647 656.794 848.721C665.517 848.794 672.647 841.782 672.721 833.06Z" fill="black"/>
<path d="M801.5 542.501L801.453 545.963L523.5 543.5L523.5 633.466L519.97 633.466L519.97 540.133L801.5 542.501Z" fill="black"/>
<path d="M928.546 716.179C928.619 707.456 921.607 700.325 912.885 700.252C904.162 700.179 897.031 707.19 896.958 715.913C896.885 724.636 903.896 731.767 912.619 731.84C921.342 731.913 928.472 724.902 928.546 716.179Z" fill="#D76C6C"/>
<path d="M899.618 713.154L897.5 716.5L621.517 714.179L620.521 834.703L617.044 834.657L618.085 710.786L899.618 713.154Z" fill="black"/>
<path d="M648.93 832L648.93 835.047L511.712 833.893L511.712 751.649L515.5 751.649L515.5 830.955L648.93 832Z" fill="black"/>
<path d="M977.721 605.06C977.794 596.337 970.782 589.206 962.06 589.133C953.337 589.06 946.206 596.071 946.133 604.794C946.059 613.517 953.071 620.647 961.794 620.721C970.517 620.794 977.647 613.782 977.721 605.06Z" fill="black"/>
<path d="M1041.72 433.06C1041.79 424.337 1034.78 417.206 1026.06 417.133C1017.34 417.06 1010.21 424.071 1010.13 432.794C1010.06 441.517 1017.07 448.647 1025.79 448.721C1034.52 448.794 1041.65 441.782 1041.72 433.06Z" fill="black"/>
<path d="M959.762 603.968L958.043 607C906.623 606.567 877.794 606.325 826.373 605.892L825.5 714.011L821.609 713.965L822.544 602.814L959.762 603.968Z" fill="black"/>
<path d="M1020.15 434.154L1018.43 437.185C967.014 436.753 938.185 436.51 886.765 436.078L885.891 544.197L882 544.151L882.935 432.999L1020.15 434.154Z" fill="black"/>
</g>
<g filter="url(#filter1_d)">
<path d="M1179.65 564.028C1178.88 559.037 1178.18 554.036 1177.4 549.044C1176.55 543.546 1175.58 538.068 1174.78 532.562C1174.09 527.826 1173.59 523.063 1172.91 518.327C1172.56 515.95 1172.52 513.497 1171.78 511.21C1171.44 510.146 1170.29 508.213 1170.29 508.213C1170.29 508.213 1173.48 509.459 1175.16 509.711C1176.64 509.934 1178.15 509.667 1179.65 509.711C1181.78 509.774 1183.89 510.174 1186.02 510.086C1188.67 509.976 1191.31 509.571 1193.89 508.962C1195.81 508.508 1197.6 507.616 1199.5 507.089C1200.61 506.782 1202.88 506.34 1202.88 506.34L1202.13 510.086C1202.13 510.086 1202.09 516.579 1202.13 519.826C1202.19 525.446 1202.15 531.073 1202.5 536.682C1202.81 541.568 1203.42 546.432 1204 551.292C1204.44 554.921 1204.96 558.54 1205.5 562.155C1205.96 565.282 1206.5 568.398 1207 571.52C1207.63 575.515 1208.24 579.513 1208.87 583.507C1209.24 585.88 1209.99 590.625 1209.99 590.625L1181.9 590.999C1181.9 590.999 1182.02 585.253 1181.9 582.383C1181.77 579.379 1181.51 576.378 1181.15 573.393C1180.77 570.254 1180.14 567.152 1179.65 564.027L1179.65 564.028Z" fill="#D76C6C" fill-opacity="0.86"/>
<path d="M1160.92 416.055L1169.54 416.429C1172.41 416.554 1175.28 416.971 1178.15 416.804C1182.06 416.576 1185.98 415.978 1189.76 414.931C1190.41 414.751 1191.64 414.182 1191.64 414.182C1191.64 414.182 1191.57 417.929 1191.64 419.801C1191.82 424.806 1192.21 429.807 1192.76 434.785C1193.8 444.193 1195.72 453.486 1196.88 462.88C1197.8 470.353 1198.34 477.869 1199.13 485.357C1199.6 489.855 1199.66 494.425 1200.63 498.842C1201.05 500.771 1202.5 504.461 1202.5 504.461C1202.5 504.461 1197.28 505.822 1194.63 506.335C1192.15 506.815 1189.65 507.192 1187.14 507.458C1185.15 507.669 1183.15 507.87 1181.15 507.833C1178.64 507.786 1176.12 507.571 1173.65 507.084C1172.38 506.83 1169.91 505.96 1169.91 505.96C1169.91 505.96 1171.47 502.29 1171.78 500.341C1172.3 497.136 1171.98 493.842 1171.78 490.601C1171.41 484.324 1170.15 478.129 1169.53 471.871C1168.9 465.39 1168.75 458.865 1168.04 452.392C1167.46 447.125 1166.71 441.875 1165.79 436.658C1164.95 431.883 1163.53 427.215 1162.79 422.423C1162.6 421.183 1162.8 419.873 1162.42 418.677C1162.11 417.718 1160.92 416.055 1160.92 416.055L1160.92 416.055Z" fill="#D76C6C" fill-opacity="0.86"/>
<path d="M1160.55 412.687C1160.55 412.687 1165.77 413.798 1168.41 413.811C1170.3 413.82 1172.15 413.149 1174.03 413.061C1177.15 412.917 1180.28 413.515 1183.4 413.436C1184.78 413.401 1186.15 413.237 1187.52 413.061C1188.27 412.965 1189.12 413.081 1189.77 412.687C1190.3 412.363 1190.89 411.188 1190.89 411.188C1190.89 411.188 1189.19 408.534 1188.64 407.068C1186.37 400.961 1185.57 394.393 1184.52 387.963C1183.79 383.499 1183.43 378.982 1183.02 374.477C1182.53 368.992 1182.34 363.484 1181.9 357.995C1181.47 352.62 1180.3 347.279 1180.4 341.887C1180.45 338.991 1181.27 336.156 1181.53 333.271C1181.76 330.656 1181.9 325.404 1181.9 325.404C1181.9 325.404 1178.19 326.582 1176.28 326.903C1172.82 327.482 1169.3 327.527 1165.79 327.652C1163.67 327.728 1159.42 327.652 1159.42 327.652L1154.18 331.398L1150.81 332.896C1150.81 332.896 1152.92 343.865 1153.81 349.379C1154.67 354.731 1155.26 360.124 1156.05 365.486C1157.11 372.614 1158.57 379.683 1159.42 386.838C1159.97 391.441 1160.02 396.094 1160.55 400.699C1160.84 403.207 1161.79 405.668 1161.67 408.191C1161.6 409.734 1160.55 412.686 1160.55 412.686L1160.55 412.687Z" fill="#D76C6C" fill-opacity="0.86"/>
<path d="M1180.77 323.161C1180.77 323.161 1177.35 324.674 1175.53 325.034C1172.95 325.544 1170.28 325.216 1167.66 325.409C1165.16 325.594 1162.68 326.211 1160.17 326.158C1158.4 326.121 1156.67 325.643 1154.92 325.409C1153.92 325.275 1152.79 325.55 1151.93 325.034C1151 324.485 1150.33 323.45 1150.05 322.412C1149.41 319.987 1150.53 317.415 1150.8 314.92C1151.15 311.795 1151.93 305.555 1151.93 305.555C1151.93 305.555 1158.17 305.811 1161.29 305.929C1164.79 306.062 1168.28 306.154 1171.78 306.304C1174.28 306.411 1179.27 306.679 1179.27 306.679C1179.27 306.679 1179.21 309.177 1179.27 310.425C1179.4 313.18 1179.67 315.93 1180.02 318.666C1180.21 320.173 1180.77 323.161 1180.77 323.161L1180.77 323.161Z" fill="#D76C6C" fill-opacity="0.86"/>
<path d="M1184.54 597.142C1184.54 597.142 1185.72 586.417 1186.04 581.034C1186.32 576.171 1186.35 571.296 1186.41 566.425C1186.5 559.557 1186.33 552.689 1186.41 545.822C1186.47 540.451 1186.72 535.084 1186.78 529.714C1186.85 523.846 1187.27 517.956 1186.78 512.107C1186.66 510.593 1186.38 509.09 1186.03 507.612C1185.64 505.959 1184.54 502.742 1184.54 502.742C1184.54 502.742 1188.46 504.461 1190.53 504.99C1193.95 505.865 1197.5 506.238 1201.02 506.488C1203.63 506.674 1206.27 506.705 1208.89 506.488C1211.91 506.238 1217.88 504.99 1217.88 504.99C1217.88 504.99 1216.1 509.664 1215.63 512.107C1214.35 518.747 1214.3 525.577 1214.13 532.336C1214 537.58 1214.57 542.824 1214.5 548.069C1214.41 555.569 1213.66 563.049 1213.38 570.545C1213.2 575.413 1212.9 580.284 1213.01 585.155C1213.12 590.536 1214.13 601.262 1214.13 601.262L1184.54 597.142Z" fill="#D76C6C" fill-opacity="0.86"/>
<path d="M1185.66 499.744C1185.66 499.744 1196.08 502.239 1201.39 502.74C1205.62 503.139 1209.94 503.421 1214.13 502.74C1215.3 502.551 1217.5 501.617 1217.5 501.617C1217.5 501.617 1216.65 499.145 1216.37 497.871C1215.6 494.299 1215.19 490.649 1214.88 487.007C1214.28 480.161 1214.18 473.276 1214.13 466.404C1214.08 460.16 1214.25 453.914 1214.5 447.674C1214.75 441.549 1215.16 435.431 1215.63 429.318C1215.94 425.193 1216.16 421.051 1216.75 416.956C1217.21 413.806 1218.62 407.591 1218.62 407.591C1218.62 407.591 1214.15 408.47 1211.88 408.715C1209.39 408.983 1206.88 409.274 1204.39 409.089C1201.85 408.902 1199.38 408.162 1196.9 407.591C1194 406.925 1191.21 405.843 1188.28 405.343C1186.8 405.09 1183.78 404.969 1183.78 404.969C1183.78 404.969 1184.41 414.204 1184.53 418.829C1184.7 424.945 1184.46 431.067 1184.53 437.185C1184.6 442.43 1184.75 447.674 1184.91 452.918C1185.01 456.29 1184.98 459.672 1185.28 463.032C1185.68 467.429 1186.75 471.748 1187.16 476.144C1187.42 479.006 1187.65 481.887 1187.53 484.76C1187.33 489.789 1185.66 499.744 1185.66 499.744H1185.66Z" fill="#D76C6C" fill-opacity="0.86"/>
<path d="M1187.53 348.035C1187.53 348.035 1188.02 360.272 1187.91 366.391C1187.83 370.768 1187.47 375.135 1187.16 379.502C1186.85 383.877 1186.57 388.26 1186.03 392.614C1185.65 395.751 1184.54 401.979 1184.54 401.979C1184.54 401.979 1190.01 403.543 1192.78 404.226C1196.13 405.055 1199.47 406.034 1202.89 406.474C1206.24 406.904 1209.65 407.199 1213.01 406.849C1214.54 406.688 1217.5 405.725 1217.5 405.725C1217.5 405.725 1216.75 396.492 1216.75 391.864C1216.75 387.113 1217.13 382.366 1217.5 377.629C1217.88 372.749 1218.61 367.9 1219 363.02C1219.35 358.656 1219.75 349.909 1219.75 349.909L1220.12 348.785C1220.12 348.785 1213.39 349.649 1210.01 349.534C1207.36 349.444 1204.78 348.598 1202.14 348.41C1198.78 348.171 1195.4 348.55 1192.03 348.41C1190.53 348.348 1187.53 348.036 1187.53 348.036L1187.53 348.035Z" fill="#D76C6C" fill-opacity="0.86"/>
<path d="M1204.39 575.791L1205.89 602.013L1239.6 609.505C1239.6 609.505 1236.3 594.08 1236.61 586.28C1236.8 581.435 1239.6 572.045 1239.6 572.045C1239.6 572.045 1232.3 575.636 1228.37 576.54C1224.95 577.325 1221.38 577.358 1217.88 577.289C1213.36 577.2 1204.39 575.791 1204.39 575.791L1204.39 575.791Z" fill="#D76C6C" fill-opacity="0.86"/>
<path d="M1204.39 571.669C1204.39 571.669 1210.77 574.223 1214.13 574.666C1217.48 575.106 1220.91 574.809 1224.25 574.291C1226.55 573.934 1228.76 573.116 1230.99 572.418C1233.51 571.627 1238.48 569.796 1238.48 569.796C1238.48 569.796 1236.92 563.599 1236.61 560.431C1236.15 555.833 1236.36 551.184 1236.61 546.571C1236.98 539.672 1238.08 532.832 1238.86 525.968C1239.82 517.472 1240.61 508.954 1241.85 500.495C1242.79 494.097 1243.82 487.702 1245.22 481.39C1245.95 478.108 1247.85 471.65 1247.85 471.65C1247.85 471.65 1242.73 474.034 1239.98 474.272C1237.46 474.49 1234.99 473.507 1232.49 473.149C1229.74 472.756 1226.97 472.563 1224.25 472.025C1221.34 471.449 1218.44 470.725 1215.63 469.777C1214.09 469.259 1211.14 467.904 1211.14 467.904C1211.14 467.904 1211.19 484.397 1210.76 492.628C1210.47 498.262 1209.79 503.869 1209.26 509.485C1208.67 515.732 1207.86 521.958 1207.39 528.215C1207.02 533.202 1206.77 538.2 1206.64 543.199C1206.52 548.192 1206.75 553.189 1206.64 558.183C1206.58 561.057 1206.85 563.985 1206.27 566.799C1205.91 568.502 1204.39 571.669 1204.39 571.669L1204.39 571.669Z" fill="#D76C6C" fill-opacity="0.86"/>
<path d="M1212.63 463.784C1212.63 463.784 1220.39 467.959 1224.62 469.028C1227.53 469.766 1230.63 469.368 1233.61 469.777C1236.89 470.228 1240.06 472.005 1243.35 471.65C1245.24 471.447 1248.59 469.403 1248.59 469.403L1247.47 463.784C1247.47 463.784 1247.33 458.781 1247.1 456.291C1246.93 454.534 1246.35 451.047 1246.35 451.047L1248.97 444.679C1248.97 444.679 1243.47 444.501 1240.73 444.679C1237.84 444.866 1234.99 445.49 1232.11 445.803C1229.25 446.114 1226.38 446.487 1223.5 446.552C1220.5 446.619 1214.51 446.177 1214.51 446.177C1214.51 446.177 1215.32 450.409 1215.25 452.545C1215.19 454.7 1214.64 456.818 1214.13 458.914C1213.73 460.565 1212.63 463.784 1212.63 463.784L1212.63 463.784Z" fill="#D76C6C" fill-opacity="0.86"/>
<path d="M1074.54 21.0014C1074.54 21.0014 1076.09 25.3538 1076.13 27.6236C1076.2 32.0385 1074.2 36.247 1073.48 40.6028C1073.03 43.3252 1072.72 46.0713 1072.42 48.8139C1072 52.6037 1071.54 56.3954 1071.36 60.2039C1071.18 64.0847 1071.17 67.978 1071.36 71.8585C1071.49 74.6052 1071.6 77.3757 1072.15 80.0696C1073.27 85.514 1075.05 90.8335 1077.19 95.9629C1078.72 99.6446 1080.54 103.238 1082.75 106.559C1084.59 109.325 1086.95 111.715 1089.11 114.24C1091.1 116.569 1093.22 118.787 1095.2 121.127C1098.64 125.202 1102.16 129.238 1105.26 133.577C1107.57 136.803 1109.51 140.282 1111.62 143.642C1112.51 145.053 1113.61 146.349 1114.27 147.88C1116.78 153.745 1118.3 160.084 1119.04 166.422C1119.57 170.983 1118.77 180.196 1118.77 180.196L1126.45 178.077C1126.45 178.077 1130.13 107.098 1117.45 75.0357C1116.29 72.1119 1113.58 70.077 1111.62 67.6189C1110.13 65.7538 1108.62 63.912 1107.12 62.0564C1104.91 59.3213 1102.85 56.4604 1100.5 53.8453C1099.41 52.6379 1097.98 51.7314 1097.05 50.4018C1095.38 48.0076 1094.67 45.0618 1093.34 42.4556C1092.43 40.6585 1091.76 38.6698 1090.43 37.1578C1088.84 35.356 1086.59 34.276 1084.6 32.9197C1083.39 32.0898 1081.94 31.5661 1080.89 30.5357C1078.17 27.857 1074.54 21 1074.54 21L1074.54 21.0014Z" fill="#D76C6C" fill-opacity="0.86"/>
<path d="M1116.39 26.0316C1116.39 26.0316 1116.26 46.401 1115.06 56.493C1114.58 60.6026 1113.46 64.6135 1112.68 68.6779C1112.05 71.9429 1111.3 75.1879 1110.83 78.4784C1110.7 79.3567 1110.54 80.2401 1110.56 81.1273C1110.6 83.0875 1111.01 85.0249 1111.36 86.9546C1112.07 90.9612 1113.26 94.8727 1114 98.8741C1114.66 102.385 1115.47 105.9 1115.59 109.47C1115.74 113.808 1114.71 118.112 1114.53 122.449C1114.39 125.89 1114.25 129.348 1114.53 132.78C1114.8 135.991 1115.68 139.124 1116.12 142.316C1116.67 146.275 1117.14 150.249 1117.45 154.235C1117.76 158.288 1117.89 162.355 1117.98 166.42C1118.26 179.396 1117.98 205.358 1117.98 205.358H1125.13C1125.13 205.358 1124.18 168.37 1125.92 149.997C1127.03 138.393 1131 127.174 1132.02 115.562C1132.22 113.275 1132.23 110.96 1132.02 108.675C1131.79 106.348 1131.84 103.824 1130.69 101.788C1130.11 100.753 1128.31 100.561 1128.04 99.4039C1127.61 97.5515 1129.67 95.9423 1130.16 94.1062C1130.79 91.7796 1131.21 89.3644 1131.22 86.9544C1131.23 84.3697 1130.63 81.8153 1130.16 79.2728C1128.45 69.918 1126.44 60.5982 1123.8 51.46C1122.77 47.8646 1121.39 44.3748 1120.1 40.8644C1119.51 39.2648 1118.71 37.737 1118.24 36.0965C1117.31 32.8145 1116.39 26.0312 1116.39 26.0312L1116.39 26.0316Z" fill="#D76C6C" fill-opacity="0.86"/>
<path d="M1123.54 199.538C1123.54 199.538 1126.83 172.487 1128.84 159.01C1129.71 153.167 1130.52 147.306 1131.75 141.528C1132.63 137.423 1133.82 133.393 1134.93 129.343C1135.95 125.623 1136.64 121.783 1138.11 118.218C1139.22 115.515 1140.77 113.003 1142.35 110.537C1144.52 107.126 1146.78 103.733 1149.5 100.736C1151.72 98.28 1154.2 96.0136 1156.91 94.114C1159.21 92.5066 1161.82 91.3986 1164.33 90.1407C1167.12 88.7413 1169.84 87.1427 1172.81 86.1674C1174.52 85.6047 1176.31 85.2854 1178.1 85.1079C1180.83 84.8382 1183.58 85.1079 1186.31 85.1079C1189.67 85.1079 1193.02 85.1509 1196.38 85.1079C1199.82 85.0641 1203.28 85.1768 1206.71 84.843C1210.9 84.4349 1215.01 83.4605 1219.16 82.724C1221.55 82.2998 1223.94 81.9235 1226.31 81.3995C1229.07 80.7886 1231.74 79.7692 1234.52 79.2805C1238.19 78.6365 1241.93 78.4454 1245.65 78.221C1252.52 77.8058 1266.31 77.6912 1266.31 77.6912C1266.31 77.6912 1257.89 75.6732 1253.59 75.3072C1247.87 74.82 1242.11 75.4627 1236.38 75.5721C1232.49 75.6463 1228.61 75.7135 1224.72 75.8369C1220.39 75.9745 1216.07 76.469 1211.74 76.3668C1208.73 76.2956 1205.75 75.4717 1202.74 75.5721C1195.86 75.8011 1189.15 77.7602 1182.34 78.7507C1179.08 79.2253 1175.75 79.3299 1172.54 80.0751C1168.73 80.9588 1164.92 82.045 1161.42 83.7836C1157.78 85.5917 1154.46 88.0477 1151.35 90.6705C1148.54 93.0472 1145.85 95.6506 1143.67 98.6167C1139.31 104.534 1135.9 111.167 1133.08 117.953C1131.52 121.693 1130.8 125.728 1129.63 129.608C1127.72 135.974 1125.64 142.29 1123.8 148.679C1122.39 153.6 1121.02 158.535 1119.83 163.513C1118.34 169.744 1116.38 175.933 1115.86 182.319C1115.55 186.108 1114.68 190.315 1116.39 193.709C1117.77 196.455 1123.54 199.537 1123.54 199.537L1123.54 199.538Z" fill="#D76C6C" fill-opacity="0.86"/>
<path d="M1121.42 223.642C1120.53 218.775 1120.98 213.756 1120.89 208.809C1120.8 203.953 1120.61 199.088 1120.89 194.24C1121.15 189.538 1121.86 184.87 1122.48 180.201C1122.94 176.66 1123.13 173.052 1124.07 169.605C1124.69 167.311 1124.89 164.503 1126.72 162.983C1127.41 162.407 1128.51 162.746 1129.36 162.453C1132.17 161.492 1134.7 159.87 1137.31 158.48C1140.8 156.624 1144.43 154.96 1147.64 152.653C1149.57 151.266 1150.99 149.248 1152.94 147.885C1154.17 147.023 1155.53 146.358 1156.91 145.766C1158.96 144.884 1161.06 144.004 1163.27 143.647C1165.71 143.251 1168.25 143.225 1170.68 143.647C1171.98 143.871 1173.11 144.683 1174.39 144.971C1175.26 145.166 1177.04 145.236 1177.04 145.236C1177.04 145.236 1169.25 147.418 1165.65 149.209C1163.09 150.486 1161.09 152.757 1158.5 153.977C1156 155.154 1152.67 154.581 1150.55 156.361C1147.83 158.649 1148.05 163.16 1145.79 165.897C1144.3 167.692 1141.96 168.582 1140.22 170.135C1138.13 172.008 1135.99 173.915 1134.4 176.227C1133.12 178.079 1132.38 180.253 1131.48 182.32C1130.32 185.014 1129.07 187.696 1128.31 190.531C1127.56 193.293 1127.04 196.148 1126.98 199.007C1126.9 202.916 1128.01 206.763 1128.31 210.662C1128.48 213.041 1128.53 215.429 1128.57 217.814C1128.62 220.639 1128.38 223.471 1128.57 226.29C1128.7 228.246 1129.35 230.157 1129.36 232.118C1129.4 235.852 1131.75 242.857 1128.04 243.243C1121.18 243.957 1122.66 230.426 1121.42 223.641L1121.42 223.642Z" fill="#D76C6C" fill-opacity="0.86"/>
<path d="M1117.18 215.696C1116.87 209.932 1116.16 204.191 1115.33 198.479C1114.55 193.149 1113.53 187.855 1112.41 182.585C1111.48 178.144 1110.56 173.684 1109.24 169.341C1108.05 165.466 1106.41 161.748 1105 157.951C1103.85 154.861 1102.99 151.648 1101.55 148.68C1100.07 145.613 1098.17 142.756 1096.26 139.939C1094.7 137.647 1093.14 135.321 1091.22 133.317C1088.37 130.326 1085.01 127.835 1081.69 125.371C1078.72 123.168 1075.65 121.068 1072.42 119.278C1069.45 117.634 1066.3 116.304 1063.15 115.04C1058.64 113.233 1053.92 111.987 1049.37 110.272C1043.48 108.05 1037.87 105.103 1031.89 103.12C1029.21 102.23 1026.41 101.735 1023.68 101.001C1021.47 100.406 1019.32 99.5531 1017.06 99.1471C1014.97 98.7704 1012.81 98.8928 1010.7 98.6173C1003.23 97.6412 995.911 95.7229 988.454 94.644C986.081 94.3005 983.662 94.2826 981.303 93.8494C978.523 93.3389 975.855 92.3262 973.092 91.7304C971.077 91.2959 967 90.6708 967 90.6708C967 90.6708 976.717 90.1624 981.568 90.4059C985.298 90.5931 988.962 91.5782 992.693 91.7303C995.076 91.8274 997.46 91.3986 999.845 91.4654C1006.49 91.6517 1013.07 92.866 1019.71 93.3196C1025.79 93.7355 1031.94 93.299 1037.99 94.1143C1041.13 94.538 1044.26 95.2159 1047.26 96.2333C1050.48 97.3239 1053.46 99.0051 1056.53 100.471C1060.45 102.346 1064.47 104.049 1068.18 106.299C1071.54 108.33 1074.71 110.667 1077.72 113.186C1080.73 115.713 1083.37 118.662 1086.19 121.397C1088.84 123.959 1091.71 126.31 1094.14 129.079C1096.68 131.971 1098.83 135.188 1101.03 138.349C1103.25 141.547 1105.5 144.744 1107.38 148.15C1109.51 151.985 1111.2 156.049 1112.95 160.069C1114.92 164.61 1116.73 169.223 1118.51 173.843C1120.17 178.144 1121.89 182.428 1123.28 186.822C1124.1 189.436 1124.89 192.075 1125.39 194.769C1125.99 197.912 1126.4 201.107 1126.45 204.304C1126.52 207.845 1125.96 211.371 1125.66 214.9C1125.26 219.584 1124.72 224.254 1124.34 228.939C1124.13 231.497 1123.81 236.621 1123.81 236.621C1123.81 236.621 1118.3 223.824 1117.18 217.019C1117.11 216.583 1117.21 216.135 1117.18 215.694L1117.18 215.696Z" fill="#D76C6C" fill-opacity="0.86"/>
<path d="M1128.83 288.801C1128.83 288.801 1125.53 278.993 1124.33 273.967C1123.5 270.479 1123.23 266.876 1122.48 263.371C1121.95 260.964 1121.15 258.626 1120.62 256.219C1119.76 252.277 1119.37 248.241 1118.5 244.3C1117.76 240.912 1116.73 237.59 1115.85 234.235C1114.88 230.527 1113.98 226.8 1112.94 223.11C1112.19 220.447 1111.39 217.8 1110.56 215.163C1109.8 212.768 1109.21 210.301 1108.17 208.011C1107.16 205.776 1105.7 203.775 1104.46 201.654C1103.49 199.978 1102.29 198.414 1101.55 196.622C1100.75 194.68 1100.29 192.602 1099.96 190.529C1099.74 189.131 1099.7 186.291 1099.7 186.291C1099.7 186.291 1102.06 191.075 1103.67 193.178C1105.04 194.961 1106.88 196.326 1108.44 197.946C1110.69 200.287 1113.19 202.442 1115.06 205.098C1116.38 206.97 1117.13 209.185 1118.24 211.19C1120.02 214.412 1122.13 217.448 1123.8 220.726C1125.29 223.649 1126.62 226.659 1127.77 229.732C1129.13 233.368 1130.23 237.104 1131.22 240.857C1132.16 244.441 1132.92 248.075 1133.6 251.717C1134.13 254.528 1134.42 257.378 1134.92 260.194C1135.48 263.297 1136.39 266.337 1136.78 269.465C1137.01 271.307 1136.97 273.173 1137.04 275.028C1137.16 277.852 1137.43 280.68 1137.31 283.504C1137.21 285.726 1136.51 290.127 1136.51 290.127L1128.83 288.801Z" fill="#D76C6C" fill-opacity="0.86"/>
<path d="M1127.77 294.892C1126.71 292.035 1126.45 288.922 1126.18 285.886C1125.99 283.687 1125.99 281.462 1126.18 279.263C1126.41 276.762 1126.91 274.285 1127.51 271.847C1127.93 270.139 1128.39 268.426 1129.1 266.814C1129.38 266.162 1129.88 265.614 1130.16 264.96C1130.88 263.266 1131.75 259.662 1131.75 259.662C1131.75 259.662 1133.22 263.169 1133.87 264.96C1134.55 266.879 1134.99 268.886 1135.72 270.788C1136.56 272.961 1137.78 274.976 1138.63 277.145C1139.15 278.443 1139.69 279.747 1139.96 281.118C1140.53 284.071 1139.95 287.166 1140.49 290.124C1140.75 291.58 1141.39 292.943 1141.81 294.362C1142.46 296.56 1143.35 298.713 1143.67 300.984C1144.34 305.883 1143.67 315.818 1143.67 315.818L1139.96 315.288C1139.96 315.288 1130.54 302.313 1127.77 294.892H1127.77Z" fill="#D76C6C" fill-opacity="0.86"/>
<path d="M1120.62 282.975C1120.62 282.975 1123.36 290.683 1125.13 294.365C1126.75 297.753 1128.92 300.851 1130.69 304.166C1131.99 306.604 1133.05 309.168 1134.4 311.582C1135.46 313.486 1136.84 315.205 1137.84 317.145C1138.36 318.166 1139.16 320.324 1139.16 320.324L1149.76 325.356L1154 325.091L1153.47 318.47C1153.47 318.47 1151.73 316.078 1151.08 314.761C1150.05 312.657 1148.7 308.139 1148.7 308.139C1148.7 308.139 1146.67 305.297 1146.32 303.636C1145.74 300.954 1146.61 298.157 1146.85 295.425C1146.99 293.832 1147.38 290.657 1147.38 290.657C1147.38 290.657 1145.04 292.97 1144.2 294.365C1142.83 296.641 1142.05 299.24 1141.28 301.782C1140.68 303.771 1140.07 305.799 1139.96 307.874C1139.87 309.558 1140.49 312.907 1140.49 312.907C1140.49 312.907 1139.31 309.261 1138.37 307.609C1137.15 305.478 1135.31 303.769 1133.87 301.782C1132.3 299.622 1130.89 297.348 1129.36 295.16C1126.5 291.062 1120.62 282.975 1120.62 282.975L1120.62 282.975Z" fill="#D76C6C" fill-opacity="0.86"/>
<path d="M1159.03 320.583C1157.43 319.147 1153.74 316.875 1153.74 316.875C1153.74 316.875 1151.36 321.183 1149.23 321.908C1147.87 322.37 1146.35 321.597 1144.99 321.113C1142.06 320.062 1139.4 318.32 1136.78 316.61C1134.73 315.266 1132.83 313.697 1130.96 312.107C1129.58 310.934 1126.98 308.398 1126.98 308.398C1126.98 308.398 1128.85 316.182 1131.22 319.259C1132.69 321.161 1135.18 321.991 1137.05 323.497C1138.71 324.83 1140.4 326.154 1141.82 327.735C1142.83 328.865 1143.29 330.477 1144.47 331.444C1146.26 332.928 1148.63 333.557 1150.82 334.358C1152.37 334.924 1153.94 335.734 1155.59 335.682C1157.74 335.615 1160.08 335.001 1161.68 333.563C1162.92 332.453 1163.6 330.707 1163.8 329.06C1163.96 327.719 1163.61 326.296 1163.01 325.087C1162.12 323.293 1160.53 321.918 1159.03 320.583H1159.03Z" fill="#D76C6C" fill-opacity="0.86"/>
<path d="M1144 384.844C1142 382.523 1140.73 379.681 1139.48 376.913C1138.57 374.909 1137.85 372.814 1137.34 370.675C1136.75 368.242 1136.46 365.734 1136.28 363.228C1136.16 361.472 1136.08 359.698 1136.27 357.935C1136.35 357.22 1136.67 356.533 1136.75 355.819C1136.94 353.97 1136.65 350.275 1136.65 350.275C1136.65 350.275 1139.28 353.066 1140.51 354.529C1141.83 356.097 1142.91 357.837 1144.27 359.373C1145.83 361.128 1147.71 362.603 1149.28 364.348C1150.22 365.393 1151.2 366.43 1151.91 367.63C1153.44 370.213 1153.85 373.33 1155.35 375.929C1156.1 377.208 1157.18 378.27 1158.07 379.46C1159.44 381.304 1161.04 383.022 1162.09 385.053C1164.35 389.433 1166.88 399.026 1166.88 399.026L1162.95 399.818C1162.95 399.818 1149.2 390.873 1144 384.844H1144Z" fill="#D76C6C" fill-opacity="0.86"/>
<path d="M1132.89 376.102C1132.89 376.102 1138.16 382.409 1141.14 385.265C1143.88 387.893 1147.08 390.055 1149.95 392.562C1152.05 394.406 1153.96 396.453 1156.11 398.258C1157.8 399.682 1159.76 400.819 1161.4 402.3C1162.26 403.079 1163.77 404.833 1163.77 404.833L1176.14 405.887L1180.35 404.163L1177.68 398.109C1177.68 398.109 1175.14 396.46 1174.06 395.446C1172.33 393.825 1169.5 390.037 1169.5 390.037C1169.5 390.037 1166.53 388.066 1165.63 386.625C1164.18 384.299 1164.15 381.363 1163.51 378.706C1163.14 377.156 1162.51 374.029 1162.51 374.029C1162.51 374.029 1160.88 377.023 1160.48 378.629C1159.83 381.25 1159.88 383.966 1159.92 386.63C1159.96 388.712 1159.99 390.835 1160.55 392.829C1161 394.448 1162.71 397.385 1162.71 397.385C1162.71 397.385 1160.34 394.359 1158.85 393.133C1156.93 391.548 1154.51 390.581 1152.4 389.21C1150.11 387.72 1147.95 386.068 1145.69 384.539C1141.47 381.674 1132.89 376.102 1132.89 376.102H1132.89Z" fill="#D76C6C" fill-opacity="0.86"/>
<path d="M1184.01 398.17C1181.91 397.376 1177.43 396.52 1177.43 396.52C1177.43 396.52 1176.42 401.403 1174.49 402.827C1173.26 403.737 1171.47 403.539 1169.94 403.554C1166.62 403.583 1163.35 402.871 1160.15 402.169C1157.63 401.616 1155.2 400.801 1152.79 399.954C1151.01 399.33 1147.56 397.843 1147.56 397.843C1147.56 397.843 1151.96 404.527 1155.37 406.599C1157.47 407.88 1160.26 407.796 1162.65 408.564C1164.76 409.244 1166.9 409.902 1168.85 410.897C1170.25 411.608 1171.24 412.965 1172.74 413.469C1175.04 414.241 1177.65 414.01 1180.13 414.001C1181.88 414.001 1183.74 414.214 1185.39 413.59C1187.55 412.778 1189.73 411.385 1190.89 409.474C1191.78 408 1191.91 406.116 1191.58 404.495C1191.31 403.175 1190.49 401.96 1189.49 401.029C1188.01 399.649 1185.95 398.906 1184.01 398.17H1184.01Z" fill="#D76C6C" fill-opacity="0.86"/>
<path d="M1224.45 390.518C1222.26 373.53 1223.7 356.243 1224.45 339.13C1224.72 333.108 1226.03 327.145 1226.04 321.118C1226.06 312.788 1224.65 304.516 1223.92 296.219C1223.41 290.39 1223.04 284.546 1222.34 278.737C1221.63 272.886 1220.8 267.041 1219.69 261.255C1218.52 255.198 1217.9 248.901 1215.45 243.242C1213.17 237.986 1209.15 233.67 1205.91 228.938C1203.48 225.379 1201.16 221.736 1198.5 218.343C1196.18 215.388 1193.77 212.481 1191.08 209.866C1188.29 207.158 1185.2 204.767 1182.07 202.45C1180.03 200.932 1177.99 199.355 1175.72 198.211C1173.37 197.033 1170.76 196.492 1168.3 195.562C1166.52 194.889 1164.56 194.537 1163 193.443C1161.26 192.221 1160.14 190.301 1158.77 188.675C1157.31 186.947 1156.31 184.772 1154.53 183.378C1152.54 181.819 1147.64 180.199 1147.64 180.199C1147.64 180.199 1155.03 182.752 1158.77 183.908C1162.45 185.047 1166.4 185.437 1169.89 187.086C1172.41 188.28 1174.2 190.779 1176.78 191.854C1179.43 192.962 1182.45 192.812 1185.25 193.443C1188.64 194.205 1192.01 195.04 1195.32 196.092C1198.19 197.007 1201.28 197.596 1203.79 199.271C1207.02 201.42 1209.64 204.495 1211.74 207.747C1214.23 211.603 1215.17 216.268 1217.04 220.462C1218.71 224.213 1220.83 227.765 1222.34 231.587C1223.62 234.861 1224.67 238.237 1225.51 241.652C1226.46 245.485 1226.95 249.417 1227.63 253.307C1228.37 257.54 1228.86 261.818 1229.75 266.022C1230.92 271.552 1232.99 276.88 1233.99 282.444C1235.5 290.832 1235.86 299.387 1236.64 307.873C1237.04 312.283 1237.29 316.708 1237.7 321.118C1238.16 326.069 1239.39 330.98 1239.29 335.951C1239.14 343.092 1236.95 350.049 1236.11 357.141C1235.63 361.19 1235.18 365.252 1235.05 369.326C1234.78 377.623 1239.21 386.761 1235.58 394.225C1234.03 397.401 1227.1 400.582 1227.1 400.582C1227.1 400.582 1224.9 393.957 1224.45 390.517L1224.45 390.518Z" fill="#D76C6C" fill-opacity="0.86"/>
<path d="M1233.99 391.577C1233.99 391.577 1224.31 373.745 1224.46 364.029C1224.54 358.553 1228.38 353.803 1230.28 348.666C1231.91 344.265 1233.34 339.793 1235.05 335.422C1236.37 332.03 1237.59 328.577 1239.29 325.357C1240.66 322.756 1242.01 320.05 1244.06 317.94C1246.44 315.478 1249.65 313.967 1252.53 312.113C1256 309.885 1259.47 307.648 1263.13 305.755C1267.41 303.539 1272.02 302.01 1276.37 299.928C1281.22 297.609 1285.69 294.514 1290.67 292.511C1293.58 291.344 1296.64 290.585 1299.68 289.862C1301.6 289.406 1303.61 289.348 1305.51 288.803C1307.34 288.277 1310.81 286.684 1310.81 286.684C1310.81 286.684 1305.12 293.37 1301.8 296.219C1299.68 298.039 1297.33 299.592 1294.91 300.988C1288.82 304.501 1282.15 306.882 1275.84 309.994C1269.96 312.894 1263.6 315.059 1258.36 319C1254.87 321.628 1251.77 324.889 1249.35 328.536C1245.95 333.679 1243.91 339.644 1241.94 345.488C1239.79 351.859 1238.37 358.473 1237.17 365.09C1235.59 373.841 1233.99 391.578 1233.99 391.578L1233.99 391.577Z" fill="#D76C6C" fill-opacity="0.86"/>
<path d="M1231.87 426.536C1237.58 410.103 1235.46 391.93 1237.17 374.619C1237.53 370.911 1238.15 367.217 1238.23 363.493C1238.29 360.31 1238.57 357.019 1237.7 353.958C1237.09 351.83 1235.69 350.008 1234.52 348.13C1231.77 343.724 1229.32 338.946 1225.51 335.416C1222.49 332.616 1218.59 330.925 1214.92 329.058C1210.47 326.799 1205.33 325.94 1201.14 323.231C1198.31 321.398 1196.23 318.603 1193.73 316.344C1189.55 312.574 1185.45 308.681 1181.01 305.219C1176.61 301.785 1172.22 298.206 1167.24 295.684C1162.41 293.236 1156.73 292.79 1151.88 290.386C1150.17 289.537 1147.11 287.207 1147.11 287.207C1147.11 287.207 1154.17 298.075 1158.76 302.57C1163.28 306.991 1169.32 309.593 1174.13 313.695C1176.79 315.964 1178.92 318.802 1181.54 321.112C1185.23 324.355 1189.43 326.973 1193.2 330.118C1195.02 331.64 1196.75 333.277 1198.5 334.886C1201.53 337.678 1204.65 340.386 1207.5 343.363C1211.05 347.069 1214.56 350.859 1217.57 355.018C1219.98 358.354 1222.63 361.703 1223.92 365.613C1225.6 370.667 1225.71 376.186 1225.51 381.506C1225.36 385.626 1223.91 389.6 1223.39 393.691C1222.82 398.26 1222.51 402.864 1222.33 407.465C1222.14 412.582 1220.95 417.899 1222.33 422.828C1223.34 426.413 1228.16 432.364 1228.16 432.364C1228.16 432.364 1231.11 428.711 1231.87 426.536H1231.87Z" fill="#D76C6C" fill-opacity="0.86"/>
<path d="M1231.87 441.368C1231.39 435.465 1234.52 429.785 1235.05 423.886C1235.29 421.248 1234.98 418.588 1235.05 415.94C1235.14 412.758 1235.49 409.586 1235.58 406.404C1235.63 404.463 1235.15 402.471 1235.58 400.577C1236.48 396.571 1238.76 392.974 1240.88 389.452C1243.48 385.121 1247.12 381.498 1249.88 377.267C1252.99 372.497 1254.54 366.659 1258.36 362.433C1260.4 360.179 1265.78 357.136 1265.78 357.136C1265.78 357.136 1256.79 356.639 1253.06 358.725C1251.09 359.829 1250.31 362.315 1248.82 364.023C1246.12 367.136 1243 369.874 1240.35 373.029C1238.64 375.056 1236.94 377.111 1235.58 379.386C1232.99 383.728 1231.45 388.621 1229.22 393.16C1227.2 397.271 1224.62 401.113 1222.87 405.345C1221.52 408.595 1220.62 412.017 1219.69 415.41C1218.87 418.383 1217.92 421.352 1217.57 424.416C1217.26 427.047 1217.32 429.725 1217.57 432.362C1217.83 435.224 1217.98 438.214 1219.16 440.839C1220.34 443.483 1224.45 447.726 1224.45 447.726L1234.52 448.785C1234.52 448.785 1232.08 443.985 1231.87 441.368H1231.87Z" fill="#D76C6C" fill-opacity="0.86"/>
<path d="M1238.23 451.433C1235.27 454.559 1230.25 456.548 1226.04 455.671C1222.98 455.034 1220.62 452.075 1219.15 449.314C1217.48 446.159 1216.9 442.227 1217.57 438.719C1218.29 434.91 1220.57 431.309 1223.39 428.654C1225.12 427.03 1227.58 426.431 1229.75 425.475C1232 424.482 1234.57 424.166 1236.64 422.826C1239.78 420.784 1242.08 417.671 1244.58 414.88C1246.84 412.352 1250.94 406.934 1250.94 406.934C1250.94 406.934 1244.23 422.594 1241.93 430.773C1241.16 433.541 1240.79 436.409 1240.34 439.25C1239.9 442.063 1239.85 444.936 1239.28 447.726C1239.03 448.986 1239.11 450.5 1238.23 451.435L1238.23 451.433Z" fill="#D76C6C" fill-opacity="0.86"/>
<path d="M1188.96 113.973C1188.96 113.973 1190.02 131.38 1191.61 139.931C1192.71 145.87 1194.53 151.662 1196.37 157.413C1197.93 162.255 1199.96 166.93 1201.67 171.717C1203.31 176.291 1205.07 180.83 1206.44 185.491C1208.34 191.942 1209.77 198.524 1211.21 205.093C1213.17 214.056 1214.44 223.169 1216.5 232.111C1218.97 242.795 1222.8 253.149 1224.98 263.897C1226.75 272.636 1228.69 290.385 1228.69 290.385C1228.69 290.385 1228.25 252.595 1228.16 233.7C1228.14 229.462 1228.79 225.176 1228.16 220.985C1227.36 215.684 1224.96 210.749 1223.39 205.622C1221.07 198.037 1220.02 189.954 1216.5 182.842C1214.1 177.965 1209.35 174.49 1206.97 169.598C1203.35 162.16 1202.95 153.517 1200.08 145.759C1198.6 141.756 1196.27 138.106 1194.79 134.104C1192.36 127.552 1188.96 113.973 1188.96 113.973H1188.96Z" fill="#D76C6C" fill-opacity="0.86"/>
<path d="M1228.69 299.925C1228.69 299.925 1217.11 264.065 1219.15 245.888C1219.56 242.271 1222.32 239.303 1223.39 235.823C1224.71 231.519 1225.13 226.987 1226.04 222.579C1226.55 220.103 1226.93 217.592 1227.63 215.162C1228.77 211.189 1230.16 207.272 1231.87 203.508C1233.53 199.837 1235.76 196.447 1237.69 192.912C1238.76 190.971 1239.46 188.788 1240.87 187.085C1242.47 185.152 1244.77 183.915 1246.7 182.317C1249.89 179.682 1252.74 176.588 1256.24 174.37C1258.7 172.804 1261.58 171.998 1264.18 170.662C1267.07 169.181 1269.54 166.781 1272.66 165.894C1276.74 164.734 1281.13 165.453 1285.37 165.364C1288.02 165.309 1290.67 165.2 1293.32 165.364C1294.74 165.453 1296.15 166.1 1297.56 165.894C1302.33 165.197 1306.08 161.059 1310.8 160.067C1314.08 159.376 1317.51 160.067 1320.86 160.067H1332.52C1334.81 160.067 1337.12 160.256 1339.41 160.067C1341.55 159.889 1343.63 158.724 1345.76 159.007C1350.38 159.622 1354.52 162.361 1358.48 164.835C1361.77 166.898 1364.18 170.193 1367.48 172.251C1369.29 173.381 1373.31 174.9 1373.31 174.9C1373.31 174.9 1358.86 173.135 1351.59 172.781C1347.36 172.575 1343.1 173.068 1338.88 172.781C1334.96 172.516 1331.14 171.335 1327.22 171.192C1324.39 171.088 1321.57 171.895 1318.75 171.721C1315.88 171.545 1313.14 170.195 1310.27 170.132C1306.52 170.051 1302.81 170.973 1299.14 171.721C1293.77 172.817 1288.41 174.112 1283.25 175.96C1279.23 177.397 1275.44 179.397 1271.6 181.257C1265.7 184.115 1259.32 186.279 1254.12 190.264C1249.75 193.606 1245.96 197.817 1242.99 202.448C1238.34 209.712 1235.44 218.037 1232.93 226.288C1231.04 232.483 1229.42 238.887 1229.22 245.36C1228.96 253.548 1231.64 261.572 1232.4 269.729C1232.98 276.069 1234.56 282.53 1233.46 288.8C1232.75 292.773 1228.69 299.925 1228.69 299.925L1228.69 299.925Z" fill="#D76C6C" fill-opacity="0.86"/>
<path d="M1232.93 362.438C1232.93 362.438 1236.9 318.672 1230.28 298.336C1227.72 290.465 1222.9 282.935 1216.51 277.675C1211.19 273.297 1203.95 271.979 1197.44 269.728C1191.2 267.572 1184.64 266.474 1178.37 264.431C1175.5 263.496 1169.89 261.252 1169.89 261.252C1169.89 261.252 1180.21 269.104 1185.78 272.377C1191.03 275.455 1197.12 276.992 1202.21 280.323C1206.29 282.999 1210.56 285.835 1213.33 289.859C1216.31 294.184 1217.08 299.676 1218.63 304.692C1220.89 312.018 1222.88 319.438 1224.46 326.943C1225.85 333.593 1225.99 340.482 1227.63 347.074C1228.94 352.33 1232.93 362.437 1232.93 362.437L1232.93 362.438Z" fill="#D76C6C" fill-opacity="0.86"/>
<path d="M1275.13 486.059C1275.13 486.059 1272.29 493.773 1270.45 497.465C1268.76 500.862 1266.47 503.977 1264.61 507.302C1263.25 509.749 1262.15 512.318 1260.73 514.74C1259.62 516.651 1258.16 518.382 1257.11 520.328C1256.57 521.351 1255.74 523.511 1255.74 523.511L1244.44 528.672L1239.89 528.468L1240.37 521.867C1240.37 521.867 1242.2 519.461 1242.88 518.141C1243.97 516.03 1245.35 511.512 1245.35 511.512C1245.35 511.512 1247.49 508.654 1247.85 506.995C1248.43 504.316 1247.47 501.543 1247.17 498.825C1247 497.241 1246.54 494.085 1246.54 494.085C1246.54 494.085 1249.08 496.355 1250 497.733C1251.5 499.98 1252.36 502.556 1253.22 505.077C1253.89 507.05 1254.57 509.06 1254.72 511.125C1254.84 512.801 1254.22 516.144 1254.22 516.144C1254.22 516.144 1255.43 512.496 1256.42 510.839C1257.7 508.7 1259.65 506.972 1261.17 504.973C1262.83 502.799 1264.31 500.515 1265.92 498.315C1268.93 494.194 1275.13 486.059 1275.13 486.059L1275.13 486.059Z" fill="#D76C6C" fill-opacity="0.86"/>
<path d="M1234.44 524.054C1236.14 522.601 1240.07 520.287 1240.07 520.287C1240.07 520.287 1242.67 524.543 1244.96 525.235C1246.43 525.676 1248.05 524.885 1249.5 524.384C1252.63 523.296 1255.46 521.524 1258.24 519.784C1260.43 518.416 1262.45 516.827 1264.43 515.218C1265.9 514.03 1268.64 511.469 1268.64 511.469C1268.64 511.469 1266.75 519.245 1264.24 522.343C1262.69 524.258 1260.03 525.12 1258.05 526.646C1256.29 527.997 1254.49 529.339 1252.99 530.933C1251.92 532.072 1251.44 533.684 1250.2 534.663C1248.29 536.167 1245.76 536.827 1243.42 537.654C1241.77 538.24 1240.09 539.069 1238.33 539.041C1236.02 539.003 1233.5 538.426 1231.77 537.017C1230.43 535.929 1229.67 534.199 1229.43 532.562C1229.24 531.229 1229.61 529.808 1230.23 528.595C1231.16 526.796 1232.85 525.403 1234.44 524.054H1234.44Z" fill="#D76C6C" fill-opacity="0.86"/>
<path d="M1179.5 608.5C1179.5 608.5 1178.54 579.155 1183.5 584.5C1209 612.001 1233 568.5 1238.5 602C1239.29 606.817 1240 615 1240 615L1179.5 608.5Z" fill="#D76E6E"/>
</g>
<ellipse cx="801.5" cy="1071.5" rx="32.5" ry="31.5" fill="#ECECEC"/>
<ellipse cx="1397.5" cy="869.5" rx="32.5" ry="31.5" fill="#ECECEC"/>
<ellipse cx="271.5" cy="216.5" rx="32.5" ry="31.5" fill="#ECECEC"/>
<ellipse cx="32.5" cy="310.5" rx="32.5" ry="31.5" fill="#ECECEC"/>
<circle cx="130.5" cy="481.5" r="18.5" fill="#ECECEC"/>
<circle cx="130.5" cy="98.5" r="18.5" fill="#ECECEC"/>
<circle cx="850.5" cy="186.5" r="16.5" fill="#ECECEC"/>
<circle cx="222.5" cy="361.5" r="16.5" fill="#ECECEC"/>
<circle cx="215.5" cy="649.5" r="23.5" fill="#ECECEC"/>
<circle cx="1332.5" cy="81.5" r="16.5" fill="#ECECEC"/>
<g filter="url(#filter2_d)">
<ellipse cx="674.561" cy="373.532" rx="161.561" ry="101.532" fill="#7E7E7E" fill-opacity="0.01"/>
</g>
<g filter="url(#filter3_d)">
<ellipse cx="674.322" cy="379.904" rx="134.429" ry="84.4805" fill="#7E7E7E" fill-opacity="0.01"/>
</g>
<g filter="url(#filter4_d)">
<path d="M978 771.088C978 771.088 1100.43 741.111 1080.95 799.864C1061.47 858.616 1214.5 865.587 1257.91 839.696C1301.31 813.805 1323.15 758.41 1267.5 737" stroke="#7B7B7B" stroke-width="2" stroke-miterlimit="10"/>
</g>
<g filter="url(#filter5_d)">
<path d="M845.5 340.627C844.5 334.127 840 312.129 817.5 314.128C795 316.127 760 346.127 762.5 376.627C765 407.127 814.5 442.5 808.5 464C802.5 485.5 711.5 464 711.5 464" stroke="#7B7B7B" stroke-width="2"/>
</g>
<path d="M868.104 678.119C868.104 678.119 875.395 677.895 877.593 676.33C879.79 674.765 888.808 672.897 889.353 675.407C889.898 677.916 900.31 687.887 892.079 687.953C883.847 688.02 872.952 686.671 870.759 685.335C868.566 684 868.104 678.119 868.104 678.119Z" fill="#363636"/>
<path opacity="0.2" d="M892.225 687.079C883.994 687.146 873.099 685.797 870.906 684.461C869.236 683.444 868.571 679.794 868.348 678.109C868.194 678.116 868.104 678.119 868.104 678.119C868.104 678.119 868.566 683.999 870.759 685.335C872.952 686.671 883.847 688.019 892.079 687.953C894.455 687.934 895.275 687.088 895.23 685.836C894.9 686.593 893.994 687.065 892.225 687.079Z" fill="#B5B5B5"/>
<path d="M921.443 799.953C970.289 799.953 1009.89 794.566 1009.89 787.921C1009.89 781.276 970.289 775.889 921.443 775.889C872.597 775.889 833 781.276 833 787.921C833 794.566 872.597 799.953 921.443 799.953Z" fill="#494949"/>
<path opacity="0.1" d="M921.443 798.024C962.452 798.024 995.697 793.501 995.697 787.922C995.697 782.343 962.452 777.82 921.443 777.82C880.433 777.82 847.188 782.343 847.188 787.922C847.188 793.501 880.433 798.024 921.443 798.024Z" fill="#B5B5B5"/>
<path d="M977.252 662.352H878.877V776.807H977.252V662.352Z" fill="#898989"/>
<path d="M987.184 651H868.944V691.674H987.184V651Z" fill="#494949"/>
<path d="M987.184 699.242H868.944V739.917H987.184V699.242Z" fill="#494949"/>
<path d="M987.184 747.482H868.944V788.157H987.184V747.482Z" fill="#494949"/>
<path opacity="0.4" d="M963.537 658.094H955.969V665.661H963.537V658.094Z" fill="#D76E6E"/>
<path opacity="0.8" d="M974.414 658.094H966.847V665.661H974.414V658.094Z" fill="#D76E6E"/>
<path d="M985.292 658.094H977.725V665.661H985.292V658.094Z" fill="#D76E6E"/>
<path opacity="0.4" d="M963.537 705.863H955.969V713.431H963.537V705.863Z" fill="#D76E6E"/>
<path opacity="0.8" d="M974.414 705.863H966.847V713.431H974.414V705.863Z" fill="#D76E6E"/>
<path d="M985.292 705.863H977.725V713.431H985.292V705.863Z" fill="#D76E6E"/>
<path opacity="0.4" d="M963.537 753.633H955.969V761.2H963.537V753.633Z" fill="#D76E6E"/>
<path opacity="0.8" d="M974.414 753.633H966.847V761.2H974.414V753.633Z" fill="#D76E6E"/>
<path d="M985.292 753.633H977.725V761.2H985.292V753.633Z" fill="#D76E6E"/>
<path d="M733.123 301.865C743.145 316.487 740.928 335.43 740.928 335.43C740.928 335.43 722.461 330.664 712.438 316.042C702.416 301.419 704.634 282.477 704.634 282.477C704.634 282.477 723.101 287.242 733.123 301.865Z" fill="#2F2E41"/>
<path d="M725.913 304.647C727.086 322.335 740.548 335.845 740.548 335.845C740.548 335.845 752.108 320.676 750.935 302.988C749.762 285.299 736.301 271.789 736.301 271.789C736.301 271.789 724.74 286.958 725.913 304.647Z" fill="#D66F6F"/>
<path d="M610.847 253.365L746.917 321.775C748.048 322.344 748.986 323.234 749.614 324.334C750.242 325.434 750.532 326.694 750.446 327.958L742.541 445.059C742.505 445.585 742.34 446.093 742.06 446.539C741.781 446.985 741.395 447.354 740.937 447.615C740.48 447.875 739.965 448.019 739.439 448.032C738.913 448.045 738.391 447.927 737.922 447.69L598.749 376.663L605.894 256.219C605.928 255.654 606.101 255.105 606.399 254.623C606.697 254.141 607.11 253.74 607.601 253.457C608.092 253.174 608.646 253.018 609.212 253.001C609.779 252.985 610.341 253.11 610.847 253.365V253.365Z" fill="#333333"/>
<path d="M612.412 255.75L745.14 322.481C746.243 323.035 747.159 323.904 747.771 324.976C748.383 326.049 748.666 327.278 748.582 328.511L740.871 442.736C740.836 443.249 740.676 443.744 740.403 444.179C740.13 444.614 739.753 444.975 739.307 445.229C738.861 445.483 738.359 445.623 737.846 445.636C737.332 445.648 736.824 445.534 736.365 445.302L600.611 376.02L607.581 258.535C607.614 257.983 607.783 257.448 608.074 256.978C608.364 256.507 608.767 256.117 609.246 255.84C609.725 255.564 610.265 255.412 610.818 255.396C611.37 255.38 611.918 255.502 612.412 255.75V255.75Z" fill="#333333"/>
<path d="M618.227 264.619L738.541 325.108C739.541 325.611 740.371 326.398 740.926 327.371C741.481 328.343 741.737 329.458 741.662 330.575L734.672 434.117C734.64 434.581 734.494 435.03 734.247 435.425C734 435.819 733.658 436.146 733.254 436.376C732.85 436.607 732.394 436.733 731.929 436.745C731.464 436.756 731.003 436.653 730.587 436.443L607.53 373.64L613.848 267.143C613.878 266.643 614.031 266.158 614.295 265.732C614.558 265.306 614.923 264.951 615.357 264.701C615.792 264.451 616.281 264.312 616.782 264.298C617.283 264.284 617.78 264.394 618.227 264.619V264.619Z" fill="#E3B3B3"/>
<path d="M494.084 434.279L630.327 502.894C631.595 503.531 632.995 503.862 634.414 503.861C635.834 503.859 637.233 503.524 638.499 502.883L739.288 451.719C740.47 450.537 740.305 448.786 739.927 447.471C739.744 446.834 739.494 446.219 739.182 445.634L725.447 438.41L609.97 380.794L603.071 377.132C601.245 376.165 599.211 375.655 597.144 375.647C595.077 375.638 593.039 376.131 591.205 377.084L494.041 427.556C493.423 427.875 492.905 428.36 492.545 428.956C492.185 429.551 491.997 430.235 492.002 430.931C492.006 431.627 492.203 432.308 492.57 432.899C492.938 433.49 493.462 433.968 494.084 434.279V434.279Z" fill="#C4C4C4"/>
<path opacity="0.1" d="M494.084 434.283L630.328 502.897C631.596 503.535 632.995 503.866 634.415 503.864C635.834 503.862 637.233 503.528 638.499 502.887L739.289 451.723C740.47 450.541 740.305 448.79 739.927 447.475L639.439 499.706C638.213 500.343 636.853 500.682 635.472 500.694C634.09 500.706 632.725 500.39 631.488 499.774L492.05 430.307C491.919 431.1 492.046 431.914 492.412 432.63C492.778 433.346 493.364 433.925 494.084 434.283V434.283Z" fill="black"/>
<path opacity="0.1" d="M623.401 454.85L579.279 432.553C578.39 432.104 577.407 431.876 576.412 431.887C575.417 431.898 574.439 432.149 573.561 432.618L547.965 446.293C547.67 446.451 547.423 446.687 547.252 446.975C547.081 447.264 546.993 447.594 546.997 447.929C547.001 448.264 547.097 448.592 547.275 448.877C547.452 449.161 547.704 449.391 548.004 449.542L592.991 472.228C593.738 472.605 594.566 472.792 595.403 472.773C596.239 472.754 597.058 472.529 597.787 472.118L623.485 457.64C623.735 457.499 623.942 457.292 624.084 457.042C624.225 456.792 624.295 456.507 624.287 456.22C624.278 455.933 624.191 455.653 624.035 455.411C623.879 455.17 623.66 454.976 623.401 454.85V454.85Z" fill="black"/>
<path opacity="0.1" d="M727.319 451.113L679.839 476.336C679.292 476.626 678.684 476.781 678.066 476.787C677.447 476.794 676.836 476.651 676.284 476.372L542.132 408.531C541.754 408.34 541.437 408.047 541.216 407.686C540.995 407.325 540.879 406.909 540.88 406.486C540.882 406.062 541.002 405.647 541.226 405.288C541.45 404.928 541.77 404.639 542.15 404.451L588.515 381.502C589.214 381.156 589.984 380.978 590.763 380.981C591.543 380.983 592.311 381.167 593.008 381.518L727.298 449.18C727.476 449.269 727.626 449.406 727.732 449.576C727.837 449.745 727.894 449.94 727.896 450.14C727.898 450.339 727.846 450.536 727.744 450.707C727.642 450.879 727.495 451.019 727.319 451.113Z" fill="black"/>
<path d="M652.37 323.71L651.332 325.787L694.984 347.613L696.023 345.536L652.37 323.71Z" fill="white"/>
<path d="M652.283 330.32L651.323 332.197L694.988 354.533L695.948 352.656L652.283 330.32Z" fill="white"/>
<path d="M660.117 342.857L659.318 344.422L684.335 357.205L685.134 355.64L660.117 342.857Z" fill="white"/>
<defs>
<filter id="filter0_d" x="260" y="128" width="1198.01" height="896.557" filterUnits="userSpaceOnUse" color-interpolation-filters="sRGB">
<feFlood flood-opacity="0" result="BackgroundImageFix"/>
<feColorMatrix in="SourceAlpha" type="matrix" values="0 0 0 0 0 0 0 0 0 0 0 0 0 0 0 0 0 0 127 0"/>
<feOffset dx="25" dy="15"/>
<feGaussianBlur stdDeviation="25"/>
<feColorMatrix type="matrix" values="0 0 0 0 0 0 0 0 0 0 0 0 0 0 0 0 0 0 0.27 0"/>
<feBlend mode="normal" in2="BackgroundImageFix" result="effect1_dropShadow"/>
<feBlend mode="normal" in="SourceGraphic" in2="effect1_dropShadow" result="shape"/>
</filter>
<filter id="filter1_d" x="967" y="0" width="441.31" height="620" filterUnits="userSpaceOnUse" color-interpolation-filters="sRGB">
<feFlood flood-opacity="0" result="BackgroundImageFix"/>
<feColorMatrix in="SourceAlpha" type="matrix" values="0 0 0 0 0 0 0 0 0 0 0 0 0 0 0 0 0 0 127 0"/>
<feOffset dx="22" dy="-8"/>
<feGaussianBlur stdDeviation="6.5"/>
<feColorMatrix type="matrix" values="0 0 0 0 0 0 0 0 0 0 0 0 0 0 0 0 0 0 0.14 0"/>
<feBlend mode="normal" in2="BackgroundImageFix" result="effect1_dropShadow"/>
<feBlend mode="normal" in="SourceGraphic" in2="effect1_dropShadow" result="shape"/>
</filter>
<filter id="filter2_d" x="425" y="188" width="499.122" height="379.063" filterUnits="userSpaceOnUse" color-interpolation-filters="sRGB">
<feFlood flood-opacity="0" result="BackgroundImageFix"/>
<feColorMatrix in="SourceAlpha" type="matrix" values="0 0 0 0 0 0 0 0 0 0 0 0 0 0 0 0 0 0 127 0"/>
<feOffset dy="4"/>
<feGaussianBlur stdDeviation="44"/>
<feColorMatrix type="matrix" values="0 0 0 0 1 0 0 0 0 1 0 0 0 0 1 0 0 0 0.8 0"/>
<feBlend mode="normal" in2="BackgroundImageFix" result="effect1_dropShadow"/>
<feBlend mode="normal" in="SourceGraphic" in2="effect1_dropShadow" result="shape"/>
</filter>
<filter id="filter3_d" x="451.894" y="211.424" width="444.858" height="344.961" filterUnits="userSpaceOnUse" color-interpolation-filters="sRGB">
<feFlood flood-opacity="0" result="BackgroundImageFix"/>
<feColorMatrix in="SourceAlpha" type="matrix" values="0 0 0 0 0 0 0 0 0 0 0 0 0 0 0 0 0 0 127 0"/>
<feOffset dy="4"/>
<feGaussianBlur stdDeviation="44"/>
<feColorMatrix type="matrix" values="0 0 0 0 0.8 0 0 0 0 0.8 0 0 0 0 0.8 0 0 0 1 0"/>
<feBlend mode="normal" in2="BackgroundImageFix" result="effect1_dropShadow"/>
<feBlend mode="normal" in="SourceGraphic" in2="effect1_dropShadow" result="shape"/>
</filter>
<filter id="filter4_d" x="975.764" y="734.066" width="331.994" height="126.933" filterUnits="userSpaceOnUse" color-interpolation-filters="sRGB">
<feFlood flood-opacity="0" result="BackgroundImageFix"/>
<feColorMatrix in="SourceAlpha" type="matrix" values="0 0 0 0 0 0 0 0 0 0 0 0 0 0 0 0 0 0 127 0"/>
<feOffset dx="2" dy="2"/>
<feGaussianBlur stdDeviation="2"/>
<feColorMatrix type="matrix" values="0 0 0 0 0 0 0 0 0 0 0 0 0 0 0 0 0 0 0.25 0"/>
<feBlend mode="normal" in2="BackgroundImageFix" result="effect1_dropShadow"/>
<feBlend mode="normal" in="SourceGraphic" in2="effect1_dropShadow" result="shape"/>
</filter>
<filter id="filter5_d" x="709.271" y="311" width="143.217" height="169.555" filterUnits="userSpaceOnUse" color-interpolation-filters="sRGB">
<feFlood flood-opacity="0" result="BackgroundImageFix"/>
<feColorMatrix in="SourceAlpha" type="matrix" values="0 0 0 0 0 0 0 0 0 0 0 0 0 0 0 0 0 0 127 0"/>
<feOffset dx="2" dy="2"/>
<feGaussianBlur stdDeviation="2"/>
<feColorMatrix type="matrix" values="0 0 0 0 0 0 0 0 0 0 0 0 0 0 0 0 0 0 0.25 0"/>
<feBlend mode="normal" in2="BackgroundImageFix" result="effect1_dropShadow"/>
<feBlend mode="normal" in="SourceGraphic" in2="effect1_dropShadow" result="shape"/>
</filter>
</defs>
</svg>
