<svg width="191" height="185" viewBox="0 0 191 185" fill="none" xmlns="http://www.w3.org/2000/svg">
<path d="M184.04 100.85C182.364 119.874 86.8989 142.445 77.4359 133.722C67.9733 124.999 88.4631 96.6471 88.4631 96.6471C88.4631 96.6471 41.891 107.474 22.2467 101.208C2.60279 94.9412 11.3312 69.6313 23.3105 64.4158C35.2896 59.1994 84.191 65.197 84.191 65.197C84.191 65.197 73.8759 49.4939 81.3681 44.1989C88.8618 38.9043 185.716 81.8252 184.04 100.85Z" fill="white"/>
<path d="M23.327 64.3883C24.0678 64.0663 24.9485 63.7875 25.95 63.5463C15.1715 69.7111 12.0958 88.147 30.8794 94.1396C50.5238 100.406 99.8365 87.7707 99.8365 87.7707C99.8365 87.7707 78.9689 113.91 88.4321 122.634C97.8946 131.357 181.118 116.612 182.794 97.5871C182.842 97.0475 182.81 96.4902 182.711 95.9191C183.709 97.6783 184.188 99.3251 184.057 100.822C182.381 119.847 86.9155 142.418 77.4525 133.695C67.9904 124.972 88.4793 96.6201 88.4793 96.6201C88.4793 96.6201 41.9087 107.447 22.2633 101.18C2.6189 94.9142 11.3489 69.6047 23.327 64.3883Z" fill="#7B7B7B"/>
<path d="M88.0503 94.8773C88.0493 94.8773 87.6539 94.9692 86.9028 95.1347C86.1518 95.3011 85.0533 95.5389 83.6665 95.8266C80.8937 96.399 76.9705 97.1694 72.386 97.9509C63.2166 99.5164 51.3843 101.126 40.8465 101.322C33.8282 101.46 27.3723 100.945 22.7994 99.478C20.4719 98.7333 18.634 97.7225 17.1897 96.5357C13.4541 93.451 12.1623 89.0683 12.529 84.275C12.9045 79.5098 15.0701 74.4934 18.0703 70.8582C19.8696 68.6657 21.959 66.9844 24.036 66.0849C26.2113 65.1156 30.5089 64.4688 35.6599 64.2403C40.8253 63.9964 46.9047 64.1017 52.9621 64.385C65.0827 64.9512 77.123 66.2217 81.862 66.7582C83.2169 66.9113 83.9671 67.0021 83.9693 67.0039L87.866 67.481L85.7101 64.201C85.7101 64.201 85.6461 64.102 85.5128 63.8907C85.3816 63.6801 85.19 63.3663 84.9578 62.9682C84.4926 62.175 83.8663 61.044 83.2283 59.7263C81.9481 57.0982 80.6593 53.6863 80.4831 50.8813C80.36 48.9949 80.7029 47.5117 81.557 46.4798C81.7874 46.1995 82.0614 45.9415 82.3974 45.7009L82.3978 45.7003C82.4164 45.692 82.4583 45.6765 82.5265 45.6599C82.6598 45.6259 82.8896 45.5906 83.189 45.5778C83.7915 45.55 84.6731 45.6081 85.7454 45.7713C87.8977 46.0949 90.8241 46.8216 94.2679 47.8847C101.162 50.0089 110.149 53.4694 119.723 57.6973C138.865 66.1417 160.43 77.7184 172.595 87.7354C175.836 90.3967 178.398 92.9476 180.045 95.2055C181.711 97.4704 182.364 99.3849 182.228 100.691L184.039 100.851L182.228 100.692C182.139 101.764 181.574 103.041 180.406 104.459C178.153 107.223 173.724 110.299 167.959 113.229C162.193 116.17 155.094 119.018 147.44 121.598C132.13 126.762 114.579 130.865 100.853 132.731C91.7323 133.993 84.1926 134.189 80.5813 133.228C79.6291 132.988 78.9944 132.665 78.7285 132.438C78.709 132.422 78.6855 132.401 78.6554 132.373C77.8964 131.665 77.4008 130.81 77.0905 129.725C76.7806 128.637 76.6877 127.316 76.8101 125.831C77.047 122.861 78.1555 119.279 79.6656 115.731C82.6779 108.62 87.2411 101.626 89.1015 98.9096C89.6334 98.1324 89.9357 97.715 89.9366 97.7139L92.7809 93.7779L88.0503 94.8773ZM14.8801 99.3442C16.7143 100.853 18.9828 102.078 21.6943 102.942C26.9428 104.608 33.6764 105.088 40.9145 104.959C48.1482 104.822 55.8703 104.048 62.9668 103.08C71.8477 101.869 79.746 100.351 84.4215 99.3828C81.5059 103.891 76.8503 111.732 74.5106 119.175C73.3405 122.959 72.7149 126.672 73.4144 130.007C73.8149 131.905 74.7114 133.692 76.2044 135.06L76.2094 135.066L76.2236 135.079C76.2798 135.129 76.3447 135.186 76.4185 135.247C78.0113 136.505 80.1275 136.984 82.832 137.282C85.533 137.552 88.8283 137.527 92.6018 137.262C100.141 136.731 109.578 135.232 119.55 133.046C139.505 128.66 161.509 121.586 174.48 113.777C178.191 111.532 181.182 109.232 183.215 106.769C184.676 104.99 185.665 103.079 185.851 101.012C186.067 98.3129 184.891 95.6922 182.981 93.0612C181.052 90.4226 178.294 87.7158 174.904 84.9269C164.492 76.3713 148.049 67.057 131.781 59.2487C115.507 51.4469 99.5011 45.1964 89.8375 42.8842C87.058 42.2274 84.8189 41.8724 83.0262 41.9445C82.0681 42.0015 81.1895 42.1275 80.3183 42.7175C79.7165 43.142 79.1909 43.631 78.7484 44.1702C77.0965 46.1868 76.6906 48.712 76.8544 51.1234C77.0202 53.5555 77.7397 55.995 78.5969 58.2071C79.2983 60.0058 80.0981 61.6547 80.8018 62.982C72.7155 62.0958 52.6918 60.12 37.8268 60.5214C31.4499 60.7138 26.0813 61.2567 22.5847 62.7502C19.8304 63.953 17.353 66.0111 15.2617 68.5486C11.7981 72.7739 9.36799 78.3551 8.90366 83.9829C8.43181 89.5745 10.0489 95.3714 14.8584 99.3264L14.8801 99.3442Z" fill="#515151"/>
</svg>
