<svg width="381" height="271" viewBox="0 0 381 271" fill="none" xmlns="http://www.w3.org/2000/svg">
<g clip-path="url(#clip0)">
<ellipse cx="73.6461" cy="146.459" rx="18.5773" ry="18.0057" transform="rotate(-5.77219 73.6461 146.459)" fill="#ECECEC"/>
<ellipse cx="29.6461" cy="64.4591" rx="18.5773" ry="18.0057" transform="rotate(-5.77219 29.6461 64.4591)" fill="#ECECEC"/>
<ellipse cx="161.647" cy="131.459" rx="18.5773" ry="18.0057" transform="rotate(-5.77219 161.647 131.459)" fill="#ECECEC"/>
<ellipse cx="251.647" cy="84.4591" rx="18.5773" ry="18.0057" transform="rotate(-5.77219 251.647 84.4591)" fill="#ECECEC"/>
<ellipse cx="295.294" cy="206.783" rx="18.5773" ry="18.0057" transform="rotate(-5.77219 295.294 206.783)" fill="#ECECEC"/>
<circle cx="178.937" cy="41.2608" r="10.5748" transform="rotate(-5.77219 178.937 41.2608)" fill="#ECECEC"/>
<circle cx="120.937" cy="207.261" r="10.5748" transform="rotate(-5.77219 120.937 207.261)" fill="#ECECEC"/>
<circle cx="225.937" cy="148.261" r="10.5748" transform="rotate(-5.77219 225.937 148.261)" fill="#ECECEC"/>
<circle cx="336.585" cy="58.5846" r="10.5748" transform="rotate(-5.77219 336.585 58.5846)" fill="#ECECEC"/>
<circle cx="122.684" cy="86.0089" r="9.43157" transform="rotate(-5.77219 122.684 86.0089)" fill="#ECECEC"/>
<circle cx="20.3318" cy="172.332" r="9.43157" transform="rotate(-5.77219 20.3318 172.332)" fill="#ECECEC"/>
<circle cx="312.025" cy="141.025" r="5.5" transform="rotate(-5.77219 312.025 141.025)" fill="#ECECEC"/>
<circle cx="347.025" cy="266.025" r="5.5" transform="rotate(-5.77219 347.025 266.025)" fill="#ECECEC"/>
<path d="M153.745 134.901H160.583V136.677H151.055V135.235L157.673 125.673H151.099V123.88H160.372V125.286L153.745 134.901Z" fill="white"/>
<path d="M21.7446 68.9014H28.5825V70.6768H19.0552V69.2354L25.6733 59.6729H19.0991V57.8799H28.3716V59.2861L21.7446 68.9014Z" fill="white"/>
<path d="M243.745 87.9014H250.583V89.6768H241.055V88.2354L247.673 78.6729H241.099V76.8799H250.372V78.2861L243.745 87.9014Z" fill="white"/>
<path d="M163.614 140.493H168.172V141.677H161.821V140.716L166.233 134.341H161.85V133.146H168.032V134.083L163.614 140.493Z" fill="white"/>
<path d="M31.6138 62.4932H36.1724V63.6768H29.8208V62.7158L34.2329 56.3408H29.8501V55.1455H36.0317V56.083L31.6138 62.4932Z" fill="white"/>
<path d="M119.614 210.493H124.172V211.677H117.821V210.716L122.233 204.341H117.85V203.146H124.032V204.083L119.614 210.493Z" fill="white"/>
<path d="M259.614 90.4932H264.172V91.6768H257.821V90.7158L262.233 84.3408H257.85V83.1455H264.032V84.083L259.614 90.4932Z" fill="white"/>
<path d="M171.614 131.493H176.172V132.677H169.821V131.716L174.233 125.341H169.85V124.146H176.032V125.083L171.614 131.493Z" fill="white"/>
<path d="M36.6138 74.4932H41.1724V75.6768H34.8208V74.7158L39.2329 68.3408H34.8501V67.1455H41.0317V68.083L36.6138 74.4932Z" fill="white"/>
<path d="M177.614 45.4932H182.172V46.6768H175.821V45.7158L180.233 39.3408H175.85V38.1455H182.032V39.083L177.614 45.4932Z" fill="white"/>
</g>
<defs>
<clipPath id="clip0">
<rect width="381" height="271" fill="white"/>
</clipPath>
</defs>
</svg>
