<svg width="569" height="286" viewBox="0 0 569 286" fill="none" xmlns="http://www.w3.org/2000/svg">
<g clip-path="url(#clip0)">
<rect width="569" height="286" fill="#E1E0E0"/>
<g filter="url(#filter0_d)">
<ellipse cx="39.6361" cy="258.065" rx="26.3902" ry="25.5781" transform="rotate(5.28954 39.6361 258.065)" fill="#7B7B7B"/>
<ellipse cx="448.461" cy="123.035" rx="26.3902" ry="25.5781" transform="rotate(5.28954 448.461 123.035)" fill="#7B7B7B"/>
<ellipse cx="326.382" cy="102.756" rx="26.3902" ry="25.5781" transform="rotate(5.28954 326.382 102.756)" fill="#7B7B7B"/>
<ellipse cx="270.636" cy="141.902" rx="26.3902" ry="25.5781" transform="rotate(5.28954 270.636 141.902)" fill="#7B7B7B"/>
<ellipse cx="87.9578" cy="203.003" rx="26.3902" ry="25.5781" transform="rotate(5.28954 87.9578 203.003)" fill="#7B7B7B"/>
<ellipse cx="467.284" cy="34.2566" rx="26.3902" ry="25.5781" transform="rotate(5.28954 467.284 34.2566)" fill="#7B7B7B"/>
<circle cx="337.632" cy="148.649" r="15.0221" transform="rotate(5.28954 337.632 148.649)" fill="#7B7B7B"/>
<circle cx="392.148" cy="123.524" r="15.0221" transform="rotate(5.28954 392.148 123.524)" fill="#7B7B7B"/>
<circle cx="211.343" cy="164.343" r="15.0221" transform="rotate(5.28954 211.343 164.343)" fill="#7B7B7B"/>
<circle cx="535.364" cy="29.9582" r="15.0221" transform="rotate(5.28954 535.364 29.9582)" fill="#7B7B7B"/>
<circle cx="499.904" cy="87.0241" r="15.0221" transform="rotate(5.28954 499.904 87.0241)" fill="#7B7B7B"/>
<circle cx="411.79" cy="69.8913" r="15.0221" transform="rotate(5.28954 411.79 69.8913)" fill="#7B7B7B"/>
<circle cx="178.87" cy="216.317" r="15.0221" transform="rotate(5.28954 178.87 216.317)" fill="#7B7B7B"/>
<circle cx="247.134" cy="192.461" r="15.0221" transform="rotate(5.28954 247.134 192.461)" fill="#7B7B7B"/>
<circle cx="145.853" cy="176.565" r="15.0221" transform="rotate(5.28954 145.853 176.565)" fill="#7B7B7B"/>
<circle cx="123.379" cy="251.951" r="13.3981" transform="rotate(5.28954 123.379 251.951)" fill="#7B7B7B"/>
</g>
</g>
<defs>
<filter id="filter0_d" x="-15.9995" y="-20.6455" width="594.706" height="333.612" filterUnits="userSpaceOnUse" color-interpolation-filters="sRGB">
<feFlood flood-opacity="0" result="BackgroundImageFix"/>
<feColorMatrix in="SourceAlpha" type="matrix" values="0 0 0 0 0 0 0 0 0 0 0 0 0 0 0 0 0 0 127 0"/>
<feOffset/>
<feGaussianBlur stdDeviation="13.5"/>
<feColorMatrix type="matrix" values="0 0 0 0 0 0 0 0 0 0 0 0 0 0 0 0 0 0 0.25 0"/>
<feBlend mode="normal" in2="BackgroundImageFix" result="effect1_dropShadow"/>
<feBlend mode="normal" in="SourceGraphic" in2="effect1_dropShadow" result="shape"/>
</filter>
<clipPath id="clip0">
<rect width="569" height="286" fill="white"/>
</clipPath>
</defs>
</svg>
