<svg width="381" height="271" viewBox="0 0 381 271" fill="none" xmlns="http://www.w3.org/2000/svg">
<g clip-path="url(#clip0)">
<g opacity="0.399994">
<g opacity="0.399994">
<path opacity="0.399994" d="M348.226 230.59C348.204 230.638 348.182 230.686 348.159 230.735C349.704 228.966 351.228 227.161 352.63 225.363C354.798 226.702 357.274 227.047 359.819 226.406C357.511 225.232 355.215 223.971 353.216 222.342C350.69 224.969 348.817 228.281 346.629 231.197C344.25 234.368 341.657 237.304 338.854 240.052C336.484 242.375 333.954 244.472 331.026 245.565C328.325 246.573 325.581 246.872 322.984 246.596C319.848 246.467 316.828 245.529 313.975 244.713C312.049 244.162 310.021 243.531 308.231 242.618C308.065 242.638 307.888 242.613 307.708 242.529C306.874 242.146 305.963 241.978 305.03 241.867C304.515 241.868 304.008 241.829 303.507 241.766C300.933 242.943 298.365 243.799 295.734 243.779C293.812 244.12 291.899 244.23 290.009 244.295C284.73 244.478 278.839 244.099 275.351 240.257C275.346 240.252 275.342 240.246 275.337 240.24C272.62 238.814 270.268 236.817 268.875 233.951C266.832 234.737 264.737 235.204 262.683 235.882C261.303 236.337 259.928 236.837 258.553 237.344C259.785 240.998 260.835 244.866 261.384 248.796C261.821 251.929 260.773 255.251 258.202 257.716C255.728 260.09 252.516 261.368 249.573 262.269C246.603 263.178 243.482 263.883 240.536 264.026C238.989 264.102 237.429 263.939 236.149 263.34C232.305 263.567 229.064 260.714 227.664 257.327C227.546 257.039 227.441 256.743 227.346 256.44C226.36 254.098 225.855 251.477 225.313 248.877C224.544 245.191 223.266 241.682 221.618 238.514C221.571 238.424 221.533 238.329 221.502 238.23C220.253 236.226 218.88 234.32 217.507 232.433C216.44 230.967 215.297 229.557 214.468 227.972C213.248 226.748 212.302 225.219 211.405 223.673C211.356 223.637 211.31 223.598 211.267 223.553C211.198 223.478 211.135 223.399 211.072 223.32C210.98 223.244 210.897 223.144 210.829 223.02C210.812 223.001 210.796 222.981 210.778 222.962C210.793 223.481 210.863 223.986 210.993 224.466C210.449 223.767 209.911 223.048 209.378 222.311C209.373 222.328 209.368 222.345 209.364 222.363C209.153 224.477 208.997 226.586 208.853 228.69C208.792 229.579 208.731 230.468 208.67 231.357C209.297 233.698 209.894 236.054 210.426 238.441C211.174 241.799 211.785 245.195 212.293 248.625C213.28 251.314 214.254 254.009 215.151 256.751C216.272 260.175 217.179 263.712 218.218 267.18C218.221 267.184 218.225 267.189 218.229 267.192C218.252 267.213 218.278 267.237 218.308 267.264C218.454 267.397 218.598 267.532 218.746 267.664C219.005 267.894 219.268 268.117 219.536 268.336C220.15 268.837 220.786 269.309 221.442 269.752C222.144 270.225 222.867 270.666 223.61 271.077C223.961 271.271 224.316 271.458 224.676 271.639C224.806 271.705 224.937 271.769 225.069 271.832C225.104 271.847 225.142 271.864 225.189 271.884C228.265 273.209 231.497 274.169 234.875 274.784C235.763 274.946 236.658 275.081 237.557 275.204C237.578 275.207 237.61 275.211 237.645 275.215C238.117 275.265 237.829 275.237 237.645 275.215C237.621 275.212 237.598 275.21 237.57 275.207C237.782 275.23 237.995 275.255 238.207 275.278C238.273 275.285 238.339 275.29 238.405 275.296C238.749 275.219 239.093 275.141 239.436 275.057C239.979 274.925 240.522 274.782 241.065 274.635C242.717 273.167 244.357 271.678 245.997 270.198C247.925 268.46 249.865 266.99 252.06 265.781C254.204 264.6 256.409 263.637 258.555 262.462C259.736 261.815 260.934 261.235 262.108 260.562C263.275 259.892 264.431 259.191 265.599 258.526C267.933 257.199 270.274 256.192 272.72 255.422C277.669 253.864 282.684 253.028 287.637 252.194C292.393 251.393 297.157 250.827 301.792 250.993C308.631 251.24 314.958 253.323 321.908 253.162C324.959 253.092 328.144 252.598 331.198 251.205C335.982 246.722 339.933 241.08 344.477 236.26C345.53 234.34 346.512 232.375 347.42 230.362C347.689 229.765 348.495 229.993 348.226 230.59Z" fill="#1D1D1B"/>
</g>
</g>
<path d="M371.683 215.606C373.292 212.708 374.575 209.657 375.385 206.544C379.761 189.769 368.384 183.989 357.911 192.846C356.635 189.945 355.532 187.442 354.194 185.223C353.869 184.627 353.458 184.01 352.974 183.378C352.078 182.151 351.056 181.012 349.823 179.941L349.807 179.951C347.969 178.221 345.796 176.493 343.547 174.911C352.701 164.42 348.807 151.263 333.236 154.152C330.345 154.687 327.458 155.748 324.669 157.184C315.064 162.21 311.228 170.375 313.729 176.998C308.675 180.798 303.451 185.669 299.255 189.19C292.354 186.59 242.817 170.054 212.11 218.377C210.86 220.343 210.488 222.597 210.993 224.465C210.91 224.358 210.829 224.247 210.746 224.139C210.901 224.722 211.063 225.301 211.24 225.872C211.417 226.013 211.569 226.208 211.682 226.465C212.227 227.715 212.848 228.905 213.494 230.078C215.648 232.796 217.967 235.365 219.86 238.323C221.745 241.267 223.038 244.573 223.604 248.262C225.072 251.776 226.016 255.661 227.514 259.16C227.642 259.174 227.772 259.205 227.905 259.256C230.205 260.147 231.507 262.344 233.603 263.536C234.26 263.909 234.949 264.228 235.659 264.506C235.678 264.507 235.697 264.506 235.717 264.508C241.338 265.119 247.634 264.271 253.631 261.922C256.383 260.377 259.115 258.784 261.798 257.067C261.85 256.992 261.897 256.916 261.947 256.84C261.073 250.787 260.237 244.713 257.972 239.335C257.575 238.391 258.052 237.47 258.779 236.928C258.999 236.724 259.263 236.552 259.575 236.435C261.639 235.661 263.797 234.562 265.892 234.444C266.496 234.41 267.037 234.494 267.525 234.668C268 234.519 268.479 234.547 268.803 234.85C270.793 236.707 272.544 238.887 274.657 240.594C275.243 240.393 275.858 240.474 276.296 241.032C277.87 243.036 281.219 243.283 283.687 243.568C286.479 243.89 289.259 244.231 292.146 244.164C295.218 244.092 298.228 243.486 301.337 242.925C302.937 242.636 304.566 242.375 306.098 242.558C307.656 242.744 309.165 243.066 310.631 243.51C313.089 244.254 315.415 245.292 317.68 246.425C322.504 247.65 327.742 247.054 332.955 245.465C334.023 244.8 335.061 244.061 336.049 243.216C338.439 241.171 340.373 238.544 342.439 236.136C344.622 233.592 346.833 231.074 349.065 228.579C349.462 228.136 350 227.966 350.495 228C351.227 227.123 351.944 226.242 352.631 225.363C358.296 228.864 366.071 225.584 371.683 215.606Z" fill="#575756"/>
<path d="M336.063 235.34C335.828 235.506 335.578 235.599 335.332 235.632C334.177 236.433 332.937 236.962 331.633 237.031C331.554 237.035 331.478 237.034 331.406 237.03C331.368 237.037 331.33 237.045 331.292 237.051C331.205 237.086 331.122 237.099 331.042 237.09C330.704 237.097 330.404 237.01 330.143 236.83C329.884 236.65 329.706 236.38 329.584 236.073C329.583 236.07 329.583 236.066 329.581 236.063C328.076 235.147 327.236 232.593 326.848 230.911C326.138 227.829 325.702 224.472 326.942 221.035C326.983 220.922 327.03 220.817 327.082 220.718C327.098 220.643 327.114 220.567 327.132 220.494C327.506 218.93 328.054 217.448 328.877 216.004C329.68 214.594 330.83 213.539 331.828 212.286C331.88 212.221 331.934 212.164 331.989 212.106C332.105 211.958 332.242 211.814 332.409 211.677C333.689 210.62 334.921 209.482 336.472 209.398C337.774 209.327 338.877 209.967 339.524 211.022C339.56 211.082 339.592 211.144 339.627 211.205C339.949 211.269 340.247 211.458 340.482 211.812C341.104 212.75 341.663 213.825 342.089 214.98C342.609 215.137 343.016 215.564 343.098 216.327C343.174 217.026 343.272 217.705 343.368 218.376C343.688 218.645 343.903 219.06 343.984 219.551C344.342 221.736 343.88 224.019 342.997 226.26C343.009 226.58 342.962 226.923 342.855 227.269C341.799 230.683 338.828 233.388 336.063 235.34ZM324.379 202.97C322.619 204.771 320.658 205.86 318.33 206.558C315.632 207.368 312.857 207.608 310.436 206.822C310.3 206.779 310.195 206.71 310.114 206.625C309.936 206.629 309.766 206.575 309.628 206.49C309.572 206.455 309.524 206.411 309.483 206.36C308.556 206.367 307.576 206.254 307.002 205.609C306.091 205.222 305.262 204.702 304.577 204.116C303.514 203.208 302.695 201.95 302.801 200.271C302.919 198.378 304.155 196.393 305.359 194.783C305.443 194.503 305.635 194.234 305.961 194.049L306.103 193.969C306.228 193.898 306.353 193.86 306.473 193.844C306.502 193.814 306.531 193.782 306.561 193.752C307.925 191.941 309.65 190.611 311.693 189.652C311.887 189.561 312.079 189.478 312.271 189.4C312.404 189.256 312.573 189.137 312.781 189.062C317.01 187.526 321.59 187.879 324.385 190.799C324.467 190.885 324.518 190.978 324.554 191.073C326.242 192.551 328.773 194.281 328.449 197.146C328.197 199.381 326.286 201.425 324.379 202.97V202.97ZM337.48 241.876C337.566 241.788 337.653 241.701 337.738 241.612C338.631 240.546 339.513 239.47 340.377 238.378C344.62 233.007 348.204 227.061 352.885 222.092C353.014 221.604 353.169 221.121 353.344 220.657C354.012 218.891 355.072 217.234 356.025 215.585C356.923 214.031 357.566 212.468 358.102 210.799C359.478 206.509 360.154 202.111 359.568 198.134C359.486 198.021 359.416 197.893 359.363 197.741C358.867 196.307 358.493 194.808 358.09 193.323C358.039 193.133 358.014 192.947 358.008 192.766C357.975 192.793 357.944 192.818 357.912 192.845C356.635 189.945 355.533 187.441 354.194 185.222C353.869 184.626 353.459 184.009 352.974 183.377C352.079 182.15 351.057 181.011 349.824 179.94L349.808 179.95C348.708 178.916 347.488 177.882 346.204 176.88C345.353 177.254 344.381 177.141 343.957 176.154C343.4 174.86 342.046 174.176 340.835 173.688C339.441 173.128 337.965 172.698 336.515 172.261C334.633 171.694 332.673 171.343 330.655 171.207C330.416 171.247 330.177 171.285 329.938 171.33C328.056 171.683 326.196 172.21 324.354 172.86C324.262 172.929 324.164 172.991 324.062 173.042C323.057 173.536 322.052 174.027 321.045 174.51C318.948 175.595 316.871 176.752 314.738 177.699C314.293 177.897 313.895 177.949 313.553 177.9C312.432 178.517 311.314 179.148 310.201 179.785C306.307 182.984 302.478 186.485 299.255 189.189C293.361 186.969 256.374 174.587 226.574 201.115C226.585 201.244 226.593 201.373 226.597 201.506C226.71 202.596 226.563 203.693 226.157 204.796C226.145 204.852 226.129 204.908 226.116 204.965C230.4 203.654 235.481 206.124 238.571 207.65C240.478 208.59 242.329 209.651 244.066 210.865C246.828 212.796 249.748 214.847 251.726 217.7C254.186 221.25 255.118 226.15 256.126 230.594C256.543 232.433 256.865 234.339 257.423 236.108C257.583 236.615 257.769 237.106 257.968 237.59C258.057 237.55 258.146 237.512 258.236 237.471C258.383 237.271 258.564 237.094 258.763 236.943C258.986 236.731 259.256 236.554 259.576 236.434C260.91 235.933 262.284 235.298 263.655 234.88C265.363 234.308 267.111 233.93 268.844 233.66C267.647 231.36 266.939 228.729 266.055 226.214C265.944 225.9 265.996 225.593 266.138 225.334C265.354 222.764 264.76 220.114 264.886 217.155C265.203 209.61 268.278 199.956 274.696 194.583C277.825 191.964 281.351 190.833 284.837 190.946C288.034 191.05 291.39 191.982 293.308 194.487C293.6 194.869 293.507 195.344 293.244 195.714C293.237 195.735 293.231 195.756 293.223 195.778C292.565 197.545 291.715 199.272 291.233 201.075C290.772 202.8 290.437 204.527 290.236 206.252C289.857 209.501 290.342 212.323 291.139 215.193C291.901 217.937 292.664 220.641 292.816 223.644C292.975 226.789 292.741 230.034 293.267 233.068C293.38 233.219 293.481 233.386 293.564 233.567C293.756 233.989 294.387 234.604 294.756 235.072C295.266 235.722 295.765 236.383 296.276 237.032C297.277 238.305 298.244 239.566 299.435 240.637C300.22 241.343 301.016 241.965 301.635 242.792C301.668 242.814 301.703 242.832 301.737 242.853C303.208 242.595 304.693 242.389 306.098 242.557C307.656 242.744 309.165 243.065 310.631 243.509C313.089 244.254 315.415 245.291 317.68 246.424C321.996 247.52 326.643 247.16 331.307 245.933C333.336 244.512 335.383 243.135 337.48 241.876" fill="#F4EEEA"/>
<g opacity="0.199997">
<g opacity="0.199997">
<path opacity="0.199997" d="M369.35 218C369.964 217.086 370.547 216.153 371.15 215.232C371.219 215.127 371.29 215.013 371.363 214.897C371.427 214.745 371.494 214.595 371.557 214.443C371.971 213.435 372.388 212.417 372.667 211.387C368.106 216.068 362.629 220.369 354.98 216.727C350.474 221.216 348.465 221.417 343.818 223.554C343.108 228.783 339.437 232.443 337.707 233.991C335.939 235.573 334.022 237.153 331.927 237.154C326.929 240.025 321.487 241.331 316.488 240.257C312.231 239.342 308.808 236.528 304.362 236.086C302.493 235.899 300.547 236.055 298.672 235.895C297.046 235.755 295.543 235.324 294.289 234.42C295.464 236.449 296.878 238.303 298.619 239.768C299.943 240.883 301.463 241.695 303.053 242.389C303.209 242.457 303.365 242.524 303.521 242.591C304.395 242.494 305.26 242.458 306.096 242.559C307.654 242.746 309.164 243.067 310.63 243.511C313.088 244.256 315.414 245.293 317.679 246.426C322.503 247.651 327.741 247.056 332.954 245.466C334.023 244.801 335.06 244.062 336.048 243.217C338.438 241.172 340.371 238.545 342.438 236.137C344.621 233.593 346.832 231.075 349.065 228.58C349.461 228.137 349.999 227.967 350.494 228.001C351.227 227.123 351.944 226.243 352.629 225.363C356.212 227.577 360.637 227.074 364.825 223.885C366.453 222.027 367.965 220.063 369.35 218ZM282.143 239.124C280.538 237.569 279.288 235.636 278.298 233.531C277.263 231.331 276.509 228.944 275.904 226.495C275.356 224.273 274.925 221.995 274.71 219.636C274.295 215.089 274.662 210.288 276.022 205.54C276.749 203.001 277.717 200.434 279.025 198.056C280.468 195.433 282.324 193.066 284.177 190.723C280.572 190.296 276.745 192.42 273.696 195.252C270.722 198.014 268.41 201.472 266.949 205.243C265.247 209.637 264.612 214.246 264.574 218.626C264.537 222.809 265.022 226.846 266.46 230.434C267.077 231.973 267.837 233.408 268.693 234.765C268.731 234.791 268.768 234.818 268.802 234.851C270.792 236.708 272.543 238.888 274.656 240.595C275.242 240.394 275.857 240.475 276.296 241.033C277.869 243.037 281.218 243.284 283.687 243.569C285.675 243.798 287.657 244.035 289.675 244.129C288.947 243.802 288.235 243.448 287.542 243.063C285.596 241.981 283.749 240.68 282.143 239.124ZM261.993 254.21C262.054 253.74 261.948 253.333 261.739 253.003C261.591 252.38 261.313 251.806 260.865 251.298C260.626 251.027 260.357 250.796 260.069 250.594C259.976 249.835 259.455 249.103 259.103 248.635C258.462 247.787 257.576 247.229 256.576 246.892C255.449 246.513 254.23 246.327 253.001 246.254C251.816 246.185 250.416 246.04 249.186 246.452C249.064 246.493 248.997 246.552 248.967 246.621C248.579 246.797 249.016 247.218 249.194 247.264C249.383 247.312 249.577 247.348 249.772 247.379C249.865 247.399 249.958 247.417 250.052 247.434C250.348 247.694 250.704 247.75 251.148 247.862C251.408 247.927 251.669 247.987 251.93 248.049C251.971 248.143 252.04 248.23 252.122 248.283C252.121 248.287 252.12 248.291 252.119 248.296C252.427 248.403 252.732 248.519 253.035 248.639C253.888 249.058 254.651 249.707 255.378 250.269C255.431 250.31 255.484 250.356 255.537 250.405C255.603 250.527 255.692 250.637 255.802 250.718C255.863 250.763 255.925 250.809 255.987 250.855C256.211 251.081 256.451 251.298 256.72 251.42C257.275 251.868 257.808 252.358 258.229 252.923C258.794 253.682 258.404 254.79 257.881 255.756C258.068 255.991 258.158 256.303 258.008 256.68C257.791 257.222 257.253 257.539 256.777 257.694C256.703 257.718 256.641 257.705 256.593 257.672C256.186 258.162 255.738 258.613 255.252 259.001C254.817 259.349 254.345 259.664 253.869 259.916C253.737 259.986 253.574 260.036 253.413 260.089C254.489 258.014 253.071 255.727 251.611 254.681C251.422 254.545 251.225 254.421 251.025 254.302C250.917 254.235 250.805 254.171 250.691 254.112C250.465 253.991 250.233 253.88 249.997 253.776L249.995 253.775C249.11 253.332 248.202 252.911 247.246 252.606C245.697 252.113 243.912 251.798 242.166 252.578C241.975 252.664 242.152 252.877 242.26 252.887C242.462 252.908 242.664 252.928 242.866 252.95C242.835 253.015 242.912 253.11 242.939 253.133C243.55 253.65 244.297 253.827 245.066 254.037C245.084 254.286 245.295 254.595 245.459 254.668C247.218 255.45 248.503 256.731 249.542 258.393C249.73 258.691 249.921 258.99 250.103 259.294C250.374 259.746 250.541 259.86 250.209 260.274C250.203 260.283 250.196 260.29 250.189 260.299C250.153 260.343 250.113 260.389 250.066 260.441C249.471 261.083 248.606 261.537 247.873 261.825C246.476 262.372 245.119 262.514 243.777 262.511C243.642 262.198 243.372 261.904 243.132 261.777C239.723 259.965 238.068 255.943 237.057 252.031C236.054 248.146 235.672 243.986 234.705 240.084C233.721 236.11 232.041 232.699 229.334 230.038C226.526 227.279 222.989 225.246 220.799 221.815C220.435 221.243 220.125 220.612 219.871 219.942C219.766 219.578 219.65 219.219 219.528 218.864C218.986 216.808 219.003 214.484 219.849 212.311C220.958 210.58 222.145 208.896 223.564 207.524C224.863 206.269 226.459 205.305 228.063 205.078C229.747 204.84 231.304 205.402 232.766 205.896C235.07 206.674 237.368 207.451 239.69 208.177C242.339 210.052 244.921 212.032 247.253 214.315C249.41 216.427 251.34 218.805 252.874 221.516C254.506 224.401 255.674 227.626 256.412 231.053C256.917 233.399 256.933 236.198 257.863 238.292C257.972 237.749 258.326 237.266 258.777 236.929C258.998 236.725 259.262 236.553 259.574 236.436C261.638 235.662 263.796 234.563 265.891 234.445C266.496 234.411 267.036 234.496 267.524 234.669C267.799 234.583 268.074 234.559 268.321 234.61C267.248 232.861 266.333 230.988 265.674 228.939C264.453 225.145 264.19 220.844 264.428 216.55C264.675 212.088 265.583 207.402 267.672 203.073C269.279 199.741 271.921 196.274 275 193.814C274.322 194.258 273.642 194.691 272.945 195.092C267.366 198.306 261.508 200.526 255.712 202.764C250.528 204.766 245.301 206.644 240.053 207.548C237.72 206.681 235.364 205.868 232.998 205.064C230.473 204.207 227.848 203.547 224.939 204.978C223.557 205.657 222.298 206.596 221.144 207.687C220.889 207.615 220.629 207.64 220.441 207.825C219.426 208.819 218.653 209.957 218.104 211.162C217.868 211.479 217.637 211.799 217.412 212.121C215.358 215.059 212.821 218.154 212.235 221.666C211.189 227.938 215.27 232.33 218.596 235.96C220.646 238.198 222.477 240.519 223.326 243.715C224.105 246.646 224.306 249.837 225.179 252.724C225.928 255.201 227.225 257.323 228.912 258.995C228.395 259.292 228.317 260.243 228.979 260.693C232.454 263.057 236.717 264.158 241.234 263.774C242.292 263.925 243.387 263.977 244.49 263.967C246.488 263.95 248.709 263.678 250.629 262.363C250.855 262.208 251.114 262.019 251.359 261.806C251.42 261.798 251.481 261.786 251.543 261.771C251.727 261.872 251.922 261.948 252.114 261.982C252.467 262.213 252.895 262.313 253.405 262.217C253.505 262.141 253.606 262.068 253.706 261.992C254.433 261.382 255.18 260.802 255.935 260.234C256.379 259.87 256.818 259.502 257.252 259.125C258.791 257.786 260.249 256.2 261.866 254.957C261.892 254.82 261.918 254.684 261.94 254.546C261.96 254.434 261.978 254.322 261.993 254.21" fill="#1D1D1B"/>
</g>
</g>
<path d="M321.481 174.514C319.947 171.583 320.138 166.997 327.163 163.707C329.148 162.778 331.202 162.183 333.218 162.044C341.01 161.504 338.77 168.259 337.767 173.29L330.042 171.571L321.481 174.514Z" fill="#E06F69"/>
<path d="M321.871 173.694C321.434 172.704 321.013 171.075 321.746 169.273C322.524 167.362 324.395 165.701 327.308 164.337C329.298 163.405 331.255 162.867 333.123 162.737C334.784 162.622 336.044 162.855 336.868 163.427C338.94 164.869 338.178 168.408 337.441 171.831C337.397 172.038 337.352 172.244 337.309 172.449L330.136 170.853L321.871 173.694Z" fill="#FFA89C"/>
<path d="M356.057 215.791C358.598 217.701 362.779 217.853 366.32 210.427C367.321 208.329 368.023 206.128 368.309 203.934C369.414 195.45 363.102 197.369 358.453 198.069L359.404 206.656L356.057 215.791Z" fill="#E06F69"/>
<path d="M356.833 215.428C357.697 215.984 359.144 216.573 360.838 215.913C362.635 215.213 364.291 213.297 365.759 210.217C366.763 208.112 367.407 206.014 367.671 203.981C367.907 202.172 367.795 200.775 367.34 199.829C366.195 197.448 362.92 198.003 359.753 198.539C359.561 198.571 359.37 198.604 359.181 198.635L360.065 206.609L356.833 215.428Z" fill="#FFA89C"/>
<path d="M310.697 195.233C310.192 195.499 310.262 196.252 310.788 196.178C314.814 196.162 317.827 198.501 318.37 203.005C318.345 203.52 318.983 203.57 319.235 203.08C321.459 197.745 317.446 192.998 310.697 195.233Z" fill="#333333"/>
<path d="M307.679 205.479C306.895 205.078 306.206 204.671 305.631 204.272C303.832 203.02 303.004 201.767 303.03 200.329C303.061 198.481 304.487 196.139 307.649 192.734C313.007 187.78 318.162 186.963 322.968 190.306C324.478 191.356 325.965 192.836 327.386 194.706C329.545 197.779 327.635 199.737 323.108 203.87C322.834 204.118 322.554 204.375 322.27 204.635C318.905 207.362 311.804 207.332 307.679 205.479ZM322.607 205.143C327.209 200.911 330.7 198.16 327.918 194.2C320.634 184.626 313.146 186.823 307.268 192.271C300.918 199.097 300.58 202.678 307.32 206.126C311.314 207.923 318.856 208.207 322.607 205.143" fill="#333333"/>
<path d="M338.887 232.434C335.532 235.61 333.289 236.972 331.611 236.851C330.304 236.758 329.238 235.748 328.255 233.672C327.94 233.011 327.631 232.22 327.331 231.329C325.999 226.655 326.569 218.879 329.325 215.425C329.584 215.135 329.842 214.851 330.089 214.572C334.219 209.963 336.156 208.037 338.761 210.659C340.337 212.371 341.554 214.126 342.378 215.867C345.006 221.409 343.831 226.986 338.887 232.434ZM339.263 210.12C335.907 206.741 333.117 210.332 328.892 215.013C325.799 218.861 325.422 227.142 326.714 231.667C329.274 239.337 332.55 239.268 339.275 232.89C344.709 226.914 347.334 218.899 339.263 210.12" fill="#333333"/>
<path d="M317.515 233.641L315.817 233.934C313.634 234.309 311.01 233.107 310.285 231.092C307.988 225.396 314.073 221.913 314.073 221.913C317.266 224.082 320.986 225.502 322.325 224.24C325.742 221.32 318.95 207.616 313.825 210.871C312.386 211.982 312.504 216.482 313.397 220.618C313.397 220.618 309.04 225.149 304.656 222.154C303.183 220.778 302.933 217.546 303.871 215.253L304.603 213.465C304.689 213.255 304.601 213.046 304.412 213.017C304.254 212.991 304.077 213.103 303.997 213.276L303.519 214.313C302.054 217.492 302.379 221.753 304.474 223.658C305.851 224.912 307.613 225.125 309.52 224.581C308.459 226.556 308.313 228.941 308.98 230.861C309.361 231.963 310.111 232.873 311.067 233.538C312.583 234.592 314.614 235.021 316.498 234.592L317.501 234.363C317.669 234.326 317.811 234.163 317.836 233.982C317.865 233.764 317.717 233.607 317.515 233.641Z" fill="#333333"/>
<path d="M353.663 221.303C362.064 210.941 360.971 198.996 358.936 195.284C367.861 189.693 377.776 190.471 374.375 204.732C373.419 208.743 371.65 212.656 369.284 216.219C361.19 228.41 358.47 224.941 353.663 221.303ZM334.807 241.562C330.226 246.733 321.332 247.531 309.887 242.438C306.086 240.451 303.793 243.475 297.051 237.154L297.058 237.147C291.768 228.653 294.879 226.481 293.504 222C290.236 208.845 291.968 199.166 297.136 194.725C313.222 179.476 328.855 169.709 336.758 173.824C341.142 175.706 344.482 178.165 348.119 182.175C353.766 188.869 356.512 193.677 358.11 200.425C360.905 209.579 350.346 225.634 334.807 241.562V241.562ZM293.103 195.089C288.961 200.698 287.784 208.223 291.917 222.741C292.848 226.329 290.164 232.313 295.833 237.76L295.808 237.789C297.365 240.418 299.126 241.775 300.888 242.507C243.773 254.834 267.171 172.824 293.103 195.089V195.089ZM262.887 234.483C261.581 234.811 260.068 235.149 258.714 235.739C253.938 217.385 250.42 209.45 228.509 203.55C247.489 188.574 269.255 183.395 296.861 191.129C296.678 191.271 296.494 191.411 296.315 191.543C295.605 192.208 294.938 192.884 294.318 193.587C272.114 178.495 255.988 214.244 267.561 233.602C266.009 233.81 264.444 234.091 262.887 234.483V234.483ZM259.778 251.146C259.979 251.958 259.962 252.74 259.763 253.489C259.135 251.646 257.572 250.15 256.21 249.284C254.909 248.454 253.47 247.839 252.013 247.283C251.274 247.001 249.323 246.11 248.505 247.048C248.466 247.094 248.465 247.216 248.507 247.204C252.079 249.772 258.381 251.162 257.548 256.812C255.999 258.219 253.813 259.432 251.355 260.406C251.226 259.792 250.945 259.197 250.774 258.795C250.292 257.662 249.614 256.655 248.758 255.855C246.991 254.202 244.695 253.303 242.431 252.471C241.812 252.243 241.795 252.986 242.223 253.212C245.197 254.666 250.168 258.241 249.276 261.153C243.074 263.168 235.894 263.729 232.84 262.201C220.866 253.586 232.602 247.032 214.535 226.297C212.763 224.264 212.955 220.781 214.983 218.135C218.341 213.757 222.1 209.688 226.168 206.023C226.983 205.287 228.007 204.964 228.898 205.163C256.359 211.261 251.426 225.341 259.778 251.146V251.146ZM323.844 159.748C327.315 157.557 331.032 156.06 334.745 155.467C347.948 153.357 347.515 164.34 341.472 173.505C338.369 170.847 327.761 168.283 317.492 176.325C314.772 170.629 311.965 167.247 323.844 159.748ZM346.777 232.303C348.786 230.041 350.809 227.695 352.629 225.362C358.295 228.863 366.07 225.584 371.682 215.606C373.291 212.708 374.573 209.657 375.384 206.544C379.759 189.769 368.383 183.989 357.91 192.846C356.634 189.945 355.531 187.442 354.192 185.223C353.868 184.627 353.457 184.01 352.973 183.379C352.077 182.151 351.055 181.012 349.822 179.941L349.806 179.951C347.968 178.221 345.794 176.493 343.545 174.911C352.7 164.42 348.805 151.263 333.235 154.152C330.343 154.687 327.457 155.748 324.668 157.185C315.063 162.21 311.227 170.375 313.727 176.998C308.673 180.799 303.449 185.669 299.254 189.19C292.352 186.59 242.816 170.054 212.108 218.377C210.859 220.343 210.487 222.597 210.992 224.465C210.673 224.056 210.796 226.718 211.108 228.499C214.441 232.784 217.69 236.533 220.74 239.798C224.613 248.717 221.824 253.046 225.886 259.04C229.725 264.704 236.462 267.134 243.727 265.834C253.798 264.034 264.771 257.815 263.078 251.937C261.429 247.061 260.267 242.525 259.298 238.324C259.743 238.239 260.186 238.033 260.756 237.785C261.593 237.42 262.434 237.086 263.279 236.784C265.099 236.132 266.908 235.673 268.736 235.38C274.502 243.272 285.57 247.706 303.688 243.251C305.746 243.554 307.648 243.456 309.039 244.096C324.434 251.687 331.32 249.333 337.572 242.827C338.795 241.249 343.239 236.016 344.988 234.062C348.228 235.375 351.2 236.643 353.995 237.871C354.284 237.673 354.595 237.52 354.92 237.429C355.744 237.199 356.556 237.06 357.362 236.94C357.405 236.922 357.448 236.909 357.492 236.893C353.192 235.231 349.457 233.681 346.777 232.303Z" fill="#333333"/>
<path d="M330.482 218.88C330.016 219.116 330.008 219.817 330.477 219.834C334.516 220.808 336.382 224.302 336.031 228.71C335.919 229.279 336.596 229.419 336.879 228.888C339.473 221.688 335.507 216.896 330.482 218.88Z" fill="#333333"/>
<path d="M358.442 237.42C358.506 237.39 358.571 237.363 358.635 237.334C353.854 235.506 349.691 233.803 346.776 232.304C345.409 234.011 344.333 234.711 343.252 235.866C347.638 237.644 351.625 239.241 355.398 240.716C355.942 239.341 357.061 238.082 358.442 237.42Z" fill="#894619"/>
<path d="M359.554 226.467C358.982 226.622 358.026 226.768 356.89 226.703C355.605 226.627 354.086 226.281 352.629 225.364C350.732 227.887 346.005 233.022 343.743 235.406C343.295 235.877 342.944 236.243 342.73 236.458C354.063 247.195 362.075 251.506 365.516 248.092C365.168 241.621 363.006 234.195 359.554 226.467ZM313.233 175.067C312.97 173.443 312.995 171.591 313.36 170.019C307.008 165.655 300.759 162.629 295.066 161.513C291.855 164.697 295.066 174.218 302.375 186.512C302.749 186.186 303.122 185.861 303.493 185.542C306.947 182.552 310.242 179.836 313.726 177.002C313.513 176.426 313.345 175.768 313.233 175.067" fill="#3D2A0B"/>
<path d="M358.545 228.251C358.046 228.319 357.502 227.63 356.891 226.703C355.606 226.627 354.37 225.876 352.912 224.958C351.015 227.482 346.006 233.022 343.744 235.406C352.204 244.931 361.623 249.392 365.365 247.324C364.893 241.724 361.657 235.386 358.545 228.251ZM313.234 175.068C312.429 173.65 311.546 172.115 311.71 170.986C305.854 167.046 300.779 162.92 295.888 161.778C294.494 165.38 297.233 173.636 303.494 185.542C306.948 182.552 310.242 179.835 313.727 177.002C313.513 176.426 313.346 175.768 313.234 175.068Z" fill="#5B451D"/>
<g opacity="0.5">
<g opacity="0.5">
<path opacity="0.5" d="M348.469 234.217C351.293 236.729 354.222 239.109 357.182 241.446C359.787 243.502 362.399 245.546 365.117 247.445C365.202 247.407 365.285 247.367 365.364 247.323C364.892 241.722 361.656 235.385 358.544 228.249C358.045 228.317 357.501 227.629 356.89 226.701C355.605 226.626 354.369 225.875 352.911 224.957C351.608 226.69 348.838 229.845 346.498 232.424C347.149 233.029 347.806 233.628 348.469 234.217Z" fill="#1D1D1B"/>
</g>
</g>
<g opacity="0.5">
<g opacity="0.5">
<path opacity="0.5" d="M301.417 169.569C302.866 173.973 304.721 178.137 306.736 182.173C306.807 182.313 306.878 182.453 306.949 182.593C309.192 180.705 311.417 178.878 313.726 177.001C313.512 176.425 313.345 175.767 313.233 175.067C312.428 173.65 311.545 172.114 311.709 170.986C307.345 168.049 303.416 165.011 299.672 163.181C300.168 165.355 300.733 167.489 301.417 169.569Z" fill="#1D1D1B"/>
</g>
</g>
<g opacity="0.300003">
<g opacity="0.300003">
<path opacity="0.300003" d="M314.835 177.621C321.469 173.716 359.684 218.95 352.644 223.589L338.852 240.053C336.27 218.996 318.824 201.892 299.549 190.601C299.058 190.946 314.835 177.621 314.835 177.621Z" fill="#333333"/>
</g>
</g>
<path d="M295.064 161.512C295.961 160.624 304.779 162.379 315.511 165.057C316.463 174.991 332.174 167.16 344.836 173.298C351.668 175.459 356.6 177.279 357.245 178.07C357.922 178.902 359.007 184.026 360.188 191.157C365.808 206.615 351.772 219.762 364.581 224.075C365.916 236.669 366.567 247.158 365.516 248.092C350.68 216.48 322.759 181.896 295.064 161.512Z" fill="#513E27"/>
<path d="M364.736 243.237C350.054 213.901 324.623 182.622 299.551 163.054C302.309 163.492 306.859 164.403 314.334 166.256C314.653 168.051 315.459 169.379 316.782 170.299C319.235 172.005 323.107 172.002 327.592 171.998C332.822 171.993 338.751 171.987 344.119 174.589L344.182 174.62L344.25 174.642C353.418 177.542 355.608 178.69 356.124 179.048C356.171 179.081 356.197 179.103 356.21 179.114C356.361 179.343 357.15 180.995 358.917 191.667L358.936 191.78L358.974 191.884C361.359 198.445 360.021 204.526 358.84 209.891C357.604 215.509 356.436 220.815 360.916 223.931C361.616 224.418 362.424 224.834 363.372 225.196C364.356 234.589 364.677 240.064 364.736 243.237Z" fill="#8E6D46"/>
<path d="M364.249 234.575C362.794 234.339 361.324 234.163 359.836 234.076C361.576 237.141 363.215 240.2 364.735 243.239C364.699 241.316 364.566 238.547 364.249 234.575Z" fill="#BF9A67"/>
<path d="M364.141 233.273C363.947 230.968 363.695 228.297 363.37 225.196C362.665 224.927 362.038 224.628 361.475 224.292C360.772 227.139 360.024 229.978 359.182 232.8C360.856 232.853 362.508 233.025 364.141 233.273Z" fill="#BF9A67"/>
<path d="M358.058 219.967C357.864 219.269 357.76 218.532 357.73 217.764C357.538 218.44 357.342 219.115 357.141 219.79C357.448 219.846 357.754 219.905 358.058 219.967Z" fill="#BF9A67"/>
<path d="M358.62 221.392C358.008 221.253 357.39 221.128 356.77 221.012C356.244 222.734 355.696 224.452 355.128 226.161C356.253 227.97 357.343 229.78 358.402 231.59C359.168 228.949 359.857 226.293 360.508 223.63C359.667 222.967 359.054 222.216 358.62 221.392Z" fill="#BF9A67"/>
<path d="M355.409 192.564C356.772 192.796 358.121 193.069 359.452 193.386C359.312 192.889 359.155 192.389 358.972 191.886L358.934 191.782L358.916 191.669C358.273 187.786 357.76 185.103 357.36 183.243C357.176 183.2 356.991 183.161 356.806 183.12C356.61 185.269 356.324 187.43 355.954 189.595C355.785 190.584 355.602 191.574 355.409 192.564Z" fill="#BF9A67"/>
<path d="M351.354 220.291C352.383 221.844 353.393 223.4 354.377 224.96C354.824 223.582 355.252 222.201 355.668 220.819C354.248 220.586 352.809 220.41 351.354 220.291Z" fill="#BF9A67"/>
<path d="M348.898 216.65C349.432 217.425 349.958 218.203 350.482 218.982C352.359 219.094 354.214 219.298 356.037 219.596C356.556 217.828 357.047 216.057 357.506 214.281C358.081 212.055 358.589 209.836 359.017 207.617C356.721 207.147 354.38 206.803 352.011 206.558C351.089 209.796 350.087 213.024 349.036 216.232C348.99 216.372 348.944 216.51 348.898 216.65Z" fill="#BF9A67"/>
<path d="M357.488 206.03C358.077 206.131 358.664 206.243 359.249 206.359C359.564 204.6 359.83 202.841 360.037 201.077C360.126 200.31 360.205 199.545 360.281 198.779C360.237 197.476 360.087 196.147 359.801 194.796C358.274 194.415 356.724 194.093 355.156 193.829C354.374 197.658 353.426 201.489 352.363 205.307C354.091 205.499 355.802 205.74 357.488 206.03Z" fill="#BF9A67"/>
<path d="M348.128 191.717C350.218 191.851 352.286 192.072 354.324 192.385C354.945 189.207 355.431 186.029 355.702 182.88C353.58 182.442 351.424 182.102 349.242 181.852C349.202 183.31 349.136 184.771 348.993 186.246C348.816 188.057 348.52 189.884 348.128 191.717Z" fill="#BF9A67"/>
<path d="M344.836 206.098C344.403 206.085 343.968 206.074 343.532 206.064C343.265 206.728 342.995 207.39 342.721 208.049C344.574 210.523 346.375 213.024 348.126 215.541C349.111 212.52 350.035 209.49 350.894 206.452C348.888 206.272 346.865 206.157 344.836 206.098Z" fill="#BF9A67"/>
<path d="M351.245 205.191C351.601 203.902 351.946 202.612 352.278 201.321C352.93 198.778 353.539 196.219 354.068 193.658C352.017 193.349 349.937 193.136 347.834 193.012C346.9 196.947 345.554 200.899 344.045 204.764C346.466 204.812 348.871 204.956 351.245 205.191Z" fill="#BF9A67"/>
<path d="M355.801 181.623C355.862 180.721 355.905 179.822 355.928 178.927C355.326 178.574 353.706 177.808 349.367 176.322C349.316 177.758 349.3 179.19 349.272 180.623C351.478 180.862 353.656 181.195 355.801 181.623Z" fill="#BF9A67"/>
<path d="M348.142 180.509C348.172 178.988 348.19 177.469 348.252 175.942C347.092 175.554 345.769 175.123 344.251 174.643L344.183 174.621L344.119 174.59C343.477 174.279 342.827 174.006 342.171 173.765C341.857 175.887 341.427 178.016 340.888 180.14C343.331 180.164 345.752 180.284 348.142 180.509Z" fill="#BF9A67"/>
<path d="M346.959 191.653C347.484 189.275 347.855 186.897 347.999 184.528C348.057 183.592 348.09 182.661 348.114 181.731C345.63 181.484 343.114 181.354 340.575 181.335C339.607 184.884 338.387 188.366 337.003 191.804C340.35 191.55 343.679 191.496 346.959 191.653Z" fill="#BF9A67"/>
<path d="M340.226 204.769C341.109 204.749 341.991 204.743 342.87 204.749C343.833 202.247 344.719 199.726 345.492 197.183C345.92 195.775 346.312 194.363 346.655 192.95C343.552 192.817 340.405 192.873 337.238 193.105C336.973 193.124 336.709 193.145 336.444 193.166C335.823 194.655 335.175 196.137 334.503 197.612C336.448 199.963 338.358 202.351 340.226 204.769Z" fill="#BF9A67"/>
<path d="M341.193 206.034C341.45 206.371 341.71 206.706 341.965 207.044C342.099 206.711 342.232 206.377 342.365 206.044C341.975 206.038 341.584 206.035 341.193 206.034Z" fill="#BF9A67"/>
<path d="M339.726 180.135C340.298 177.9 340.762 175.653 341.086 173.396C338.525 172.597 335.893 172.254 333.316 172.107C332.7 174.921 331.857 177.753 330.916 180.543C333.872 180.282 336.814 180.142 339.726 180.135Z" fill="#BF9A67"/>
<path d="M327.586 189.588C328.474 190.577 329.355 191.578 330.231 192.585C332.078 192.301 333.926 192.076 335.771 191.909C337.19 188.414 338.434 184.888 339.407 181.333C338.028 181.341 336.643 181.379 335.253 181.451C333.673 181.533 332.082 181.648 330.487 181.794C329.824 183.698 329.123 185.579 328.427 187.417C328.153 188.142 327.871 188.865 327.586 189.588Z" fill="#BF9A67"/>
<path d="M331.186 193.69C332.038 194.679 332.885 195.675 333.725 196.68C334.235 195.545 334.73 194.407 335.209 193.266C333.872 193.381 332.53 193.518 331.186 193.69Z" fill="#BF9A67"/>
<path d="M332.141 172.054C330.588 171.998 329.061 171.998 327.59 171.999C325.098 172.001 322.802 171.997 320.827 171.705C320.66 171.71 320.493 171.716 320.326 171.721C319.59 174.275 318.754 176.805 317.833 179.31C318.731 180.205 319.626 181.115 320.518 182.032C322.066 181.669 323.619 181.408 325.155 181.196C326.666 180.987 328.176 180.808 329.683 180.658C330.217 179.037 330.719 177.41 331.179 175.779C331.528 174.544 331.855 173.301 332.141 172.054Z" fill="#BF9A67"/>
<path d="M329.264 181.913C327.598 182.083 325.929 182.289 324.264 182.537C323.341 182.674 322.411 182.833 321.48 183.027C323.263 184.88 325.032 186.768 326.779 188.698C326.872 188.459 326.967 188.221 327.059 187.983C327.833 185.97 328.573 183.946 329.264 181.913Z" fill="#BF9A67"/>
<path d="M317.33 170.642C317.14 170.537 316.957 170.423 316.781 170.301C315.457 169.38 314.652 168.053 314.332 166.258C313.039 165.937 311.836 165.646 310.712 165.379C310.36 167.301 309.916 169.224 309.395 171.139C312.049 170.927 314.694 170.761 317.33 170.642" fill="#BF9A67"/>
<path d="M310.446 172.279C312.63 174.265 314.806 176.318 316.963 178.445C317.762 176.229 318.488 174 319.141 171.76C316.251 171.87 313.352 172.053 310.446 172.279Z" fill="#BF9A67"/>
<path d="M309.629 165.124C304.863 164.011 301.674 163.393 299.55 163.056C302.517 165.372 305.489 167.854 308.447 170.476C308.914 168.696 309.308 166.91 309.629 165.124Z" fill="#BF9A67"/>
<g opacity="0.169998">
<g opacity="0.169998">
<path opacity="0.169998" d="M330.129 175.97C325.66 176.376 321.109 177.06 316.56 178.043C320.819 182.221 325.014 186.654 329.088 191.274C330.093 189.309 331.477 187.55 333.194 186.063C337.823 182.057 343.755 180.115 349.063 179.044C350.903 178.672 352.756 178.406 354.591 178.277C353.742 177.909 352.466 177.407 350.552 176.732C343.961 175.592 337.148 175.332 330.129 175.97Z" fill="#F6F6F6"/>
</g>
</g>
<g opacity="0.169998">
<g opacity="0.169998">
<path opacity="0.169998" d="M358.391 188.59C356.992 180.669 356.345 179.321 356.21 179.115C356.197 179.104 356.17 179.083 356.124 179.05C356.097 179.032 356.066 179.011 356.03 178.989C354.659 183.387 352.349 187.604 348.834 190.796C344.95 194.323 340.215 196.166 335.661 197.062C335.19 197.154 334.721 197.235 334.252 197.309C341.977 206.613 349.144 216.513 355.33 226.485C356.74 208.171 358.01 197.303 358.391 188.59Z" fill="#1D1D1B"/>
</g>
</g>
<ellipse cx="73.6461" cy="146.459" rx="18.5773" ry="18.0057" transform="rotate(-5.77219 73.6461 146.459)" fill="#ECECEC"/>
<ellipse cx="29.6461" cy="64.4591" rx="18.5773" ry="18.0057" transform="rotate(-5.77219 29.6461 64.4591)" fill="#ECECEC"/>
<ellipse cx="161.647" cy="131.459" rx="18.5773" ry="18.0057" transform="rotate(-5.77219 161.647 131.459)" fill="#ECECEC"/>
<ellipse cx="251.647" cy="84.4591" rx="18.5773" ry="18.0057" transform="rotate(-5.77219 251.647 84.4591)" fill="#ECECEC"/>
<circle cx="178.937" cy="41.2608" r="10.5748" transform="rotate(-5.77219 178.937 41.2608)" fill="#ECECEC"/>
<circle cx="120.937" cy="207.261" r="10.5748" transform="rotate(-5.77219 120.937 207.261)" fill="#ECECEC"/>
<circle cx="225.937" cy="148.261" r="10.5748" transform="rotate(-5.77219 225.937 148.261)" fill="#ECECEC"/>
<circle cx="336.585" cy="58.5846" r="10.5748" transform="rotate(-5.77219 336.585 58.5846)" fill="#ECECEC"/>
<circle cx="122.684" cy="86.0089" r="9.43157" transform="rotate(-5.77219 122.684 86.0089)" fill="#ECECEC"/>
<circle cx="20.3318" cy="172.332" r="9.43157" transform="rotate(-5.77219 20.3318 172.332)" fill="#ECECEC"/>
<circle cx="312.025" cy="141.025" r="5.5" transform="rotate(-5.77219 312.025 141.025)" fill="#ECECEC"/>
<circle cx="347.025" cy="266.025" r="5.5" transform="rotate(-5.77219 347.025 266.025)" fill="#ECECEC"/>
<path d="M153.745 134.901H160.583V136.677H151.055V135.235L157.673 125.673H151.099V123.88H160.372V125.286L153.745 134.901Z" fill="white"/>
<path d="M21.7446 68.9014H28.5825V70.6768H19.0552V69.2354L25.6733 59.6729H19.0991V57.8799H28.3716V59.2861L21.7446 68.9014Z" fill="white"/>
<path d="M243.745 87.9014H250.583V89.6768H241.055V88.2354L247.673 78.6729H241.099V76.8799H250.372V78.2861L243.745 87.9014Z" fill="white"/>
<path d="M163.614 140.493H168.172V141.677H161.821V140.716L166.233 134.341H161.85V133.146H168.032V134.083L163.614 140.493Z" fill="white"/>
<path d="M31.6138 62.4932H36.1724V63.6768H29.8208V62.7158L34.2329 56.3408H29.8501V55.1455H36.0317V56.083L31.6138 62.4932Z" fill="white"/>
<path d="M119.614 210.493H124.172V211.677H117.821V210.716L122.233 204.341H117.85V203.146H124.032V204.083L119.614 210.493Z" fill="white"/>
<path d="M259.614 90.4932H264.172V91.6768H257.821V90.7158L262.233 84.3408H257.85V83.1455H264.032V84.083L259.614 90.4932Z" fill="white"/>
<path d="M171.614 131.493H176.172V132.677H169.821V131.716L174.233 125.341H169.85V124.146H176.032V125.083L171.614 131.493Z" fill="white"/>
<path d="M36.6138 74.4932H41.1724V75.6768H34.8208V74.7158L39.2329 68.3408H34.8501V67.1455H41.0317V68.083L36.6138 74.4932Z" fill="white"/>
<path d="M177.614 45.4932H182.172V46.6768H175.821V45.7158L180.233 39.3408H175.85V38.1455H182.032V39.083L177.614 45.4932Z" fill="white"/>
</g>
<defs>
<clipPath id="clip0">
<rect width="381" height="271" fill="white"/>
</clipPath>
</defs>
</svg>
