<svg width="191" height="182" viewBox="0 0 191 182" fill="none" xmlns="http://www.w3.org/2000/svg">
<path d="M6.33138 93.4953C6.79374 112.588 100.63 141.185 110.629 133.082C120.627 124.978 101.982 95.3804 101.982 95.3804C101.982 95.3804 147.771 109.148 167.774 104.144C187.777 99.1389 180.676 73.3251 169.053 67.3582C157.43 61.3904 108.246 64.2657 108.246 64.2657C108.246 64.2657 119.539 49.2504 112.399 43.4896C105.257 37.7291 5.86846 74.4028 6.33138 93.4953Z" fill="white"/>
<path d="M169.038 67.3307C168.319 66.9622 167.458 66.628 166.474 66.3236C176.838 73.1614 178.735 91.7556 159.608 96.5415C139.605 101.546 91.1961 85.7995 91.1961 85.7995C91.1961 85.7995 110.359 113.213 100.36 121.318C90.3618 129.421 8.2446 109.413 7.78225 90.3197C7.76907 89.7782 7.83585 89.224 7.97103 88.6603C6.86308 90.3525 6.2802 91.9655 6.31645 93.4678C6.7788 112.561 100.615 141.158 110.614 133.054C120.612 124.951 101.967 95.3534 101.967 95.3534C101.967 95.3534 147.755 109.121 167.759 104.116C187.763 99.1119 180.66 73.2984 169.038 67.3307Z" fill="#7B7B7B"/>
<path d="M102.507 93.6399C102.508 93.6401 102.896 93.7569 103.635 93.9698C104.374 94.1837 105.455 94.4908 106.821 94.8662C109.552 95.6138 113.418 96.6321 117.944 97.7036C126.995 99.8492 138.701 102.208 149.205 103.074C156.2 103.658 162.676 103.554 167.333 102.382C169.703 101.786 171.601 100.894 173.118 99.802C177.042 96.9612 178.61 92.6694 178.549 87.8626C178.478 83.0832 176.635 77.9391 173.873 74.1205C172.216 71.818 170.238 70.0072 168.223 68.9775C166.113 67.8717 161.866 66.9529 156.739 66.3972C151.6 65.8253 145.526 65.5437 139.463 65.4412C127.331 65.2353 115.234 65.7374 110.471 65.9714C109.109 66.038 108.354 66.081 108.352 66.0826L104.433 66.3109L106.793 63.1746C106.793 63.1746 106.863 63.0799 107.01 62.8775C107.154 62.6757 107.365 62.3747 107.622 61.9921C108.137 61.2302 108.834 60.1413 109.554 58.8668C110.999 56.3255 112.502 53.0025 112.857 50.2144C113.1 48.3396 112.852 46.8376 112.065 45.7534C111.853 45.4591 111.596 45.1842 111.276 44.9227L111.275 44.9221C111.257 44.9126 111.217 44.8945 111.15 44.8735C111.019 44.8312 110.792 44.7813 110.494 44.7495C109.894 44.6834 109.011 44.6854 107.93 44.78C105.762 44.9661 102.795 45.5052 99.2904 46.3471C92.2753 48.0285 83.086 50.9103 73.2628 54.5208C53.6221 61.7305 31.3645 71.9122 18.5874 81.1353C15.184 83.585 12.4641 85.9678 10.6773 88.1163C8.8706 90.2707 8.09688 92.1398 8.14937 93.4522L6.33205 93.4966L8.14921 93.4532C8.17025 94.5288 8.65342 95.8387 9.72819 97.3285C11.8015 100.23 16.0251 103.581 21.5921 106.872C27.1592 110.174 34.0629 113.467 41.5374 116.53C56.4879 122.657 73.7425 127.868 87.3222 130.603C96.3441 132.442 103.856 133.117 107.521 132.388C108.487 132.209 109.141 131.927 109.42 131.718C109.441 131.703 109.466 131.683 109.498 131.658C110.3 130.999 110.849 130.177 111.228 129.114C111.606 128.048 111.783 126.735 111.755 125.246C111.708 122.267 110.829 118.622 109.548 114.985C106.994 107.697 102.885 100.426 101.201 97.5972C100.72 96.7878 100.444 96.3521 100.444 96.3509L97.8555 92.242L102.507 93.6399ZM175.244 102.752C173.318 104.141 170.976 105.219 168.215 105.909C162.871 107.237 156.121 107.289 148.906 106.699C141.695 106.102 134.038 104.839 127.018 103.422C118.232 101.648 110.446 99.6309 105.841 98.3672C108.464 103.051 112.612 111.173 114.473 118.75C115.4 122.6 115.789 126.345 114.878 129.629C114.358 131.498 113.35 133.224 111.773 134.495L111.767 134.501L111.752 134.512C111.693 134.558 111.625 134.611 111.547 134.668C109.878 135.822 107.735 136.166 105.017 136.29C102.304 136.389 99.0174 136.153 95.2684 135.649C87.7785 134.64 78.4558 132.544 68.6427 129.728C49.0078 124.082 27.4973 115.622 15.0495 107.004C11.4893 104.527 8.65033 102.042 6.77842 99.4548C5.43372 97.5869 4.56765 95.6162 4.5136 93.5419C4.46928 90.8344 5.80989 88.2938 7.8835 85.7896C9.97674 83.2791 12.9014 80.7532 16.4611 78.1855C27.3971 70.3095 44.3991 62.0599 61.1304 55.3021C77.8676 48.5512 94.2387 43.3314 104.03 41.6384C106.846 41.1598 109.103 40.9479 110.887 41.1339C111.84 41.2517 112.708 41.4334 113.54 42.0775C114.114 42.5395 114.607 43.0609 115.015 43.6272C116.535 45.7447 116.779 48.2907 116.463 50.6868C116.142 53.1034 115.269 55.4922 114.273 57.6453C113.459 59.3957 112.556 60.9904 111.769 62.2703C119.895 61.9002 140.004 61.202 154.813 62.548C161.165 63.1457 166.488 64.0289 169.883 65.7417C172.555 67.1173 174.897 69.3289 176.822 71.9942C180.01 76.4312 182.08 82.1556 182.186 87.8016C182.301 93.412 180.319 99.0942 175.267 102.735L175.244 102.752Z" fill="#515151"/>
</svg>
