<svg width="756" height="524" viewBox="0 0 756 524" fill="none" xmlns="http://www.w3.org/2000/svg">
<ellipse cx="175.947" cy="412.543" rx="32.5" ry="31.5" fill="#ECECEC"/>
<ellipse cx="398.947" cy="485.543" rx="32.5" ry="31.5" fill="#ECECEC"/>
<ellipse cx="292.947" cy="31.543" rx="32.5" ry="31.5" fill="#ECECEC"/>
<ellipse cx="602.947" cy="111.543" rx="32.5" ry="31.5" fill="#ECECEC"/>
<circle cx="545.947" cy="412.543" r="18.5" fill="#ECECEC"/>
<circle cx="302.947" cy="163.543" r="18.5" fill="#ECECEC"/>
<circle cx="18.9473" cy="250.543" r="18.5" fill="#ECECEC"/>
<circle cx="738.947" cy="338.543" r="16.5" fill="#ECECEC"/>
<g opacity="0.399994">
<g opacity="0.399994">
<path opacity="0.399994" d="M526.709 322.367C526.652 322.465 526.595 322.561 526.538 322.659C530.171 319.259 533.768 315.779 537.108 312.287C541.392 315.573 546.537 316.827 552.04 316.018C547.423 313.051 542.852 309.904 538.986 306.044C533.1 311.043 528.447 317.626 523.215 323.307C517.522 329.486 511.431 335.122 504.936 340.317C499.445 344.709 493.666 348.589 487.26 350.27C481.352 351.819 475.504 351.865 470.089 350.729C463.505 349.79 457.34 347.168 451.499 344.841C447.556 343.269 443.416 341.507 439.838 339.202C439.483 339.207 439.116 339.117 438.753 338.902C437.077 337.916 435.192 337.368 433.249 336.936C432.164 336.828 431.103 336.637 430.06 336.398C424.383 338.332 418.788 339.589 413.246 338.984C409.123 339.294 405.065 339.118 401.068 338.853C389.902 338.113 377.563 336.059 371.029 327.218C371.019 327.205 371.012 327.191 371.003 327.178C365.581 323.593 361.048 318.882 358.722 312.544C354.247 313.765 349.732 314.303 345.259 315.295C342.251 315.961 339.246 316.721 336.241 317.497C338.058 325.462 339.448 333.84 339.767 342.241C340.021 348.94 337.104 355.717 331.16 360.368C325.437 364.843 318.395 366.853 312 368.125C305.544 369.408 298.815 370.229 292.574 369.904C289.296 369.733 286.043 369.059 283.473 367.524C275.321 367.181 269.097 360.476 266.869 353.039C266.68 352.406 266.522 351.759 266.386 351.103C264.807 345.954 264.301 340.321 263.712 334.726C262.877 326.791 260.931 319.122 258.131 312.094C258.052 311.894 257.991 311.684 257.948 311.469C255.742 306.978 253.254 302.668 250.761 298.398C248.824 295.081 246.717 291.865 245.306 288.346C242.994 285.508 241.326 282.082 239.765 278.632C239.67 278.547 239.582 278.455 239.501 278.349C239.371 278.177 239.254 277.998 239.14 277.818C238.96 277.636 238.807 277.408 238.69 277.134C238.659 277.089 238.628 277.044 238.596 277C238.516 278.097 238.557 279.177 238.728 280.215C237.73 278.626 236.749 276.997 235.782 275.329C235.769 275.363 235.754 275.399 235.741 275.435C234.847 279.846 234.069 284.259 233.317 288.663C232.999 290.524 232.681 292.387 232.362 294.248C233.186 299.315 233.942 304.409 234.555 309.554C235.417 316.793 235.98 324.081 236.321 331.421C237.827 337.299 239.307 343.188 240.614 349.158C242.248 356.615 243.405 364.265 244.855 371.797C244.863 371.806 244.869 371.816 244.876 371.825C244.921 371.874 244.97 371.929 245.028 371.993C245.308 372.305 245.583 372.62 245.866 372.928C246.363 373.469 246.871 373.996 247.388 374.514C248.576 375.702 249.816 376.831 251.105 377.904C252.483 379.052 253.914 380.136 255.391 381.16C256.09 381.644 256.8 382.114 257.519 382.572C257.779 382.738 258.043 382.901 258.307 383.063C258.377 383.102 258.455 383.145 258.548 383.198C264.75 386.646 271.36 389.36 278.349 391.376C280.185 391.906 282.043 392.381 283.913 392.833C283.957 392.844 284.024 392.858 284.097 392.874C285.08 393.081 284.479 392.959 284.097 392.874C284.047 392.863 283.999 392.853 283.939 392.841C284.383 392.934 284.824 393.033 285.268 393.126C285.406 393.155 285.544 393.179 285.681 393.207C286.422 393.117 287.163 393.026 287.906 392.923C289.079 392.759 290.253 392.574 291.428 392.381C295.224 389.637 298.998 386.848 302.772 384.078C307.206 380.825 311.609 378.14 316.493 376.059C321.265 374.025 326.118 372.466 330.891 370.446C333.518 369.334 336.167 368.367 338.787 367.197C341.389 366.035 343.974 364.803 346.58 363.651C351.783 361.35 356.932 359.727 362.251 358.624C373.016 356.395 383.766 355.702 394.384 354.999C404.582 354.324 414.744 354.146 424.479 355.484C438.844 357.46 451.737 363.201 466.42 364.343C472.868 364.845 479.688 364.482 486.421 362.196C497.462 353.765 506.992 342.715 517.599 333.521C520.227 329.699 522.716 325.766 525.059 321.715C525.754 320.514 527.403 321.167 526.709 322.367Z" fill="#1D1D1B"/>
</g>
</g>
<path d="M579.349 295.781C583.358 290.015 586.712 283.857 589.084 277.468C601.882 243.037 579.132 228.429 555.168 244.869C553.097 238.482 551.305 232.97 548.956 228.007C548.399 226.681 547.664 225.294 546.777 223.858C545.152 221.08 543.239 218.462 540.869 215.941L540.833 215.959C537.326 211.921 533.113 207.814 528.709 203.999C550.242 183.835 544.836 155.271 511.398 158.043C505.19 158.554 498.878 160.177 492.692 162.61C471.375 171.157 461.548 187.552 465.409 202.047C453.945 208.98 441.895 218.135 432.3 224.662C418.306 217.71 317.407 172.298 242.378 267.619C239.325 271.496 238.061 276.169 238.728 280.214C238.576 279.972 238.428 279.719 238.276 279.475C238.478 280.735 238.696 281.991 238.947 283.233C239.292 283.567 239.571 284.011 239.753 284.577C240.635 287.328 241.692 289.969 242.804 292.58C246.765 298.768 251.105 304.678 254.467 311.316C257.811 317.924 259.834 325.168 260.24 333.066C262.587 340.786 263.749 349.177 266.161 356.872C266.427 356.929 266.694 357.022 266.963 357.158C271.622 359.525 273.899 364.434 278.063 367.393C279.369 368.32 280.754 369.139 282.191 369.877C282.231 369.884 282.272 369.884 282.312 369.892C294.031 372.378 307.485 371.932 320.627 368.26C326.758 365.589 332.856 362.812 338.876 359.766C339.002 359.619 339.118 359.468 339.24 359.319C338.687 346.372 338.218 333.389 334.59 321.57C333.954 319.497 335.156 317.657 336.803 316.669C337.311 316.285 337.905 315.979 338.588 315.8C343.102 314.608 347.887 312.752 352.327 312.948C353.609 313.006 354.73 313.298 355.723 313.768C356.755 313.556 357.759 313.716 358.378 314.424C362.177 318.763 365.404 323.731 369.493 327.779C370.771 327.481 372.051 327.783 372.856 329.053C375.746 333.612 382.753 334.846 387.896 335.973C393.713 337.248 399.5 338.559 405.6 339.033C412.092 339.536 418.565 338.899 425.238 338.38C428.672 338.112 432.162 337.907 435.352 338.619C438.596 339.344 441.709 340.344 444.706 341.592C449.729 343.685 454.41 346.368 458.943 349.239C468.852 352.851 480.02 352.71 491.347 350.472C493.742 349.296 496.086 347.961 498.349 346.389C503.823 342.588 508.459 337.462 513.329 332.826C518.472 327.929 523.669 323.093 528.907 318.308C529.836 317.458 531.008 317.215 532.044 317.393C533.774 315.699 535.473 313.995 537.107 312.288C548.305 320.876 565.393 315.618 579.349 295.781Z" fill="#575756"/>
<path d="M500.056 329.793C499.526 330.091 498.98 330.235 498.453 330.251C495.849 331.694 493.121 332.546 490.357 332.412C490.19 332.404 490.031 332.386 489.879 332.362C489.797 332.369 489.717 332.378 489.634 332.383C489.444 332.439 489.266 332.448 489.1 332.412C488.385 332.354 487.771 332.108 487.26 331.672C486.751 331.237 486.434 330.631 486.244 329.956C486.241 329.949 486.241 329.941 486.239 329.934C483.261 327.683 482.034 322.121 481.576 318.493C480.734 311.845 480.531 304.675 483.879 297.693C483.988 297.465 484.11 297.254 484.24 297.054C484.291 296.9 484.34 296.745 484.393 296.594C485.514 293.378 486.985 290.37 489.028 287.5C491.022 284.7 493.67 282.722 496.041 280.292C496.165 280.165 496.292 280.057 496.419 279.946C496.696 279.66 497.016 279.386 497.395 279.132C500.321 277.177 503.16 275.04 506.447 275.193C509.207 275.321 511.395 276.906 512.533 279.268C512.598 279.401 512.652 279.54 512.711 279.675C513.377 279.878 513.966 280.34 514.385 281.136C515.496 283.246 516.446 285.631 517.098 288.157C518.16 288.599 518.928 289.587 518.939 291.211C518.949 292.701 519.011 294.153 519.069 295.59C519.687 296.224 520.053 297.145 520.118 298.196C520.408 302.88 518.948 307.593 516.608 312.129C516.566 312.807 516.393 313.52 516.094 314.226C513.141 321.197 506.301 326.267 500.056 329.793ZM482.325 259.067C478.23 262.488 473.865 264.367 468.808 265.342C462.948 266.474 457.047 266.388 452.111 264.216C451.835 264.096 451.628 263.928 451.476 263.731C451.099 263.703 450.753 263.551 450.479 263.343C450.368 263.258 450.277 263.155 450.201 263.039C448.246 262.856 446.204 262.41 445.132 260.927C443.294 259.916 441.658 258.645 440.337 257.263C438.29 255.122 436.832 252.296 437.413 248.78C438.066 244.814 441.093 240.893 443.975 237.756C444.211 237.183 444.673 236.657 445.401 236.336L445.717 236.197C445.996 236.074 446.266 236.022 446.524 236.014C446.592 235.956 446.658 235.895 446.728 235.838C449.99 232.311 453.91 229.876 458.42 228.289C458.848 228.138 459.272 228.005 459.693 227.881C460.004 227.606 460.386 227.391 460.839 227.277C470.082 224.94 479.66 226.661 484.932 233.412C485.085 233.609 485.174 233.817 485.228 234.026C488.473 237.501 493.438 241.686 492.146 247.656C491.137 252.315 486.675 256.216 482.325 259.067V259.067ZM501.651 343.872C501.852 343.706 502.053 343.54 502.251 343.371C504.36 341.315 506.45 339.234 508.504 337.115C518.591 326.698 527.413 314.927 538.341 305.45C538.715 304.45 539.146 303.464 539.614 302.523C541.397 298.942 543.986 295.676 546.346 292.402C548.569 289.317 550.258 286.161 551.743 282.755C555.558 274.006 557.92 264.878 557.534 256.371C557.385 256.116 557.264 255.829 557.185 255.5C556.445 252.369 555.977 249.131 555.444 245.914C555.376 245.503 555.363 245.106 555.388 244.723C555.314 244.773 555.242 244.819 555.168 244.869C553.096 238.483 551.305 232.97 548.956 228.007C548.399 226.682 547.664 225.294 546.778 223.859C545.152 221.08 543.24 218.463 540.869 215.942L540.833 215.959C538.737 213.544 536.383 211.106 533.892 208.72C532.017 209.327 529.993 208.882 529.309 206.712C528.411 203.865 525.702 202.133 523.252 200.848C520.434 199.369 517.414 198.148 514.45 196.919C510.605 195.323 506.548 194.165 502.322 193.448C501.809 193.482 501.298 193.511 500.784 193.554C496.742 193.897 492.71 194.611 488.688 195.59C488.479 195.716 488.26 195.826 488.033 195.911C485.81 196.739 483.586 197.56 481.361 198.363C476.71 200.202 472.084 202.2 467.386 203.741C466.407 204.063 465.557 204.089 464.846 203.912C462.351 204.974 459.86 206.065 457.377 207.171C448.488 213.086 439.67 219.649 432.3 224.664C420.349 218.726 345.019 184.745 276.547 234.316C276.543 234.589 276.532 234.864 276.513 235.144C276.518 237.466 275.975 239.747 274.883 241.986C274.845 242.102 274.801 242.216 274.761 242.333C284.071 240.482 294.255 246.773 300.445 250.647C304.264 253.035 307.941 255.665 311.342 258.595C316.753 263.255 322.471 268.2 326.033 274.637C330.463 282.643 331.383 293.171 332.562 302.755C333.049 306.719 333.321 310.805 334.12 314.653C334.349 315.756 334.637 316.831 334.952 317.894C335.148 317.829 335.346 317.767 335.543 317.701C335.896 317.309 336.315 316.975 336.766 316.699C337.283 316.301 337.888 315.984 338.589 315.8C341.508 315.029 344.54 313.983 347.519 313.392C351.242 312.552 355.007 312.127 358.716 311.928C356.685 306.825 355.753 301.126 354.424 295.636C354.258 294.951 354.433 294.316 354.787 293.799C353.682 288.214 352.996 282.502 353.89 276.291C356.168 260.454 364.706 240.758 379.38 230.8C386.534 225.945 394.208 224.313 401.533 225.294C408.25 226.194 415.126 228.875 418.635 234.564C419.169 235.43 418.871 236.412 418.238 237.135C418.218 237.179 418.201 237.222 418.18 237.266C416.416 240.853 414.256 244.31 412.856 248.009C411.517 251.547 410.444 255.116 409.652 258.71C408.16 265.478 408.582 271.529 409.651 277.749C410.672 283.697 411.704 289.56 411.385 295.921C411.05 302.586 409.864 309.375 410.326 315.884C410.534 316.226 410.71 316.599 410.846 317C411.162 317.929 412.36 319.36 413.038 320.426C413.975 321.903 414.886 323.404 415.826 324.881C417.663 327.777 419.433 330.641 421.715 333.154C423.22 334.81 424.765 336.289 425.894 338.165C425.96 338.217 426.03 338.264 426.097 338.316C429.252 338.085 432.427 337.967 435.352 338.62C438.596 339.346 441.71 340.344 444.706 341.593C449.729 343.687 454.41 346.369 458.943 349.24C467.809 352.471 477.68 352.7 487.774 351.109C492.353 348.545 496.962 346.079 501.651 343.872" fill="#F4EEEA"/>
<g opacity="0.199997">
<g opacity="0.199997">
<path opacity="0.199997" d="M573.923 300.328C575.411 298.533 576.838 296.69 578.306 294.878C578.475 294.671 578.649 294.445 578.827 294.217C578.995 293.91 579.169 293.608 579.332 293.301C580.421 291.264 581.517 289.206 582.324 287.096C571.711 295.991 559.25 303.89 543.902 294.583C533.447 303.086 529.169 303.081 518.917 306.597C516.306 317.467 507.787 324.4 503.811 327.295C499.748 330.253 495.369 333.176 490.953 332.732C479.806 337.717 468.055 339.312 457.746 335.981C448.968 333.146 442.353 326.484 433.073 324.605C429.173 323.813 425.039 323.728 421.121 322.99C417.723 322.349 414.647 321.121 412.195 318.948C414.239 323.476 416.826 327.685 420.182 331.143C422.736 333.776 425.768 335.812 428.972 337.613C429.286 337.789 429.6 337.964 429.916 338.139C431.778 338.12 433.61 338.23 435.351 338.62C438.595 339.346 441.709 340.344 444.705 341.593C449.728 343.686 454.41 346.369 458.942 349.24C468.851 352.85 480.019 352.711 491.347 350.472C493.742 349.297 496.086 347.961 498.349 346.39C503.822 342.588 508.458 337.462 513.327 332.827C518.472 327.929 523.669 323.093 528.907 318.308C529.836 317.459 531.008 317.215 532.043 317.393C533.774 315.699 535.473 313.995 537.107 312.287C544.187 317.718 553.621 317.6 563.131 311.77C566.957 308.2 570.563 304.383 573.923 300.328ZM385.589 326.275C382.538 322.656 380.314 318.314 378.676 313.665C376.963 308.808 375.882 303.616 375.129 298.325C374.446 293.522 374.024 288.629 374.074 283.61C374.167 273.937 375.965 263.895 379.843 254.175C381.916 248.978 384.504 243.773 387.768 239.039C391.368 233.817 395.785 229.224 400.19 224.68C392.682 223.011 384.163 226.673 377.133 231.992C370.274 237.181 364.663 243.979 360.78 251.616C356.256 260.516 353.934 270.096 352.921 279.321C351.952 288.132 352.114 296.745 354.381 304.615C355.354 307.991 356.651 311.178 358.166 314.22C358.239 314.283 358.312 314.349 358.378 314.424C362.177 318.764 365.403 323.732 369.493 327.78C370.771 327.481 372.051 327.783 372.856 329.054C375.746 333.613 382.753 334.846 387.896 335.973C392.038 336.881 396.166 337.801 400.401 338.431C398.936 337.586 397.509 336.689 396.131 335.73C392.258 333.034 388.642 329.897 385.589 326.275ZM339.898 353.783C340.128 352.806 339.991 351.924 339.62 351.183C339.441 349.84 338.978 348.571 338.141 347.403C337.695 346.782 337.178 346.237 336.613 345.751C336.578 344.131 335.637 342.477 334.994 341.415C333.825 339.49 332.075 338.126 330.038 337.203C327.744 336.162 325.214 335.511 322.639 335.096C320.155 334.696 317.234 334.094 314.554 334.7C314.288 334.76 314.135 334.871 314.056 335.009C313.202 335.298 314.033 336.277 314.398 336.412C314.787 336.556 315.187 336.673 315.593 336.78C315.784 336.841 315.975 336.899 316.17 336.954C316.74 337.565 317.479 337.76 318.391 338.09C318.925 338.284 319.462 338.464 319.999 338.652C320.064 338.857 320.191 339.057 320.354 339.185C320.351 339.192 320.347 339.202 320.344 339.211C320.971 339.503 321.588 339.813 322.201 340.13C323.912 341.196 325.381 342.726 326.794 344.065C326.896 344.163 326.998 344.272 327.099 344.387C327.213 344.656 327.378 344.907 327.592 345.102C327.711 345.21 327.832 345.321 327.952 345.431C328.377 345.954 328.837 346.462 329.377 346.779C330.452 347.84 331.471 348.986 332.238 350.268C333.268 351.989 332.209 354.242 330.901 356.165C331.245 356.701 331.368 357.377 330.972 358.139C330.4 359.236 329.198 359.789 328.16 360.015C327.999 360.049 327.872 360.009 327.777 359.929C326.815 360.875 325.775 361.732 324.668 362.446C323.677 363.086 322.615 363.649 321.557 364.08C321.265 364.199 320.911 364.271 320.559 364.348C323.269 360.202 320.769 355.078 317.913 352.563C317.543 352.235 317.154 351.933 316.758 351.64C316.545 351.475 316.323 351.316 316.094 351.168C315.644 350.865 315.179 350.582 314.704 350.312L314.7 350.309C312.928 349.186 311.103 348.106 309.153 347.259C305.994 345.889 302.298 344.845 298.451 346.118C298.029 346.257 298.358 346.744 298.582 346.79C299.006 346.875 299.427 346.962 299.847 347.051C299.767 347.182 299.909 347.398 299.962 347.453C301.141 348.673 302.677 349.205 304.253 349.811C304.238 350.339 304.618 351.035 304.948 351.224C308.489 353.249 310.924 356.222 312.761 359.947C313.093 360.616 313.432 361.286 313.75 361.965C314.226 362.976 314.554 363.253 313.766 364.055C313.75 364.071 313.734 364.086 313.719 364.103C313.633 364.188 313.539 364.277 313.428 364.375C312.038 365.603 310.118 366.375 308.51 366.825C305.449 367.682 302.559 367.691 299.731 367.399C299.512 366.712 299.006 366.035 298.528 365.714C291.728 361.168 289.094 352.338 287.799 343.875C286.512 335.472 286.592 326.622 285.386 318.19C284.157 309.604 281.343 302.055 276.204 295.869C270.874 289.455 263.85 284.416 259.965 276.715C259.32 275.434 258.799 274.036 258.408 272.57C258.263 271.78 258.097 271 257.914 270.225C257.21 265.775 257.74 260.88 259.988 256.478C262.693 253.067 265.554 249.77 268.839 247.18C271.844 244.811 275.414 243.119 278.844 242.983C282.444 242.841 285.606 244.356 288.583 245.709C293.273 247.84 297.952 249.968 302.693 251.993C307.878 256.511 312.898 261.234 317.327 266.544C321.425 271.456 324.986 276.879 327.642 282.92C330.468 289.349 332.243 296.397 333.068 303.78C333.633 308.832 333.071 314.736 334.583 319.348C334.93 318.226 335.78 317.283 336.802 316.67C337.311 316.285 337.905 315.979 338.587 315.799C343.102 314.608 347.886 312.751 352.326 312.948C353.609 313.006 354.729 313.299 355.723 313.768C356.32 313.646 356.905 313.653 357.414 313.813C355.525 309.899 353.996 305.755 353.043 301.296C351.278 293.038 351.639 283.915 353.055 274.914C354.528 265.561 357.44 255.877 362.767 247.195C366.864 240.516 373.172 233.77 380.187 229.24C378.663 230.031 377.136 230.8 375.583 231.496C363.137 237.081 350.315 240.514 337.62 243.997C326.267 247.112 314.847 249.957 303.591 250.745C298.859 248.419 294.065 246.204 289.249 244.005C284.11 241.659 278.717 239.71 272.28 242.105C269.221 243.244 266.366 244.954 263.701 247.009C263.18 246.801 262.626 246.8 262.19 247.149C259.84 249.027 257.968 251.262 256.553 253.686C255.989 254.304 255.433 254.929 254.89 255.558C249.934 261.315 243.928 267.298 241.944 274.576C238.401 287.574 246.069 297.703 252.306 306.065C256.151 311.218 259.515 316.501 260.626 323.421C261.642 329.764 261.386 336.534 262.611 342.805C263.662 348.187 265.944 352.936 269.143 356.821C267.991 357.337 267.624 359.323 268.924 360.415C275.744 366.138 284.497 369.368 294.1 369.519C296.3 370.064 298.595 370.406 300.923 370.621C305.138 371.011 309.879 370.91 314.207 368.547C314.716 368.268 315.301 367.926 315.862 367.53C315.995 367.524 316.126 367.512 316.258 367.495C316.624 367.747 317.019 367.948 317.417 368.062C318.112 368.622 318.993 368.924 320.088 368.831C320.315 368.693 320.545 368.56 320.77 368.421C322.435 367.29 324.132 366.227 325.845 365.191C326.857 364.518 327.863 363.835 328.858 363.133C332.388 360.639 335.797 357.605 339.472 355.331C339.556 355.048 339.64 354.765 339.715 354.48C339.782 354.248 339.844 354.015 339.898 353.783" fill="#1D1D1B"/>
</g>
</g>
<path d="M482.281 198.461C479.671 191.956 481.052 182.329 496.562 176.891C500.943 175.356 505.399 174.538 509.678 174.675C526.221 175.197 520.058 188.959 516.872 199.352L500.955 194.082L482.281 198.461Z" fill="#E06F69"/>
<path d="M483.28 196.815C482.571 194.635 482.03 191.112 483.96 187.469C486.006 183.607 490.305 180.505 496.735 178.251C501.131 176.71 505.371 175.992 509.334 176.117C512.861 176.229 515.468 176.987 517.082 178.369C521.143 181.849 518.783 189.148 516.5 196.206C516.362 196.634 516.224 197.059 516.089 197.481L501.309 192.588L483.28 196.815Z" fill="#FFA89C"/>
<path d="M546.371 292.84C551.322 297.407 560.103 298.619 569.151 283.718C571.707 279.509 573.656 275.02 574.727 270.456C578.863 252.807 565.148 255.508 555.198 255.992L555.375 274.297L546.371 292.84Z" fill="#E06F69"/>
<path d="M548.083 292.241C549.788 293.596 552.711 295.147 556.424 294.117C560.36 293.024 564.259 289.337 568.011 283.159C570.576 278.936 572.379 274.649 573.371 270.42C574.252 266.657 574.315 263.689 573.557 261.597C571.649 256.335 564.628 256.805 557.838 257.261C557.426 257.288 557.017 257.317 556.612 257.342L556.776 274.339L548.083 292.241Z" fill="#FFA89C"/>
<path d="M455.132 239.837C454.011 240.289 454 241.892 455.123 241.849C463.615 242.673 469.466 248.246 469.652 257.855C469.488 258.935 470.824 259.176 471.459 258.196C477.284 247.425 469.837 236.563 455.132 239.837Z" fill="#333333"/>
<path d="M446.591 260.792C445.022 259.779 443.656 258.774 442.531 257.81C439.004 254.788 437.527 251.97 437.889 248.944C438.348 245.056 441.851 240.422 449.242 233.919C461.593 224.617 472.633 223.994 482.053 232.066C485.011 234.601 487.831 238.037 490.427 242.281C494.326 249.22 489.882 252.94 479.457 260.687C478.826 261.152 478.182 261.635 477.527 262.121C469.854 267.154 454.892 265.576 446.591 260.792ZM478.129 263.265C488.732 255.324 496.678 250.27 491.657 241.329C478.343 219.594 462.09 222.631 448.538 232.862C433.698 245.897 432.223 253.374 445.696 262.079C453.731 266.717 469.571 268.924 478.129 263.265" fill="#333333"/>
<path d="M506.634 324.263C498.885 330.244 493.865 332.636 490.354 332.025C487.619 331.55 485.587 329.195 483.957 324.607C483.434 323.147 482.951 321.415 482.509 319.473C480.696 309.336 483.555 293.065 490.101 286.371C490.709 285.816 491.313 285.272 491.893 284.736C501.58 275.901 506.075 272.252 511.009 278.335C513.965 282.281 516.157 286.24 517.523 290.085C521.881 302.327 518.217 313.834 506.634 324.263ZM512.182 277.307C505.826 269.468 499.181 276.444 489.277 285.41C481.936 292.864 479.376 310.239 481.135 320.053C484.897 336.766 491.819 337.32 507.353 325.308C520.083 313.868 527.324 297.533 512.182 277.307" fill="#333333"/>
<path d="M461.32 322.256L457.678 322.513C452.996 322.837 447.721 319.744 446.622 315.341C442.994 302.845 456.564 296.799 456.564 296.799C462.831 302.052 470.372 305.839 473.462 303.463C481.287 298.035 469.89 267.702 458.394 273.47C455.123 275.505 454.413 285.016 455.415 293.927C455.415 293.927 445.265 302.55 436.661 295.302C433.849 292.086 434.011 285.221 436.478 280.587L438.4 276.974C438.626 276.549 438.485 276.09 438.093 275.988C437.766 275.9 437.37 276.099 437.164 276.447L435.935 278.531C432.17 284.919 431.947 293.971 435.956 298.434C438.593 301.369 442.261 302.195 446.398 301.453C443.739 305.392 442.924 310.388 443.92 314.577C444.489 316.981 445.877 319.06 447.749 320.664C450.72 323.21 454.91 324.547 458.973 324.043L461.137 323.775C461.498 323.733 461.833 323.42 461.924 323.043C462.031 322.59 461.753 322.227 461.32 322.256Z" fill="#333333"/>
<path d="M540.152 303.95C560.068 283.898 560.311 258.485 556.812 250.226C576.816 240.342 597.553 244.096 587.344 273.433C584.474 281.684 579.912 289.556 574.165 296.563C554.505 320.536 549.51 312.645 540.152 303.95ZM496.086 342.64C485.328 352.563 466.409 352.35 443.368 339.176C435.78 334.176 430.301 340.062 417.436 325.302L417.453 325.289C408.112 306.256 415.133 302.339 413.188 292.601C409.102 264.174 414.816 244.14 426.657 235.88C463.815 207.161 498.852 189.904 514.633 200.264C523.474 205.165 529.99 211.059 536.803 220.289C547.281 235.602 552.045 246.322 553.976 260.887C557.917 280.779 532.238 312.375 496.086 342.64V342.64ZM418.077 235.788C408.152 246.728 404.066 262.34 409.686 293.826C410.884 301.587 403.95 313.628 414.74 326.32L414.682 326.374C417.403 332.248 420.825 335.485 424.383 337.403C301.359 351.218 368.157 183.327 418.077 235.788V235.788ZM345.989 312.391C343.164 312.805 339.904 313.195 336.925 314.15C330.766 274.442 325.041 256.965 280.11 239.859C323.312 212.333 370.299 206.054 426.844 228.239C426.426 228.501 426.01 228.757 425.605 228.996C423.966 230.247 422.415 231.529 420.96 232.88C377.369 196.336 335.758 268.257 356.028 311.53C352.712 311.638 349.354 311.897 345.989 312.391V312.391ZM335.884 346.855C336.135 348.608 335.932 350.253 335.353 351.79C334.421 347.772 331.445 344.284 328.76 342.169C326.193 340.142 323.291 338.538 320.339 337.056C318.84 336.303 314.918 334.011 312.993 335.814C312.901 335.901 312.873 336.16 312.965 336.142C319.947 342.318 332.936 346.59 329.976 358.322C326.41 360.959 321.544 363.049 316.155 364.579C316.014 363.258 315.548 361.943 315.274 361.06C314.498 358.568 313.284 356.301 311.649 354.433C308.279 350.571 303.629 348.188 299.033 345.951C297.778 345.337 297.584 346.902 298.438 347.468C304.396 351.166 314.114 359.763 311.613 365.711C298.11 368.638 282.855 368.29 276.743 364.418C253.337 343.706 279.474 332.39 245.806 284.831C242.504 280.169 243.652 272.867 248.49 267.722C256.503 259.209 265.294 251.432 274.649 244.573C276.523 243.196 278.75 242.733 280.587 243.342C337.176 262.048 323.777 290.677 335.884 346.855V346.855ZM490.411 167.839C498.193 163.961 506.349 161.596 514.302 161.138C542.583 159.503 539.329 182.564 524.639 200.594C518.665 194.33 496.849 186.665 473.488 201.43C468.968 188.844 463.772 181.117 490.411 167.839ZM523.292 325.671C528.009 321.33 532.774 316.817 537.108 312.287C548.306 320.875 565.393 315.619 579.349 295.781C583.359 290.014 586.712 283.857 589.084 277.467C601.882 243.037 579.133 228.43 555.169 244.869C553.096 238.482 551.305 232.97 548.956 228.006C548.399 226.682 547.665 225.295 546.778 223.859C545.152 221.081 543.239 218.463 540.869 215.942L540.833 215.959C537.327 211.92 533.113 207.814 528.709 204C550.242 183.836 544.836 155.272 511.399 158.044C505.19 158.555 498.878 160.177 492.693 162.611C471.375 171.158 461.548 187.552 465.409 202.047C453.945 208.981 441.895 218.135 432.3 224.663C418.307 217.711 317.407 172.298 242.378 267.619C239.326 271.497 238.061 276.169 238.729 280.215C238.144 279.284 237.834 284.923 238.113 288.742C244.226 298.487 250.276 307.08 256.011 314.614C262.274 334.241 255.472 342.771 262.757 356.272C269.643 369.031 283.327 375.587 298.918 374.397C320.531 372.748 344.988 361.976 342.672 349.224C340.234 338.595 338.752 328.785 337.605 319.724C338.56 319.639 339.539 319.299 340.792 318.898C342.634 318.306 344.478 317.782 346.324 317.324C350.299 316.339 354.21 315.755 358.126 315.527C368.6 333.393 390.987 345.099 430.128 339.569C434.402 340.646 438.431 340.845 441.227 342.49C472.064 361.772 487.081 358.276 501.647 345.895C504.56 342.829 515.043 332.745 519.147 328.998C525.697 332.456 531.691 335.762 537.322 338.946C537.973 338.591 538.66 338.334 539.365 338.212C541.151 337.903 542.894 337.783 544.618 337.702C544.711 337.674 544.806 337.654 544.901 337.63C536.19 333.21 528.649 329.147 523.292 325.671Z" fill="#333333"/>
<path d="M491.799 293.898C490.768 294.297 490.6 295.773 491.586 295.908C499.893 298.822 503.082 306.586 501.401 315.803C501.044 316.978 502.442 317.418 503.152 316.358C510.155 301.735 502.815 290.786 491.799 293.898Z" fill="#333333"/>
<path d="M546.795 338.94C546.935 338.89 547.079 338.847 547.219 338.799C537.53 333.926 529.118 329.45 523.293 325.669C520.048 328.975 517.63 330.223 515.105 332.426C523.971 337.109 532.037 341.326 539.676 345.239C541.115 342.455 543.742 340.041 546.795 338.94Z" fill="#894619"/>
<path d="M551.468 316.089C550.228 316.294 548.183 316.398 545.802 316.018C543.109 315.584 539.982 314.532 537.105 312.288C532.569 317.202 521.51 327.02 516.234 331.563C515.19 332.459 514.371 333.158 513.873 333.565C535.477 358.612 551.446 369.408 559.428 362.944C560.074 349.229 557.099 333.115 551.468 316.089ZM464.776 197.868C464.568 194.387 465.015 190.489 466.119 187.252C453.66 176.7 441.131 168.99 429.368 165.423C421.921 171.451 426.66 192.207 439.449 219.68C440.307 219.071 441.162 218.467 442.013 217.873C449.93 212.305 457.454 207.282 465.402 202.051C465.076 200.792 464.863 199.368 464.776 197.868" fill="#3D2A0B"/>
<path d="M548.96 319.634C547.893 319.67 546.893 318.103 545.803 316.018C543.109 315.585 540.664 313.737 537.787 311.493C533.25 316.408 521.511 327.02 516.234 331.563C532.039 353.445 550.944 364.856 559.271 361.294C559.47 349.387 553.999 335.338 548.96 319.634ZM464.777 197.868C463.382 194.709 461.847 191.285 462.435 188.941C450.93 179.386 441.11 169.607 431.043 166.157C427.337 173.454 431.353 191.442 442.013 217.873C449.931 212.305 457.454 207.282 465.403 202.051C465.076 200.792 464.864 199.369 464.777 197.868Z" fill="#5B451D"/>
<g opacity="0.5">
<g opacity="0.5">
<path opacity="0.5" d="M526.449 330.067C531.866 335.964 537.534 341.605 543.277 347.162C548.33 352.05 553.4 356.916 558.724 361.498C558.911 361.437 559.095 361.37 559.271 361.294C559.47 349.388 553.999 335.34 548.96 319.634C547.893 319.671 546.892 318.104 545.803 316.018C543.109 315.586 540.663 313.738 537.787 311.493C534.671 314.868 528.16 320.93 522.677 325.868C523.92 327.282 525.177 328.683 526.449 330.067Z" fill="#1D1D1B"/>
</g>
</g>
<g opacity="0.5">
<g opacity="0.5">
<path opacity="0.5" d="M441.041 183.76C443.157 193.353 446.179 202.526 449.568 211.463C449.686 211.774 449.808 212.083 449.926 212.394C455.057 208.892 460.137 205.516 465.403 202.051C465.076 200.791 464.863 199.367 464.776 197.867C463.382 194.709 461.847 191.284 462.434 188.94C453.862 181.819 446.225 174.579 438.724 169.922C439.305 174.612 440.043 179.231 441.041 183.76Z" fill="#1D1D1B"/>
</g>
</g>
<g opacity="0.300003">
<g opacity="0.300003">
<path opacity="0.300003" d="M467.611 203.591C482.428 196.774 553.346 300.271 537.517 308.548L504.936 340.316C503.981 295.379 470.848 255.605 432.623 227.696C431.514 228.32 467.611 203.591 467.611 203.591Z" fill="#333333"/>
</g>
</g>
<path d="M429.365 165.424C431.444 163.742 449.659 169.322 471.711 177.254C471.603 198.396 506.388 185.238 531.773 200.875C545.714 206.886 555.724 211.772 556.914 213.579C558.164 215.477 559.36 226.509 560.328 241.792C568.882 275.575 536.494 300.298 562.574 312.118C562.706 338.952 561.844 361.201 559.428 362.947C534.891 293.147 483.403 214.295 429.365 165.424Z" fill="#513E27"/>
<path d="M558.817 352.547C534.119 287.577 487.176 216.222 438.492 169.631C444.213 171.142 453.611 174.032 468.972 179.531C469.263 183.383 470.678 186.352 473.272 188.575C478.079 192.694 486.243 193.512 495.696 194.459C506.724 195.563 519.223 196.815 529.983 203.444L530.11 203.523L530.249 203.582C548.958 211.65 553.329 214.536 554.34 215.402C554.432 215.481 554.483 215.532 554.507 215.558C554.777 216.074 556.089 219.724 557.539 242.598L557.555 242.839L557.612 243.066C561.242 257.406 557.126 269.939 553.494 280.997C549.69 292.576 546.098 303.512 554.877 311.035C556.25 312.212 557.865 313.261 559.786 314.224C559.857 334.235 559.368 345.846 558.817 352.547Z" fill="#8E6D46"/>
<path d="M559.64 334.18C556.623 333.373 553.561 332.688 550.443 332.188C553.457 339.02 556.26 345.817 558.818 352.547C559.151 348.487 559.462 342.621 559.64 334.18Z" fill="#BF9A67"/>
<path d="M559.692 331.415C559.773 326.514 559.81 320.829 559.787 314.224C558.357 313.507 557.099 312.743 555.984 311.915C553.897 317.766 551.714 323.592 549.337 329.36C552.855 329.83 556.301 330.545 559.692 331.415Z" fill="#BF9A67"/>
<path d="M549.705 302.07C549.443 300.556 549.382 298.982 549.481 297.357C548.934 298.739 548.375 300.121 547.809 301.5C548.444 301.685 549.076 301.874 549.705 302.07Z" fill="#BF9A67"/>
<path d="M550.583 305.196C549.322 304.772 548.048 304.378 546.764 304.001C545.289 307.519 543.768 311.023 542.205 314.506C544.192 318.557 546.104 322.606 547.951 326.647C550.129 321.243 552.147 315.792 554.087 310.317C552.454 308.74 551.322 307.025 550.583 305.196Z" fill="#BF9A67"/>
<path d="M549.958 243.736C552.782 244.516 555.566 245.38 558.305 246.332C558.114 245.254 557.89 244.167 557.613 243.067L557.555 242.84L557.54 242.599C557.012 234.276 556.504 228.511 556.056 224.504C555.677 224.375 555.295 224.253 554.915 224.126C554.044 228.615 552.98 233.109 551.739 237.594C551.171 239.643 550.575 241.691 549.958 243.736Z" fill="#BF9A67"/>
<path d="M535.498 301.323C537.337 304.816 539.134 308.312 540.875 311.809C542.111 309.001 543.307 306.181 544.479 303.356C541.536 302.561 538.541 301.884 535.498 301.323Z" fill="#BF9A67"/>
<path d="M531.097 293.125C532.057 294.874 533.002 296.626 533.938 298.378C537.873 299.017 541.738 299.841 545.518 300.857C546.988 297.242 548.402 293.612 549.748 289.967C551.434 285.398 552.977 280.828 554.354 276.24C549.613 274.762 544.752 273.536 539.811 272.516C537.175 279.146 534.375 285.737 531.477 292.275C531.351 292.559 531.223 292.842 531.097 293.125Z" fill="#BF9A67"/>
<path d="M551.469 272.569C552.689 272.908 553.901 273.268 555.11 273.639C556.149 269.998 557.085 266.346 557.896 262.673C558.248 261.075 558.578 259.477 558.9 257.879C559.086 255.123 559.053 252.289 558.739 249.381C555.6 248.252 552.402 247.244 549.152 246.353C546.688 254.257 543.872 262.13 540.819 269.952C544.421 270.727 547.975 271.6 551.469 272.569Z" fill="#BF9A67"/>
<path d="M534.788 240.402C539.166 241.128 543.479 242.036 547.708 243.129C549.694 236.562 551.395 229.967 552.637 223.387C548.257 222.011 543.785 220.835 539.238 219.843C538.843 222.908 538.394 225.975 537.778 229.053C537.02 232.833 536.005 236.621 534.788 240.402Z" fill="#BF9A67"/>
<path d="M524.783 270.015C523.873 269.896 522.959 269.779 522.042 269.666C521.338 271.01 520.626 272.348 519.91 273.678C523.288 279.287 526.553 284.943 529.707 290.623C532.426 284.465 535.02 278.274 537.477 272.053C533.288 271.247 529.049 270.573 524.783 270.015Z" fill="#BF9A67"/>
<path d="M538.488 269.468C539.514 266.827 540.517 264.181 541.49 261.53C543.407 256.309 545.237 251.044 546.896 245.759C542.639 244.671 538.3 243.777 533.894 243.067C531.086 251.164 527.407 259.207 523.402 267.033C528.496 267.65 533.533 268.467 538.488 269.468Z" fill="#BF9A67"/>
<path d="M553.113 220.757C553.433 218.87 553.717 216.985 553.955 215.101C552.762 214.229 549.51 212.27 540.68 208.212C540.267 211.23 539.927 214.244 539.563 217.258C544.162 218.233 548.682 219.399 553.113 220.757Z" fill="#BF9A67"/>
<path d="M537.202 216.778C537.589 213.578 537.951 210.38 538.406 207.175C536.044 206.11 533.347 204.919 530.249 203.583L530.11 203.523L529.983 203.444C528.696 202.651 527.383 201.936 526.051 201.289C524.939 205.697 523.578 210.091 521.99 214.454C527.134 215.026 532.211 215.795 537.202 216.778Z" fill="#BF9A67"/>
<path d="M532.334 240.016C533.946 235.116 535.235 230.181 536.045 225.219C536.364 223.257 536.633 221.302 536.883 219.347C531.699 218.296 526.422 217.487 521.075 216.907C518.277 224.181 514.965 231.262 511.314 238.214C518.423 238.39 525.453 238.986 532.334 240.016Z" fill="#BF9A67"/>
<path d="M515.349 266.232C517.214 266.379 519.074 266.552 520.927 266.754C523.489 261.684 525.893 256.56 528.065 251.362C529.267 248.485 530.395 245.592 531.42 242.688C524.907 241.745 518.261 241.193 511.535 241.007C510.973 240.992 510.41 240.98 509.848 240.966C508.222 243.974 506.539 246.959 504.808 249.926C508.41 255.296 511.927 260.737 515.349 266.232Z" fill="#BF9A67"/>
<path d="M517.116 269.102C517.587 269.867 518.062 270.629 518.529 271.396C518.883 270.723 519.234 270.048 519.584 269.373C518.764 269.278 517.941 269.189 517.116 269.102Z" fill="#BF9A67"/>
<path d="M519.543 214.199C521.224 209.609 522.681 204.972 523.846 200.283C518.616 198.053 513.142 196.769 507.74 195.909C505.843 201.711 503.462 207.5 500.884 213.181C507.171 213.261 513.401 213.593 519.543 214.199Z" fill="#BF9A67"/>
<path d="M491.941 231.538C493.601 233.813 495.245 236.111 496.877 238.421C500.831 238.215 504.775 238.134 508.699 238.176C512.435 231.111 515.809 223.943 518.618 216.656C515.709 216.379 512.781 216.164 509.836 216.021C506.488 215.856 503.108 215.759 499.715 215.727C497.912 219.6 496.034 223.414 494.176 227.141C493.442 228.611 492.695 230.075 491.941 231.538Z" fill="#BF9A67"/>
<path d="M498.658 240.953C500.242 243.22 501.816 245.5 503.371 247.797C504.689 245.514 505.975 243.22 507.228 240.916C504.384 240.874 501.527 240.878 498.658 240.953Z" fill="#BF9A67"/>
<path d="M505.277 195.546C502.015 195.095 498.796 194.77 495.696 194.459C490.442 193.933 485.602 193.435 481.501 192.399C481.148 192.373 480.795 192.351 480.443 192.326C478.346 197.553 476.046 202.706 473.569 207.792C475.273 209.87 476.965 211.979 478.65 214.101C481.991 213.666 485.319 213.448 488.602 213.328C491.832 213.21 495.054 213.153 498.262 213.158C499.733 209.854 501.138 206.532 502.456 203.192C503.454 200.664 504.408 198.112 505.277 195.546Z" fill="#BF9A67"/>
<path d="M497.112 215.718C493.565 215.722 490.003 215.801 486.439 215.967C484.464 216.06 482.47 216.197 480.466 216.408C483.83 220.693 487.158 225.051 490.429 229.492C490.676 229.008 490.926 228.526 491.171 228.043C493.232 223.964 495.222 219.856 497.112 215.718Z" fill="#BF9A67"/>
<path d="M474.359 189.412C473.979 189.15 473.617 188.872 473.272 188.576C470.678 186.353 469.264 183.384 468.973 179.532C466.315 178.58 463.841 177.71 461.528 176.908C460.377 180.884 459.031 184.843 457.525 188.769C463.164 188.889 468.775 189.102 474.359 189.412" fill="#BF9A67"/>
<path d="M459.494 191.399C463.676 196.051 467.824 200.841 471.919 205.785C474.075 201.284 476.08 196.74 477.933 192.156C471.819 191.772 465.668 191.54 459.494 191.399Z" fill="#BF9A67"/>
<path d="M459.299 176.138C449.489 172.778 442.899 170.795 438.493 169.631C444.254 175.146 449.99 181.011 455.667 187.169C457.03 183.516 458.242 179.835 459.299 176.138Z" fill="#BF9A67"/>
<g opacity="0.169998">
<g opacity="0.169998">
<path opacity="0.169998" d="M500.2 203.374C490.692 203.278 480.954 203.749 471.154 204.853C479.243 214.566 487.142 224.805 494.743 235.412C497.281 231.485 500.574 228.071 504.509 225.304C515.123 217.844 528.04 215.015 539.457 213.887C543.415 213.496 547.379 213.329 551.275 213.449C549.562 212.493 546.979 211.162 543.088 209.332C529.438 205.525 515.132 203.525 500.2 203.374Z" fill="#F6F6F6"/>
</g>
</g>
<g opacity="0.169998">
<g opacity="0.169998">
<path opacity="0.169998" d="M557.087 235.994C555.824 219.001 554.749 216.02 554.508 215.558C554.483 215.532 554.432 215.481 554.34 215.402C554.288 215.358 554.226 215.308 554.156 215.254C550.329 224.231 544.56 232.63 536.471 238.609C527.532 245.217 517.157 248.092 507.366 249.01C506.354 249.104 505.348 249.174 504.343 249.232C518.646 270.491 531.645 292.886 542.559 315.226C549.433 276.921 554.428 254.28 557.087 235.994Z" fill="#1D1D1B"/>
</g>
</g>
</svg>
