<svg width="1112" height="1062" viewBox="0 0 1112 1062" fill="none" xmlns="http://www.w3.org/2000/svg">
<g clip-path="url(#clip0)">
<g clip-path="url(#clip1)">
<rect x="-461" y="-78" width="1787" height="1140.04" fill="#F7E3E3"/>
<path d="M1223.2 989.081C1201.82 1011.87 1176 1030.02 1147.32 1042.44C1118.65 1054.85 1087.74 1061.25 1056.5 1061.25H-118.817C-194.34 1061.28 -266.91 1031.91 -321.161 979.373L-319.476 979.093C-147.971 951.702 121.234 934.051 423.916 934.051C759.013 934.051 1053.06 955.682 1218.97 988.238C1220.39 988.504 1221.79 988.784 1223.2 989.081Z" fill="#E8EAF2"/>
<path opacity="0.3" d="M1223.2 989.877C1201.82 1012.66 1176 1030.82 1147.32 1043.23C1118.65 1055.65 1087.74 1062.05 1056.5 1062.04H-118.817C-194.342 1062.07 -266.913 1032.7 -321.161 980.154L-319.476 979.873C-147.971 952.42 121.234 934.831 423.916 934.831C759.013 934.831 1053.06 956.463 1218.97 989.019C1220.39 989.284 1221.79 989.565 1223.2 989.877Z" fill="#D76C6C"/>
<path d="M1219.43 1008.05L1199.81 1080.25C1196.13 1093.8 1188.1 1105.76 1176.94 1114.3C1165.78 1122.83 1152.13 1127.45 1138.08 1127.45H-77.6934C-91.738 1127.45 -105.392 1122.83 -116.548 1114.3C-127.704 1105.76 -135.742 1093.8 -139.423 1080.25L-159.035 1008.05C-176.114 945.135 -131.439 880.896 -66.3075 877.977C-64.7155 877.977 -63.1234 877.857 -61.483 877.857H1121.99C1123.61 877.857 1125.2 877.857 1126.82 877.977C1191.88 880.896 1236.55 945.135 1219.43 1008.05Z" fill="#5B5B5B"/>
<path opacity="0.1" d="M1101.66 910.714C1101.66 988.702 836.989 1051.93 510.514 1051.93C184.039 1051.93 -80.6333 988.702 -80.6333 910.714C-80.6333 899.376 -75.061 888.376 -64.5435 877.859H1085.57C1096.07 888.376 1101.66 899.376 1101.66 910.714Z" fill="black"/>
<path d="M785.582 343.012C785.591 333.645 783.877 324.356 780.523 315.61C797.568 309.571 811.93 297.701 821.072 282.099C830.213 266.497 833.547 248.166 830.483 230.344C827.42 212.523 818.156 196.357 804.329 184.704C790.501 173.05 773 166.658 754.917 166.658C754.911 147.88 748.015 129.758 735.537 115.726C723.059 101.695 705.865 92.7301 687.217 90.5316C668.569 88.3332 649.762 93.054 634.363 103.799C618.964 114.544 608.042 130.566 603.67 148.827C602.967 148.827 602.265 148.827 601.562 148.827C601.579 129.724 594.463 111.303 581.608 97.1716C568.753 83.0407 551.086 74.2183 532.066 72.4326C513.047 70.6469 494.046 76.0265 478.785 87.5178C463.525 99.009 453.104 115.784 449.565 134.556C438.255 125.667 424.672 120.14 410.369 118.606C396.066 117.072 381.62 119.593 368.682 125.881C355.745 132.169 344.837 141.971 337.206 154.165C329.576 166.36 325.53 180.455 325.532 194.84C309.04 194.863 292.995 200.204 279.78 210.069C266.564 219.935 256.882 233.799 252.171 249.604C247.461 265.409 247.972 282.311 253.63 297.802C259.288 313.293 269.79 326.547 283.578 335.595C282.591 340.557 282.095 345.603 282.095 350.662C270.331 350.657 258.723 353.358 248.17 358.558C237.617 363.757 228.402 371.315 221.238 380.647C214.074 389.978 209.153 400.833 206.857 412.371C204.56 423.909 204.949 435.82 207.994 447.184C211.038 458.548 216.657 469.058 224.414 477.902C232.172 486.747 241.86 493.687 252.73 498.187C263.6 502.687 275.359 504.625 287.098 503.852C298.837 503.079 310.241 499.615 320.426 493.728C332.083 500.458 345.305 504.001 358.765 504.001C372.225 504.001 385.447 500.458 397.104 493.728C411.31 501.933 427.775 505.363 444.076 503.514C460.377 501.664 475.654 494.633 487.662 483.455C488.989 483.455 490.316 483.564 491.659 483.564C505.125 483.575 518.354 480.025 530.006 473.275C547.129 483.202 567.441 486.085 586.651 481.316C598.664 490.183 613.005 495.349 627.913 496.181C642.821 497.013 657.648 493.475 670.573 486C682.23 492.73 695.453 496.273 708.912 496.273C722.372 496.273 735.595 492.73 747.251 486C757.437 491.886 768.84 495.35 780.579 496.123C792.318 496.896 804.078 494.958 814.947 490.458C825.817 485.958 835.506 479.018 843.263 470.174C851.021 461.329 856.639 450.819 859.684 439.455C862.728 428.092 863.117 416.18 860.821 404.642C858.524 393.104 853.603 382.249 846.439 372.918C839.275 363.586 830.06 356.028 819.507 350.829C808.954 345.63 797.346 342.928 785.582 342.934V343.012ZM435.435 350.678C435.43 347.378 435.211 344.082 434.779 340.81C436.746 339.889 438.683 338.921 440.556 337.828C443.618 339.62 446.806 341.185 450.096 342.512C446.315 344.965 442.752 347.739 439.448 350.803C438.12 350.709 436.778 350.678 435.435 350.678Z" fill="#D76C6C"/>
<path d="M750.655 554.293C750.382 536.152 742.984 518.845 730.058 506.112C717.132 493.38 699.717 486.242 681.573 486.242C663.429 486.242 646.013 493.38 633.088 506.112C620.162 518.845 612.764 536.152 612.491 554.293C601.89 554.287 591.431 556.721 581.921 561.405C572.412 566.09 564.108 572.899 557.652 581.308C551.196 589.716 546.762 599.497 544.692 609.893C542.622 620.29 542.973 631.024 545.716 641.263C548.46 651.503 553.522 660.973 560.513 668.943C567.503 676.912 576.234 683.165 586.028 687.22C595.823 691.274 606.42 693.02 616.997 692.322C627.575 691.625 637.85 688.503 647.028 683.198C657.527 689.272 669.443 692.471 681.573 692.471C693.703 692.471 705.618 689.272 716.118 683.198C725.293 688.492 735.564 691.604 746.135 692.294C756.705 692.984 767.293 691.234 777.08 687.179C786.866 683.123 795.588 676.871 802.572 668.906C809.556 660.941 814.615 651.476 817.356 641.243C820.098 631.011 820.449 620.285 818.383 609.895C816.317 599.505 811.889 589.73 805.441 581.325C798.993 572.92 790.698 566.11 781.199 561.423C771.699 556.736 761.248 554.296 750.655 554.293Z" fill="#D76C6C"/>
<path opacity="0.1" d="M750.655 554.293C750.382 536.152 742.984 518.845 730.058 506.112C717.132 493.38 699.717 486.242 681.573 486.242C663.429 486.242 646.013 493.38 633.088 506.112C620.162 518.845 612.764 536.152 612.491 554.293C601.89 554.287 591.431 556.721 581.921 561.405C572.412 566.09 564.108 572.899 557.652 581.308C551.196 589.716 546.762 599.497 544.692 609.893C542.622 620.29 542.973 631.024 545.716 641.263C548.46 651.503 553.522 660.973 560.513 668.943C567.503 676.912 576.234 683.165 586.028 687.22C595.823 691.274 606.42 693.02 616.997 692.322C627.575 691.625 637.85 688.503 647.028 683.198C657.527 689.272 669.443 692.471 681.573 692.471C693.703 692.471 705.618 689.272 716.118 683.198C725.293 688.492 735.564 691.604 746.135 692.294C756.705 692.984 767.293 691.234 777.08 687.179C786.866 683.123 795.588 676.871 802.572 668.906C809.556 660.941 814.615 651.476 817.356 641.243C820.098 631.011 820.449 620.285 818.383 609.895C816.317 599.505 811.889 589.73 805.441 581.325C798.993 572.92 790.698 566.11 781.199 561.423C771.699 556.736 761.248 554.296 750.655 554.293Z" fill="black"/>
<path opacity="0.1" d="M785.582 343.012C785.591 333.645 783.877 324.356 780.523 315.61C797.568 309.571 811.93 297.701 821.072 282.099C830.213 266.497 833.547 248.166 830.483 230.344C827.42 212.523 818.156 196.357 804.329 184.704C790.501 173.05 773 166.658 754.917 166.658C754.911 147.88 748.015 129.758 735.537 115.726C723.059 101.695 705.865 92.7301 687.217 90.5316C668.569 88.3332 649.762 93.054 634.363 103.799C618.964 114.544 608.042 130.566 603.67 148.827C602.967 148.827 602.265 148.827 601.562 148.827C601.579 129.724 594.463 111.303 581.608 97.1716C568.753 83.0407 551.086 74.2183 532.066 72.4326C513.047 70.6469 494.046 76.0265 478.785 87.5178C463.525 99.009 453.104 115.784 449.565 134.556C438.255 125.667 424.672 120.14 410.369 118.606C396.066 117.072 381.62 119.593 368.682 125.881C355.745 132.169 344.837 141.971 337.206 154.165C329.576 166.36 325.53 180.455 325.532 194.84C309.04 194.863 292.995 200.204 279.78 210.069C266.564 219.935 256.882 233.799 252.171 249.604C247.461 265.409 247.972 282.311 253.63 297.802C259.288 313.293 269.79 326.547 283.578 335.595C282.591 340.557 282.095 345.603 282.095 350.662C270.331 350.657 258.723 353.358 248.17 358.558C237.617 363.757 228.402 371.315 221.238 380.647C214.074 389.978 209.153 400.833 206.857 412.371C204.56 423.909 204.949 435.82 207.994 447.184C211.038 458.548 216.657 469.058 224.414 477.902C232.172 486.747 241.86 493.687 252.73 498.187C263.6 502.687 275.359 504.625 287.098 503.852C298.837 503.079 310.241 499.615 320.426 493.728C332.083 500.458 345.305 504.001 358.765 504.001C372.225 504.001 385.447 500.458 397.104 493.728C411.31 501.933 427.775 505.363 444.076 503.514C460.377 501.664 475.654 494.633 487.662 483.455C488.989 483.455 490.316 483.564 491.659 483.564C505.125 483.575 518.354 480.025 530.006 473.275C547.129 483.202 567.441 486.085 586.651 481.316C598.664 490.183 613.005 495.349 627.913 496.181C642.821 497.013 657.648 493.475 670.573 486C682.23 492.73 695.453 496.273 708.912 496.273C722.372 496.273 735.595 492.73 747.251 486C757.437 491.886 768.84 495.35 780.579 496.123C792.318 496.896 804.078 494.958 814.947 490.458C825.817 485.958 835.506 479.018 843.263 470.174C851.021 461.329 856.639 450.819 859.684 439.455C862.728 428.092 863.117 416.18 860.821 404.642C858.524 393.104 853.603 382.249 846.439 372.918C839.275 363.586 830.06 356.028 819.507 350.829C808.954 345.63 797.346 342.928 785.582 342.934V343.012ZM435.435 350.678C435.43 347.378 435.211 344.082 434.779 340.81C436.746 339.889 438.683 338.921 440.556 337.828C443.618 339.62 446.806 341.185 450.096 342.512C446.315 344.965 442.752 347.739 439.448 350.803C438.12 350.709 436.778 350.678 435.435 350.678Z" fill="black"/>
<path d="M706.795 714.332C706.795 714.332 707.066 712.942 707.144 712.302C707.488 704.495 709.908 696.438 715.372 690.802C720.837 685.165 728.441 682.386 732.001 675.735C718.986 671.922 705.513 669.9 691.952 669.724C688.502 669.724 684.832 669.724 681.944 671.691C678.4 673.986 676.87 678.327 675.699 682.417C672.107 695.97 669.687 709.241 665.581 722.466L664.504 722.716C649.983 725.838 631.716 723.418 625.049 710.35C626.714 703.759 628.8 697.282 631.294 690.958C639.101 671.519 651.061 654.048 662.88 636.732C670.53 625.501 678.192 614.28 685.863 603.07C674.379 599.607 662.714 596.777 650.92 594.592C648.422 594.123 645.596 593.749 643.519 595.216C642.109 596.419 641.074 598.001 640.537 599.775C629.264 627.442 615.446 657.717 611.527 688.132C609.333 686.94 607.076 685.867 604.767 684.916L568.45 669.427C566.528 668.781 564.791 667.677 563.391 666.211C560.081 662.104 563.391 655.578 568.231 653.392C573.072 651.206 578.552 651.831 583.845 651.362C589.138 650.894 594.977 648.973 596.944 644.071C599.224 638.434 594.868 632.064 589.544 629.113C584.22 626.162 577.959 625.335 572.369 622.868C568.071 620.858 564.301 617.874 561.357 614.153C558.414 610.432 556.379 606.076 555.413 601.43L546.747 601.024C558.176 590.095 570.027 579.618 583.642 571.577C590.215 567.69 597.179 564.395 603.299 559.82C611.359 553.641 617.671 545.468 621.613 536.108C625.555 526.748 626.992 516.522 625.782 506.438C625.002 500.567 623.331 494.494 625.189 488.873C626.751 484.298 630.279 480.785 633.761 477.459L665.128 447.45C645.163 442.903 624.705 440.889 604.236 441.455C599.052 441.611 593.697 441.954 589.06 444.296C580.597 448.575 576.569 458.255 573.259 467.139C570.737 473.397 568.696 479.838 567.154 486.406C564.843 497.492 565.187 509.639 558.926 519.054C553.961 526.517 545.701 530.92 538.285 535.948C517.15 550.343 501.376 571.332 493.427 595.638C492.928 597.199 492.085 599.198 491.117 601.43C472.74 602.992 454.737 606.489 437.734 613.64C416.36 622.633 397.701 636.92 379.387 651.112C359.214 666.726 337.996 684.197 330.907 708.742C323.022 735.987 335.185 765.871 354.655 786.497C370.581 803.344 390.785 815.21 411.16 825.874C424.479 832.837 426.696 831.417 438.39 822.049L469.836 796.848C478.813 789.666 487.947 782.297 494.052 772.554C502.468 759.142 504.544 742.108 514.74 729.976C528.698 713.348 557.161 711.958 572.697 727.119C577.162 731.491 581.05 737.205 587.139 738.657C590.106 739.375 593.385 738.969 596.101 740.218C601.285 742.685 602.066 749.587 603.908 754.958C608.982 769.431 626.22 777.004 641.38 774.833C656.541 772.663 669.609 762.811 679.867 751.413C682.662 748.291 685.426 744.981 689.235 743.123C692.283 741.767 695.479 741.095 698.814 741.092C701.631 740.153 704.917 718.557 706.795 714.332Z" fill="#5B5B5B"/>
<path opacity="0.1" d="M706.724 714.07C706.698 713.425 706.995 712.68 707.073 712.039C707.416 704.233 709.836 696.176 715.301 690.54C720.766 684.903 728.37 682.124 731.93 675.473C718.915 671.66 705.441 669.637 691.881 669.462C688.43 669.462 684.761 669.462 681.873 671.429C678.329 673.724 676.798 678.065 675.627 682.155C672.036 695.708 669.616 708.979 665.51 722.204L664.433 722.453C649.912 725.576 631.644 723.156 624.977 710.088C626.642 703.497 628.729 697.02 631.223 690.696C639.029 671.257 650.989 653.786 662.809 636.47C670.459 625.239 678.12 614.018 685.792 602.808C674.308 599.345 662.643 596.515 650.849 594.33C648.351 593.861 645.525 593.487 643.448 594.954C642.038 596.157 641.003 597.739 640.466 599.513C629.193 627.18 615.375 657.455 611.456 687.87C609.261 686.678 607.005 685.605 604.695 684.653L568.379 669.165C566.456 668.519 564.72 667.415 563.32 665.948C560.01 661.842 563.32 655.316 568.16 653.13C573 650.944 578.48 651.568 583.773 651.1C589.066 650.632 594.906 648.711 596.873 643.809C599.153 638.172 594.797 631.802 589.472 628.851C584.148 625.9 577.887 625.072 572.298 622.606C568 620.596 564.229 617.612 561.286 613.891C558.343 610.17 556.307 605.814 555.341 601.168L546.676 600.762C558.105 589.833 569.956 579.356 583.57 571.315C590.144 567.428 597.107 564.133 603.228 559.559C611.288 553.379 617.6 545.206 621.542 535.846C625.484 526.486 626.921 516.26 625.711 506.176C624.93 500.306 623.26 494.232 625.118 488.611C626.679 484.036 630.208 480.523 633.69 477.198L665.057 447.189C645.092 442.642 624.633 440.627 604.165 441.193C598.981 441.349 593.626 441.693 588.988 444.035C580.526 448.313 576.498 457.993 573.188 466.877C570.666 473.135 568.625 479.576 567.083 486.144C564.772 497.23 565.115 509.377 558.854 518.792C553.889 526.255 545.63 530.658 538.213 535.686C517.078 550.081 501.305 571.07 493.356 595.376C492.856 596.937 492.013 598.936 491.045 601.168C472.668 602.73 454.666 606.227 437.663 613.378C416.288 622.371 397.63 636.658 379.315 650.85C359.143 666.464 337.924 683.935 330.835 708.479C322.951 735.725 335.114 765.609 354.584 786.234C370.509 803.081 390.713 814.948 411.089 825.611C424.407 832.575 426.624 831.154 438.319 821.786L469.764 796.586C478.742 789.404 487.876 782.034 493.98 772.292C502.396 758.88 504.473 741.845 514.668 729.714C528.627 713.085 557.09 711.696 572.625 726.857C577.091 731.228 580.979 736.943 587.068 738.395C590.034 739.113 593.313 738.707 596.03 739.956C601.214 742.423 601.994 749.324 603.837 754.695C608.911 769.169 626.148 776.741 641.309 774.571C656.47 772.401 669.538 762.549 679.796 751.151C682.591 748.028 685.355 744.718 689.164 742.86C692.212 741.505 698.845 740.799 698.845 740.799C698.845 740.799 695.186 726.37 706.724 714.07Z" fill="black"/>
<path d="M472.193 528.593C472.193 490.199 431.754 459.097 381.854 459.097C331.953 459.097 291.514 490.168 291.514 528.593C241.551 528.593 201.175 559.695 201.175 598.088C201.175 636.482 241.614 667.568 291.514 667.568C307.06 667.635 322.447 664.443 336.684 658.2C350.949 664.349 366.32 667.521 381.854 667.521C397.388 667.521 412.758 664.349 427.023 658.2C441.26 664.443 456.647 667.635 472.193 667.568C522.156 667.568 562.532 636.466 562.532 598.088C562.532 559.71 522.094 528.593 472.193 528.593Z" fill="#D76C6C"/>
<path opacity="0.1" d="M472.193 528.593C472.193 490.199 431.754 459.097 381.854 459.097C331.953 459.097 291.514 490.168 291.514 528.593C241.551 528.593 201.175 559.695 201.175 598.088C201.175 636.482 241.614 667.568 291.514 667.568C307.06 667.635 322.447 664.443 336.684 658.2C350.949 664.349 366.32 667.521 381.854 667.521C397.388 667.521 412.758 664.349 427.023 658.2C441.26 664.443 456.647 667.635 472.193 667.568C522.156 667.568 562.532 636.466 562.532 598.088C562.532 559.71 522.094 528.593 472.193 528.593Z" fill="black"/>
<path d="M665.939 921.099L614.149 897.258C609.996 895.337 605.39 892.948 604.094 888.545C603.633 886.163 603.633 883.714 604.094 881.332C605.34 868.941 602.647 856.473 596.397 845.702C592.509 839.035 587.247 833.039 584.921 825.67C579.956 810.056 589.605 793.522 590.073 777.065C590.588 761.046 582.266 745.635 570.416 734.784C566.903 731.552 563.046 728.539 560.283 724.713C552.257 713.44 555.599 698.17 559.408 684.696L560.392 683.79C561.126 683.072 560.579 679.996 559.236 675.437C574.207 671.445 588.32 664.746 600.878 655.671C604.859 652.782 608.684 649.613 613.368 647.77C619.801 645.194 627.092 645.491 633.588 643.086C645.704 638.574 652.433 625.911 658.07 614.295C671.419 586.831 685.003 558.446 686.689 527.953C675.729 519.474 662.406 514.607 648.561 514.025C646.25 513.932 643.627 514.025 642.113 515.836C641.262 516.986 640.724 518.336 640.551 519.755C635.821 541.518 627.657 562.389 616.366 581.585C611.853 589.649 606.316 597.096 599.894 603.74C592.087 611.547 582.501 617.371 573.07 623.163C565.138 628.019 554.521 632.75 545.512 638.324C539.267 622.273 533.568 607.628 534.302 605.38C542.143 580.892 542.448 554.614 535.176 529.951C533.365 523.831 531.054 517.788 530.492 511.418C529.93 505.048 531.195 498.771 531.694 492.432C532.678 479.863 530.758 467.263 530.836 454.647C530.929 437.566 534.677 420.735 538.408 404.06C528.031 402.205 517.464 401.638 506.947 402.373C504.874 402.381 502.837 402.919 501.03 403.935C498.407 405.637 497.423 408.916 496.533 411.913C489.585 435.193 476.985 456.443 469.506 479.566C462.027 502.69 460.419 529.779 474.331 549.702C479.28 556.775 486.197 563.176 487.29 571.733C487.868 576.261 486.681 580.804 485.494 585.223C483.386 593.139 517.299 678.201 519.188 686.054C519.188 686.273 519.313 686.46 519.36 686.663C518.298 686.897 517.221 687.1 516.143 687.35C514.712 709.47 506.156 730.532 491.755 747.384C489.843 741.946 488.488 736.327 487.711 730.615C486.54 722.028 486.65 713.175 483.98 704.931C479.983 692.628 470.334 683.197 461.902 673.407C446.722 655.738 434.734 635.561 426.476 613.78C420.111 616.142 413.59 618.057 406.959 619.51C403.446 620.291 391.345 620.306 389.44 623.444C386.505 628.128 399.62 649.909 402.212 654.921C411.346 672.549 426.741 686.32 435.781 703.994C439.551 711.838 442.669 719.98 445.102 728.336C450.036 743.949 454.97 759.563 458.748 775.426C454.221 780.11 450.645 785.824 446.757 791.149C432.97 809.906 414.725 824.932 393.672 834.866C391.158 836.053 388.379 837.38 387.301 839.941C387.119 840.378 386.983 840.833 386.895 841.299C378.308 835.241 370.283 828.48 364.693 819.674C362.226 815.771 360.275 811.54 357.589 807.792C348.549 795.192 332.732 789.868 319.789 781.25C314.324 777.627 309.234 773.334 303.192 770.789C296.556 767.978 289.218 767.447 282.036 766.963C276.149 766.557 253.572 761.858 250.668 767.119C246.546 774.567 259.615 785.45 264.845 788.073C273.542 792.429 283.488 793.537 292.575 796.988C300.789 800.364 308.415 805.022 315.167 810.79C318.119 812.966 320.702 815.602 322.818 818.597C325.066 822.11 326.112 826.248 328.002 829.964C334.06 841.877 347.159 847.326 358.885 854.336C355.773 854.472 352.712 855.164 349.845 856.382C341.117 860.347 337.057 870.168 331.374 877.897C326.3 884.751 319.617 890.232 314.028 896.633C308.438 903.035 303.785 911.044 304.207 919.554C304.472 924.94 306.642 930.826 303.785 935.401C310.358 938.243 318.446 941.647 325.566 942.505C332.686 943.364 340.399 942.006 345.723 937.212C347.372 935.453 349.14 933.81 351.016 932.294C355.528 929.281 361.711 930.124 366.536 932.591C371.36 935.058 375.342 938.914 379.76 942.084C386.069 946.551 393.259 949.62 400.849 951.088C408.439 952.555 416.255 952.387 423.774 950.593C426.897 949.844 431.378 949.203 430.41 946.206C423.802 943.121 418.176 938.268 414.155 932.183C410.135 926.099 407.876 919.02 407.63 911.731C412.546 910.793 417.626 911.21 422.323 912.937C427.021 914.664 431.16 917.637 434.298 921.536C429.957 921.724 427.084 927.563 429.614 931.123C437.883 930.959 445.992 928.814 453.262 924.87C460.532 920.925 466.75 915.295 471.395 908.452C474.804 907.056 478.51 906.543 482.17 906.962C485.83 907.38 489.324 908.717 492.329 910.848C495.334 912.979 497.751 915.835 499.357 919.15C500.963 922.466 501.705 926.133 501.514 929.812L524.091 940.96C527.635 942.708 531.398 944.504 535.348 944.238C539.298 943.973 543.326 940.788 543.03 936.853C542.686 932.341 537.268 927.735 540.235 924.363C545.544 926.736 549.603 931.42 555.052 933.465C560.501 935.51 568.526 932.778 568.23 926.97C567.989 925.035 567.24 923.198 566.06 921.646C559.955 912.344 551.839 904.533 542.312 898.788C541.609 893.682 553.241 888.077 556.77 891.886L585.373 923.41C587.599 926.122 590.232 928.472 593.18 930.374C603.407 936.291 616.179 930.374 627.982 930.374C640.754 930.374 653.823 937.65 665.704 933.012C668.827 931.81 671.95 928.859 671.06 925.643C670.357 923.332 668.031 922.13 665.939 921.099Z" fill="#5B5B5B"/>
<path d="M743.226 333.753C743.232 325.965 741.803 318.243 739.01 310.973C753.183 305.946 765.124 296.073 772.725 283.097C780.325 270.121 783.096 254.876 780.549 240.056C778.001 225.235 770.299 211.791 758.801 202.098C747.304 192.405 732.752 187.086 717.714 187.08C717.698 171.469 711.957 156.405 701.579 144.743C691.2 133.081 676.905 125.631 661.401 123.803C645.898 121.975 630.262 125.896 617.456 134.824C604.649 143.753 595.563 157.068 591.916 172.247C591.338 172.247 590.761 172.247 590.167 172.247C590.238 156.318 584.344 140.94 573.645 129.138C562.947 117.337 548.219 109.967 532.359 108.479C516.5 106.991 500.658 111.492 487.951 121.098C475.244 130.703 466.592 144.717 463.698 160.381C454.293 152.989 442.997 148.392 431.103 147.117C419.209 145.841 407.195 147.938 396.436 153.168C385.678 158.397 376.607 166.549 370.262 176.69C363.917 186.831 360.553 198.553 360.556 210.516C346.83 210.523 333.473 214.96 322.47 223.166C311.467 231.372 303.406 242.909 299.484 256.063C295.563 269.217 295.99 283.285 300.703 296.176C305.416 309.067 314.163 320.094 325.644 327.617C324.831 331.731 324.418 335.914 324.411 340.107C314.623 340.099 304.965 342.344 296.183 346.667C287.402 350.99 279.734 357.277 273.772 365.039C267.811 372.802 263.715 381.833 261.804 391.432C259.892 401.031 260.216 410.942 262.749 420.396C265.282 429.85 269.957 438.594 276.412 445.952C282.867 453.309 290.929 459.083 299.973 462.824C309.018 466.566 318.802 468.176 328.568 467.53C338.334 466.884 347.821 463.999 356.293 459.098C365.987 464.703 376.986 467.655 388.184 467.655C399.381 467.655 410.381 464.703 420.074 459.098C431.885 465.928 445.578 468.785 459.135 467.247C472.692 465.71 485.397 459.859 495.378 450.557C496.487 450.557 497.595 450.635 498.719 450.635C509.914 450.645 520.912 447.699 530.602 442.095C544.876 450.365 561.803 452.771 577.817 448.808C587.802 456.192 599.727 460.498 612.126 461.197C624.525 461.896 636.858 458.958 647.609 452.743C657.3 458.347 668.297 461.298 679.492 461.298C690.687 461.298 701.684 458.347 711.375 452.743C719.845 457.632 729.326 460.508 739.084 461.147C748.843 461.786 758.618 460.173 767.654 456.43C776.689 452.688 784.743 446.917 791.192 439.565C797.64 432.212 802.312 423.475 804.844 414.029C807.376 404.583 807.702 394.681 805.795 385.088C803.889 375.496 799.802 366.471 793.85 358.711C787.898 350.951 780.241 344.664 771.471 340.336C762.701 336.008 753.053 333.756 743.273 333.753H743.226ZM452.004 340.139C451.996 337.397 451.814 334.66 451.457 331.942C453.019 331.161 454.705 330.38 456.251 329.459C458.81 330.927 461.465 332.221 464.198 333.331C461.046 335.363 458.079 337.667 455.33 340.217C454.237 340.17 453.112 340.139 452.004 340.139Z" fill="#D76C6C"/>
<path d="M743.227 556.962C743.359 548.503 741.807 540.103 738.662 532.249C735.516 524.396 730.84 517.247 724.905 511.218C718.97 505.19 711.895 500.402 704.092 497.134C696.289 493.866 687.913 492.183 679.454 492.183C670.994 492.183 662.619 493.866 654.815 497.134C647.012 500.402 639.937 505.19 634.002 511.218C628.067 517.247 623.391 524.396 620.245 532.249C617.1 540.103 615.548 548.503 615.68 556.962C605.902 556.967 596.257 559.22 587.489 563.548C578.72 567.876 571.065 574.162 565.114 581.921C559.164 589.68 555.077 598.703 553.17 608.293C551.264 617.884 551.588 627.784 554.118 637.229C556.649 646.674 561.317 655.41 567.763 662.763C574.209 670.116 582.259 675.887 591.292 679.632C600.324 683.376 610.097 684.994 619.855 684.358C629.612 683.723 639.092 680.852 647.563 675.968C657.257 681.563 668.253 684.509 679.446 684.509C690.639 684.509 701.634 681.563 711.329 675.968C719.798 680.857 729.279 683.733 739.038 684.372C748.797 685.012 758.572 683.398 767.608 679.655C776.643 675.913 784.697 670.142 791.145 662.79C797.594 655.438 802.265 646.7 804.798 637.254C807.33 627.808 807.656 617.906 805.749 608.314C803.843 598.721 799.756 589.696 793.804 581.936C787.852 574.176 780.195 567.889 771.425 563.561C762.655 559.233 753.007 556.981 743.227 556.978V556.962Z" fill="#D76C6C"/>
<path d="M464.759 531.45C464.759 496.226 427.63 467.685 381.851 467.685C336.072 467.685 298.944 496.226 298.944 531.45C253.165 531.45 216.052 560.007 216.052 595.216C216.052 630.424 253.165 658.997 298.944 658.997C313.208 659.074 327.329 656.159 340.397 650.441C353.489 656.085 367.595 658.996 381.851 658.996C396.107 658.996 410.214 656.085 423.305 650.441C436.373 656.159 450.495 659.074 464.759 658.997C510.537 658.997 547.651 630.44 547.651 595.216C547.651 559.992 510.537 531.45 464.759 531.45Z" fill="#D76C6C"/>
<path d="M309.579 718.516C309.715 709.496 308.057 700.54 304.7 692.168C301.343 683.795 296.354 676.174 290.024 669.748C283.695 663.322 276.15 658.218 267.829 654.735C259.509 651.251 250.579 649.457 241.558 649.457C232.538 649.457 223.608 651.251 215.287 654.735C206.967 658.218 199.422 663.322 193.092 669.748C186.763 676.174 181.774 683.795 178.417 692.168C175.06 700.54 173.402 709.496 173.538 718.516C163.1 718.509 152.801 720.905 143.437 725.517C134.073 730.129 125.896 736.834 119.539 745.113C113.182 753.392 108.816 763.023 106.778 773.26C104.74 783.497 105.085 794.066 107.786 804.149C110.487 814.231 115.473 823.557 122.356 831.404C129.239 839.25 137.836 845.408 147.481 849.4C157.125 853.392 167.559 855.11 177.975 854.423C188.39 853.736 198.508 850.661 207.544 845.437C217.885 851.411 229.616 854.556 241.558 854.556C253.5 854.556 265.232 851.411 275.572 845.437C284.607 850.65 294.72 853.715 305.128 854.395C315.537 855.075 325.963 853.352 335.599 849.359C345.235 845.366 353.824 839.21 360.7 831.367C367.577 823.524 372.558 814.204 375.258 804.129C377.957 794.054 378.303 783.492 376.268 773.262C374.234 763.032 369.874 753.406 363.525 745.13C357.176 736.854 349.008 730.15 339.654 725.535C330.3 720.92 320.009 718.518 309.579 718.516Z" fill="#D76C6C"/>
<path opacity="0.1" d="M309.579 718.516C309.715 709.496 308.057 700.54 304.7 692.168C301.343 683.795 296.354 676.174 290.024 669.748C283.695 663.322 276.15 658.218 267.829 654.735C259.509 651.251 250.579 649.457 241.558 649.457C232.538 649.457 223.608 651.251 215.287 654.735C206.967 658.218 199.422 663.322 193.092 669.748C186.763 676.174 181.774 683.795 178.417 692.168C175.06 700.54 173.402 709.496 173.538 718.516C163.1 718.509 152.801 720.905 143.437 725.517C134.073 730.129 125.896 736.834 119.539 745.113C113.182 753.392 108.816 763.023 106.778 773.26C104.74 783.497 105.085 794.066 107.786 804.149C110.487 814.231 115.473 823.557 122.356 831.404C129.239 839.25 137.836 845.408 147.481 849.4C157.125 853.392 167.559 855.11 177.975 854.423C188.39 853.736 198.508 850.661 207.544 845.437C217.885 851.411 229.616 854.556 241.558 854.556C253.5 854.556 265.232 851.411 275.572 845.437C284.607 850.65 294.72 853.715 305.128 854.395C315.537 855.075 325.963 853.352 335.599 849.359C345.235 845.366 353.824 839.21 360.7 831.367C367.577 823.524 372.558 814.204 375.258 804.129C377.957 794.054 378.303 783.492 376.268 773.262C374.234 763.032 369.874 753.406 363.525 745.13C357.176 736.854 349.008 730.15 339.654 725.535C330.3 720.92 320.009 718.518 309.579 718.516Z" fill="black"/>
<path d="M305.33 720.638C305.462 712.18 303.91 703.779 300.765 695.926C297.619 688.073 292.943 680.924 287.008 674.895C281.073 668.866 273.998 664.079 266.195 660.811C258.391 657.543 250.016 655.86 241.556 655.86C233.097 655.86 224.721 657.543 216.918 660.811C209.115 664.079 202.04 668.866 196.105 674.895C190.17 680.924 185.494 688.073 182.348 695.926C179.203 703.779 177.651 712.18 177.783 720.638C168.003 720.639 158.354 722.89 149.582 727.216C140.81 731.542 133.151 737.828 127.198 745.587C121.244 753.347 117.155 762.372 115.247 771.965C113.339 781.557 113.663 791.46 116.195 800.907C118.726 810.354 123.396 819.093 129.845 826.446C136.294 833.799 144.347 839.571 153.383 843.314C162.419 847.057 172.195 848.672 181.954 848.033C191.714 847.394 201.195 844.518 209.666 839.628C219.363 845.223 230.361 848.169 241.556 848.169C252.752 848.169 263.75 845.223 273.447 839.628C281.917 844.518 291.399 847.394 301.159 848.033C310.918 848.672 320.694 847.057 329.73 843.314C338.766 839.571 346.819 833.799 353.268 826.446C359.716 819.093 364.387 810.354 366.918 800.907C369.449 791.46 369.774 781.557 367.866 771.965C365.958 762.372 361.869 753.347 355.915 745.587C349.961 737.828 342.302 731.542 333.531 727.216C324.759 722.89 315.11 720.639 305.33 720.638Z" fill="#D76C6C"/>
<path opacity="0.1" d="M505.136 201.96C520.002 201.959 534.369 207.331 545.587 217.086C556.806 226.841 564.121 240.322 566.184 255.045C567.403 246.647 566.874 238.088 564.632 229.904C562.389 221.72 558.481 214.087 553.152 207.483C547.823 200.879 541.188 195.447 533.662 191.526C526.137 187.605 517.882 185.281 509.417 184.698C500.951 184.115 492.456 185.286 484.464 188.138C476.471 190.99 469.154 195.461 462.97 201.272C456.786 207.083 451.868 214.108 448.525 221.908C445.182 229.707 443.485 238.113 443.54 246.598C443.548 249.445 443.746 252.288 444.134 255.108C446.186 240.383 453.489 226.895 464.698 217.129C475.908 207.363 490.268 201.975 505.136 201.96Z" fill="black"/>
<path opacity="0.1" d="M631.715 312.019C645.234 318.227 656.053 329.114 662.176 342.672C668.299 356.23 669.314 371.545 665.034 385.793C669.582 378.669 672.616 370.686 673.949 362.34C675.281 353.995 674.883 345.464 672.78 337.278C670.676 329.093 666.911 321.427 661.72 314.758C656.529 308.089 650.021 302.558 642.602 298.51C635.183 294.462 627.011 291.983 618.593 291.227C610.176 290.471 601.693 291.453 593.671 294.114C585.649 296.775 578.26 301.057 571.963 306.694C565.667 312.331 560.596 319.203 557.067 326.883C555.888 329.471 554.886 332.137 554.069 334.861C562.077 322.326 574.348 313.11 588.618 308.912C602.888 304.714 618.195 305.817 631.715 312.019Z" fill="black"/>
<path opacity="0.1" d="M451.035 358.781C464.554 364.989 475.373 375.876 481.496 389.434C487.62 402.992 488.635 418.307 484.354 432.554C485.883 430.155 487.249 427.657 488.445 425.075C495.173 410.232 495.75 393.327 490.048 378.059C484.345 362.792 472.829 350.403 458.017 343.604C443.205 336.805 426.304 336.149 411.009 341.778C395.715 347.408 383.272 358.865 376.403 373.645C375.223 376.233 374.222 378.899 373.405 381.623C381.412 369.092 393.68 359.878 407.947 355.68C422.213 351.482 437.516 352.584 451.035 358.781Z" fill="black"/>
<path opacity="0.1" d="M386.863 556.26C393.56 562.136 397.906 570.236 399.099 579.066C400.293 587.895 398.254 596.858 393.359 604.302C394.651 603.189 395.867 601.989 396.996 600.711C403.454 593.348 406.723 583.722 406.083 573.95C405.443 564.177 400.948 555.059 393.585 548.601C389.939 545.404 385.7 542.955 381.108 541.396C376.516 539.837 371.662 539.198 366.823 539.515C357.051 540.154 347.933 544.65 341.475 552.013C340.339 553.296 339.296 554.658 338.352 556.088C345.096 550.254 353.723 547.058 362.64 547.09C371.557 547.122 380.161 550.379 386.863 556.26Z" fill="black"/>
<path opacity="0.1" d="M243.58 725.791C250.717 720.436 259.552 717.848 268.451 718.505C277.349 719.163 285.709 723.021 291.981 729.367C291.164 727.872 290.24 726.437 289.218 725.073C283.278 717.435 274.578 712.433 264.988 711.144C255.399 709.855 245.686 712.381 237.94 718.179C230.194 723.977 225.033 732.585 223.568 742.149C222.103 751.713 224.45 761.47 230.105 769.322C231.126 770.68 232.237 771.969 233.431 773.178C229.124 765.384 227.779 756.295 229.644 747.587C231.509 738.879 236.458 731.138 243.58 725.791Z" fill="black"/>
<path opacity="0.1" d="M672.966 587.612C680.105 582.26 688.939 579.673 697.837 580.331C706.735 580.988 715.094 584.844 721.369 591.187C720.549 589.693 719.626 588.258 718.605 586.894C715.737 582.912 712.105 579.543 707.921 576.981C703.736 574.42 699.083 572.718 694.233 571.975C689.384 571.232 684.434 571.463 679.675 572.654C674.915 573.846 670.441 575.973 666.513 578.914C662.586 581.854 659.283 585.547 656.799 589.778C654.314 594.009 652.698 598.692 652.045 603.555C651.391 608.417 651.713 613.361 652.991 618.098C654.27 622.835 656.48 627.269 659.491 631.142C660.513 632.51 661.629 633.804 662.833 635.014C658.523 627.219 657.175 618.129 659.037 609.419C660.899 600.708 665.846 592.964 672.966 587.612Z" fill="black"/>
<path d="M605.997 863.939C601.906 860.816 602.422 853.274 602.422 853.274C602.422 853.274 609.557 850.901 613.648 854.07C617.739 857.24 619.332 862.034 617.224 864.75C615.116 867.467 610.088 867.124 605.997 863.939Z" fill="#D76C6C"/>
<path d="M620.05 946.69C615.96 943.567 616.475 936.026 616.475 936.026C616.475 936.026 623.61 933.653 627.701 936.822C631.791 939.992 633.384 944.785 631.276 947.502C629.168 950.219 624.141 949.875 620.05 946.69Z" fill="#D76C6C"/>
<path d="M605.997 954.496C601.906 951.374 602.422 943.832 602.422 943.832C602.422 943.832 609.557 941.459 613.648 944.629C617.739 947.798 619.332 952.591 617.224 955.308C615.116 958.025 610.088 957.681 605.997 954.496Z" fill="#D76C6C"/>
<path d="M702.803 893.605C698.713 890.482 699.228 882.941 699.228 882.941C699.228 882.941 706.363 880.568 710.454 883.737C714.545 886.907 716.137 891.7 714.029 894.416C711.922 897.133 706.894 896.79 702.803 893.605Z" fill="#D76C6C"/>
<path d="M300.476 652.158C303.677 648.098 311.187 648.691 311.187 648.691C311.187 648.691 313.466 655.858 310.25 659.917C307.033 663.977 302.24 665.523 299.539 663.384C296.838 661.245 297.26 656.217 300.476 652.158Z" fill="#D76C6C"/>
<path opacity="0.1" d="M347.519 351.583C369.076 351.583 386.552 334.107 386.552 312.55C386.552 290.992 369.076 273.516 347.519 273.516C325.962 273.516 308.486 290.992 308.486 312.55C308.486 334.107 325.962 351.583 347.519 351.583Z" fill="#D76C6C"/>
<path opacity="0.3" d="M880.42 986.491C880.962 985.056 881.847 983.777 882.998 982.765C884.149 981.753 885.531 981.038 887.022 980.685C888.614 980.326 890.245 980.174 891.876 980.232C901.755 980.404 909.247 984.914 918.268 986.99C926.883 989.034 936.699 988.925 946.142 988.769C952.067 988.862 957.988 988.392 963.824 987.364C973.189 985.367 979.432 980.654 985.175 976.19" fill="#D76C6C"/>
<path opacity="0.3" d="M967.82 1020.83C968.361 1019.39 969.246 1018.11 970.398 1017.1C971.549 1016.09 972.93 1015.37 974.422 1015.02C976.014 1014.66 977.645 1014.51 979.276 1014.57C989.155 1014.74 996.646 1019.25 1005.67 1021.33C1014.28 1023.37 1024.1 1023.26 1033.54 1023.1C1039.47 1023.2 1045.39 1022.73 1051.22 1021.7C1060.59 1019.7 1066.83 1014.99 1072.57 1010.53" fill="#D76C6C"/>
<path opacity="0.3" d="M894.467 1013.1C894.722 1012.67 895.071 1012.31 895.488 1012.04C895.904 1011.77 896.377 1011.6 896.87 1011.54C897.457 1011.43 898.054 1011.39 898.649 1011.41C902.255 1011.41 904.986 1012.71 908.279 1013.32C911.647 1013.81 915.054 1013.98 918.455 1013.83C920.61 1013.86 922.765 1013.72 924.9 1013.43C927.691 1012.94 930.349 1011.88 932.704 1010.31" fill="#D76C6C"/>
<path opacity="0.3" d="M910.074 995.933C910.33 995.507 910.679 995.145 911.095 994.875C911.512 994.604 911.985 994.432 912.478 994.372C913.064 994.266 913.661 994.225 914.257 994.247C917.862 994.247 920.593 995.543 923.886 996.152C927.254 996.642 930.661 996.814 934.062 996.667C936.218 996.692 938.372 996.556 940.508 996.261C943.298 995.777 945.956 994.713 948.311 993.139" fill="#D76C6C"/>
<path opacity="0.1" d="M842.292 960.442C840.478 960.643 838.728 961.228 837.158 962.159C839.858 960.333 846.038 960.801 849.206 960.489C853.25 960.341 857.249 959.583 861.067 958.242C854.763 958.514 848.488 959.249 842.292 960.442Z" fill="black"/>
<path d="M-35.7095 1061.2C-35.7095 1061.2 94.0782 1000.65 142.944 1021.89C191.809 1043.13 306.583 1038.88 306.583 1038.88C306.583 1038.88 510.535 1030.46 533.946 1038.88C557.356 1047.31 769.798 1047.39 780.411 1038.88C791.024 1030.38 912.15 1024.01 931.284 1038.88C943.007 1047.95 955.861 1055.45 969.521 1061.2H-35.7095Z" fill="#E8EAF2"/>
<path opacity="0.3" d="M-35.7095 1061.2C-35.7095 1061.2 94.0781 989.269 142.944 1014.51C191.809 1039.74 306.552 1034.7 306.552 1034.7C306.552 1034.7 510.535 1024.6 533.914 1034.7C557.293 1044.8 769.767 1044.8 780.379 1034.7C790.992 1024.6 912.118 1017.03 931.252 1034.7C942.684 1045.3 955.557 1054.23 969.489 1061.23L-35.7095 1061.2Z" fill="#D76C6C"/>
</g>
</g>
<defs>
<clipPath id="clip0">
<rect width="1112" height="1062" rx="15" fill="white"/>
</clipPath>
<clipPath id="clip1">
<rect x="-461" y="-78" width="1787" height="1140.04" fill="white"/>
</clipPath>
</defs>
</svg>
