<svg width="795" height="42" viewBox="0 0 795 42" fill="none" xmlns="http://www.w3.org/2000/svg">
<path d="M2 7.79363C22.4744 0.719162 32.9613 27.5277 52.9363 24.9213C72.9114 22.3149 75.9076 8.91065 100.377 7.79363C124.846 6.67661 128.841 27.1553 152.312 26.783C175.783 26.4107 182.774 7.04893 203.748 5.93191C224.722 4.81489 233.211 23.4319 249.69 23.4319C266.17 23.4319 273.66 3.69788 299.129 4.81489C324.597 5.9319 333.086 29.7617 354.559 26.783C376.032 23.8043 382.524 1.83617 402 4.81489V36.9316L2 39.538V7.79363Z" fill="#DCA6A6"/>
<path d="M392.5 5.25566C412.974 -1.8188 423.461 24.9897 443.436 22.3833C463.411 19.7769 466.408 6.37268 490.877 5.25566C515.346 4.13864 519.341 24.6174 542.812 24.245C566.283 23.8727 573.274 4.51097 594.248 3.39395C615.222 2.27692 623.711 20.894 640.19 20.894C656.67 20.894 664.16 1.15992 689.629 2.27693C715.097 3.39393 723.586 27.2237 745.059 24.245C766.532 21.2663 773.024 -0.701797 792.5 2.27693V34.3936L392.5 37V5.25566Z" fill="#DCA6A6"/>
<path d="M2 7.79363C22.4744 0.719162 32.9613 27.5277 52.9363 24.9213C72.9114 22.3149 75.9076 8.91065 100.377 7.79363C124.846 6.67661 128.841 27.1553 152.312 26.783C175.783 26.4107 182.774 7.04893 203.748 5.93191C224.722 4.81489 233.211 23.4319 249.69 23.4319C266.17 23.4319 273.66 3.69788 299.129 4.81489C324.597 5.9319 333.086 29.7617 354.559 26.783C376.032 23.8043 382.524 1.83617 402 4.81489V36.9316L2 39.538V7.79363Z" stroke="#DCA6A6" stroke-width="4"/>
<path d="M392.5 5.25566C412.974 -1.8188 423.461 24.9897 443.436 22.3833C463.411 19.7769 466.408 6.37268 490.877 5.25566C515.346 4.13864 519.341 24.6174 542.812 24.245C566.283 23.8727 573.274 4.51097 594.248 3.39395C615.222 2.27692 623.711 20.894 640.19 20.894C656.67 20.894 664.16 1.15992 689.629 2.27693C715.097 3.39393 723.586 27.2237 745.059 24.245C766.532 21.2663 773.024 -0.701797 792.5 2.27693V34.3936L392.5 37V5.25566Z" stroke="#DCA6A6" stroke-width="4"/>
</svg>
