<svg width="41" height="40" viewBox="0 0 41 40" fill="none" xmlns="http://www.w3.org/2000/svg">
<path d="M34.0361 -5.02734e-06L0 13.0519L6.23558 39.958L40.2717 26.9061L34.0361 -5.02734e-06Z" fill="url(#paint0_linear)"/>
<path d="M33.4572 0.950474L0.574463 13.5601L6.39453 38.6732L39.2773 26.0636L33.4572 0.950474Z" fill="white"/>
<path d="M25.2811 23.2207C25.141 23.4712 24.8788 23.7437 24.4944 24.0383C24.1243 24.3274 23.6887 24.5678 23.1874 24.7594C22.5858 24.9893 22.04 25.0995 21.5499 25.0899C21.0548 25.0659 20.6731 24.9247 20.4048 24.6662C20.1315 24.3933 19.7897 24.04 19.3793 23.6062C18.9639 23.1579 18.514 22.6571 18.0297 22.1039C17.5597 21.5452 17.0629 20.9558 16.5391 20.3356C16.0245 19.6955 15.5147 19.0454 15.0095 18.3853C14.5042 17.7252 14.0184 17.0741 13.5519 16.4321C13.0854 15.79 12.6626 15.1804 12.2836 14.6034C12.4136 14.324 12.6372 14.0334 12.9542 13.7318C13.2805 13.4101 13.6585 13.1672 14.0882 13.003C14.6181 12.8004 15.0881 12.752 15.498 12.8579C15.9173 12.9437 16.3114 13.2607 16.6803 13.8088C17.5603 15.0804 18.4202 16.294 19.2599 17.4497C20.1089 18.5855 20.9923 19.7737 21.9102 21.0144L22.0391 20.9651C21.9527 19.4558 21.8307 17.8207 21.673 16.0597C21.5297 14.2933 21.3674 12.5423 21.1861 10.8067C21.3986 10.5779 21.633 10.3652 21.8892 10.1688C22.1598 9.96694 22.4813 9.79484 22.8537 9.6525C23.3836 9.44994 23.8776 9.4006 24.3355 9.50448C24.7884 9.59388 25.1105 9.91377 25.3018 10.4641C25.4125 10.7828 25.4948 11.2764 25.5487 11.9449C25.6169 12.608 25.6626 13.3699 25.6859 14.2306C25.7184 15.0713 25.7278 15.9619 25.7139 16.9025C25.7144 17.8375 25.6925 18.7319 25.6485 19.5855C25.6137 20.4192 25.5655 21.1677 25.504 21.8311C25.4375 22.4801 25.3632 22.9433 25.2811 23.2207Z" fill="#DCA6A6"/>
<defs>
<linearGradient id="paint0_linear" x1="-8104.58" y1="16093.1" x2="-8735.25" y2="14448.5" gradientUnits="userSpaceOnUse">
<stop stop-color="#808080" stop-opacity="0.25"/>
<stop offset="0.54" stop-color="#808080" stop-opacity="0.12"/>
<stop offset="1" stop-color="#808080" stop-opacity="0.1"/>
</linearGradient>
</defs>
</svg>
