<svg width="41" height="39" viewBox="0 0 41 39" fill="none" xmlns="http://www.w3.org/2000/svg">
<path d="M34.0361 5.96279e-06L0 12.4451L6.23558 38.1003L40.2717 25.6551L34.0361 5.96279e-06Z" fill="url(#paint0_linear)"/>
<path d="M33.4572 0.906239L0.574463 12.9296L6.39453 36.8752L39.2773 24.8518L33.4572 0.906239Z" fill="white"/>
<path d="M12.8132 14.9679C12.8117 14.74 12.8391 14.5015 12.8952 14.2526C12.9514 14.0037 13.0442 13.7658 13.1737 13.5391C13.3124 13.2927 13.493 13.0718 13.7156 12.8765C13.9329 12.6667 14.2 12.5041 14.517 12.3886C14.9347 12.2363 15.3415 12.2105 15.7372 12.3111C16.1276 12.3972 16.5804 12.632 17.0955 13.0155L19.7183 14.9727L20.8645 10.3934C20.9587 10.2937 21.0988 10.1856 21.2848 10.0688C21.4799 9.93246 21.6783 9.82751 21.8799 9.754C22.5426 9.51248 23.119 9.48192 23.6091 9.66235C24.0992 9.84277 24.4282 10.1635 24.5962 10.6245C24.7433 11.0279 24.7665 11.4274 24.6659 11.8231C24.5797 12.2135 24.4379 12.6977 24.2405 13.2756L23.0071 16.8096L28.3646 20.5608C28.4436 21.1359 28.3464 21.6527 28.0729 22.1114C27.8086 22.5505 27.3523 22.8882 26.704 23.1244C26.2862 23.2767 25.8893 23.3071 25.5133 23.2157C25.132 23.1099 24.691 22.8626 24.1903 22.4739L21.4318 20.3458L20.2054 25.444C20.0954 25.5004 19.99 25.547 19.8891 25.5837C19.7936 25.6349 19.6953 25.6788 19.5945 25.7156C18.7733 26.0149 18.1079 26.0697 17.5981 25.8801C17.0884 25.6906 16.7443 25.3509 16.5658 24.8611C16.4135 24.4433 16.3687 24.0516 16.4313 23.6861C16.5031 23.3009 16.6285 22.839 16.8076 22.3004L18.0133 18.5562L12.8132 14.9679Z" fill="black"/>
<defs>
<linearGradient id="paint0_linear" x1="-8104.58" y1="15344.9" x2="-8684.72" y2="13758.2" gradientUnits="userSpaceOnUse">
<stop stop-color="#808080" stop-opacity="0.25"/>
<stop offset="0.54" stop-color="#808080" stop-opacity="0.12"/>
<stop offset="1" stop-color="#808080" stop-opacity="0.1"/>
</linearGradient>
</defs>
</svg>
